<?xml version="1.0" encoding="utf-8"?>
<!-- Generator: Adobe Illustrator 25.2.3, SVG Export Plug-In . SVG Version: 6.00 Build 0)  -->
<svg version="1.1" id="Layer_1" xmlns="http://www.w3.org/2000/svg" xmlns:xlink="http://www.w3.org/1999/xlink" x="0px" y="0px"
	 viewBox="0 0 1904 572.8" style="enable-background:new 0 0 1904 572.8;" xml:space="preserve">
<style type="text/css">
	.st0{clip-path:url(#SVGID_2_);fill:#FFFFFF;}
	.st1{fill:#FFFFFF;}
	.st2{fill:none;stroke:#262626;stroke-width:0.6667;stroke-linejoin:round;stroke-miterlimit:10;}
	.st3{fill:#0072BD;fill-opacity:0.6;}
	.st4{fill:none;stroke:#000000;stroke-width:0.6667;stroke-miterlimit:10;}
	.st5{fill:#7E2F8E;fill-opacity:0.6;}
	.st6{fill:none;stroke:#000000;stroke-width:0.6667;stroke-linejoin:round;stroke-miterlimit:10;}
	.st7{fill:none;stroke:#000000;stroke-miterlimit:10;}
	.st8{fill:none;stroke:#0072BD;stroke-miterlimit:10;}
	.st9{fill:none;stroke:#7E2F8E;stroke-miterlimit:10;}
	.st10{fill:none;stroke:#262626;stroke-width:0.6667;stroke-linecap:square;stroke-linejoin:round;stroke-miterlimit:10;}
	.st11{fill:#262626;}
	.st12{font-family:'ArialMT';}
	.st13{font-size:29.3333px;}
	.st14{enable-background:new    ;}
	.st15{font-size:33px;}
</style>
<g>
	<g>
		<g>
			<g>
				<g>
					<defs>
						<rect id="SVGID_1_" y="40.8" width="1904" height="483"/>
					</defs>
					<clipPath id="SVGID_2_">
						<use xlink:href="#SVGID_1_"  style="overflow:visible;"/>
					</clipPath>
					<rect y="40.8" class="st0" width="1904" height="483"/>
				</g>
			</g>
		</g>
	</g>
</g>
<g>
	<rect y="40.8" class="st1" width="1904" height="483"/>
	<path class="st1" d="M248,433.8h1475v-343H248V433.8z"/>
</g>
<g>
	<line class="st2" x1="248" y1="433.8" x2="1723" y2="433.8"/>
</g>
<g>
	<path class="st3" d="M275,433.8V316h-13.5v117.8H275z M334.1,433.8V318.5h-13.5v115.3H334.1z M393.1,433.8v-99.4h-13.5v99.4H393.1z
		 M452.2,433.8V307.5h-13.5v126.3H452.2z M511.3,433.8v-122h-13.5v122H511.3z M570.3,433.8V329.9h-13.5v103.9H570.3z M629.4,433.8
		V381h-13.5v52.8H629.4z M688.5,433.8V322H675v111.8H688.5z M747.5,433.8V322.4H734v111.4H747.5z M806.6,433.8V326.4h-13.5v107.4
		H806.6z M865.7,433.8V258.7h-13.5v175.1L865.7,433.8L865.7,433.8z M924.7,433.8V251.1h-13.5v182.7H924.7z M983.8,433.8V258.4h-13.5
		v175.4H983.8z M1042.9,433.8V260.1h-13.5v173.7H1042.9z M1101.9,433.8V226.4h-13.5v207.4H1101.9z M1161,433.8V244.2h-13.5v189.6
		H1161z M1220.1,433.8v-201h-13.5v201H1220.1z M1279.1,433.8V270.3h-13.5v163.5H1279.1z M1338.2,433.8v-192h-13.5v192H1338.2z
		 M1397.3,433.8V232.6h-13.5v201.2H1397.3z M1456.4,433.8V277.1h-13.5v156.7H1456.4z M1515.4,433.8V221.7h-13.5v212.1H1515.4z
		 M1574.5,433.8V236.3H1561v197.5H1574.5z M1633.6,433.8V235.1h-13.5v198.7H1633.6z M1692.6,433.8V225.4h-13.5v208.4H1692.6z"/>
</g>
<g>
	<path class="st4" d="M261.5,433.8V316H275v117.8H261.5z"/>
	<path class="st4" d="M320.6,433.8V318.5h13.5v115.3H320.6z"/>
	<path class="st4" d="M379.6,433.8v-99.4h13.5v99.4H379.6z"/>
	<path class="st4" d="M438.7,433.8V307.5h13.5v126.3H438.7z"/>
	<path class="st4" d="M497.8,433.8v-122h13.5v122H497.8z"/>
	<path class="st4" d="M556.8,433.8V329.9h13.5v103.9H556.8z"/>
	<path class="st4" d="M615.9,433.8V381h13.5v52.8H615.9z"/>
	<path class="st4" d="M675,433.8V322h13.5v111.8H675z"/>
	<path class="st4" d="M734,433.8V322.4h13.5v111.4H734z"/>
	<path class="st4" d="M793.1,433.8V326.4h13.5v107.4H793.1z"/>
	<path class="st4" d="M852.2,433.8V258.7h13.5v175.1L852.2,433.8L852.2,433.8z"/>
	<path class="st4" d="M911.2,433.8V251.1h13.5v182.7H911.2z"/>
	<path class="st4" d="M970.3,433.8V258.4h13.5v175.4H970.3z"/>
	<path class="st4" d="M1029.4,433.8V260.1h13.5v173.7H1029.4z"/>
	<path class="st4" d="M1088.4,433.8V226.4h13.5v207.4H1088.4z"/>
	<path class="st4" d="M1147.5,433.8V244.2h13.5v189.6H1147.5z"/>
	<path class="st4" d="M1206.6,433.8v-201h13.5v201H1206.6z"/>
	<path class="st4" d="M1265.6,433.8V270.3h13.5v163.5H1265.6z"/>
	<path class="st4" d="M1324.7,433.8v-192h13.5v192H1324.7z"/>
	<path class="st4" d="M1383.8,433.8V232.6h13.5v201.2H1383.8z"/>
	<path class="st4" d="M1442.9,433.8V277.1h13.5v156.7H1442.9z"/>
	<path class="st4" d="M1501.9,433.8V221.7h13.5v212.1H1501.9z"/>
	<path class="st4" d="M1561,433.8V236.3h13.5v197.5H1561z"/>
	<path class="st4" d="M1620.1,433.8V235.1h13.5v198.7H1620.1z"/>
	<path class="st4" d="M1679.1,433.8V225.4h13.5v208.4H1679.1z"/>
</g>
<g>
	<path class="st5" d="M291.9,433.8V250.9h-13.5v182.9H291.9z M350.9,433.8v-77.7h-13.5v77.7H350.9z M410,433.8V193.2h-13.5v240.6
		H410z M469.1,433.8V302.4h-13.5v131.4H469.1z M528.1,433.8V241.6h-13.5v192.2H528.1z M587.2,433.8v-161h-13.5v161H587.2z
		 M646.3,433.8v-212h-13.5v212H646.3z M705.4,433.8V253.1h-13.5v180.7H705.4z M764.4,433.8V276.2h-13.5v157.6L764.4,433.8
		L764.4,433.8z M823.5,433.8v-136H810v136H823.5z M882.6,433.8V255.4h-13.5v178.4H882.6z M941.6,433.8V245.9h-13.5v187.9H941.6z
		 M1000.7,433.8V328h-13.5v105.8H1000.7z M1059.8,433.8V279.9h-13.5v153.9H1059.8z M1118.8,433.8V300h-13.5v133.8H1118.8z
		 M1177.9,433.8V286.1h-13.5v147.7H1177.9z M1237,433.8V280.9h-13.5v152.9H1237z M1296,433.8v-139h-13.5v139H1296z M1355.1,433.8
		V286.3h-13.5v147.5H1355.1z M1414.2,433.8V281.3h-13.5v152.5H1414.2z M1473.2,433.8V252.3h-13.5v181.5H1473.2z M1532.3,433.8V291.7
		h-13.5v142.1L1532.3,433.8L1532.3,433.8z M1591.4,433.8V252.4h-13.5v181.4H1591.4z M1650.4,433.8V237h-13.5v196.8H1650.4z
		 M1709.5,433.8V227.5H1696v206.3H1709.5z"/>
</g>
<g>
	<path class="st4" d="M278.4,433.8V250.9h13.5v182.9H278.4z"/>
	<path class="st4" d="M337.4,433.8v-77.7h13.5v77.7H337.4z"/>
	<path class="st4" d="M396.5,433.8V193.2H410v240.6H396.5z"/>
	<path class="st4" d="M455.6,433.8V302.4h13.5v131.4H455.6z"/>
	<path class="st4" d="M514.6,433.8V241.6h13.5v192.2H514.6z"/>
	<path class="st4" d="M573.7,433.8v-161h13.5v161H573.7z"/>
	<path class="st4" d="M632.8,433.8v-212h13.5v212H632.8z"/>
	<path class="st4" d="M691.9,433.8V253.1h13.5v180.7H691.9z"/>
	<path class="st4" d="M750.9,433.8V276.2h13.5v157.6L750.9,433.8L750.9,433.8z"/>
	<path class="st4" d="M810,433.8v-136h13.5v136H810z"/>
	<path class="st4" d="M869.1,433.8V255.4h13.5v178.4H869.1z"/>
	<path class="st4" d="M928.1,433.8V245.9h13.5v187.9H928.1z"/>
	<path class="st4" d="M987.2,433.8V328h13.5v105.8H987.2z"/>
	<path class="st4" d="M1046.3,433.8V279.9h13.5v153.9H1046.3z"/>
	<path class="st4" d="M1105.3,433.8V300h13.5v133.8H1105.3z"/>
	<path class="st4" d="M1164.4,433.8V286.1h13.5v147.7H1164.4z"/>
	<path class="st4" d="M1223.5,433.8V280.9h13.5v152.9H1223.5z"/>
	<path class="st4" d="M1282.5,433.8v-139h13.5v139H1282.5z"/>
	<path class="st4" d="M1341.6,433.8V286.3h13.5v147.5H1341.6z"/>
	<path class="st4" d="M1400.7,433.8V281.3h13.5v152.5H1400.7z"/>
	<path class="st4" d="M1459.7,433.8V252.3h13.5v181.5H1459.7z"/>
	<path class="st4" d="M1518.8,433.8V291.7h13.5v142.1L1518.8,433.8L1518.8,433.8z"/>
	<path class="st4" d="M1577.9,433.8V252.4h13.5v181.4H1577.9z"/>
	<path class="st4" d="M1636.9,433.8V237h13.5v196.8H1636.9z"/>
	<path class="st4" d="M1696,433.8V227.5h13.5v206.3H1696z"/>
	<line class="st6" x1="268.3" y1="316" x2="268.3" y2="345.3"/>
	<line class="st6" x1="327.3" y1="318.5" x2="327.3" y2="353.5"/>
	<line class="st6" x1="386.4" y1="334.4" x2="386.4" y2="369.2"/>
	<line class="st6" x1="445.5" y1="307.5" x2="445.5" y2="338"/>
	<line class="st6" x1="504.5" y1="311.8" x2="504.5" y2="347.9"/>
	<line class="st6" x1="563.6" y1="329.9" x2="563.6" y2="366"/>
	<line class="st6" x1="622.7" y1="381" x2="622.7" y2="426.6"/>
	<line class="st6" x1="681.7" y1="322" x2="681.7" y2="364.8"/>
	<line class="st6" x1="740.8" y1="322.4" x2="740.8" y2="357.2"/>
	<line class="st6" x1="799.9" y1="326.4" x2="799.9" y2="365.9"/>
	<line class="st6" x1="858.9" y1="258.7" x2="858.9" y2="296.5"/>
	<line class="st6" x1="918" y1="251.1" x2="918" y2="284.1"/>
	<line class="st6" x1="977.1" y1="258.4" x2="977.1" y2="291.2"/>
	<line class="st6" x1="1036.1" y1="260.1" x2="1036.1" y2="293.5"/>
	<line class="st6" x1="1095.2" y1="226.4" x2="1095.2" y2="250.1"/>
	<line class="st6" x1="1154.3" y1="244.2" x2="1154.3" y2="269.6"/>
	<line class="st6" x1="1213.3" y1="232.8" x2="1213.3" y2="261.7"/>
	<line class="st6" x1="1272.4" y1="270.3" x2="1272.4" y2="304.9"/>
	<line class="st6" x1="1331.5" y1="241.8" x2="1331.5" y2="267.9"/>
	<line class="st6" x1="1390.5" y1="232.6" x2="1390.5" y2="253.2"/>
	<line class="st6" x1="1449.6" y1="277.1" x2="1449.6" y2="304.7"/>
	<line class="st6" x1="1508.7" y1="221.7" x2="1508.7" y2="244.1"/>
	<line class="st6" x1="1567.7" y1="236.3" x2="1567.7" y2="256.2"/>
	<line class="st6" x1="1626.8" y1="235.1" x2="1626.8" y2="249.6"/>
	<line class="st6" x1="1685.9" y1="225.4" x2="1685.9" y2="245.7"/>
	<line class="st6" x1="268.3" y1="316" x2="268.3" y2="286.7"/>
	<line class="st6" x1="327.3" y1="318.5" x2="327.3" y2="283.5"/>
	<line class="st6" x1="386.4" y1="334.4" x2="386.4" y2="299.6"/>
	<line class="st6" x1="445.5" y1="307.5" x2="445.5" y2="276.9"/>
	<line class="st6" x1="504.5" y1="311.8" x2="504.5" y2="275.7"/>
	<line class="st6" x1="563.6" y1="329.9" x2="563.6" y2="293.8"/>
	<line class="st6" x1="622.7" y1="381" x2="622.7" y2="335.5"/>
	<line class="st6" x1="681.7" y1="322" x2="681.7" y2="279.2"/>
	<line class="st6" x1="740.8" y1="322.4" x2="740.8" y2="287.7"/>
	<line class="st6" x1="799.9" y1="326.4" x2="799.9" y2="286.8"/>
	<line class="st6" x1="858.9" y1="258.7" x2="858.9" y2="220.8"/>
	<line class="st6" x1="918" y1="251.1" x2="918" y2="218.2"/>
	<line class="st6" x1="977.1" y1="258.4" x2="977.1" y2="225.5"/>
	<line class="st6" x1="1036.1" y1="260.1" x2="1036.1" y2="226.6"/>
	<line class="st6" x1="1095.2" y1="226.4" x2="1095.2" y2="202.6"/>
	<line class="st6" x1="1154.3" y1="244.2" x2="1154.3" y2="218.8"/>
	<line class="st6" x1="1213.3" y1="232.8" x2="1213.3" y2="203.8"/>
	<line class="st6" x1="1272.4" y1="270.3" x2="1272.4" y2="235.7"/>
	<line class="st6" x1="1331.5" y1="241.8" x2="1331.5" y2="215.6"/>
	<line class="st6" x1="1390.5" y1="232.6" x2="1390.5" y2="212"/>
	<line class="st6" x1="1449.6" y1="277.1" x2="1449.6" y2="249.6"/>
	<line class="st6" x1="1508.7" y1="221.7" x2="1508.7" y2="199.4"/>
	<line class="st6" x1="1567.7" y1="236.3" x2="1567.7" y2="216.5"/>
	<line class="st6" x1="1626.8" y1="235.1" x2="1626.8" y2="220.6"/>
	<line class="st6" x1="1685.9" y1="225.4" x2="1685.9" y2="205.1"/>
</g>
<g transform="translate(268.2517,304.5415)">
	<path d="M-4,40.8h8"/>
</g>
<g transform="translate(268.2517,304.5415)">
	<path class="st7" d="M-4,40.8h8"/>
</g>
<g transform="translate(327.3192,312.6981)">
	<path d="M-4,40.8h8"/>
</g>
<g transform="translate(327.3192,312.6981)">
	<path class="st7" d="M-4,40.8h8"/>
</g>
<g transform="translate(386.3867,328.358)">
	<path d="M-4,40.8h8"/>
</g>
<g transform="translate(386.3867,328.358)">
	<path class="st7" d="M-4,40.8h8"/>
</g>
<g transform="translate(445.4542,297.1848)">
	<path d="M-4,40.8h8"/>
</g>
<g transform="translate(445.4542,297.1848)">
	<path class="st7" d="M-4,40.8h8"/>
</g>
<g transform="translate(504.5217,307.0916)">
	<path d="M-4,40.8h8"/>
</g>
<g transform="translate(504.5217,307.0916)">
	<path class="st7" d="M-4,40.8h8"/>
</g>
<g transform="translate(563.5892,325.2077)">
	<path d="M-4,40.8h8"/>
</g>
<g transform="translate(563.5892,325.2077)">
	<path class="st7" d="M-4,40.8h8"/>
</g>
<g transform="translate(622.6567,385.7595)">
	<path d="M-4,40.8h8"/>
</g>
<g transform="translate(622.6567,385.7595)">
	<path class="st7" d="M-4,40.8h8"/>
</g>
<g transform="translate(681.7242,324.0143)">
	<path d="M-4,40.8h8"/>
</g>
<g transform="translate(681.7242,324.0143)">
	<path class="st7" d="M-4,40.8h8"/>
</g>
<g transform="translate(740.7917,316.3678)">
	<path d="M-4,40.8h8"/>
</g>
<g transform="translate(740.7917,316.3678)">
	<path class="st7" d="M-4,40.8h8"/>
</g>
<g transform="translate(799.8593,325.1316)">
	<path d="M-4,40.8h8"/>
</g>
<g transform="translate(799.8593,325.1316)">
	<path class="st7" d="M-4,40.8h8"/>
</g>
<g transform="translate(858.9268,255.7485)">
	<path d="M-4,40.8h8"/>
</g>
<g transform="translate(858.9268,255.7485)">
	<path class="st7" d="M-4,40.8h8"/>
</g>
<g transform="translate(917.9943,243.2601)">
	<path d="M-4,40.8h8"/>
</g>
<g transform="translate(917.9943,243.2601)">
	<path class="st7" d="M-4,40.8h8"/>
</g>
<g transform="translate(977.0618,250.3924)">
	<path d="M-4,40.8h8"/>
</g>
<g transform="translate(977.0618,250.3924)">
	<path class="st7" d="M-4,40.8h8"/>
</g>
<g transform="translate(1036.1293,252.7421)">
	<path d="M-4,40.8h8"/>
</g>
<g transform="translate(1036.1293,252.7421)">
	<path class="st7" d="M-4,40.8h8"/>
</g>
<g transform="translate(1095.1968,209.3209)">
	<path d="M-4,40.8h8"/>
</g>
<g transform="translate(1095.1968,209.3209)">
	<path class="st7" d="M-4,40.8h8"/>
</g>
<g transform="translate(1154.2643,228.7951)">
	<path d="M-4,40.8h8"/>
</g>
<g transform="translate(1154.2643,228.7951)">
	<path class="st7" d="M-4,40.8h8"/>
</g>
<g transform="translate(1213.3318,220.9058)">
	<path d="M-4,40.8h8"/>
</g>
<g transform="translate(1213.3318,220.9058)">
	<path class="st7" d="M-4,40.8h8"/>
</g>
<g transform="translate(1272.3993,264.1403)">
	<path d="M-4,40.8h8"/>
</g>
<g transform="translate(1272.3993,264.1403)">
	<path class="st7" d="M-4,40.8h8"/>
</g>
<g transform="translate(1331.4668,227.0872)">
	<path d="M-4,40.8h8"/>
</g>
<g transform="translate(1331.4668,227.0872)">
	<path class="st7" d="M-4,40.8h8"/>
</g>
<g transform="translate(1390.5343,212.4211)">
	<path d="M-4,40.8h8"/>
</g>
<g transform="translate(1390.5343,212.4211)">
	<path class="st7" d="M-4,40.8h8"/>
</g>
<g transform="translate(1449.6018,263.9057)">
	<path d="M-4,40.8h8"/>
</g>
<g transform="translate(1449.6018,263.9057)">
	<path class="st7" d="M-4,40.8h8"/>
</g>
<g transform="translate(1508.6693,203.2555)">
	<path d="M-4,40.8h8"/>
</g>
<g transform="translate(1508.6693,203.2555)">
	<path class="st7" d="M-4,40.8h8"/>
</g>
<g transform="translate(1567.7368,215.3762)">
	<path d="M-4,40.8h8"/>
</g>
<g transform="translate(1567.7368,215.3762)">
	<path class="st7" d="M-4,40.8h8"/>
</g>
<g transform="translate(1626.8043,208.8461)">
	<path d="M-4,40.8h8"/>
</g>
<g transform="translate(1626.8043,208.8461)">
	<path class="st7" d="M-4,40.8h8"/>
</g>
<g transform="translate(1685.8718,204.8961)">
	<path d="M-4,40.8h8"/>
</g>
<g transform="translate(1685.8718,204.8961)">
	<path class="st7" d="M-4,40.8h8"/>
</g>
<g transform="translate(268.2517,245.9069)">
	<path d="M-4,40.8h8"/>
</g>
<g transform="translate(268.2517,245.9069)">
	<path class="st7" d="M-4,40.8h8"/>
</g>
<g transform="translate(327.3192,242.6503)">
	<path d="M-4,40.8h8"/>
</g>
<g transform="translate(327.3192,242.6503)">
	<path class="st7" d="M-4,40.8h8"/>
</g>
<g transform="translate(386.3867,258.8351)">
	<path d="M-4,40.8h8"/>
</g>
<g transform="translate(386.3867,258.8351)">
	<path class="st7" d="M-4,40.8h8"/>
</g>
<g transform="translate(445.4542,236.1402)">
	<path d="M-4,40.8h8"/>
</g>
<g transform="translate(445.4542,236.1402)">
	<path class="st7" d="M-4,40.8h8"/>
</g>
<g transform="translate(504.5217,234.8739)">
	<path d="M-4,40.8h8"/>
</g>
<g transform="translate(504.5217,234.8739)">
	<path class="st7" d="M-4,40.8h8"/>
</g>
<g transform="translate(563.5892,253.0351)">
	<path d="M-4,40.8h8"/>
</g>
<g transform="translate(563.5892,253.0351)">
	<path class="st7" d="M-4,40.8h8"/>
</g>
<g transform="translate(622.6567,294.7279)">
	<path d="M-4,40.8h8"/>
</g>
<g transform="translate(622.6567,294.7279)">
	<path class="st7" d="M-4,40.8h8"/>
</g>
<g transform="translate(681.7242,238.3763)">
	<path d="M-4,40.8h8"/>
</g>
<g transform="translate(681.7242,238.3763)">
	<path class="st7" d="M-4,40.8h8"/>
</g>
<g transform="translate(740.7917,246.8548)">
	<path d="M-4,40.8h8"/>
</g>
<g transform="translate(740.7917,246.8548)">
	<path class="st7" d="M-4,40.8h8"/>
</g>
<g transform="translate(799.8593,246.0095)">
	<path d="M-4,40.8h8"/>
</g>
<g transform="translate(799.8593,246.0095)">
	<path class="st7" d="M-4,40.8h8"/>
</g>
<g transform="translate(858.9268,179.9695)">
	<path d="M-4,40.8h8"/>
</g>
<g transform="translate(858.9268,179.9695)">
	<path class="st7" d="M-4,40.8h8"/>
</g>
<g transform="translate(917.9943,177.4135)">
	<path d="M-4,40.8h8"/>
</g>
<g transform="translate(917.9943,177.4135)">
	<path class="st7" d="M-4,40.8h8"/>
</g>
<g transform="translate(977.0618,184.725)">
	<path d="M-4,40.8h8"/>
</g>
<g transform="translate(977.0618,184.725)">
	<path class="st7" d="M-4,40.8h8"/>
</g>
<g transform="translate(1036.1293,185.8388)">
	<path d="M-4,40.8h8"/>
</g>
<g transform="translate(1036.1293,185.8388)">
	<path class="st7" d="M-4,40.8h8"/>
</g>
<g transform="translate(1095.1968,161.788)">
	<path d="M-4,40.8h8"/>
</g>
<g transform="translate(1095.1968,161.788)">
	<path class="st7" d="M-4,40.8h8"/>
</g>
<g transform="translate(1154.2643,178.0372)">
	<path d="M-4,40.8h8"/>
</g>
<g transform="translate(1154.2643,178.0372)">
	<path class="st7" d="M-4,40.8h8"/>
</g>
<g transform="translate(1213.3318,163.0055)">
	<path d="M-4,40.8h8"/>
</g>
<g transform="translate(1213.3318,163.0055)">
	<path class="st7" d="M-4,40.8h8"/>
</g>
<g transform="translate(1272.3993,194.9179)">
	<path d="M-4,40.8h8"/>
</g>
<g transform="translate(1272.3993,194.9179)">
	<path class="st7" d="M-4,40.8h8"/>
</g>
<g transform="translate(1331.4668,174.8208)">
	<path d="M-4,40.8h8"/>
</g>
<g transform="translate(1331.4668,174.8208)">
	<path class="st7" d="M-4,40.8h8"/>
</g>
<g transform="translate(1390.5343,171.1521)">
	<path d="M-4,40.8h8"/>
</g>
<g transform="translate(1390.5343,171.1521)">
	<path class="st7" d="M-4,40.8h8"/>
</g>
<g transform="translate(1449.6018,208.7513)">
	<path d="M-4,40.8h8"/>
</g>
<g transform="translate(1449.6018,208.7513)">
	<path class="st7" d="M-4,40.8h8"/>
</g>
<g transform="translate(1508.6693,158.5918)">
	<path d="M-4,40.8h8"/>
</g>
<g transform="translate(1508.6693,158.5918)">
	<path class="st7" d="M-4,40.8h8"/>
</g>
<g transform="translate(1567.7368,175.678)">
	<path d="M-4,40.8h8"/>
</g>
<g transform="translate(1567.7368,175.678)">
	<path class="st7" d="M-4,40.8h8"/>
</g>
<g transform="translate(1626.8043,179.7531)">
	<path d="M-4,40.8h8"/>
</g>
<g transform="translate(1626.8043,179.7531)">
	<path class="st7" d="M-4,40.8h8"/>
</g>
<g transform="translate(1685.8718,164.3086)">
	<path d="M-4,40.8h8"/>
</g>
<g transform="translate(1685.8718,164.3086)">
	<path class="st7" d="M-4,40.8h8"/>
	<line class="st6" x1="-1400.7" y1="86.6" x2="-1400.7" y2="114.2"/>
	<line class="st6" x1="-1341.7" y1="191.7" x2="-1341.7" y2="221.7"/>
	<line class="st6" x1="-1282.6" y1="28.9" x2="-1282.6" y2="65"/>
	<line class="st6" x1="-1223.5" y1="138.1" x2="-1223.5" y2="163.1"/>
	<line class="st6" x1="-1164.5" y1="77.2" x2="-1164.5" y2="107.2"/>
	<line class="st6" x1="-1105.4" y1="108.5" x2="-1105.4" y2="136.9"/>
	<line class="st6" x1="-1046.3" y1="57.5" x2="-1046.3" y2="89.2"/>
	<line class="st6" x1="-987.3" y1="88.8" x2="-987.3" y2="119"/>
	<line class="st6" x1="-928.2" y1="111.9" x2="-928.2" y2="141.5"/>
	<line class="st6" x1="-869.1" y1="133.4" x2="-869.1" y2="162.5"/>
	<line class="st6" x1="-810.1" y1="91.1" x2="-810.1" y2="124.8"/>
	<line class="st6" x1="-751" y1="81.6" x2="-751" y2="110.2"/>
	<line class="st6" x1="-691.9" y1="163.7" x2="-691.9" y2="189.4"/>
	<line class="st6" x1="-632.9" y1="115.6" x2="-632.9" y2="145.6"/>
	<line class="st6" x1="-573.8" y1="135.7" x2="-573.8" y2="159"/>
	<line class="st6" x1="-514.7" y1="121.8" x2="-514.7" y2="147.3"/>
	<line class="st6" x1="-455.7" y1="116.6" x2="-455.7" y2="140.1"/>
	<line class="st6" x1="-396.6" y1="130.5" x2="-396.6" y2="160.1"/>
	<line class="st6" x1="-337.5" y1="122" x2="-337.5" y2="148.7"/>
	<line class="st6" x1="-278.5" y1="117" x2="-278.5" y2="137.6"/>
	<line class="st6" x1="-219.4" y1="88" x2="-219.4" y2="112.9"/>
	<line class="st6" x1="-160.3" y1="127.4" x2="-160.3" y2="151.2"/>
	<line class="st6" x1="-101.3" y1="88.1" x2="-101.3" y2="105.3"/>
	<line class="st6" x1="-42.2" y1="72.7" x2="-42.2" y2="88.7"/>
	<line class="st6" x1="16.9" y1="63.2" x2="16.9" y2="79.2"/>
	<line class="st6" x1="-1400.7" y1="86.6" x2="-1400.7" y2="59"/>
	<line class="st6" x1="-1341.7" y1="191.7" x2="-1341.7" y2="161.8"/>
	<line class="st6" x1="-1282.6" y1="28.9" x2="-1282.6" y2="-7.3"/>
	<line class="st6" x1="-1223.5" y1="138.1" x2="-1223.5" y2="113"/>
	<line class="st6" x1="-1164.5" y1="77.2" x2="-1164.5" y2="47.3"/>
	<line class="st6" x1="-1105.4" y1="108.5" x2="-1105.4" y2="80.2"/>
	<line class="st6" x1="-1046.3" y1="57.5" x2="-1046.3" y2="25.7"/>
	<line class="st6" x1="-987.3" y1="88.8" x2="-987.3" y2="58.5"/>
	<line class="st6" x1="-928.2" y1="111.9" x2="-928.2" y2="82.4"/>
	<line class="st6" x1="-869.1" y1="133.4" x2="-869.1" y2="104.4"/>
	<line class="st6" x1="-810.1" y1="91.1" x2="-810.1" y2="57.3"/>
	<line class="st6" x1="-751" y1="81.6" x2="-751" y2="53.1"/>
	<line class="st6" x1="-691.9" y1="163.7" x2="-691.9" y2="137.9"/>
	<line class="st6" x1="-632.9" y1="115.6" x2="-632.9" y2="85.5"/>
	<line class="st6" x1="-573.8" y1="135.7" x2="-573.8" y2="112.4"/>
	<line class="st6" x1="-514.7" y1="121.8" x2="-514.7" y2="96.2"/>
	<line class="st6" x1="-455.7" y1="116.6" x2="-455.7" y2="93"/>
	<line class="st6" x1="-396.6" y1="130.5" x2="-396.6" y2="100.8"/>
	<line class="st6" x1="-337.5" y1="122" x2="-337.5" y2="95.3"/>
	<line class="st6" x1="-278.5" y1="117" x2="-278.5" y2="96.5"/>
	<line class="st6" x1="-219.4" y1="88" x2="-219.4" y2="63.1"/>
	<line class="st6" x1="-160.3" y1="127.4" x2="-160.3" y2="103.6"/>
	<line class="st6" x1="-101.3" y1="88.1" x2="-101.3" y2="71"/>
	<line class="st6" x1="-42.2" y1="72.7" x2="-42.2" y2="56.8"/>
	<line class="st6" x1="16.9" y1="63.2" x2="16.9" y2="47.2"/>
</g>
<g transform="translate(285.1281,237.7183)">
	<path d="M-4,40.8h8"/>
</g>
<g transform="translate(285.1281,237.7183)">
	<path class="st7" d="M-4,40.8h8"/>
</g>
<g transform="translate(344.1956,345.2018)">
	<path d="M-4,40.8h8"/>
</g>
<g transform="translate(344.1956,345.2018)">
	<path class="st7" d="M-4,40.8h8"/>
</g>
<g transform="translate(403.2632,188.5468)">
	<path d="M-4,40.8h8"/>
</g>
<g transform="translate(403.2632,188.5468)">
	<path class="st7" d="M-4,40.8h8"/>
</g>
<g transform="translate(462.3307,286.6102)">
	<path d="M-4,40.8h8"/>
</g>
<g transform="translate(462.3307,286.6102)">
	<path class="st7" d="M-4,40.8h8"/>
</g>
<g transform="translate(521.3982,230.7306)">
	<path d="M-4,40.8h8"/>
</g>
<g transform="translate(521.3982,230.7306)">
	<path class="st7" d="M-4,40.8h8"/>
</g>
<g transform="translate(580.4657,260.421)">
	<path d="M-4,40.8h8"/>
</g>
<g transform="translate(580.4657,260.421)">
	<path class="st7" d="M-4,40.8h8"/>
</g>
<g transform="translate(639.5332,212.7208)">
	<path d="M-4,40.8h8"/>
</g>
<g transform="translate(639.5332,212.7208)">
	<path class="st7" d="M-4,40.8h8"/>
</g>
<g transform="translate(698.6007,242.5484)">
	<path d="M-4,40.8h8"/>
</g>
<g transform="translate(698.6007,242.5484)">
	<path class="st7" d="M-4,40.8h8"/>
</g>
<g transform="translate(757.6682,264.9842)">
	<path d="M-4,40.8h8"/>
</g>
<g transform="translate(757.6682,264.9842)">
	<path class="st7" d="M-4,40.8h8"/>
</g>
<g transform="translate(816.7357,286.0074)">
	<path d="M-4,40.8h8"/>
</g>
<g transform="translate(816.7357,286.0074)">
	<path class="st7" d="M-4,40.8h8"/>
</g>
<g transform="translate(875.8032,248.3462)">
	<path d="M-4,40.8h8"/>
</g>
<g transform="translate(875.8032,248.3462)">
	<path class="st7" d="M-4,40.8h8"/>
</g>
<g transform="translate(934.8707,233.6945)">
	<path d="M-4,40.8h8"/>
</g>
<g transform="translate(934.8707,233.6945)">
	<path class="st7" d="M-4,40.8h8"/>
</g>
<g transform="translate(993.9382,312.9494)">
	<path d="M-4,40.8h8"/>
</g>
<g transform="translate(993.9382,312.9494)">
	<path class="st7" d="M-4,40.8h8"/>
</g>
<g transform="translate(1053.0057,269.1314)">
	<path d="M-4,40.8h8"/>
</g>
<g transform="translate(1053.0057,269.1314)">
	<path class="st7" d="M-4,40.8h8"/>
</g>
<g transform="translate(1112.0732,282.4996)">
	<path d="M-4,40.8h8"/>
</g>
<g transform="translate(1112.0732,282.4996)">
	<path class="st7" d="M-4,40.8h8"/>
</g>
<g transform="translate(1171.1407,270.8433)">
	<path d="M-4,40.8h8"/>
</g>
<g transform="translate(1171.1407,270.8433)">
	<path class="st7" d="M-4,40.8h8"/>
</g>
<g transform="translate(1230.2083,263.6214)">
	<path d="M-4,40.8h8"/>
</g>
<g transform="translate(1230.2083,263.6214)">
	<path class="st7" d="M-4,40.8h8"/>
</g>
<g transform="translate(1289.2758,283.653)">
	<path d="M-4,40.8h8"/>
</g>
<g transform="translate(1289.2758,283.653)">
	<path class="st7" d="M-4,40.8h8"/>
</g>
<g transform="translate(1348.3433,272.2122)">
	<path d="M-4,40.8h8"/>
</g>
<g transform="translate(1348.3433,272.2122)">
	<path class="st7" d="M-4,40.8h8"/>
</g>
<g transform="translate(1407.4108,261.0963)">
	<path d="M-4,40.8h8"/>
</g>
<g transform="translate(1407.4108,261.0963)">
	<path class="st7" d="M-4,40.8h8"/>
</g>
<g transform="translate(1466.4783,236.403)">
	<path d="M-4,40.8h8"/>
</g>
<g transform="translate(1466.4783,236.403)">
	<path class="st7" d="M-4,40.8h8"/>
</g>
<g transform="translate(1525.5458,274.7123)">
	<path d="M-4,40.8h8"/>
</g>
<g transform="translate(1525.5458,274.7123)">
	<path class="st7" d="M-4,40.8h8"/>
</g>
<g transform="translate(1584.6133,228.802)">
	<path d="M-4,40.8h8"/>
</g>
<g transform="translate(1584.6133,228.802)">
	<path class="st7" d="M-4,40.8h8"/>
</g>
<g transform="translate(1643.6808,212.1729)">
	<path d="M-4,40.8h8"/>
</g>
<g transform="translate(1643.6808,212.1729)">
	<path class="st7" d="M-4,40.8h8"/>
</g>
<g transform="translate(1702.7483,202.7558)">
	<path d="M-4,40.8h8"/>
</g>
<g transform="translate(1702.7483,202.7558)">
	<path class="st7" d="M-4,40.8h8"/>
</g>
<g transform="translate(285.1281,182.4913)">
	<path d="M-4,40.8h8"/>
</g>
<g transform="translate(285.1281,182.4913)">
	<path class="st7" d="M-4,40.8h8"/>
</g>
<g transform="translate(344.1956,285.3109)">
	<path d="M-4,40.8h8"/>
</g>
<g transform="translate(344.1956,285.3109)">
	<path class="st7" d="M-4,40.8h8"/>
</g>
<g transform="translate(403.2632,116.2038)">
	<path d="M-4,40.8h8"/>
</g>
<g transform="translate(403.2632,116.2038)">
	<path class="st7" d="M-4,40.8h8"/>
</g>
<g transform="translate(462.3307,236.5443)">
	<path d="M-4,40.8h8"/>
</g>
<g transform="translate(462.3307,236.5443)">
	<path class="st7" d="M-4,40.8h8"/>
</g>
<g transform="translate(521.3982,170.7827)">
	<path d="M-4,40.8h8"/>
</g>
<g transform="translate(521.3982,170.7827)">
	<path class="st7" d="M-4,40.8h8"/>
</g>
<g transform="translate(580.4657,203.6676)">
	<path d="M-4,40.8h8"/>
</g>
<g transform="translate(580.4657,203.6676)">
	<path class="st7" d="M-4,40.8h8"/>
</g>
<g transform="translate(639.5332,149.2387)">
	<path d="M-4,40.8h8"/>
</g>
<g transform="translate(639.5332,149.2387)">
	<path class="st7" d="M-4,40.8h8"/>
</g>
<g transform="translate(698.6007,182.0262)">
	<path d="M-4,40.8h8"/>
</g>
<g transform="translate(698.6007,182.0262)">
	<path class="st7" d="M-4,40.8h8"/>
</g>
<g transform="translate(757.6682,205.9098)">
	<path d="M-4,40.8h8"/>
</g>
<g transform="translate(757.6682,205.9098)">
	<path class="st7" d="M-4,40.8h8"/>
</g>
<g transform="translate(816.7357,227.9073)">
	<path d="M-4,40.8h8"/>
</g>
<g transform="translate(816.7357,227.9073)">
	<path class="st7" d="M-4,40.8h8"/>
</g>
<g transform="translate(875.8032,180.8063)">
	<path d="M-4,40.8h8"/>
</g>
<g transform="translate(875.8032,180.8063)">
	<path class="st7" d="M-4,40.8h8"/>
</g>
<g transform="translate(934.8707,176.5769)">
	<path d="M-4,40.8h8"/>
</g>
<g transform="translate(934.8707,176.5769)">
	<path class="st7" d="M-4,40.8h8"/>
</g>
<g transform="translate(993.9382,261.4157)">
	<path d="M-4,40.8h8"/>
</g>
<g transform="translate(993.9382,261.4157)">
	<path class="st7" d="M-4,40.8h8"/>
</g>
<g transform="translate(1053.0057,209.0432)">
	<path d="M-4,40.8h8"/>
</g>
<g transform="translate(1053.0057,209.0432)">
	<path class="st7" d="M-4,40.8h8"/>
</g>
<g transform="translate(1112.0732,235.8656)">
	<path d="M-4,40.8h8"/>
</g>
<g transform="translate(1112.0732,235.8656)">
	<path class="st7" d="M-4,40.8h8"/>
</g>
<g transform="translate(1171.1407,219.7523)">
	<path d="M-4,40.8h8"/>
</g>
<g transform="translate(1171.1407,219.7523)">
	<path class="st7" d="M-4,40.8h8"/>
</g>
<g transform="translate(1230.2083,216.5326)">
	<path d="M-4,40.8h8"/>
</g>
<g transform="translate(1230.2083,216.5326)">
	<path class="st7" d="M-4,40.8h8"/>
</g>
<g transform="translate(1289.2758,224.2953)">
	<path d="M-4,40.8h8"/>
</g>
<g transform="translate(1289.2758,224.2953)">
	<path class="st7" d="M-4,40.8h8"/>
</g>
<g transform="translate(1348.3433,218.7761)">
	<path d="M-4,40.8h8"/>
</g>
<g transform="translate(1348.3433,218.7761)">
	<path class="st7" d="M-4,40.8h8"/>
</g>
<g transform="translate(1407.4108,219.9981)">
	<path d="M-4,40.8h8"/>
</g>
<g transform="translate(1407.4108,219.9981)">
	<path class="st7" d="M-4,40.8h8"/>
</g>
<g transform="translate(1466.4783,186.6496)">
	<path d="M-4,40.8h8"/>
</g>
<g transform="translate(1466.4783,186.6496)">
	<path class="st7" d="M-4,40.8h8"/>
</g>
<g transform="translate(1525.5458,227.1548)">
	<path d="M-4,40.8h8"/>
</g>
<g transform="translate(1525.5458,227.1548)">
	<path class="st7" d="M-4,40.8h8"/>
</g>
<g transform="translate(1584.6133,194.4675)">
	<path d="M-4,40.8h8"/>
</g>
<g transform="translate(1584.6133,194.4675)">
	<path class="st7" d="M-4,40.8h8"/>
</g>
<g transform="translate(1643.6808,180.295)">
	<path d="M-4,40.8h8"/>
</g>
<g transform="translate(1643.6808,180.295)">
	<path class="st7" d="M-4,40.8h8"/>
</g>
<g transform="translate(1702.7483,170.6766)">
	<path d="M-4,40.8h8"/>
</g>
<g transform="translate(1702.7483,170.6766)">
	<path class="st7" d="M-4,40.8h8"/>
	<path class="st8" d="M-1426.1-29.7v14 M-1433.1-22.7h14 M-1430.8-27.4l9.4,9.4 M-1430.8-18l9.4-9.4"/>
	<path class="st8" d="M-1367-29.7v14 M-1374-22.7h14 M-1371.7-27.4l9.4,9.4 M-1371.7-18l9.4-9.4"/>
	<path class="st9" d="M-1367-58.3v14 M-1374-51.3h14 M-1371.7-56l9.4,9.4 M-1371.7-46.6l9.4-9.4"/>
	<path class="st8" d="M-1307.9-29.7v14 M-1314.9-22.7h14 M-1312.6-27.4l9.4,9.4 M-1312.6-18l9.4-9.4"/>
	<path class="st7" d="M-1307.9-86.9v14 M-1314.9-79.9h14 M-1312.6-84.6l9.4,9.4 M-1312.6-75.2l9.4-9.4"/>
	<path class="st8" d="M-1248.9-29.7v14 M-1255.9-22.7h14 M-1253.6-27.4l9.4,9.4 M-1253.6-18l9.4-9.4"/>
	<path class="st9" d="M-1248.9-58.3v14 M-1255.9-51.3h14 M-1253.6-56l9.4,9.4 M-1253.6-46.6l9.4-9.4"/>
	<path class="st8" d="M-1189.8-29.7v14 M-1196.8-22.7h14 M-1194.5-27.4l9.4,9.4 M-1194.5-18l9.4-9.4"/>
	<path class="st8" d="M-1130.7-29.7v14 M-1137.7-22.7h14 M-1135.4-27.4l9.4,9.4 M-1135.4-18l9.4-9.4"/>
	<path class="st8" d="M-1071.7-29.7v14 M-1078.7-22.7h14 M-1076.4-27.4l9.4,9.4 M-1076.4-18l9.4-9.4"/>
	<path class="st7" d="M-1071.7-86.9v14 M-1078.7-79.9h14 M-1076.4-84.6l9.4,9.4 M-1076.4-75.2l9.4-9.4"/>
	<path class="st8" d="M-1012.6-29.7v14 M-1019.6-22.7h14 M-1017.3-27.4l9.4,9.4 M-1017.3-18l9.4-9.4"/>
	<path class="st8" d="M-953.5-29.7v14 M-960.5-22.7h14 M-958.2-27.4l9.4,9.4 M-958.2-18l9.4-9.4"/>
	<path class="st8" d="M-894.5-29.7v14 M-901.5-22.7h14 M-899.2-27.4l9.4,9.4 M-899.2-18l9.4-9.4"/>
	<path class="st9" d="M-894.5-58.3v14 M-901.5-51.3h14 M-899.2-56l9.4,9.4 M-899.2-46.6l9.4-9.4"/>
	<path class="st9" d="M-717.2-58.3v14 M-724.2-51.3h14 M-722-56l9.4,9.4 M-722-46.6l9.4-9.4"/>
	<path class="st7" d="M-717.2-86.9v14 M-724.2-79.9h14 M-722-84.6l9.4,9.4 M-722-75.2l9.4-9.4"/>
	<path class="st9" d="M-599.1-58.3v14 M-606.1-51.3h14 M-603.8-56l9.4,9.4 M-603.8-46.6l9.4-9.4"/>
	<path class="st7" d="M-599.1-86.9v14 M-606.1-79.9h14 M-603.8-84.6l9.4,9.4 M-603.8-75.2l9.4-9.4"/>
	<path class="st9" d="M-540-58.3v14 M-547-51.3h14 M-544.8-56l9.4,9.4 M-544.8-46.6l9.4-9.4"/>
	<path class="st9" d="M-481-58.3v14 M-488-51.3h14 M-485.7-56l9.4,9.4 M-485.7-46.6l9.4-9.4"/>
	<path class="st9" d="M-421.9-58.3v14 M-428.9-51.3h14 M-426.6-56l9.4,9.4 M-426.6-46.6l9.4-9.4"/>
	<path class="st9" d="M-362.8-58.3v14 M-369.8-51.3h14 M-367.6-56l9.4,9.4 M-367.6-46.6l9.4-9.4"/>
	<path class="st9" d="M-303.8-58.3v14 M-310.8-51.3h14 M-308.5-56l9.4,9.4 M-308.5-46.6l9.4-9.4"/>
	<path class="st9" d="M-185.6-58.3v14 M-192.6-51.3h14 M-190.4-56l9.4,9.4 M-190.4-46.6l9.4-9.4"/>
	<path class="st7" d="M-185.6-86.9v14 M-192.6-79.9h14 M-190.4-84.6l9.4,9.4 M-190.4-75.2l9.4-9.4"/>
</g>
<g>
	<line class="st10" x1="248" y1="433.8" x2="1723" y2="433.8"/>
	<line class="st10" x1="276.7" y1="433.8" x2="276.7" y2="419"/>
	<line class="st10" x1="335.8" y1="433.8" x2="335.8" y2="419"/>
	<line class="st10" x1="394.8" y1="433.8" x2="394.8" y2="419"/>
	<line class="st10" x1="453.9" y1="433.8" x2="453.9" y2="419"/>
	<line class="st10" x1="513" y1="433.8" x2="513" y2="419"/>
	<line class="st10" x1="572" y1="433.8" x2="572" y2="419"/>
	<line class="st10" x1="631.1" y1="433.8" x2="631.1" y2="419"/>
	<line class="st10" x1="690.2" y1="433.8" x2="690.2" y2="419"/>
	<line class="st10" x1="749.2" y1="433.8" x2="749.2" y2="419"/>
	<line class="st10" x1="808.3" y1="433.8" x2="808.3" y2="419"/>
	<line class="st10" x1="867.4" y1="433.8" x2="867.4" y2="419"/>
	<line class="st10" x1="926.4" y1="433.8" x2="926.4" y2="419"/>
	<line class="st10" x1="985.5" y1="433.8" x2="985.5" y2="419"/>
	<line class="st10" x1="1044.6" y1="433.8" x2="1044.6" y2="419"/>
	<line class="st10" x1="1103.6" y1="433.8" x2="1103.6" y2="419"/>
	<line class="st10" x1="1162.7" y1="433.8" x2="1162.7" y2="419"/>
	<line class="st10" x1="1221.8" y1="433.8" x2="1221.8" y2="419"/>
	<line class="st10" x1="1280.8" y1="433.8" x2="1280.8" y2="419"/>
	<line class="st10" x1="1339.9" y1="433.8" x2="1339.9" y2="419"/>
	<line class="st10" x1="1399" y1="433.8" x2="1399" y2="419"/>
	<line class="st10" x1="1458" y1="433.8" x2="1458" y2="419"/>
	<line class="st10" x1="1517.1" y1="433.8" x2="1517.1" y2="419"/>
	<line class="st10" x1="1576.2" y1="433.8" x2="1576.2" y2="419"/>
	<line class="st10" x1="1635.2" y1="433.8" x2="1635.2" y2="419"/>
	<line class="st10" x1="1694.3" y1="433.8" x2="1694.3" y2="419"/>
</g>
<g transform="translate(276.6899,401.5333)">
	<text transform="matrix(1 0 0 1 -15 70.8496)" class="st11 st12 st13">L1</text>
</g>
<g transform="translate(335.7574,401.5333)">
	<text transform="matrix(1 0 0 1 -15 70.8496)" class="st11 st12 st13">L2</text>
</g>
<g transform="translate(394.825,401.5333)">
	<text transform="matrix(1 0 0 1 -15 70.8496)" class="st11 st12 st13">L3</text>
</g>
<g transform="translate(453.8925,401.5333)">
	<text transform="matrix(1 0 0 1 -15 70.8496)" class="st11 st12 st13">L4</text>
</g>
<g transform="translate(512.96,401.5333)">
	<text transform="matrix(1 0 0 1 -15 70.8496)" class="st11 st12 st13">L5</text>
</g>
<g transform="translate(572.0275,401.5333)">
	<text transform="matrix(1 0 0 1 -15 70.8496)" class="st11 st12 st13">L6</text>
</g>
<g transform="translate(631.095,401.5333)">
	<text transform="matrix(1 0 0 1 -15 70.8496)" class="st11 st12 st13">L7</text>
</g>
<g transform="translate(690.1625,401.5333)">
	<text transform="matrix(1 0 0 1 -15 70.8496)" class="st11 st12 st13">L8</text>
</g>
<g transform="translate(749.23,401.5333)">
	<text transform="matrix(1 0 0 1 -15 70.8496)" class="st11 st12 st13">L9</text>
</g>
<g transform="translate(808.2975,401.5333)">
	<g class="st14">
		<path class="st11" d="M-19.4,70.8v-21h2.8v18.5h10.3v2.5H-19.4z"/>
		<path class="st11" d="M5.7,70.8H3.2V54.4c-0.6,0.6-1.4,1.2-2.4,1.8s-1.9,1-2.7,1.3V55c1.4-0.7,2.7-1.5,3.8-2.5s1.8-1.9,2.3-2.8
			h1.7v21.1H5.7z"/>
		<path class="st11" d="M12.3,60.4c0-2.5,0.3-4.5,0.8-6s1.3-2.7,2.3-3.5s2.3-1.2,3.8-1.2c1.1,0,2.1,0.2,3,0.7c0.8,0.5,1.6,1.1,2.1,2
			c0.6,0.9,1,1.9,1.3,3.1s0.5,2.9,0.5,5c0,2.5-0.3,4.5-0.8,6S24,69.2,23,70s-2.3,1.2-3.8,1.2c-2,0-3.6-0.7-4.8-2.2
			C13,67.2,12.3,64.4,12.3,60.4z M15,60.4c0,3.4,0.4,5.7,1.2,6.9c0.8,1.1,1.8,1.7,3,1.7s2.2-0.6,3-1.7s1.2-3.4,1.2-6.9
			s-0.4-5.8-1.2-6.9c-0.8-1.1-1.8-1.7-3-1.7s-2.1,0.5-2.8,1.5C15.4,54.6,15,57,15,60.4z"/>
	</g>
</g>
<g transform="translate(867.365,401.5333)">
	<g class="st14">
		<path class="st11" d="M-19.4,70.8v-21h2.8v18.5h10.3v2.5H-19.4z"/>
		<path class="st11" d="M5.7,70.8H3.2V54.4c-0.6,0.6-1.4,1.2-2.4,1.8s-1.9,1-2.7,1.3V55c1.4-0.7,2.7-1.5,3.8-2.5s1.8-1.9,2.3-2.8
			h1.7v21.1H5.7z"/>
		<path class="st11" d="M22.1,70.8h-2.6V54.4c-0.6,0.6-1.4,1.2-2.4,1.8s-1.9,1-2.7,1.3V55c1.4-0.7,2.7-1.5,3.8-2.5s1.8-1.9,2.3-2.8
			h1.7v21.1H22.1z"/>
	</g>
</g>
<g transform="translate(926.4325,401.5333)">
	<g class="st14">
		<path class="st11" d="M-19.4,70.8v-21h2.8v18.5h10.3v2.5H-19.4z"/>
		<path class="st11" d="M5.7,70.8H3.2V54.4c-0.6,0.6-1.4,1.2-2.4,1.8s-1.9,1-2.7,1.3V55c1.4-0.7,2.7-1.5,3.8-2.5s1.8-1.9,2.3-2.8
			h1.7v21.1H5.7z"/>
		<path class="st11" d="M25.9,68.3v2.5H12c0-0.6,0.1-1.2,0.3-1.8c0.4-0.9,0.9-1.9,1.7-2.8s1.9-2,3.4-3.2c2.3-1.9,3.8-3.4,4.6-4.4
			c0.8-1.1,1.2-2.1,1.2-3.1s-0.4-1.9-1.1-2.6s-1.7-1.1-2.9-1.1c-1.2,0-2.2,0.4-3,1.1s-1.1,1.8-1.1,3.1l-2.6-0.2c0.2-2,0.9-3.5,2-4.5
			c1.2-1,2.8-1.6,4.8-1.6s3.6,0.6,4.8,1.7s1.8,2.5,1.8,4.2c0,0.8-0.2,1.7-0.5,2.5s-0.9,1.7-1.7,2.6c-0.8,0.9-2.1,2.1-4,3.7
			c-1.5,1.3-2.5,2.2-3,2.6c-0.4,0.5-0.8,0.9-1.1,1.4L25.9,68.3C25.9,68.4,25.9,68.3,25.9,68.3z"/>
	</g>
</g>
<g transform="translate(985.5,401.5333)">
	<g class="st14">
		<path class="st11" d="M-19.4,70.8v-21h2.8v18.5h10.3v2.5H-19.4z"/>
		<path class="st11" d="M5.7,70.8H3.2V54.4c-0.6,0.6-1.4,1.2-2.4,1.8s-1.9,1-2.7,1.3V55c1.4-0.7,2.7-1.5,3.8-2.5s1.8-1.9,2.3-2.8
			h1.7v21.1H5.7z"/>
		<path class="st11" d="M12.4,65.3L15,65c0.3,1.5,0.8,2.5,1.5,3.2c0.7,0.7,1.6,1,2.6,1c1.2,0,2.2-0.4,3.1-1.3
			c0.8-0.8,1.3-1.9,1.3-3.1c0-1.2-0.4-2.2-1.2-2.9c-0.8-0.7-1.8-1.2-3-1.2c-0.5,0-1.1,0.1-1.8,0.3l0.3-2.3c0.2,0,0.3,0,0.4,0
			c1.1,0,2.1-0.3,3-0.9c0.9-0.6,1.3-1.5,1.3-2.6c0-0.9-0.3-1.7-1-2.3c-0.7-0.8-1.5-1.1-2.5-1.1s-1.8,0.3-2.5,0.9
			c-0.7,0.6-1.1,1.6-1.3,2.8L12.6,55c0.3-1.7,1-3.1,2.1-4s2.5-1.4,4.2-1.4c1.1,0,2.2,0.2,3.2,0.7s1.7,1.2,2.2,2s0.8,1.8,0.8,2.7
			s-0.2,1.7-0.7,2.5c-0.5,0.7-1.2,1.3-2.2,1.8c1.2,0.3,2.2,0.9,2.9,1.8c0.7,0.9,1,2,1,3.4c0,1.8-0.7,3.4-2,4.7
			c-1.3,1.3-3,1.9-5.1,1.9c-1.8,0-3.4-0.5-4.6-1.6S12.5,67,12.4,65.3z"/>
	</g>
</g>
<g transform="translate(1044.5675,401.5333)">
	<g class="st14">
		<path class="st11" d="M-19.4,70.8v-21h2.8v18.5h10.3v2.5H-19.4z"/>
		<path class="st11" d="M5.7,70.8H3.2V54.4c-0.6,0.6-1.4,1.2-2.4,1.8s-1.9,1-2.7,1.3V55c1.4-0.7,2.7-1.5,3.8-2.5s1.8-1.9,2.3-2.8
			h1.7v21.1H5.7z"/>
		<path class="st11" d="M20.6,70.8v-5h-9.1v-2.4l9.6-13.6h2.1v13.6H26v2.4h-2.8v5H20.6z M20.6,63.4v-9.5L14,63.4H20.6z"/>
	</g>
</g>
<g transform="translate(1103.635,401.5333)">
	<g class="st14">
		<path class="st11" d="M-19.4,70.8v-21h2.8v18.5h10.3v2.5H-19.4z"/>
		<path class="st11" d="M5.7,70.8H3.2V54.4c-0.6,0.6-1.4,1.2-2.4,1.8s-1.9,1-2.7,1.3V55c1.4-0.7,2.7-1.5,3.8-2.5s1.8-1.9,2.3-2.8
			h1.7v21.1H5.7z"/>
		<path class="st11" d="M12.3,65.3l2.7-0.2c0.2,1.3,0.7,2.3,1.4,3c0.7,0.7,1.6,1,2.6,1c1.2,0,2.3-0.5,3.2-1.4
			c0.9-0.9,1.3-2.2,1.3-3.7s-0.4-2.6-1.2-3.5c-0.8-0.8-1.9-1.3-3.2-1.3c-0.8,0-1.6,0.2-2.2,0.6c-0.7,0.4-1.2,0.9-1.6,1.5L12.9,61
			l2-10.8h10.4v2.5h-8.4l-1.1,5.6c1.3-0.9,2.6-1.3,4-1.3c1.8,0,3.4,0.6,4.6,1.9c1.3,1.3,1.9,2.9,1.9,4.9c0,1.9-0.6,3.5-1.7,4.9
			c-1.3,1.7-3.2,2.5-5.5,2.5c-1.9,0-3.5-0.5-4.7-1.6C13.2,68.5,12.5,67.1,12.3,65.3z"/>
	</g>
</g>
<g transform="translate(1162.7025,401.5333)">
	<g class="st14">
		<path class="st11" d="M-19.4,70.8v-21h2.8v18.5h10.3v2.5H-19.4z"/>
		<path class="st11" d="M5.7,70.8H3.2V54.4c-0.6,0.6-1.4,1.2-2.4,1.8s-1.9,1-2.7,1.3V55c1.4-0.7,2.7-1.5,3.8-2.5s1.8-1.9,2.3-2.8
			h1.7v21.1H5.7z"/>
		<path class="st11" d="M25.7,54.9l-2.6,0.2c-0.2-1-0.6-1.7-1-2.2c-0.7-0.7-1.6-1.1-2.6-1.1c-0.8,0-1.5,0.2-2.2,0.7
			c-0.8,0.6-1.5,1.5-1.9,2.6c-0.5,1.1-0.7,2.8-0.7,4.9c0.6-0.9,1.4-1.6,2.3-2.1s1.8-0.7,2.8-0.7c1.7,0,3.2,0.6,4.4,1.9
			C25.4,60.4,26,62,26,64c0,1.3-0.3,2.5-0.9,3.7c-0.6,1.1-1.3,2-2.3,2.6s-2.1,0.9-3.4,0.9c-2.1,0-3.9-0.8-5.3-2.4s-2-4.2-2-7.8
			c0-4.1,0.8-7,2.2-8.9c1.3-1.6,3.1-2.4,5.3-2.4c1.7,0,3,0.5,4.1,1.4C24.9,52,25.5,53.3,25.7,54.9z M15.2,64c0,0.9,0.2,1.7,0.6,2.5
			s0.9,1.4,1.6,1.9c0.7,0.4,1.4,0.6,2.1,0.6c1.1,0,2-0.4,2.8-1.3s1.2-2.1,1.2-3.6s-0.4-2.6-1.2-3.4c-0.8-0.8-1.7-1.3-2.9-1.3
			c-1.2,0-2.2,0.4-3,1.3C15.6,61.5,15.2,62.6,15.2,64z"/>
	</g>
</g>
<g transform="translate(1221.77,401.5333)">
	<g class="st14">
		<path class="st11" d="M-19.4,70.8v-21h2.8v18.5h10.3v2.5H-19.4z"/>
		<path class="st11" d="M5.7,70.8H3.2V54.4c-0.6,0.6-1.4,1.2-2.4,1.8s-1.9,1-2.7,1.3V55c1.4-0.7,2.7-1.5,3.8-2.5s1.8-1.9,2.3-2.8
			h1.7v21.1H5.7z"/>
		<path class="st11" d="M12.5,52.6v-2.5h13.6v2c-1.3,1.4-2.7,3.3-4,5.7s-2.3,4.8-3,7.3c-0.5,1.8-0.8,3.7-1,5.8h-2.7
			c0-1.7,0.4-3.6,1-6c0.6-2.3,1.5-4.6,2.7-6.8s2.4-4,3.7-5.5C22.8,52.6,12.5,52.6,12.5,52.6z"/>
	</g>
</g>
<g transform="translate(1280.8375,401.5333)">
	<g class="st14">
		<path class="st11" d="M-19.4,70.8v-21h2.8v18.5h10.3v2.5H-19.4z"/>
		<path class="st11" d="M5.7,70.8H3.2V54.4c-0.6,0.6-1.4,1.2-2.4,1.8s-1.9,1-2.7,1.3V55c1.4-0.7,2.7-1.5,3.8-2.5s1.8-1.9,2.3-2.8
			h1.7v21.1H5.7z"/>
		<path class="st11" d="M16.3,59.4c-1.1-0.4-1.9-1-2.4-1.7s-0.8-1.6-0.8-2.6c0-1.5,0.5-2.8,1.6-3.9c1.1-1,2.6-1.6,4.4-1.6
			c1.8,0,3.3,0.5,4.4,1.6s1.7,2.4,1.7,3.9c0,1-0.3,1.8-0.8,2.5s-1.3,1.3-2.3,1.7c1.3,0.4,2.3,1.1,2.9,2c0.7,0.9,1,2.1,1,3.4
			c0,1.8-0.6,3.3-1.9,4.5s-2.9,1.8-5,1.8s-3.7-0.6-5-1.8c-1.3-1.2-1.9-2.8-1.9-4.6c0-1.4,0.3-2.5,1-3.4C14,60.4,15,59.7,16.3,59.4z
			 M15,64.7c0,0.7,0.2,1.4,0.5,2.1s0.9,1.2,1.6,1.6s1.4,0.6,2.2,0.6c1.2,0,2.2-0.4,3.1-1.2c0.8-0.8,1.2-1.8,1.2-3
			c0-1.2-0.4-2.3-1.2-3.1c-0.8-0.8-1.9-1.2-3.1-1.2s-2.2,0.4-3,1.2C15.4,62.5,15,63.5,15,64.7z M15.8,55c0,1,0.3,1.8,1,2.4
			c0.7,0.6,1.5,0.9,2.5,0.9s1.8-0.3,2.4-0.9c0.6-0.6,1-1.4,1-2.3c0-0.9-0.3-1.7-1-2.4c-0.7-0.6-1.5-1-2.4-1c-1,0-1.8,0.3-2.4,0.9
			C16.1,53.4,15.8,54.2,15.8,55z"/>
	</g>
</g>
<g transform="translate(1339.905,401.5333)">
	<g class="st14">
		<path class="st11" d="M-19.4,70.8v-21h2.8v18.5h10.3v2.5H-19.4z"/>
		<path class="st11" d="M5.7,70.8H3.2V54.4c-0.6,0.6-1.4,1.2-2.4,1.8s-1.9,1-2.7,1.3V55c1.4-0.7,2.7-1.5,3.8-2.5s1.8-1.9,2.3-2.8
			h1.7v21.1H5.7z"/>
		<path class="st11" d="M12.7,65.9l2.5-0.2c0.2,1.2,0.6,2,1.2,2.5c0.6,0.5,1.4,0.8,2.3,0.8c0.8,0,1.5-0.2,2.1-0.5
			c0.6-0.4,1.1-0.8,1.5-1.5c0.4-0.6,0.7-1.4,1-2.5s0.4-2.1,0.4-3.2c0-0.1,0-0.3,0-0.5c-0.5,0.8-1.2,1.5-2.1,2s-1.9,0.8-2.9,0.8
			c-1.7,0-3.2-0.6-4.4-1.9s-1.8-2.9-1.8-5s0.6-3.8,1.9-5.1s2.8-1.9,4.7-1.9c1.4,0,2.6,0.4,3.7,1.1s2,1.8,2.6,3.1
			c0.6,1.4,0.9,3.3,0.9,5.9c0,2.7-0.3,4.8-0.9,6.4S24,69,22.8,69.8c-1.2,0.8-2.5,1.2-4,1.2c-1.6,0-3-0.5-4-1.4S12.9,67.6,12.7,65.9z
			 M23.3,56.7c0-1.5-0.4-2.7-1.2-3.5c-0.8-0.9-1.7-1.3-2.8-1.3c-1.1,0-2.1,0.5-3,1.4S15,55.4,15,56.9c0,1.3,0.4,2.4,1.2,3.3
			c0.8,0.8,1.8,1.3,3,1.3s2.2-0.4,2.9-1.3C22.9,59.3,23.3,58.2,23.3,56.7z"/>
	</g>
</g>
<g transform="translate(1398.9725,401.5333)">
	<g class="st14">
		<path class="st11" d="M-19.4,70.8v-21h2.8v18.5h10.3v2.5H-19.4z"/>
		<path class="st11" d="M9.6,68.3v2.5H-4.3c0-0.6,0.1-1.2,0.3-1.8c0.4-0.9,0.9-1.9,1.7-2.8s1.9-2,3.4-3.2c2.3-1.9,3.8-3.4,4.6-4.4
			c0.8-1.1,1.2-2.1,1.2-3.1s-0.4-1.9-1.1-2.6s-1.7-1.1-2.9-1.1s-2.2,0.4-3,1.1c-0.7,0.7-1.1,1.8-1.1,3.1l-2.6-0.2
			c0.2-2,0.9-3.5,2-4.5c1.2-1.1,2.8-1.6,4.8-1.6s3.6,0.6,4.8,1.7s1.8,2.5,1.8,4.2c0,0.8-0.2,1.7-0.5,2.5s-0.9,1.7-1.7,2.6
			c-0.8,0.9-2.1,2.1-4,3.7c-1.5,1.3-2.5,2.2-3,2.6s-0.8,0.9-1.1,1.4L9.6,68.3L9.6,68.3z"/>
		<path class="st11" d="M12.3,60.4c0-2.5,0.3-4.5,0.8-6s1.3-2.7,2.3-3.5s2.3-1.2,3.8-1.2c1.1,0,2.1,0.2,3,0.7c0.8,0.5,1.6,1.1,2.1,2
			c0.6,0.9,1,1.9,1.3,3.1s0.5,2.9,0.5,5c0,2.5-0.3,4.5-0.8,6S24,69.1,23,69.9s-2.3,1.2-3.8,1.2c-2,0-3.6-0.7-4.8-2.2
			C13,67.2,12.3,64.4,12.3,60.4z M15,60.4c0,3.4,0.4,5.7,1.2,6.9c0.8,1.1,1.8,1.7,3,1.7s2.2-0.6,3-1.7s1.2-3.4,1.2-6.9
			s-0.4-5.8-1.2-6.9c-0.8-1.1-1.8-1.7-3-1.7s-2.1,0.5-2.8,1.5C15.4,54.6,15,57,15,60.4z"/>
	</g>
</g>
<g transform="translate(1458.04,401.5333)">
	<g class="st14">
		<path class="st11" d="M-19.4,70.8v-21h2.8v18.5h10.3v2.5H-19.4z"/>
		<path class="st11" d="M9.6,68.3v2.5H-4.3c0-0.6,0.1-1.2,0.3-1.8c0.4-0.9,0.9-1.9,1.7-2.8s1.9-2,3.4-3.2c2.3-1.9,3.8-3.4,4.6-4.4
			c0.8-1.1,1.2-2.1,1.2-3.1s-0.4-1.9-1.1-2.6s-1.7-1.1-2.9-1.1s-2.2,0.4-3,1.1c-0.7,0.7-1.1,1.8-1.1,3.1l-2.6-0.2
			c0.2-2,0.9-3.5,2-4.5S1,49.7,3,49.7s3.6,0.6,4.8,1.7s1.8,2.5,1.8,4.2c0,0.8-0.2,1.7-0.5,2.5s-0.9,1.7-1.7,2.6
			c-0.8,0.9-2.1,2.1-4,3.7c-1.5,1.3-2.5,2.2-3,2.6c-0.4,0.5-0.8,0.9-1.1,1.4L9.6,68.3L9.6,68.3z"/>
		<path class="st11" d="M22.1,70.8h-2.6V54.4c-0.6,0.6-1.4,1.2-2.4,1.8s-1.9,1-2.7,1.3V55c1.4-0.7,2.7-1.5,3.8-2.5s1.8-1.9,2.3-2.8
			h1.7v21.1H22.1z"/>
	</g>
</g>
<g transform="translate(1517.1075,401.5333)">
	<g class="st14">
		<path class="st11" d="M-19.4,70.8v-21h2.8v18.5h10.3v2.5H-19.4z"/>
		<path class="st11" d="M9.6,68.3v2.5H-4.3c0-0.6,0.1-1.2,0.3-1.8c0.4-0.9,0.9-1.9,1.7-2.8s1.9-2,3.4-3.2c2.3-1.9,3.8-3.4,4.6-4.4
			c0.8-1.1,1.2-2.1,1.2-3.1s-0.4-1.9-1.1-2.6s-1.7-1.1-2.9-1.1s-2.2,0.4-3,1.1c-0.7,0.7-1.1,1.8-1.1,3.1l-2.6-0.2
			c0.2-2,0.9-3.5,2-4.5S1,49.7,3,49.7s3.6,0.6,4.8,1.7s1.8,2.5,1.8,4.2c0,0.8-0.2,1.7-0.5,2.5s-0.9,1.7-1.7,2.6
			c-0.8,0.9-2.1,2.1-4,3.7c-1.5,1.3-2.5,2.2-3,2.6c-0.4,0.5-0.8,0.9-1.1,1.4L9.6,68.3L9.6,68.3z"/>
		<path class="st11" d="M25.9,68.3v2.5H12c0-0.6,0.1-1.2,0.3-1.8c0.4-0.9,0.9-1.9,1.7-2.8s1.9-2,3.4-3.2c2.3-1.9,3.8-3.4,4.6-4.4
			c0.8-1.1,1.2-2.1,1.2-3.1s-0.4-1.9-1.1-2.6s-1.7-1.1-2.9-1.1c-1.2,0-2.2,0.4-3,1.1c-0.7,0.7-1.1,1.8-1.1,3.1l-2.6-0.2
			c0.2-2,0.9-3.5,2-4.5s2.8-1.6,4.8-1.6s3.6,0.6,4.8,1.7c1.2,1.1,1.8,2.5,1.8,4.2c0,0.8-0.2,1.7-0.5,2.5s-0.9,1.7-1.7,2.6
			c-0.8,0.9-2.1,2.1-4,3.7c-1.5,1.3-2.5,2.2-3,2.6c-0.4,0.5-0.8,0.9-1.1,1.4L25.9,68.3C25.9,68.4,25.9,68.3,25.9,68.3z"/>
	</g>
</g>
<g transform="translate(1576.175,401.5333)">
	<g class="st14">
		<path class="st11" d="M-19.4,70.8v-21h2.8v18.5h10.3v2.5H-19.4z"/>
		<path class="st11" d="M9.6,68.3v2.5H-4.3c0-0.6,0.1-1.2,0.3-1.8c0.4-0.9,0.9-1.9,1.7-2.8s1.9-2,3.4-3.2c2.3-1.9,3.8-3.4,4.6-4.4
			c0.8-1.1,1.2-2.1,1.2-3.1s-0.4-1.9-1.1-2.6s-1.7-1.1-2.9-1.1s-2.2,0.4-3,1.1c-0.7,0.7-1.1,1.8-1.1,3.1l-2.6-0.2
			c0.2-2,0.9-3.5,2-4.5S1,49.7,3,49.7s3.6,0.6,4.8,1.7s1.8,2.5,1.8,4.2c0,0.8-0.2,1.7-0.5,2.5s-0.9,1.7-1.7,2.6
			c-0.8,0.9-2.1,2.1-4,3.7c-1.5,1.3-2.5,2.2-3,2.6c-0.4,0.5-0.8,0.9-1.1,1.4L9.6,68.3L9.6,68.3z"/>
		<path class="st11" d="M12.4,65.3L15,65c0.3,1.5,0.8,2.5,1.5,3.2c0.7,0.6,1.6,1,2.6,1c1.2,0,2.2-0.4,3.1-1.3
			c0.8-0.8,1.3-1.9,1.3-3.1c0-1.2-0.4-2.2-1.2-2.9c-0.8-0.7-1.8-1.2-3-1.2c-0.5,0-1.1,0.1-1.8,0.3l0.3-2.3c0.2,0,0.3,0,0.4,0
			c1.1,0,2.1-0.3,3-0.9c0.9-0.6,1.3-1.5,1.3-2.6c0-0.9-0.3-1.7-1-2.3c-0.7-0.8-1.5-1.1-2.5-1.1s-1.8,0.3-2.5,0.9
			c-0.7,0.6-1.1,1.6-1.3,2.8L12.6,55c0.3-1.7,1-3.1,2.1-4s2.5-1.4,4.2-1.4c1.1,0,2.2,0.2,3.2,0.7s1.7,1.2,2.2,2s0.8,1.8,0.8,2.7
			s-0.2,1.7-0.7,2.5s-1.2,1.3-2.2,1.8c1.2,0.3,2.2,0.9,2.9,1.8c0.7,0.9,1,2,1,3.4c0,1.8-0.7,3.4-2,4.7c-1.3,1.3-3,1.9-5.1,1.9
			c-1.8,0-3.4-0.5-4.6-1.6S12.5,67,12.4,65.3z"/>
	</g>
</g>
<g transform="translate(1635.2426,401.5333)">
	<g class="st14">
		<path class="st11" d="M-19.4,70.8v-21h2.8v18.5h10.3v2.5H-19.4z"/>
		<path class="st11" d="M9.6,68.3v2.5H-4.3c0-0.6,0.1-1.2,0.3-1.8c0.4-0.9,0.9-1.9,1.7-2.8s1.9-2,3.4-3.2c2.3-1.9,3.8-3.4,4.6-4.4
			c0.8-1.1,1.2-2.1,1.2-3.1s-0.4-1.9-1.1-2.6s-1.7-1.1-2.9-1.1s-2.2,0.4-3,1.1c-0.7,0.7-1.1,1.8-1.1,3.1l-2.6-0.2
			c0.2-2,0.9-3.5,2-4.5S1,49.7,3,49.7s3.6,0.6,4.8,1.7s1.8,2.5,1.8,4.2c0,0.8-0.2,1.7-0.5,2.5s-0.9,1.7-1.7,2.6
			c-0.8,0.9-2.1,2.1-4,3.7c-1.5,1.3-2.5,2.2-3,2.6c-0.4,0.5-0.8,0.9-1.1,1.4L9.6,68.3L9.6,68.3z"/>
		<path class="st11" d="M20.6,70.8v-5h-9.1v-2.4l9.6-13.6h2.1v13.6H26v2.4h-2.8v5H20.6z M20.6,63.4v-9.5L14,63.4H20.6z"/>
	</g>
</g>
<g transform="translate(1694.3101,401.5333)">
	<g class="st14">
		<path class="st11" d="M-19.4,70.8v-21h2.8v18.5h10.3v2.5H-19.4z"/>
		<path class="st11" d="M9.6,68.3v2.5H-4.3c0-0.6,0.1-1.2,0.3-1.8c0.4-0.9,0.9-1.9,1.7-2.8s1.9-2,3.4-3.2c2.3-1.9,3.8-3.4,4.6-4.4
			c0.8-1.1,1.2-2.1,1.2-3.1s-0.4-1.9-1.1-2.6s-1.7-1.1-2.9-1.1s-2.2,0.4-3,1.1s-1.1,1.8-1.1,3.1l-2.6-0.2c0.2-2,0.9-3.5,2-4.5
			S1,49.7,3,49.7s3.6,0.6,4.8,1.7s1.8,2.5,1.8,4.2c0,0.8-0.2,1.7-0.5,2.5s-0.9,1.7-1.7,2.6c-0.8,0.9-2.1,2.1-4,3.7
			c-1.5,1.3-2.5,2.2-3,2.6s-0.8,0.9-1.1,1.4L9.6,68.3L9.6,68.3z"/>
		<path class="st11" d="M12.3,65.3l2.7-0.2c0.2,1.3,0.7,2.3,1.4,3c0.7,0.7,1.6,1,2.6,1c1.2,0,2.3-0.5,3.2-1.4
			c0.9-0.9,1.3-2.2,1.3-3.7s-0.4-2.6-1.2-3.5c-0.8-0.8-1.9-1.3-3.2-1.3c-0.8,0-1.6,0.2-2.2,0.6c-0.7,0.4-1.2,0.9-1.6,1.5L12.9,61
			l2-10.8h10.4v2.5h-8.4l-1.1,5.6c1.3-0.9,2.6-1.3,4-1.3c1.8,0,3.4,0.6,4.6,1.9c1.3,1.3,1.9,2.9,1.9,4.9c0,1.9-0.6,3.5-1.7,4.9
			c-1.3,1.7-3.2,2.5-5.5,2.5c-1.9,0-3.5-0.5-4.7-1.6C13.2,68.5,12.5,67.1,12.3,65.3z"/>
	</g>
</g>
<g transform="translate(985.5007,440.8667)">
	<g class="st14">
		<path class="st11" d="M-68,78.7l3.1,0.8c-0.6,2.5-1.8,4.4-3.5,5.7c-1.7,1.3-3.7,2-6.1,2c-2.5,0-4.5-0.5-6.1-1.5s-2.7-2.5-3.6-4.4
			s-1.2-4-1.2-6.2c0-2.4,0.5-4.5,1.4-6.3s2.2-3.2,3.9-4.1s3.6-1.4,5.6-1.4c2.3,0,4.3,0.6,5.8,1.8c1.6,1.2,2.7,2.8,3.3,5l-3,0.7
			c-0.5-1.7-1.3-2.9-2.3-3.7c-1-0.8-2.3-1.2-3.8-1.2c-1.8,0-3.3,0.4-4.5,1.3c-1.2,0.8-2,2-2.5,3.4s-0.7,2.9-0.7,4.4
			c0,2,0.3,3.7,0.9,5.1c0.6,1.5,1.5,2.6,2.7,3.3c1.2,0.7,2.5,1.1,3.9,1.1c1.7,0,3.2-0.5,4.3-1.5C-69.3,82.1-68.5,80.6-68,78.7z"/>
		<path class="st11" d="M-61.2,86.8V63.7h3.1L-46,81.8V63.7h2.9v23.1h-3.1l-12.1-18.2v18.2H-61.2z"/>
		<path class="st11" d="M-37.9,86.8V63.7h3.1l12.1,18.1V63.7h2.9v23.1h-3.1L-35,68.7v18.1C-35,86.8-37.9,86.8-37.9,86.8z"/>
		<path class="st11" d="M-5.8,86.8V63.7h3.1v20.4H8.7v2.7C8.7,86.8-5.8,86.8-5.8,86.8z"/>
		<path class="st11" d="M22.9,84.7c-1.1,0.9-2.1,1.5-3,1.9s-2,0.6-3.1,0.6c-1.8,0-3.3-0.4-4.2-1.3c-1-0.9-1.5-2-1.5-3.4
			c0-0.8,0.2-1.6,0.6-2.2c0.4-0.7,0.9-1.2,1.5-1.6s1.3-0.7,2-0.9c0.6-0.1,1.4-0.3,2.5-0.4c2.3-0.3,4-0.6,5.1-1c0-0.4,0-0.6,0-0.7
			c0-1.2-0.3-2-0.8-2.4c-0.7-0.6-1.8-1-3.2-1c-1.3,0-2.3,0.2-3,0.7c-0.6,0.5-1.1,1.3-1.4,2.5l-2.9-0.7c0.3-1.2,0.7-2.1,1.2-2.9
			c0.6-0.7,1.4-1.3,2.5-1.7s2.4-0.6,3.8-0.6s2.6,0.2,3.5,0.5s1.5,0.8,2,1.3s0.7,1.2,0.9,1.9c0.1,0.5,0.1,1.4,0.1,2.6v3.9
			c0,2.6,0.1,4.3,0.2,5s0.4,1.4,0.7,2h-3C23.1,86.2,22.9,85.5,22.9,84.7z M22.6,78.4c-1,0.4-2.6,0.8-4.6,1.1c-1.2,0.2-2,0.4-2.5,0.6
			s-0.9,0.5-1.1,0.9c-0.2,0.4-0.4,0.8-0.4,1.3c0,0.8,0.3,1.4,0.9,1.9s1.4,0.8,2.5,0.8s2.1-0.2,2.9-0.7s1.5-1.1,1.9-2
			c0.3-0.6,0.5-1.6,0.5-2.8L22.6,78.4L22.6,78.4z"/>
		<path class="st11" d="M29.8,93.2l-0.3-2.7c0.6,0.2,1.2,0.3,1.6,0.3c0.6,0,1.1-0.1,1.5-0.3c0.4-0.2,0.7-0.5,0.9-0.9
			c0.2-0.3,0.5-1,0.9-2.1c0.1-0.2,0.1-0.4,0.3-0.7L28.4,70h3.1l3.5,9.7c0.5,1.2,0.9,2.5,1.2,3.9c0.3-1.3,0.7-2.6,1.2-3.8L41,70h2.8
			l-6.4,17c-0.7,1.8-1.2,3.1-1.6,3.8c-0.5,0.9-1.1,1.6-1.7,2.1s-1.4,0.7-2.3,0.7C31,93.6,30.4,93.5,29.8,93.2z"/>
		<path class="st11" d="M57.5,81.4l2.9,0.4c-0.5,1.7-1.3,3-2.6,4S55,87.2,53,87.2c-2.4,0-4.4-0.8-5.8-2.3S45,81.3,45,78.6
			c0-2.8,0.7-5,2.2-6.6s3.3-2.3,5.6-2.3c2.2,0,4.1,0.8,5.5,2.3s2.1,3.7,2.1,6.4c0,0.2,0,0.4,0,0.8H48c0.1,1.8,0.6,3.2,1.6,4.2
			c0.9,1,2.1,1.5,3.5,1.5c1,0,1.9-0.3,2.7-0.8S57,82.6,57.5,81.4z M48.2,76.8h9.3c-0.1-1.4-0.5-2.5-1.1-3.2
			c-0.9-1.1-2.1-1.6-3.5-1.6c-1.3,0-2.4,0.4-3.3,1.3C48.7,74.2,48.3,75.4,48.2,76.8z"/>
		<path class="st11" d="M63.9,86.8V70.1h2.6v2.5c0.7-1.2,1.3-2,1.8-2.3c0.6-0.4,1.2-0.6,1.8-0.6c1,0,1.9,0.3,2.9,0.9l-1,2.6
			c-0.7-0.4-1.4-0.6-2.1-0.6c-0.6,0-1.2,0.2-1.7,0.6s-0.8,0.9-1.1,1.6c-0.3,1-0.5,2.1-0.5,3.3v8.7C66.6,86.8,63.9,86.8,63.9,86.8z"
			/>
		<path class="st11" d="M73.6,81.8l2.8-0.4c0.2,1.1,0.6,2,1.3,2.6c0.7,0.6,1.7,0.9,3,0.9s2.3-0.3,2.9-0.8s0.9-1.2,0.9-1.9
			c0-0.6-0.3-1.1-0.8-1.5c-0.4-0.3-1.4-0.6-2.9-1c-2.1-0.5-3.5-1-4.3-1.4s-1.4-0.9-1.8-1.6s-0.6-1.4-0.6-2.2c0-0.7,0.2-1.4,0.5-2.1
			c0.3-0.6,0.8-1.2,1.4-1.6c0.4-0.3,1-0.6,1.8-0.8c0.8-0.2,1.6-0.3,2.5-0.3c1.3,0,2.5,0.2,3.5,0.6s1.7,0.9,2.2,1.5s0.8,1.5,1,2.6
			l-2.9,0.4c-0.1-0.9-0.5-1.5-1.1-2s-1.5-0.7-2.6-0.7c-1.3,0-2.2,0.2-2.8,0.6s-0.8,0.9-0.8,1.5c0,0.4,0.1,0.7,0.3,1
			c0.2,0.3,0.6,0.6,1.1,0.8c0.3,0.1,1.1,0.3,2.5,0.7c2,0.5,3.4,1,4.2,1.3c0.8,0.3,1.4,0.8,1.9,1.5s0.7,1.5,0.7,2.4s-0.3,1.8-0.8,2.7
			c-0.6,0.8-1.3,1.5-2.4,1.9c-1,0.5-2.2,0.7-3.5,0.7c-2.2,0-3.8-0.5-5-1.4C74.6,84.9,73.9,83.6,73.6,81.8z"/>
	</g>
</g>
<g>
	<line class="st10" x1="248" y1="433.8" x2="248" y2="90.8"/>
	<line class="st10" x1="248" y1="433.8" x2="262.8" y2="433.8"/>
	<line class="st10" x1="248" y1="335.8" x2="262.8" y2="335.8"/>
	<line class="st10" x1="248" y1="237.8" x2="262.8" y2="237.8"/>
	<line class="st10" x1="248" y1="139.8" x2="262.8" y2="139.8"/>
</g>
<g transform="translate(239.4667,393)">
	<g class="st14">
		<path class="st11" d="M-32.8,41.4c0-2.5,0.3-4.5,0.8-6s1.3-2.7,2.3-3.5s2.3-1.2,3.8-1.2c1.1,0,2.1,0.2,3,0.7
			c0.8,0.5,1.6,1.1,2.1,2c0.6,0.9,1,1.9,1.3,3.1s0.5,2.9,0.5,5c0,2.5-0.3,4.5-0.8,6s-1.3,2.7-2.3,3.5s-2.3,1.2-3.8,1.2
			c-2,0-3.6-0.7-4.8-2.2C-32.1,48.2-32.8,45.4-32.8,41.4z M-30.1,41.4c0,3.4,0.4,5.7,1.2,6.9c0.8,1.1,1.8,1.7,3,1.7s2.2-0.6,3-1.7
			s1.2-3.4,1.2-6.9s-0.4-5.8-1.2-6.9c-0.8-1.1-1.8-1.7-3-1.7s-2.1,0.5-2.8,1.5C-29.7,35.6-30.1,38-30.1,41.4z"/>
		<path class="st11" d="M-15,51.8v-2.9h2.9v2.9H-15z"/>
		<path class="st11" d="M-4.4,40.4c-1.1-0.4-1.9-1-2.4-1.7s-0.8-1.6-0.8-2.6c0-1.5,0.5-2.8,1.6-3.9c1.1-1,2.6-1.6,4.4-1.6
			s3.3,0.5,4.4,1.6c1.1,1.1,1.7,2.4,1.7,3.9c0,1-0.3,1.8-0.8,2.5c-0.3,0.9-1.1,1.4-2.2,1.8c1.3,0.4,2.3,1.1,2.9,2
			c0.7,0.9,1,2.1,1,3.4c0,1.8-0.6,3.3-1.9,4.5s-2.9,1.8-5,1.8s-3.7-0.6-5-1.8s-1.9-2.8-1.9-4.6c0-1.4,0.3-2.5,1-3.4
			C-6.6,41.4-5.6,40.7-4.4,40.4z M-5.7,45.7c0,0.7,0.2,1.4,0.5,2.1s0.9,1.2,1.6,1.6c0.7,0.4,1.4,0.6,2.2,0.6c1.2,0,2.2-0.4,3.1-1.2
			c0.8-0.8,1.2-1.8,1.2-3s-0.4-2.3-1.2-3.1c-0.9-0.8-1.9-1.2-3.2-1.2c-1.2,0-2.2,0.4-3,1.2C-5.3,43.5-5.7,44.5-5.7,45.7z M-4.9,36
			c0,1,0.3,1.8,1,2.4c0.7,0.6,1.5,0.9,2.5,0.9S0.4,39,1,38.4s1-1.4,1-2.3c0-0.9-0.3-1.7-1-2.3s-1.5-1-2.4-1c-1,0-1.8,0.3-2.4,0.9
			C-4.5,34.4-4.9,35.2-4.9,36z"/>
	</g>
</g>
<g transform="translate(239.4667,295)">
	<g class="st14">
		<path class="st11" d="M-32.8,41.4c0-2.5,0.3-4.5,0.8-6s1.3-2.7,2.3-3.5s2.3-1.2,3.8-1.2c1.1,0,2.1,0.2,3,0.7
			c0.8,0.5,1.6,1.1,2.1,2c0.6,0.9,1,1.9,1.3,3.1s0.5,2.9,0.5,5c0,2.5-0.3,4.5-0.8,6s-1.3,2.7-2.3,3.5s-2.3,1.2-3.8,1.2
			c-2,0-3.6-0.7-4.8-2.2C-32.1,48.2-32.8,45.4-32.8,41.4z M-30.1,41.4c0,3.4,0.4,5.7,1.2,6.9c0.8,1.1,1.8,1.7,3,1.7s2.2-0.6,3-1.7
			s1.2-3.4,1.2-6.9s-0.4-5.8-1.2-6.9c-0.8-1.1-1.8-1.7-3-1.7s-2.1,0.5-2.8,1.5C-29.7,35.6-30.1,38-30.1,41.4z"/>
		<path class="st11" d="M-15,51.8v-2.9h2.9v2.9H-15z"/>
		<path class="st11" d="M-7.9,46.9l2.5-0.2c0.2,1.2,0.6,2,1.2,2.5C-3.7,49.8-2.9,50-2,50c0.8,0,1.5-0.2,2.1-0.5
			c0.6-0.4,1.1-0.8,1.5-1.5c0.4-0.6,0.7-1.4,1-2.5S3,43.4,3,42.3c0-0.1,0-0.3,0-0.5c-0.5,0.8-1.2,1.5-2.1,2S-1,44.6-2,44.6
			c-1.7,0-3.2-0.6-4.4-1.9c-1.2-1.3-1.8-2.9-1.8-5s0.6-3.8,1.9-5.1s2.8-1.9,4.7-1.9c1.4,0,2.6,0.4,3.7,1.1s2,1.8,2.6,3.1
			c0.6,1.4,0.9,3.3,0.9,5.9c0,2.7-0.3,4.8-0.9,6.4c-0.6,1.6-1.5,2.9-2.7,3.7s-2.5,1.2-4,1.2c-1.6,0-3-0.5-4-1.4
			C-7.1,49.9-7.7,48.6-7.9,46.9z M2.6,37.7c0-1.5-0.4-2.7-1.2-3.5s-1.7-1.3-2.8-1.3s-2.1,0.5-3,1.4s-1.3,2.1-1.3,3.6
			c0,1.3,0.4,2.4,1.2,3.3c0.8,0.8,1.8,1.3,3,1.3s2.2-0.4,2.9-1.3C2.2,40.3,2.6,39.2,2.6,37.7z"/>
	</g>
</g>
<g transform="translate(239.4667,197)">
	<text transform="matrix(1 0 0 1 -13 51.8496)" class="st11 st12 st13">1</text>
</g>
<g transform="translate(239.4667,99)">
	<g class="st14">
		<path class="st11" d="M-23.1,51.8h-2.6V35.4c-0.6,0.6-1.4,1.2-2.4,1.8s-1.9,1-2.7,1.3V36c1.4-0.7,2.7-1.5,3.8-2.5
			c1.1-1,1.8-1.9,2.3-2.8h1.7L-23.1,51.8L-23.1,51.8z"/>
		<path class="st11" d="M-15,51.8v-2.9h2.9v2.9H-15z"/>
		<path class="st11" d="M1.4,51.8h-2.6V35.4c-0.6,0.6-1.4,1.2-2.4,1.8s-1.9,1-2.7,1.3V36c1.4-0.7,2.7-1.5,3.8-2.5s1.8-1.9,2.3-2.8
			h1.7L1.4,51.8L1.4,51.8z"/>
	</g>
</g>
<g>
	<path class="st3" d="M1692.6,118.6V94.8H1672v23.8C1672,118.6,1692.6,118.6,1692.6,118.6z"/>
</g>
<g>
	<path class="st5" d="M1692,152.8V129h-20v23.8H1692z"/>
</g>
<g>
	<g>
		<line class="st7" x1="977.2" y1="100.6" x2="977.2" y2="109.1"/>
		<line class="st7" x1="977.2" y1="101.1" x2="993.7" y2="101.1"/>
	</g>
	<line class="st7" x1="993.5" y1="100.5" x2="993.8" y2="109.2"/>
</g>
<g>
	<g>
		<line class="st7" x1="1095.4" y1="100.6" x2="1095.4" y2="109.1"/>
		<line class="st7" x1="1095.4" y1="101.1" x2="1111.8" y2="101.1"/>
	</g>
	<line class="st7" x1="1111.7" y1="100.5" x2="1111.9" y2="109.2"/>
</g>
<g>
	<g>
		<line class="st7" x1="1508.9" y1="100.6" x2="1508.9" y2="109.1"/>
		<line class="st7" x1="1508.9" y1="101.1" x2="1525.3" y2="101.1"/>
	</g>
	<line class="st7" x1="1525.2" y1="100.5" x2="1525.4" y2="109.2"/>
</g>
<g>
	<g>
		<line class="st7" x1="386.6" y1="100.6" x2="386.6" y2="109.1"/>
		<line class="st7" x1="386.6" y1="101.1" x2="403" y2="101.1"/>
	</g>
	<line class="st7" x1="402.9" y1="100.5" x2="403.1" y2="109.2"/>
</g>
<g>
	<g>
		<line class="st7" x1="622.8" y1="100.6" x2="622.8" y2="109.1"/>
		<line class="st7" x1="622.8" y1="101.1" x2="639.2" y2="101.1"/>
	</g>
	<line class="st7" x1="639.1" y1="100.5" x2="639.3" y2="109.2"/>
</g>
<g>
	<path d="M508.5,49.4c-1.1,0.5-3.2,1.1-5.9,1.1c-6.2,0-11-4-11-11.3c0-7,4.7-11.7,11.6-11.7c2.7,0,4.5,0.6,5.3,1l-0.7,2.3
		c-1.1-0.5-2.6-0.9-4.5-0.9c-5.2,0-8.7,3.3-8.7,9.2c0,5.4,3.1,8.9,8.5,8.9c1.7,0,3.5-0.4,4.7-0.9L508.5,49.4z"/>
	<path d="M526.4,42.1c0,5.9-4.3,8.4-8,8.4c-4.2,0-7.6-3.1-7.6-8.3c0-5.3,3.6-8.4,8-8.4C523.2,33.8,526.4,37,526.4,42.1z M513.7,42.2
		c0,3.2,1.6,6.1,4.9,6.1c3.2,0,4.9-2.9,4.9-6.1c0-2.8-1.3-6.2-4.9-6.2S513.7,39.4,513.7,42.2z"/>
	<path d="M530.1,39.1c0-1.9-0.1-3.5-0.1-5h2.5l0.1,3.1h0.1c0.8-2.1,2.5-3.5,4.5-3.5c0.3,0,0.6,0,0.8,0.1v2.7c-0.3-0.1-0.6-0.1-1-0.1
		c-2.1,0-3.5,1.6-3.9,3.7c-0.1,0.4-0.1,0.9-0.1,1.3v8.5h-2.9L530.1,39.1L530.1,39.1z"/>
	<path d="M540.9,39.1c0-1.9-0.1-3.5-0.1-5h2.5l0.1,3.1h0.1c0.8-2.1,2.5-3.5,4.5-3.5c0.3,0,0.6,0,0.8,0.1v2.7c-0.3-0.1-0.6-0.1-1-0.1
		c-2.1,0-3.5,1.6-3.9,3.7c-0.1,0.4-0.1,0.9-0.1,1.3v8.5h-2.9L540.9,39.1L540.9,39.1z"/>
	<path d="M553.3,42.7c0.1,3.9,2.5,5.5,5.5,5.5c2.1,0,3.4-0.4,4.4-0.8l0.5,2.1c-1,0.5-2.8,1-5.3,1c-4.9,0-7.9-3.3-7.9-8.1
		c0-4.9,2.8-8.6,7.5-8.6c5.2,0,6.6,4.6,6.6,7.5c0,0.6-0.1,1.1-0.1,1.4L553.3,42.7z M561.8,40.6c0-1.8-0.8-4.7-4-4.7
		c-2.9,0-4.2,2.7-4.5,4.7H561.8z"/>
	<path d="M568.2,26.7h2.9v23.4h-2.9V26.7z"/>
	<path d="M587.2,46.3c0,1.4,0.1,2.7,0.2,3.8h-2.6l-0.3-2h-0.1c-0.9,1.2-2.6,2.4-4.9,2.4c-3.2,0-4.9-2.3-4.9-4.6c0-3.9,3.4-6,9.6-5.9
		v-0.4c0-1.3-0.4-3.7-3.6-3.7c-1.5,0-3.1,0.5-4.2,1.2l-0.7-1.9c1.3-0.9,3.3-1.4,5.2-1.4c4.9,0,6.1,3.3,6.1,6.5v6H587.2z M584.4,42
		c-3.2-0.1-6.8,0.5-6.8,3.6c0,1.9,1.3,2.8,2.7,2.8c2.1,0,3.4-1.3,3.9-2.7c0.1-0.3,0.1-0.6,0.1-0.9L584.4,42L584.4,42z"/>
	<path d="M595.3,29.6v4.6h4.2v2.2h-4.2V45c0,2,0.6,3.1,2.2,3.1c0.8,0,1.3-0.1,1.7-0.2l0.1,2.2c-0.6,0.3-1.5,0.4-2.6,0.4
		c-1.3,0-2.4-0.5-3.1-1.2c-0.8-0.9-1.1-2.3-1.1-4.2v-8.7H590v-2.2h2.5v-3.9L595.3,29.6z"/>
	<path d="M606,29.7c0,1-0.7,1.8-1.8,1.8s-1.8-0.8-1.7-1.8c0-1,0.7-1.8,1.8-1.8S606,28.6,606,29.7z M602.8,50.1V34.2h2.9v15.9H602.8z
		"/>
	<path d="M625,42.1c0,5.9-4.3,8.4-8,8.4c-4.2,0-7.6-3.1-7.6-8.3c0-5.3,3.6-8.4,8-8.4C621.7,33.8,625,37,625,42.1z M612.3,42.2
		c0,3.2,1.6,6.1,4.9,6.1c3.2,0,4.9-2.9,4.9-6.1c0-2.8-1.3-6.2-4.9-6.2S612.3,39.4,612.3,42.2z"/>
	<path d="M628.6,38.5c0-1.7-0.1-3-0.1-4.3h2.6l0.1,2.6h0.1c0.8-1.5,2.6-3,5.3-3c2.2,0,5.6,1.3,5.6,6.8v9.5h-2.9V41
		c0-2.6-1-4.8-3.7-4.8c-1.9,0-3.4,1.4-3.9,3c-0.1,0.4-0.2,0.9-0.2,1.4v9.6h-2.9L628.6,38.5L628.6,38.5z"/>
	<path d="M654,26.7h2.9v10h0.1c1-1.8,2.9-2.9,5.4-2.9c4,0,6.8,3.3,6.8,8.1c0,5.7-3.7,8.5-7.2,8.5c-2.3,0-4.2-0.9-5.4-3h-0.1
		l-0.1,2.6h-2.5c0.1-1.1,0.1-2.7,0.1-4.1V26.7z M656.8,43.7c0,0.4,0,0.7,0.1,1.1c0.6,2,2.3,3.4,4.4,3.4c3.1,0,4.9-2.5,4.9-6.1
		c0-3.2-1.7-5.9-4.8-5.9c-1.9,0-3.8,1.4-4.4,3.6c-0.1,0.4-0.2,0.7-0.2,1.2V43.7z"/>
	<path d="M674.4,42.7c0.1,3.9,2.5,5.5,5.5,5.5c2.1,0,3.4-0.4,4.4-0.8l0.5,2.1c-1,0.5-2.8,1-5.3,1c-4.9,0-7.9-3.3-7.9-8.1
		c0-4.9,2.8-8.6,7.5-8.6c5.2,0,6.6,4.6,6.6,7.5c0,0.6-0.1,1.1-0.1,1.4L674.4,42.7z M682.9,40.6c0-1.8-0.8-4.7-4-4.7
		c-2.9,0-4.2,2.7-4.5,4.7H682.9z"/>
	<path d="M692.8,29.6v4.6h4.2v2.2h-4.2V45c0,2,0.6,3.1,2.2,3.1c0.8,0,1.3-0.1,1.7-0.2l0.1,2.2c-0.6,0.3-1.5,0.4-2.6,0.4
		c-1.3,0-2.4-0.5-3.1-1.2c-0.8-0.9-1.1-2.3-1.1-4.2v-8.7h-2.5v-2.2h2.5v-3.9L692.8,29.6z"/>
	<path d="M701.3,34.2l2.1,8.1c0.5,1.8,0.9,3.5,1.2,5.1h0.1c0.3-1.7,0.9-3.4,1.4-5.1l2.6-8.1h2.4l2.5,8c0.6,1.8,1.1,3.6,1.4,5.2h0.1
		c0.3-1.7,0.7-3.3,1.2-5.2l2.3-8h2.9l-5.2,15.9h-2.6l-2.4-7.6c-0.6-1.8-1-3.4-1.4-5.2h-0.1c-0.4,1.9-0.9,3.6-1.5,5.3l-2.6,7.6h-2.6
		l-4.8-15.9h3V34.2z"/>
	<path d="M726.1,42.7c0.1,3.9,2.5,5.5,5.5,5.5c2.1,0,3.4-0.4,4.4-0.8l0.5,2.1c-1,0.5-2.8,1-5.3,1c-4.9,0-7.9-3.3-7.9-8.1
		c0-4.9,2.8-8.6,7.5-8.6c5.2,0,6.6,4.6,6.6,7.5c0,0.6-0.1,1.1-0.1,1.4L726.1,42.7z M734.6,40.6c0-1.8-0.8-4.7-4-4.7
		c-2.9,0-4.2,2.7-4.5,4.7H734.6z"/>
	<path d="M742.7,42.7c0.1,3.9,2.5,5.5,5.5,5.5c2.1,0,3.4-0.4,4.4-0.8l0.5,2.1c-1,0.5-2.8,1-5.3,1c-4.9,0-7.9-3.3-7.9-8.1
		c0-4.9,2.8-8.6,7.5-8.6c5.2,0,6.6,4.6,6.6,7.5c0,0.6-0.1,1.1-0.1,1.4L742.7,42.7z M751.2,40.6c0-1.8-0.8-4.7-4-4.7
		c-2.9,0-4.2,2.7-4.5,4.7H751.2z"/>
	<path d="M757.6,38.5c0-1.7-0.1-3-0.1-4.3h2.6l0.1,2.6h0.1c0.8-1.5,2.6-3,5.3-3c2.2,0,5.6,1.3,5.6,6.8v9.5h-2.9V41
		c0-2.6-1-4.8-3.7-4.8c-1.9,0-3.4,1.4-3.9,3c-0.1,0.4-0.2,0.9-0.2,1.4v9.6h-2.9L757.6,38.5L757.6,38.5z"/>
	<path d="M784.5,42.7c0.1,3.9,2.5,5.5,5.5,5.5c2.1,0,3.4-0.4,4.4-0.8l0.5,2.1c-1,0.5-2.8,1-5.3,1c-4.9,0-7.9-3.3-7.9-8.1
		c0-4.9,2.8-8.6,7.5-8.6c5.2,0,6.6,4.6,6.6,7.5c0,0.6-0.1,1.1-0.1,1.4L784.5,42.7z M793.1,40.6c0-1.8-0.8-4.7-4-4.7
		c-2.9,0-4.2,2.7-4.5,4.7H793.1z"/>
	<path d="M800.5,34.2l3.5,9.4c0.4,1.1,0.8,2.3,1,3.3h0.1c0.3-0.9,0.6-2.2,1-3.3l3.2-9.4h3.1L808,45.5c-2.1,5.5-3.5,8.3-5.5,10
		c-1.5,1.2-2.9,1.7-3.6,1.8l-0.7-2.4c0.8-0.2,1.7-0.7,2.6-1.4c0.8-0.6,1.7-1.7,2.4-3.2c0.1-0.3,0.2-0.5,0.2-0.7s-0.1-0.4-0.2-0.8
		l-5.9-14.7h3.2V34.2z"/>
	<path d="M816.6,42.7c0.1,3.9,2.5,5.5,5.5,5.5c2.1,0,3.4-0.4,4.4-0.8l0.5,2.1c-1,0.5-2.8,1-5.3,1c-4.9,0-7.9-3.3-7.9-8.1
		c0-4.9,2.8-8.6,7.5-8.6c5.2,0,6.6,4.6,6.6,7.5c0,0.6-0.1,1.1-0.1,1.4L816.6,42.7z M825.1,40.6c0-1.8-0.8-4.7-4-4.7
		c-2.9,0-4.2,2.7-4.5,4.7H825.1z"/>
	<path d="M838.6,38.5c0-1.7-0.1-3-0.1-4.3h2.5l0.2,2.5h0.1c0.9-1.5,2.4-2.9,5-2.9c2.2,0,3.8,1.3,4.5,3.2h0.1
		c0.5-0.9,1.1-1.6,1.8-2.1c1-0.7,2-1.1,3.5-1.1c2.1,0,5.2,1.4,5.2,6.9v9.4h-2.8v-9c0-3.1-1.2-5-3.5-5c-1.6,0-2.9,1.2-3.4,2.6
		c-0.1,0.4-0.3,1-0.3,1.5v9.9h-2.8v-9.6c0-2.5-1.2-4.4-3.3-4.4c-1.8,0-3.1,1.5-3.6,2.9c-0.1,0.4-0.2,1-0.2,1.4V50h-2.8V38.5H838.6z"
		/>
	<path d="M880.5,42.1c0,5.9-4.3,8.4-8,8.4c-4.2,0-7.6-3.1-7.6-8.3c0-5.3,3.6-8.4,8-8.4C877.3,33.8,880.5,37,880.5,42.1z M867.9,42.2
		c0,3.2,1.6,6.1,4.9,6.1c3.2,0,4.9-2.9,4.9-6.1c0-2.8-1.3-6.2-4.9-6.2C869.1,36,867.9,39.4,867.9,42.2z"/>
	<path d="M885.3,34.2l3.1,8.9c0.5,1.5,1,2.8,1.3,4.1h0.1c0.4-1.3,0.8-2.7,1.3-4.1l3.1-8.9h3l-6.3,15.9h-2.8L882,34.2L885.3,34.2z"/>
	<path d="M901.7,42.7c0.1,3.9,2.5,5.5,5.5,5.5c2.1,0,3.4-0.4,4.4-0.8l0.5,2.1c-1,0.5-2.8,1-5.3,1c-4.9,0-7.9-3.3-7.9-8.1
		c0-4.9,2.8-8.6,7.5-8.6c5.2,0,6.6,4.6,6.6,7.5c0,0.6-0.1,1.1-0.1,1.4L901.7,42.7z M910.2,40.6c0-1.8-0.8-4.7-4-4.7
		c-2.9,0-4.2,2.7-4.5,4.7H910.2z"/>
	<path d="M916.6,38.5c0-1.7-0.1-3-0.1-4.3h2.5l0.2,2.5h0.1c0.9-1.5,2.4-2.9,5-2.9c2.2,0,3.8,1.3,4.5,3.2h0.1
		c0.5-0.9,1.1-1.6,1.8-2.1c1-0.7,2-1.1,3.5-1.1c2.1,0,5.2,1.4,5.2,6.9v9.4h-2.8v-9c0-3.1-1.2-5-3.5-5c-1.6,0-2.9,1.2-3.4,2.6
		c-0.1,0.4-0.3,1-0.3,1.5v9.9h-2.8v-9.6c0-2.5-1.2-4.4-3.3-4.4c-1.8,0-3.1,1.5-3.6,2.9c-0.1,0.4-0.2,1-0.2,1.4V50h-2.8V38.5H916.6z"
		/>
	<path d="M945.7,42.7c0.1,3.9,2.5,5.5,5.5,5.5c2.1,0,3.4-0.4,4.4-0.8l0.5,2.1c-1,0.5-2.8,1-5.3,1c-4.9,0-7.9-3.3-7.9-8.1
		c0-4.9,2.8-8.6,7.5-8.6c5.2,0,6.6,4.6,6.6,7.5c0,0.6-0.1,1.1-0.1,1.4L945.7,42.7z M954.3,40.6c0-1.8-0.8-4.7-4-4.7
		c-2.9,0-4.2,2.7-4.5,4.7H954.3z"/>
	<path d="M960.7,38.5c0-1.7-0.1-3-0.1-4.3h2.6l0.1,2.6h0.1c0.8-1.5,2.6-3,5.3-3c2.2,0,5.6,1.3,5.6,6.8v9.5h-2.9V41
		c0-2.6-1-4.8-3.7-4.8c-1.9,0-3.4,1.4-3.9,3c-0.1,0.4-0.2,0.9-0.2,1.4v9.6h-2.9L960.7,38.5L960.7,38.5z"/>
	<path d="M982.5,29.6v4.6h4.2v2.2h-4.2V45c0,2,0.6,3.1,2.2,3.1c0.8,0,1.3-0.1,1.7-0.2l0.1,2.2c-0.6,0.3-1.5,0.4-2.6,0.4
		c-1.3,0-2.4-0.5-3.1-1.2c-0.8-0.9-1.1-2.3-1.1-4.2v-8.7h-2.5v-2.2h2.5v-3.9L982.5,29.6z"/>
	<path d="M1010.7,26.7V46c0,1.4,0.1,3,0.1,4.1h-2.6l-0.1-2.8h-0.1c-0.9,1.8-2.8,3.1-5.4,3.1c-3.9,0-6.9-3.3-6.9-8.1
		c0-5.3,3.3-8.6,7.2-8.6c2.4,0,4.1,1.1,4.8,2.4h0.1v-9.5h2.9V26.7z M1007.8,40.7c0-0.4,0-0.9-0.1-1.2c-0.5-1.8-2-3.3-4.2-3.3
		c-3,0-4.8,2.6-4.8,6.1c0,3.2,1.6,5.9,4.8,5.9c1.9,0,3.7-1.3,4.3-3.5c0.1-0.4,0.1-0.8,0.1-1.3L1007.8,40.7L1007.8,40.7z"/>
	<path d="M1018.8,29.7c0,1-0.7,1.8-1.8,1.8s-1.8-0.8-1.8-1.8s0.7-1.8,1.8-1.8C1018,27.9,1018.8,28.6,1018.8,29.7z M1015.5,50.1V34.2
		h2.9v15.9H1015.5z"/>
	<path d="M1022.9,47.2c0.9,0.6,2.4,1.2,3.8,1.2c2.1,0,3.1-1.1,3.1-2.4c0-1.4-0.8-2.1-3-2.9c-2.9-1.1-4.2-2.6-4.2-4.6
		c0-2.5,2.1-4.7,5.5-4.7c1.6,0,3,0.4,3.9,1l-0.7,2.1c-0.6-0.4-1.8-1-3.3-1c-1.7,0-2.6,1-2.6,2.2c0,1.3,0.9,1.9,3,2.7
		c2.7,1,4.2,2.4,4.2,4.8c0,2.8-2.2,4.8-6,4.8c-1.8,0-3.4-0.5-4.5-1.1L1022.9,47.2z"/>
	<path d="M1035.9,47.2c0.9,0.6,2.4,1.2,3.8,1.2c2.1,0,3.1-1.1,3.1-2.4c0-1.4-0.8-2.1-3-2.9c-2.9-1.1-4.2-2.6-4.2-4.6
		c0-2.5,2.1-4.7,5.5-4.7c1.6,0,3,0.4,3.9,1l-0.7,2.1c-0.6-0.4-1.8-1-3.3-1c-1.7,0-2.6,1-2.6,2.2c0,1.3,0.9,1.9,3,2.7
		c2.7,1,4.2,2.4,4.2,4.8c0,2.8-2.2,4.8-6,4.8c-1.7,0-3.4-0.5-4.5-1.1L1035.9,47.2z"/>
	<path d="M1052.7,29.7c0,1-0.7,1.8-1.8,1.8c-1.1,0-1.8-0.8-1.8-1.8s0.7-1.8,1.8-1.8C1051.9,27.9,1052.6,28.6,1052.7,29.7z
		 M1049.4,50.1V34.2h2.9v15.9H1049.4z"/>
	<path d="M1057.1,38.5c0-1.7-0.1-3-0.1-4.3h2.5l0.2,2.5h0.1c0.9-1.5,2.4-2.9,5-2.9c2.2,0,3.8,1.3,4.5,3.2h0.1
		c0.5-0.9,1.1-1.6,1.8-2.1c1-0.7,2-1.1,3.5-1.1c2.1,0,5.2,1.4,5.2,6.9v9.4h-2.8v-9c0-3.1-1.2-5-3.5-5c-1.7,0-2.9,1.2-3.4,2.6
		c-0.1,0.4-0.3,1-0.3,1.5v9.9h-2.8v-9.6c0-2.5-1.2-4.4-3.3-4.4c-1.8,0-3.1,1.5-3.6,2.9c-0.1,0.4-0.2,1-0.2,1.4V50h-2.8L1057.1,38.5
		L1057.1,38.5z"/>
	<path d="M1087.9,29.7c0,1-0.7,1.8-1.8,1.8c-1.1,0-1.8-0.8-1.7-1.8c0-1,0.7-1.8,1.8-1.8C1087.1,27.9,1087.9,28.6,1087.9,29.7z
		 M1084.6,50.1V34.2h2.9v15.9H1084.6z"/>
	<path d="M1092.4,26.7h2.9v23.4h-2.9V26.7z"/>
	<path d="M1111.3,46.3c0,1.4,0.1,2.7,0.2,3.8h-2.6l-0.3-2h-0.1c-0.9,1.2-2.6,2.4-4.9,2.4c-3.2,0-4.9-2.3-4.9-4.6
		c0-3.9,3.4-6,9.6-5.9v-0.4c0-1.3-0.4-3.7-3.6-3.7c-1.5,0-3.1,0.5-4.2,1.2l-0.7-1.9c1.3-0.9,3.3-1.4,5.2-1.4c4.9,0,6.1,3.3,6.1,6.5
		v6H1111.3z M1108.5,42c-3.2-0.1-6.8,0.5-6.8,3.6c0,1.9,1.3,2.8,2.7,2.8c2.1,0,3.4-1.3,3.9-2.7c0.1-0.3,0.1-0.6,0.1-0.9V42H1108.5z"
		/>
	<path d="M1116,39.1c0-1.9-0.1-3.5-0.1-5h2.5l0.1,3.1h0.1c0.8-2.1,2.5-3.5,4.5-3.5c0.3,0,0.6,0,0.8,0.1v2.7c-0.3-0.1-0.6-0.1-1-0.1
		c-2.1,0-3.5,1.6-3.9,3.7c-0.1,0.4-0.1,0.9-0.1,1.3v8.5h-2.9V39.1z"/>
	<path d="M1130.1,29.7c0,1-0.7,1.8-1.8,1.8c-1.1,0-1.8-0.8-1.8-1.8s0.7-1.8,1.8-1.8C1129.3,27.9,1130,28.6,1130.1,29.7z
		 M1126.8,50.1V34.2h2.9v15.9H1126.8z"/>
	<path d="M1138,29.6v4.6h4.2v2.2h-4.2V45c0,2,0.6,3.1,2.2,3.1c0.8,0,1.3-0.1,1.7-0.2l0.1,2.2c-0.6,0.3-1.5,0.4-2.6,0.4
		c-1.3,0-2.4-0.5-3.1-1.2c-0.8-0.9-1.1-2.3-1.1-4.2v-8.7h-2.5v-2.2h2.5v-3.9L1138,29.6z"/>
	<path d="M1148.7,29.7c0,1-0.7,1.8-1.8,1.8c-1.1,0-1.8-0.8-1.8-1.8s0.7-1.8,1.8-1.8C1148,27.9,1148.7,28.6,1148.7,29.7z
		 M1145.5,50.1V34.2h2.9v15.9H1145.5z"/>
	<path d="M1154.8,42.7c0.1,3.9,2.5,5.5,5.5,5.5c2.1,0,3.4-0.4,4.4-0.8l0.5,2.1c-1,0.5-2.8,1-5.3,1c-4.9,0-7.9-3.3-7.9-8.1
		c0-4.9,2.8-8.6,7.5-8.6c5.2,0,6.6,4.6,6.6,7.5c0,0.6-0.1,1.1-0.1,1.4L1154.8,42.7z M1163.3,40.6c0-1.8-0.8-4.7-4-4.7
		c-2.9,0-4.2,2.7-4.5,4.7H1163.3z"/>
	<path d="M1169.3,47.2c0.9,0.6,2.4,1.2,3.8,1.2c2.1,0,3.1-1.1,3.1-2.4c0-1.4-0.8-2.1-3-2.9c-2.9-1.1-4.2-2.6-4.2-4.6
		c0-2.5,2.1-4.7,5.5-4.7c1.6,0,3,0.4,3.9,1l-0.7,2.1c-0.6-0.4-1.8-1-3.3-1c-1.7,0-2.6,1-2.6,2.2c0,1.3,0.9,1.9,3,2.7
		c2.7,1,4.2,2.4,4.2,4.8c0,2.8-2.2,4.8-6,4.8c-1.7,0-3.4-0.5-4.5-1.1L1169.3,47.2z"/>
	<path d="M1201,46.3c0,1.4,0.1,2.7,0.2,3.8h-2.6l-0.3-2h-0.1c-0.9,1.2-2.6,2.4-4.9,2.4c-3.2,0-4.9-2.3-4.9-4.6c0-3.9,3.4-6,9.6-5.9
		v-0.4c0-1.3-0.4-3.7-3.6-3.7c-1.5,0-3.1,0.5-4.2,1.2l-0.7-1.9c1.3-0.9,3.3-1.4,5.2-1.4c4.9,0,6.1,3.3,6.1,6.5v6H1201z M1198.2,42
		c-3.2-0.1-6.8,0.5-6.8,3.6c0,1.9,1.3,2.8,2.7,2.8c2.1,0,3.4-1.3,3.9-2.7c0.1-0.3,0.1-0.6,0.1-0.9V42H1198.2z"/>
	<path d="M1205.7,38.5c0-1.7-0.1-3-0.1-4.3h2.6l0.1,2.6h0.1c0.8-1.5,2.6-3,5.3-3c2.2,0,5.6,1.3,5.6,6.8v9.5h-2.9V41
		c0-2.6-1-4.8-3.7-4.8c-1.9,0-3.4,1.4-3.9,3c-0.1,0.4-0.2,0.9-0.2,1.4v9.6h-2.9V38.5z"/>
	<path d="M1237.8,26.7V46c0,1.4,0.1,3,0.1,4.1h-2.6l-0.1-2.8h-0.1c-0.9,1.8-2.8,3.1-5.4,3.1c-3.9,0-6.9-3.3-6.9-8.1
		c0-5.3,3.3-8.6,7.2-8.6c2.4,0,4.1,1.1,4.8,2.4h0.1v-9.5h2.9V26.7z M1234.9,40.7c0-0.4,0-0.9-0.1-1.2c-0.5-1.8-2-3.3-4.2-3.3
		c-3,0-4.8,2.6-4.8,6.1c0,3.2,1.6,5.9,4.8,5.9c1.9,0,3.7-1.3,4.3-3.5c0.1-0.4,0.1-0.8,0.1-1.3v-2.7H1234.9z"/>
	<path d="M1265.3,49.4c-1.1,0.5-3.2,1.1-5.9,1.1c-6.2,0-11-4-11-11.3c0-7,4.7-11.7,11.6-11.7c2.7,0,4.5,0.6,5.3,1l-0.7,2.3
		c-1.1-0.5-2.6-0.9-4.5-0.9c-5.2,0-8.7,3.3-8.7,9.2c0,5.4,3.1,8.9,8.5,8.9c1.7,0,3.5-0.4,4.7-0.9L1265.3,49.4z"/>
	<path d="M1268.9,50.1V27.9h3.2l7.1,11.2c1.6,2.6,2.9,5,4,7.3h0.1c-0.3-3-0.3-5.7-0.3-9.1V28h2.7v22.2h-2.9l-7.1-11.3
		c-1.6-2.5-3-5-4.2-7.4h-0.1c0.2,2.8,0.2,5.5,0.2,9.2v9.5L1268.9,50.1L1268.9,50.1z"/>
	<path d="M1290.6,50.1V27.9h3.2l7.1,11.2c1.6,2.6,2.9,5,4,7.3h0.1c-0.3-3-0.3-5.7-0.3-9.1V28h2.7v22.2h-2.9l-7.1-11.3
		c-1.6-2.5-3-5-4.2-7.4h-0.1c0.2,2.8,0.2,5.5,0.2,9.2v9.5L1290.6,50.1L1290.6,50.1z"/>
	<path d="M1333,26.7V46c0,1.4,0.1,3,0.1,4.1h-2.6l-0.1-2.8h-0.1c-0.9,1.8-2.8,3.1-5.4,3.1c-3.9,0-6.9-3.3-6.9-8.1
		c0-5.3,3.3-8.6,7.2-8.6c2.4,0,4.1,1.1,4.8,2.4h0.1v-9.5h2.9V26.7z M1330.2,40.7c0-0.4,0-0.9-0.1-1.2c-0.5-1.8-2-3.3-4.2-3.3
		c-3,0-4.8,2.6-4.8,6.1c0,3.2,1.6,5.9,4.8,5.9c1.9,0,3.7-1.3,4.3-3.5c0.1-0.4,0.1-0.8,0.1-1.3v-2.7H1330.2z"/>
	<path d="M1341.1,29.7c0,1-0.7,1.8-1.8,1.8c-1.1,0-1.8-0.8-1.7-1.8c0-1,0.7-1.8,1.8-1.8C1340.4,27.9,1341.1,28.6,1341.1,29.7z
		 M1337.9,50.1V34.2h2.9v15.9H1337.9z"/>
	<path d="M1345.2,47.2c0.9,0.6,2.4,1.2,3.8,1.2c2.1,0,3.1-1.1,3.1-2.4c0-1.4-0.8-2.1-3-2.9c-2.9-1.1-4.2-2.6-4.2-4.6
		c0-2.5,2.1-4.7,5.5-4.7c1.6,0,3,0.4,3.9,1l-0.7,2.1c-0.6-0.4-1.8-1-3.3-1c-1.7,0-2.6,1-2.6,2.2c0,1.3,0.9,1.9,3,2.7
		c2.7,1,4.2,2.4,4.2,4.8c0,2.8-2.2,4.8-6,4.8c-1.7,0-3.4-0.5-4.5-1.1L1345.2,47.2z"/>
	<path d="M1358.3,47.2c0.9,0.6,2.4,1.2,3.8,1.2c2.1,0,3.1-1.1,3.1-2.4c0-1.4-0.8-2.1-3-2.9c-2.9-1.1-4.2-2.6-4.2-4.6
		c0-2.5,2.1-4.7,5.5-4.7c1.6,0,3,0.4,3.9,1l-0.7,2.1c-0.6-0.4-1.8-1-3.3-1c-1.7,0-2.6,1-2.6,2.2c0,1.3,0.9,1.9,3,2.7
		c2.7,1,4.2,2.4,4.2,4.8c0,2.8-2.2,4.8-6,4.8c-1.7,0-3.4-0.5-4.5-1.1L1358.3,47.2z"/>
	<path d="M1375,29.7c0,1-0.7,1.8-1.8,1.8c-1.1,0-1.8-0.8-1.7-1.8c0-1,0.7-1.8,1.8-1.8C1374.2,27.9,1375,28.6,1375,29.7z
		 M1371.7,50.1V34.2h2.9v15.9H1371.7z"/>
	<path d="M1379.4,38.5c0-1.7-0.1-3-0.1-4.3h2.5l0.2,2.5h0.1c0.9-1.5,2.4-2.9,5-2.9c2.2,0,3.8,1.3,4.5,3.2h0.1
		c0.5-0.9,1.1-1.6,1.8-2.1c1-0.7,2-1.1,3.5-1.1c2.1,0,5.2,1.4,5.2,6.9v9.4h-2.8v-9c0-3.1-1.2-5-3.5-5c-1.7,0-2.9,1.2-3.4,2.6
		c-0.1,0.4-0.3,1-0.3,1.5v9.9h-2.8v-9.6c0-2.5-1.2-4.4-3.3-4.4c-1.8,0-3.1,1.5-3.6,2.9c-0.1,0.4-0.2,1-0.2,1.4V50h-2.8L1379.4,38.5
		L1379.4,38.5z"/>
	<path d="M1410.2,29.7c0,1-0.7,1.8-1.8,1.8c-1.1,0-1.8-0.8-1.7-1.8c0-1,0.7-1.8,1.8-1.8C1409.5,27.9,1410.2,28.6,1410.2,29.7z
		 M1407,50.1V34.2h2.9v15.9H1407z"/>
	<path d="M1414.7,26.7h2.9v23.4h-2.9V26.7z"/>
	<path d="M1433.7,46.3c0,1.4,0.1,2.7,0.2,3.8h-2.6l-0.3-2h-0.1c-0.9,1.2-2.6,2.4-4.9,2.4c-3.2,0-4.9-2.3-4.9-4.6
		c0-3.9,3.4-6,9.6-5.9v-0.4c0-1.3-0.4-3.7-3.6-3.7c-1.5,0-3.1,0.5-4.2,1.2l-0.7-1.9c1.3-0.9,3.3-1.4,5.2-1.4c4.9,0,6.1,3.3,6.1,6.5
		v6H1433.7z M1430.9,42c-3.2-0.1-6.8,0.5-6.8,3.6c0,1.9,1.3,2.8,2.7,2.8c2.1,0,3.4-1.3,3.9-2.7c0.1-0.3,0.1-0.6,0.1-0.9V42H1430.9z"
		/>
	<path d="M1438.4,39.1c0-1.9-0.1-3.5-0.1-5h2.5l0.1,3.1h0.1c0.8-2.1,2.5-3.5,4.5-3.5c0.3,0,0.6,0,0.8,0.1v2.7
		c-0.3-0.1-0.6-0.1-1-0.1c-2.1,0-3.5,1.6-3.9,3.7c-0.1,0.4-0.1,0.9-0.1,1.3v8.5h-2.9V39.1z"/>
	<path d="M1452.4,29.7c0,1-0.7,1.8-1.8,1.8c-1.1,0-1.8-0.8-1.7-1.8c0-1,0.7-1.8,1.8-1.8C1451.7,27.9,1452.4,28.6,1452.4,29.7z
		 M1449.1,50.1V34.2h2.9v15.9H1449.1z"/>
	<path d="M1460.4,29.6v4.6h4.2v2.2h-4.2V45c0,2,0.6,3.1,2.2,3.1c0.8,0,1.3-0.1,1.7-0.2l0.1,2.2c-0.6,0.3-1.5,0.4-2.6,0.4
		c-1.3,0-2.4-0.5-3.1-1.2c-0.8-0.9-1.1-2.3-1.1-4.2v-8.7h-2.5v-2.2h2.5v-3.9L1460.4,29.6z"/>
	<path d="M1471.1,29.7c0,1-0.7,1.8-1.8,1.8c-1.1,0-1.8-0.8-1.7-1.8c0-1,0.7-1.8,1.8-1.8C1470.3,27.9,1471,28.6,1471.1,29.7z
		 M1467.8,50.1V34.2h2.9v15.9H1467.8z"/>
	<path d="M1477.1,42.7c0.1,3.9,2.5,5.5,5.5,5.5c2.1,0,3.4-0.4,4.4-0.8l0.5,2.1c-1,0.5-2.8,1-5.3,1c-4.9,0-7.9-3.3-7.9-8.1
		c0-4.9,2.8-8.6,7.5-8.6c5.2,0,6.6,4.6,6.6,7.5c0,0.6-0.1,1.1-0.1,1.4L1477.1,42.7z M1485.6,40.6c0-1.8-0.8-4.7-4-4.7
		c-2.9,0-4.2,2.7-4.5,4.7H1485.6z"/>
	<path d="M1491.6,47.2c0.9,0.6,2.4,1.2,3.8,1.2c2.1,0,3.1-1.1,3.1-2.4c0-1.4-0.8-2.1-3-2.9c-2.9-1.1-4.2-2.6-4.2-4.6
		c0-2.5,2.1-4.7,5.5-4.7c1.6,0,3,0.4,3.9,1l-0.7,2.1c-0.6-0.4-1.8-1-3.3-1c-1.7,0-2.6,1-2.6,2.2c0,1.3,0.9,1.9,3,2.7
		c2.7,1,4.2,2.4,4.2,4.8c0,2.8-2.2,4.8-6,4.8c-1.7,0-3.4-0.5-4.5-1.1L1491.6,47.2z"/>
</g>
<text transform="matrix(1 0 0 1 1700.83 118.6496)" class="st12 st15">U</text>
<text transform="matrix(1 0 0 1 1700.83 151.8496)" class="st12 st15">C</text>
<g transform="translate(342.5003,75.5)">
	<g class="st14">
		<path d="M-154.5,312.4v2.9H-173c0.7,0.7,1.3,1.6,2,2.7c0.7,1.1,1.2,2.2,1.5,3.1h-2.8c-0.8-1.6-1.7-3-2.8-4.3
			c-1.1-1.2-2.1-2.1-3.2-2.6v-1.9H-154.5z"/>
		<path d="M-161.6,296.2h-2.9v-8.9h2.9V296.2z"/>
		<path d="M-162.1,275.6l-0.3-2.9c1.2-0.1,2.2-0.5,2.9-1c0.8-0.5,1.4-1.3,1.8-2.4c0.5-1.1,0.7-2.3,0.7-3.6c0-1.2-0.2-2.2-0.5-3.2
			c-0.4-0.9-0.8-1.6-1.5-2c-0.6-0.4-1.3-0.7-2-0.7c-0.7,0-1.4,0.2-1.9,0.6c-0.6,0.4-1,1.1-1.4,2.1c-0.2,0.6-0.6,2-1.2,4.2
			c-0.5,2.2-1,3.7-1.5,4.6c-0.6,1.1-1.3,2-2.2,2.5c-0.9,0.6-1.9,0.8-2.9,0.8c-1.2,0-2.3-0.3-3.3-1c-1-0.7-1.8-1.7-2.4-3
			s-0.8-2.7-0.8-4.3c0-1.8,0.3-3.3,0.8-4.6c0.6-1.3,1.4-2.4,2.5-3.1s2.3-1.1,3.7-1.2l0.2,3c-1.5,0.2-2.6,0.7-3.4,1.6
			c-0.8,0.9-1.1,2.3-1.1,4.1c0,1.9,0.3,3.3,1,4.1c0.7,0.9,1.5,1.3,2.5,1.3c0.8,0,1.5-0.3,2.1-0.9c0.5-0.6,1.1-2.2,1.7-4.7
			c0.6-2.5,1.1-4.3,1.5-5.2c0.6-1.4,1.4-2.4,2.4-3c1-0.7,2.1-1,3.4-1c1.3,0,2.4,0.4,3.6,1.1c1.1,0.7,2,1.8,2.6,3.1
			c0.6,1.3,0.9,2.9,0.9,4.6c0,2.1-0.3,3.9-0.9,5.4c-0.6,1.4-1.6,2.6-2.8,3.4C-159.1,275.1-160.5,275.5-162.1,275.6z"/>
		<path d="M-148,252.9h-23.7v-2.6h2.2c-0.9-0.6-1.5-1.3-2-2.1c-0.4-0.8-0.7-1.7-0.7-2.9c0-1.5,0.4-2.8,1.1-3.9s1.8-2,3.2-2.5
			c1.4-0.6,2.9-0.9,4.5-0.9c1.8,0,3.3,0.3,4.7,0.9c1.4,0.6,2.5,1.5,3.2,2.7c0.7,1.2,1.1,2.5,1.1,3.8c0,1-0.2,1.8-0.6,2.6
			c-0.4,0.8-0.9,1.4-1.5,1.9h8.3V252.9z M-163,250.2c2.2,0,3.8-0.4,4.9-1.3s1.6-2,1.6-3.2c0-1.3-0.5-2.4-1.6-3.3
			c-1.1-0.9-2.8-1.4-5.1-1.4c-2.2,0-3.8,0.4-4.9,1.3c-1.1,0.9-1.6,2-1.6,3.2c0,1.2,0.6,2.3,1.7,3.3
			C-166.9,249.8-165.2,250.2-163,250.2z"/>
		<path d="M-160,222.8l0.4-3c1.8,0.5,3.1,1.3,4.1,2.6c1,1.3,1.5,2.9,1.5,4.9c0,2.5-0.8,4.5-2.3,6c-1.5,1.5-3.7,2.2-6.5,2.2
			c-2.9,0-5.1-0.7-6.7-2.2s-2.4-3.4-2.4-5.8c0-2.3,0.8-4.2,2.3-5.6c1.6-1.4,3.7-2.2,6.6-2.2c0.2,0,0.4,0,0.8,0v12.8
			c1.9-0.1,3.3-0.6,4.3-1.6c1-1,1.5-2.1,1.5-3.6c0-1.1-0.3-2-0.8-2.7S-158.8,223.2-160,222.8z M-164.7,232.3v-9.6
			c-1.4,0.1-2.5,0.5-3.2,1.1c-1.1,0.9-1.7,2.1-1.7,3.6c0,1.3,0.4,2.5,1.3,3.4C-167.4,231.7-166.2,232.2-164.7,232.3z"/>
		<path d="M-156.6,205c0.9,1.1,1.6,2.1,1.9,3.1c0.4,1,0.6,2.1,0.6,3.2c0,1.9-0.5,3.3-1.4,4.3c-0.9,1-2.1,1.5-3.5,1.5
			c-0.8,0-1.6-0.2-2.3-0.6c-0.7-0.4-1.2-0.9-1.7-1.5c-0.4-0.6-0.7-1.3-1-2.1c-0.2-0.6-0.3-1.4-0.4-2.6c-0.3-2.3-0.6-4.1-1-5.2
			c-0.4,0-0.6,0-0.8,0c-1.2,0-2,0.3-2.5,0.8c-0.7,0.7-1,1.8-1,3.3c0,1.4,0.2,2.4,0.7,3c0.5,0.6,1.3,1.1,2.5,1.4l-0.4,2.8
			c-1.2-0.3-2.2-0.7-2.9-1.3c-0.7-0.6-1.3-1.4-1.7-2.6c-0.4-1.1-0.6-2.4-0.6-3.9c0-1.5,0.2-2.6,0.5-3.6s0.8-1.6,1.3-2
			c0.5-0.4,1.2-0.7,2-0.9c0.5-0.1,1.4-0.1,2.7-0.1h3.9c2.7,0,4.4-0.1,5.1-0.2c0.7-0.1,1.4-0.4,2.1-0.7v3
			C-155.1,204.7-155.8,204.9-156.6,205z M-163.1,205.2c0.4,1.1,0.8,2.6,1.1,4.7c0.2,1.2,0.4,2,0.6,2.5s0.5,0.9,0.9,1.1
			c0.4,0.3,0.9,0.4,1.4,0.4c0.8,0,1.4-0.3,1.9-0.9c0.5-0.6,0.8-1.4,0.8-2.6c0-1.1-0.2-2.1-0.7-3c-0.5-0.9-1.2-1.5-2-1.9
			c-0.7-0.3-1.6-0.5-2.9-0.5H-163.1z"/>
		<path d="M-154.5,197.8h-17.1v-2.6h2.6c-1.2-0.7-2-1.3-2.4-1.8c-0.4-0.6-0.6-1.2-0.6-1.9c0-1,0.3-2,0.9-3l2.7,1
			c-0.4,0.7-0.6,1.4-0.6,2.1c0,0.6,0.2,1.2,0.6,1.7c0.4,0.5,0.9,0.9,1.6,1.1c1,0.3,2.2,0.5,3.4,0.5h9V197.8z"/>
		<path d="M-154.5,186.8h-17.1v-2.6h2.4c-0.8-0.5-1.5-1.3-2-2.1c-0.5-0.9-0.8-1.9-0.8-3c0-1.3,0.3-2.3,0.8-3.1
			c0.5-0.8,1.3-1.4,2.2-1.7c-2-1.4-3-3.1-3-5.3c0-1.7,0.5-3,1.4-3.9c0.9-0.9,2.4-1.4,4.3-1.4h11.7v2.9h-10.8c-1.2,0-2,0.1-2.5,0.3
			c-0.5,0.2-0.9,0.5-1.2,1s-0.5,1.1-0.5,1.7c0,1.2,0.4,2.2,1.2,3c0.8,0.8,2.1,1.2,3.8,1.2h9.9v2.9h-11.1c-1.3,0-2.3,0.2-2.9,0.7
			s-1,1.2-1,2.3c0,0.8,0.2,1.6,0.6,2.3c0.4,0.7,1.1,1.2,1.9,1.5s2,0.5,3.6,0.5h8.9V186.8z"/>
		<path d="M-156.6,148.2c0.9,1.1,1.6,2.1,1.9,3.1c0.4,1,0.6,2.1,0.6,3.2c0,1.9-0.5,3.3-1.4,4.3c-0.9,1-2.1,1.5-3.5,1.5
			c-0.8,0-1.6-0.2-2.3-0.6c-0.7-0.4-1.2-0.9-1.7-1.5s-0.7-1.3-1-2.1c-0.2-0.6-0.3-1.4-0.4-2.6c-0.3-2.3-0.6-4.1-1-5.2
			c-0.4,0-0.6,0-0.8,0c-1.2,0-2,0.3-2.5,0.8c-0.7,0.7-1,1.8-1,3.3c0,1.4,0.2,2.4,0.7,3c0.5,0.6,1.3,1.1,2.5,1.4l-0.4,2.8
			c-1.2-0.3-2.2-0.7-2.9-1.3c-0.7-0.6-1.3-1.4-1.7-2.6c-0.4-1.1-0.6-2.4-0.6-3.9c0-1.5,0.2-2.6,0.5-3.6s0.8-1.6,1.3-2
			c0.5-0.4,1.2-0.7,2-0.9c0.5-0.1,1.4-0.1,2.7-0.1h3.9c2.7,0,4.4-0.1,5.1-0.2c0.7-0.1,1.4-0.4,2.1-0.7v3
			C-155.1,147.9-155.8,148.1-156.6,148.2z M-163.1,148.4c0.4,1.1,0.8,2.6,1.1,4.7c0.2,1.2,0.4,2,0.6,2.5s0.5,0.9,0.9,1.1
			c0.4,0.3,0.9,0.4,1.4,0.4c0.8,0,1.4-0.3,1.9-0.9s0.8-1.4,0.8-2.6c0-1.1-0.2-2.1-0.7-3c-0.5-0.9-1.2-1.5-2-1.9
			c-0.7-0.3-1.6-0.5-2.9-0.5H-163.1z"/>
		<path d="M-154.5,141h-17.1v-2.6h2.4c-1.9-1.3-2.8-3.1-2.8-5.4c0-1,0.2-2,0.6-2.8c0.4-0.9,0.9-1.5,1.5-1.9s1.3-0.7,2.1-0.9
			c0.5-0.1,1.5-0.2,2.8-0.2h10.5v2.9h-10.4c-1.2,0-2.1,0.1-2.7,0.3c-0.6,0.2-1.1,0.6-1.4,1.2c-0.3,0.6-0.5,1.2-0.5,2
			c0,1.2,0.4,2.3,1.2,3.2s2.3,1.3,4.5,1.3h9.3V141z"/>
		<path d="M-154.5,113h-23.6v-10.5c0-2.1,0.2-3.7,0.6-4.8c0.4-1.1,1.2-2,2.2-2.6c1.1-0.7,2.3-1,3.6-1c1.7,0,3.1,0.5,4.2,1.6
			c1.2,1.1,1.9,2.8,2.2,5c0.4-0.8,0.8-1.5,1.2-1.9c0.8-0.9,1.9-1.8,3.1-2.6l6.4-4.1v3.9l-4.9,3.1c-1.4,0.9-2.5,1.7-3.3,2.3
			c-0.8,0.6-1.3,1.1-1.6,1.6c-0.3,0.5-0.5,0.9-0.6,1.4c-0.1,0.4-0.1,0.9-0.1,1.7v3.6h10.5V113z M-167.7,109.9v-6.7
			c0-1.4-0.1-2.5-0.4-3.4c-0.3-0.8-0.8-1.4-1.4-1.8c-0.7-0.4-1.4-0.6-2.1-0.6c-1.1,0-2,0.4-2.8,1.2c-0.7,0.8-1.1,2.1-1.1,3.8v7.5
			H-167.7z"/>
		<path d="M-154.5,89.6h-23.6v-2.9h8.5c-1.6-1.4-2.4-3.1-2.4-5.1c0-1.3,0.2-2.4,0.7-3.3c0.5-0.9,1.2-1.6,2.1-2
			c0.9-0.4,2.2-0.6,3.8-0.6h10.8v2.9h-10.8c-1.5,0-2.5,0.3-3.2,0.9c-0.7,0.6-1,1.5-1,2.7c0,0.9,0.2,1.7,0.7,2.4
			c0.4,0.8,1.1,1.3,1.8,1.6s1.8,0.5,3.2,0.5h9.4V89.6z"/>
		<path d="M-163.1,72.4c-3.2,0-5.5-0.9-7-2.6c-1.3-1.5-1.9-3.3-1.9-5.4c0-2.4,0.8-4.3,2.3-5.8c1.5-1.5,3.7-2.2,6.4-2.2
			c2.2,0,3.9,0.3,5.2,1c1.3,0.7,2.2,1.6,2.9,2.9c0.7,1.3,1,2.6,1,4.1c0,2.4-0.8,4.3-2.3,5.8C-158,71.6-160.2,72.4-163.1,72.4z
			 M-163.1,69.4c2.2,0,3.8-0.5,4.9-1.4c1.1-1,1.6-2.2,1.6-3.6c0-1.4-0.5-2.6-1.6-3.6s-2.8-1.4-5-1.4c-2.1,0-3.7,0.5-4.8,1.4
			c-1.1,1-1.6,2.2-1.6,3.6c0,1.5,0.5,2.7,1.6,3.6S-165.3,69.4-163.1,69.4z"/>
	</g>
</g>
</svg>
