<?xml version="1.0" encoding="utf-8"?>
<!-- Generator: Adobe Illustrator 25.2.3, SVG Export Plug-In . SVG Version: 6.00 Build 0)  -->
<svg version="1.1" id="Layer_1" xmlns="http://www.w3.org/2000/svg" xmlns:xlink="http://www.w3.org/1999/xlink" x="0px" y="0px"
	 viewBox="0 0 1956.8 600.3" style="enable-background:new 0 0 1956.8 600.3;" xml:space="preserve">
<style type="text/css">
	.st0{fill:#FFFFFF;}
	.st1{enable-background:new    ;}
	.st2{fill:none;stroke:#262626;stroke-width:0.6667;stroke-linejoin:round;stroke-miterlimit:10;}
	.st3{fill:#0072BD;fill-opacity:0.6;}
	.st4{fill:none;stroke:#000000;stroke-width:0.6667;stroke-miterlimit:10;}
	.st5{fill:#7E2F8E;fill-opacity:0.6;}
	.st6{fill:none;stroke:#000000;stroke-width:0.6667;stroke-linejoin:round;stroke-miterlimit:10;}
	.st7{fill:none;stroke:#000000;stroke-miterlimit:10;}
	.st8{fill:none;stroke:#0072BD;stroke-miterlimit:10;}
	.st9{fill:none;stroke:#7E2F8E;stroke-miterlimit:10;}
	.st10{fill:none;stroke:#262626;stroke-width:0.6667;stroke-linecap:square;stroke-linejoin:round;stroke-miterlimit:10;}
	.st11{fill:#262626;}
	.st12{font-family:'ArialMT';}
	.st13{font-size:29.3333px;}
	.st14{font-size:26.4px;}
</style>
<path class="st0" d="M300.8,510.3h1475v-343h-1475V510.3z"/>
<g transform="translate(985.501,43.95)">
	<g class="st1">
		<path d="M-0.7,101.3V78.2H16v2.7H2.4V88h12.8v2.7H2.4v7.9h14.2v2.7H-0.7z"/>
		<path d="M18.5,101.3l6.1-8.7l-5.7-8h3.5l2.6,3.9c0.5,0.7,0.9,1.4,1.2,1.9c0.5-0.7,0.9-1.3,1.3-1.8l2.8-4h3.4L28,92.5l6.2,8.9h-3.5
			l-3.4-5.2l-0.9-1.4l-4.4,6.6H18.5z"/>
		<path d="M36.6,107.7V84.6h2.6v2.2c0.6-0.9,1.3-1.5,2.1-1.9c0.8-0.4,1.7-0.6,2.8-0.6c1.4,0,2.7,0.4,3.8,1.1
			c1.1,0.7,1.9,1.8,2.5,3.1c0.6,1.3,0.8,2.8,0.8,4.4c0,1.7-0.3,3.3-0.9,4.6c-0.6,1.4-1.5,2.4-2.7,3.2c-1.2,0.7-2.4,1.1-3.7,1.1
			c-0.9,0-1.8-0.2-2.5-0.6c-0.8-0.4-1.4-0.9-1.9-1.5v8.1H36.6z M39.1,93c0,2.2,0.4,3.7,1.3,4.8c0.9,1,1.9,1.5,3.2,1.5
			c1.3,0,2.3-0.5,3.2-1.6c0.9-1.1,1.3-2.7,1.3-5c0-2.1-0.4-3.7-1.3-4.8C46,87,45,86.4,43.7,86.4c-1.2,0-2.3,0.6-3.2,1.7
			C39.6,89.3,39.1,90.9,39.1,93z"/>
		<path d="M73.4,101.3h-2.8V83.2c-0.7,0.7-1.6,1.3-2.7,2c-1.1,0.7-2.1,1.1-3,1.5v-2.7c1.6-0.7,3-1.6,4.2-2.7c1.2-1.1,2-2.1,2.5-3.1
			h1.8V101.3z"/>
		<path d="M94.6,98.6c-0.9,1-2,1.8-3.1,2.3c-1.1,0.5-2.3,0.8-3.6,0.8c-2.4,0-4.2-0.8-5.6-2.4c-1.1-1.3-1.7-2.8-1.7-4.4
			c0-1.4,0.5-2.7,1.4-3.9c0.9-1.1,2.3-2.2,4.1-3c-1-1.2-1.7-2.2-2.1-2.9s-0.5-1.5-0.5-2.2c0-1.4,0.5-2.6,1.6-3.6
			c1.1-1,2.5-1.5,4.1-1.5c1.6,0,2.9,0.5,3.9,1.4c1,1,1.5,2.1,1.5,3.5c0,2.2-1.5,4.1-4.4,5.6l4.1,5.3c0.5-0.9,0.8-2,1.1-3.2l2.9,0.6
			c-0.5,2-1.2,3.7-2,5c1.1,1.4,2.3,2.6,3.6,3.5l-1.9,2.3C97,101.1,95.8,100,94.6,98.6z M92.8,96.4l-5.2-6.4
			c-1.5,0.9-2.6,1.8-3.1,2.5s-0.8,1.6-0.8,2.3c0,0.9,0.4,1.9,1.1,2.9c0.7,1,1.8,1.5,3.2,1.5c0.8,0,1.7-0.3,2.6-0.8
			C91.6,97.9,92.3,97.2,92.8,96.4z M88.9,86.6c1.2-0.7,2-1.4,2.4-1.9c0.4-0.5,0.5-1.2,0.5-1.8c0-0.8-0.2-1.4-0.7-1.9
			c-0.5-0.5-1.1-0.7-1.9-0.7c-0.8,0-1.4,0.2-1.9,0.7c-0.5,0.5-0.8,1.1-0.8,1.8c0,0.4,0.1,0.7,0.3,1.1c0.2,0.4,0.5,0.8,0.8,1.3
			L88.9,86.6z"/>
		<path d="M117.1,98.6v2.7h-15.3c0-0.7,0.1-1.3,0.3-2c0.4-1,1-2.1,1.9-3.1c0.9-1,2.1-2.2,3.7-3.5c2.5-2.1,4.2-3.7,5.1-4.9
			c0.9-1.2,1.3-2.3,1.3-3.4c0-1.1-0.4-2.1-1.2-2.8c-0.8-0.8-1.9-1.2-3.1-1.2c-1.4,0-2.5,0.4-3.3,1.2c-0.8,0.8-1.2,2-1.2,3.4
			l-2.9-0.3c0.2-2.2,1-3.8,2.3-5c1.3-1.1,3.1-1.7,5.2-1.7c2.2,0,4,0.6,5.3,1.8c1.3,1.2,1.9,2.8,1.9,4.6c0,0.9-0.2,1.8-0.6,2.7
			c-0.4,0.9-1,1.8-1.9,2.8s-2.3,2.3-4.4,4.1c-1.7,1.4-2.8,2.4-3.3,2.9s-0.9,1-1.2,1.5H117.1z"/>
	</g>
</g>
<g>
	<line class="st2" x1="300.8" y1="373.1" x2="1775.8" y2="373.1"/>
</g>
<g>
	<path class="st3" d="M327.8,373.1v-55.7h-13.5v55.7H327.8z M386.9,373.1v-57.5h-13.5v57.5H386.9z M445.9,373.1v-72h-13.5v72H445.9z
		 M505,373.1v-51.3h-13.5v51.3H505z M564.1,373.1v-53.8h-13.5v53.8H564.1z M623.1,373.1v-67.3h-13.5v67.3H623.1z M682.2,373.1V269.5
		h-13.5v103.6H682.2z M741.3,373.1v-62.6h-13.5v62.6H741.3z M800.3,373.1v-61.3h-13.5v61.3H800.3z M859.4,373.1v-61.2h-13.5v61.2
		H859.4z M918.5,373.1V356H905v17.1H918.5z M977.5,373.1v-13.5H964v13.5H977.5z M1036.6,373.1v-14.6h-13.5v14.6H1036.6z
		 M1095.7,373.1v-16.4h-13.5v16.4H1095.7z M1141.2,373.1v7.4h13.5v-7.4H1141.2z M1213.8,373.1v-5.5h-13.5v5.5H1213.8z M1259.4,373.1
		v0.6h13.5v-0.6H1259.4z M1331.9,373.1v-22.2h-13.5v22.2H1331.9z M1391,373.1v-1.8h-13.5v1.8H1391z M1436.6,373.1v2.2h13.5v-2.2
		H1436.6z M1509.1,373.1v-25.9h-13.5v25.9H1509.1z M1554.7,373.1v9h13.5v-9H1554.7z M1627.3,373.1v-2.7h-13.5v2.7H1627.3z
		 M1686.3,373.1L1686.3,373.1l-13.5,0v0H1686.3z M1731.9,373.1v4.9h13.5v-4.9H1731.9z"/>
</g>
<g>
	<path class="st4" d="M314.3,373.1v-55.7h13.5v55.7H314.3z"/>
	<path class="st4" d="M373.4,373.1v-57.5h13.5v57.5H373.4z"/>
	<path class="st4" d="M432.4,373.1v-72h13.5v72H432.4z"/>
	<path class="st4" d="M491.5,373.1v-51.3H505v51.3H491.5z"/>
	<path class="st4" d="M550.6,373.1v-53.8h13.5v53.8H550.6z"/>
	<path class="st4" d="M609.6,373.1v-67.3h13.5v67.3H609.6z"/>
	<path class="st4" d="M668.7,373.1V269.5h13.5v103.6H668.7z"/>
	<path class="st4" d="M727.8,373.1v-62.6h13.5v62.6H727.8z"/>
	<path class="st4" d="M786.8,373.1v-61.3h13.5v61.3H786.8z"/>
	<path class="st4" d="M845.9,373.1v-61.2h13.5v61.2H845.9z"/>
	<path class="st4" d="M905,373.1V356h13.5v17.1H905z"/>
	<path class="st4" d="M964,373.1v-13.5h13.5v13.5H964z"/>
	<path class="st4" d="M1023.1,373.1v-14.6h13.5v14.6H1023.1z"/>
	<path class="st4" d="M1082.2,373.1v-16.4h13.5v16.4H1082.2z"/>
	<path class="st4" d="M1141.2,373.1v7.4h13.5v-7.4H1141.2z"/>
	<path class="st4" d="M1200.3,373.1v-5.5h13.5v5.5H1200.3z"/>
	<path class="st4" d="M1259.4,373.1v0.6h13.5v-0.6H1259.4z"/>
	<path class="st4" d="M1318.4,373.1v-22.2h13.5v22.2H1318.4z"/>
	<path class="st4" d="M1377.5,373.1v-1.8h13.5v1.8H1377.5z"/>
	<path class="st4" d="M1436.6,373.1v2.2h13.5v-2.2H1436.6z"/>
	<path class="st4" d="M1495.6,373.1v-25.9h13.5v25.9H1495.6z"/>
	<path class="st4" d="M1554.7,373.1v9h13.5v-9H1554.7z"/>
	<path class="st4" d="M1613.8,373.1v-2.7h13.5v2.7H1613.8z"/>
	<path class="st4" d="M1672.8,373.1L1672.8,373.1l13.5,0v0H1672.8z"/>
	<path class="st4" d="M1731.9,373.1v4.9h13.5v-4.9H1731.9z"/>
</g>
<g>
	<path class="st5" d="M344.7,373.1v-8.9h-13.5v8.9H344.7z M403.7,373.1V289h-13.5v84.1H403.7z M449.3,373.1v33.5h13.5v-33.5H449.3z
		 M521.9,373.1V330h-13.5v43.1H521.9z M580.9,373.1v-0.6h-13.5v0.6H580.9z M640,373.1v-24.1h-13.5v24.1H640z M685.6,373.1v13.1h13.5
		v-13.1H685.6z M758.1,373.1v-10.2h-13.5v10.2H758.1z M817.2,373.1v-26.6h-13.5v26.6H817.2z M876.3,373.1v-41.8h-13.5v41.8H876.3z
		 M935.3,373.1v-13.5h-13.5v13.5H935.3z M994.4,373.1v-5.8h-13.5v5.8H994.4z M1053.5,373.1v-63.4H1040v63.4H1053.5z M1112.5,373.1
		v-29.9H1099v29.9H1112.5z M1171.6,373.1v-44.8h-13.5v44.8H1171.6z M1230.7,373.1v-35.2h-13.5v35.2H1230.7z M1289.7,373.1v-29.4
		h-13.5v29.4H1289.7z M1348.8,373.1v-38.7h-13.5v38.7H1348.8z M1407.9,373.1v-33.9h-13.5v33.9H1407.9z M1466.9,373.1v-30.3h-13.5
		v30.3H1466.9z M1526,373.1v-11h-13.5v11H1526z M1585.1,373.1v-37.8h-13.5v37.8H1585.1z M1644.2,373.1v-9.6h-13.5v9.6H1644.2z
		 M1689.7,373.1v1.1h13.5v-1.1H1689.7z M1748.8,373.1v8h13.5v-8H1748.8z"/>
</g>
<g>
	<path class="st4" d="M331.2,373.1v-8.9h13.5v8.9H331.2z"/>
	<path class="st4" d="M390.2,373.1V289h13.5v84.1H390.2z"/>
	<path class="st4" d="M449.3,373.1v33.5h13.5v-33.5H449.3z"/>
	<path class="st4" d="M508.4,373.1V330h13.5v43.1H508.4z"/>
	<path class="st4" d="M567.4,373.1v-0.6h13.5v0.6H567.4z"/>
	<path class="st4" d="M626.5,373.1v-24.1H640v24.1H626.5z"/>
	<path class="st4" d="M685.6,373.1v13.1h13.5v-13.1H685.6z"/>
	<path class="st4" d="M744.6,373.1v-10.2h13.5v10.2H744.6z"/>
	<path class="st4" d="M803.7,373.1v-26.6h13.5v26.6H803.7z"/>
	<path class="st4" d="M862.8,373.1v-41.8h13.5v41.8H862.8z"/>
	<path class="st4" d="M921.8,373.1v-13.5h13.5v13.5H921.8z"/>
	<path class="st4" d="M980.9,373.1v-5.8h13.5v5.8H980.9z"/>
	<path class="st4" d="M1040,373.1v-63.4h13.5v63.4H1040z"/>
	<path class="st4" d="M1099,373.1v-29.9h13.5v29.9H1099z"/>
	<path class="st4" d="M1158.1,373.1v-44.8h13.5v44.8H1158.1z"/>
	<path class="st4" d="M1217.2,373.1v-35.2h13.5v35.2H1217.2z"/>
	<path class="st4" d="M1276.2,373.1v-29.4h13.5v29.4H1276.2z"/>
	<path class="st4" d="M1335.3,373.1v-38.7h13.5v38.7H1335.3z"/>
	<path class="st4" d="M1394.4,373.1v-33.9h13.5v33.9H1394.4z"/>
	<path class="st4" d="M1453.4,373.1v-30.3h13.5v30.3H1453.4z"/>
	<path class="st4" d="M1512.5,373.1v-11h13.5v11H1512.5z"/>
	<path class="st4" d="M1571.6,373.1v-37.8h13.5v37.8H1571.6z"/>
	<path class="st4" d="M1630.7,373.1v-9.6h13.5v9.6H1630.7z"/>
	<path class="st4" d="M1689.7,373.1v1.1h13.5v-1.1H1689.7z"/>
	<path class="st4" d="M1748.8,373.1v8h13.5v-8H1748.8z"/>
	<line class="st6" x1="321" y1="310.1" x2="321" y2="350.2"/>
	<line class="st6" x1="380.1" y1="307.7" x2="380.1" y2="355.2"/>
	<line class="st6" x1="439.2" y1="295.9" x2="439.2" y2="345.2"/>
	<line class="st6" x1="498.2" y1="314.9" x2="498.2" y2="358.6"/>
	<line class="st6" x1="557.3" y1="314.1" x2="557.3" y2="361.9"/>
	<line class="st6" x1="616.4" y1="297.1" x2="616.4" y2="345.9"/>
	<line class="st6" x1="675.4" y1="264.3" x2="675.4" y2="332.6"/>
	<line class="st6" x1="734.5" y1="304.4" x2="734.5" y2="356.7"/>
	<line class="st6" x1="793.6" y1="307.1" x2="793.6" y2="356.6"/>
	<line class="st6" x1="852.6" y1="305.5" x2="852.6" y2="359.8"/>
	<line class="st6" x1="911.7" y1="350.1" x2="911.7" y2="391.4"/>
	<line class="st6" x1="970.8" y1="353.3" x2="970.8" y2="397.5"/>
	<line class="st6" x1="1029.8" y1="350.1" x2="1029.8" y2="392"/>
	<line class="st6" x1="1088.9" y1="351.3" x2="1088.9" y2="403.8"/>
	<line class="st6" x1="1148" y1="373.9" x2="1148" y2="410.8"/>
	<line class="st6" x1="1207.1" y1="362.9" x2="1207.1" y2="396.4"/>
	<line class="st6" x1="1266.1" y1="366.9" x2="1266.1" y2="412.2"/>
	<line class="st6" x1="1325.2" y1="344.9" x2="1325.2" y2="396.7"/>
	<line class="st6" x1="1384.3" y1="365.9" x2="1384.3" y2="401"/>
	<line class="st6" x1="1443.3" y1="368.3" x2="1443.3" y2="405.4"/>
	<line class="st6" x1="1502.4" y1="336.5" x2="1502.4" y2="375.4"/>
	<line class="st6" x1="1561.5" y1="374.3" x2="1561.5" y2="405.7"/>
	<line class="st6" x1="1620.5" y1="363.2" x2="1620.5" y2="396"/>
	<line class="st6" x1="1679.6" y1="367.3" x2="1679.6" y2="389.5"/>
	<line class="st6" x1="1738.7" y1="371.6" x2="1738.7" y2="403.7"/>
	<line class="st6" x1="321" y1="310.1" x2="321" y2="271"/>
	<line class="st6" x1="380.1" y1="307.7" x2="380.1" y2="255.1"/>
	<line class="st6" x1="439.2" y1="295.9" x2="439.2" y2="251.7"/>
	<line class="st6" x1="498.2" y1="314.9" x2="498.2" y2="267.3"/>
	<line class="st6" x1="557.3" y1="314.1" x2="557.3" y2="253.4"/>
	<line class="st6" x1="616.4" y1="297.1" x2="616.4" y2="251.7"/>
	<line class="st6" x1="675.4" y1="264.3" x2="675.4" y2="198.4"/>
	<line class="st6" x1="734.5" y1="304.4" x2="734.5" y2="241.8"/>
	<line class="st6" x1="793.6" y1="307.1" x2="793.6" y2="260.4"/>
	<line class="st6" x1="852.6" y1="305.5" x2="852.6" y2="239"/>
	<line class="st6" x1="911.7" y1="350.1" x2="911.7" y2="293.7"/>
	<line class="st6" x1="970.8" y1="353.3" x2="970.8" y2="310.4"/>
	<line class="st6" x1="1029.8" y1="350.1" x2="1029.8" y2="306"/>
	<line class="st6" x1="1088.9" y1="351.3" x2="1088.9" y2="309.1"/>
	<line class="st6" x1="1148" y1="373.9" x2="1148" y2="344.4"/>
	<line class="st6" x1="1207.1" y1="362.9" x2="1207.1" y2="324.5"/>
	<line class="st6" x1="1266.1" y1="366.9" x2="1266.1" y2="326.7"/>
	<line class="st6" x1="1325.2" y1="344.9" x2="1325.2" y2="301.3"/>
	<line class="st6" x1="1384.3" y1="365.9" x2="1384.3" y2="336"/>
	<line class="st6" x1="1443.3" y1="368.3" x2="1443.3" y2="340.5"/>
	<line class="st6" x1="1502.4" y1="336.5" x2="1502.4" y2="295.8"/>
	<line class="st6" x1="1561.5" y1="374.3" x2="1561.5" y2="344.2"/>
	<line class="st6" x1="1620.5" y1="363.2" x2="1620.5" y2="337.8"/>
	<line class="st6" x1="1679.6" y1="367.3" x2="1679.6" y2="345.4"/>
	<line class="st6" x1="1738.7" y1="371.6" x2="1738.7" y2="344.5"/>
</g>
<g transform="translate(268.2517,232.9036)">
	<path d="M48.8,117.3h8"/>
</g>
<g transform="translate(268.2517,232.9036)">
	<path class="st7" d="M48.8,117.3h8"/>
</g>
<g transform="translate(327.3192,237.8865)">
	<path d="M48.8,117.3h8"/>
</g>
<g transform="translate(327.3192,237.8865)">
	<path class="st7" d="M48.8,117.3h8"/>
</g>
<g transform="translate(386.3867,227.8433)">
	<path d="M48.8,117.3h8"/>
</g>
<g transform="translate(386.3867,227.8433)">
	<path class="st7" d="M48.8,117.3h8"/>
</g>
<g transform="translate(445.4542,241.2752)">
	<path d="M48.8,117.3h8"/>
</g>
<g transform="translate(445.4542,241.2752)">
	<path class="st7" d="M48.8,117.3h8"/>
</g>
<g transform="translate(504.5217,244.5557)">
	<path d="M48.8,117.3h8"/>
</g>
<g transform="translate(504.5217,244.5557)">
	<path class="st7" d="M48.8,117.3h8"/>
</g>
<g transform="translate(563.5892,228.5951)">
	<path d="M48.8,117.3h8"/>
</g>
<g transform="translate(563.5892,228.5951)">
	<path class="st7" d="M48.8,117.3h8"/>
</g>
<g transform="translate(622.6567,215.282)">
	<path d="M48.8,117.3h8"/>
</g>
<g transform="translate(622.6567,215.282)">
	<path class="st7" d="M48.8,117.3h8"/>
</g>
<g transform="translate(681.7242,239.415)">
	<path d="M48.8,117.3h8"/>
</g>
<g transform="translate(681.7242,239.415)">
	<path class="st7" d="M48.8,117.3h8"/>
</g>
<g transform="translate(740.7917,239.3182)">
	<path d="M48.8,117.3h8"/>
</g>
<g transform="translate(740.7917,239.3182)">
	<path class="st7" d="M48.8,117.3h8"/>
</g>
<g transform="translate(799.8593,242.5233)">
	<path d="M48.8,117.3h8"/>
</g>
<g transform="translate(799.8593,242.5233)">
	<path class="st7" d="M48.8,117.3h8"/>
</g>
<g transform="translate(858.9268,274.0315)">
	<path d="M48.8,117.3h8"/>
</g>
<g transform="translate(858.9268,274.0315)">
	<path class="st7" d="M48.8,117.3h8"/>
</g>
<g transform="translate(917.9943,280.1898)">
	<path d="M48.8,117.3h8"/>
</g>
<g transform="translate(917.9943,280.1898)">
	<path class="st7" d="M48.8,117.3h8"/>
</g>
<g transform="translate(977.0618,274.6381)">
	<path d="M48.8,117.3h8"/>
</g>
<g transform="translate(977.0618,274.6381)">
	<path class="st7" d="M48.8,117.3h8"/>
</g>
<g transform="translate(1036.1293,286.4979)">
	<path d="M48.8,117.3h8"/>
</g>
<g transform="translate(1036.1293,286.4979)">
	<path class="st7" d="M48.8,117.3h8"/>
</g>
<g transform="translate(1095.1968,293.4693)">
	<path d="M48.8,117.3h8"/>
</g>
<g transform="translate(1095.1968,293.4693)">
	<path class="st7" d="M48.8,117.3h8"/>
</g>
<g transform="translate(1154.2643,279.0789)">
	<path d="M48.8,117.3h8"/>
</g>
<g transform="translate(1154.2643,279.0789)">
	<path class="st7" d="M48.8,117.3h8"/>
</g>
<g transform="translate(1213.3318,294.9106)">
	<path d="M48.8,117.3h8"/>
</g>
<g transform="translate(1213.3318,294.9106)">
	<path class="st7" d="M48.8,117.3h8"/>
</g>
<g transform="translate(1272.3993,279.3796)">
	<path d="M48.8,117.3h8"/>
</g>
<g transform="translate(1272.3993,279.3796)">
	<path class="st7" d="M48.8,117.3h8"/>
</g>
<g transform="translate(1331.4668,283.6582)">
	<path d="M48.8,117.3h8"/>
</g>
<g transform="translate(1331.4668,283.6582)">
	<path class="st7" d="M48.8,117.3h8"/>
</g>
<g transform="translate(1390.5343,288.1198)">
	<path d="M48.8,117.3h8"/>
</g>
<g transform="translate(1390.5343,288.1198)">
	<path class="st7" d="M48.8,117.3h8"/>
</g>
<g transform="translate(1449.6018,258.0682)">
	<path d="M48.8,117.3h8"/>
</g>
<g transform="translate(1449.6018,258.0682)">
	<path class="st7" d="M48.8,117.3h8"/>
</g>
<g transform="translate(1508.6693,288.3965)">
	<path d="M48.8,117.3h8"/>
</g>
<g transform="translate(1508.6693,288.3965)">
	<path class="st7" d="M48.8,117.3h8"/>
</g>
<g transform="translate(1567.7368,278.7307)">
	<path d="M48.8,117.3h8"/>
</g>
<g transform="translate(1567.7368,278.7307)">
	<path class="st7" d="M48.8,117.3h8"/>
</g>
<g transform="translate(1626.8043,272.1661)">
	<path d="M48.8,117.3h8"/>
</g>
<g transform="translate(1626.8043,272.1661)">
	<path class="st7" d="M48.8,117.3h8"/>
</g>
<g transform="translate(1685.8718,286.3679)">
	<path d="M48.8,117.3h8"/>
</g>
<g transform="translate(1685.8718,286.3679)">
	<path class="st7" d="M48.8,117.3h8"/>
</g>
<g transform="translate(268.2517,153.6377)">
	<path d="M48.8,117.3h8"/>
</g>
<g transform="translate(268.2517,153.6377)">
	<path class="st7" d="M48.8,117.3h8"/>
</g>
<g transform="translate(327.3192,137.8254)">
	<path d="M48.8,117.3h8"/>
</g>
<g transform="translate(327.3192,137.8254)">
	<path class="st7" d="M48.8,117.3h8"/>
</g>
<g transform="translate(386.3867,134.4054)">
	<path d="M48.8,117.3h8"/>
</g>
<g transform="translate(386.3867,134.4054)">
	<path class="st7" d="M48.8,117.3h8"/>
</g>
<g transform="translate(445.4542,149.9412)">
	<path d="M48.8,117.3h8"/>
</g>
<g transform="translate(445.4542,149.9412)">
	<path class="st7" d="M48.8,117.3h8"/>
</g>
<g transform="translate(504.5217,136.043)">
	<path d="M48.8,117.3h8"/>
</g>
<g transform="translate(504.5217,136.043)">
	<path class="st7" d="M48.8,117.3h8"/>
</g>
<g transform="translate(563.5892,134.4011)">
	<path d="M48.8,117.3h8"/>
</g>
<g transform="translate(563.5892,134.4011)">
	<path class="st7" d="M48.8,117.3h8"/>
</g>
<g transform="translate(622.6567,81.0798)">
	<path d="M48.8,117.3h8"/>
</g>
<g transform="translate(622.6567,81.0798)">
	<path class="st7" d="M48.8,117.3h8"/>
</g>
<g transform="translate(681.7242,124.4786)">
	<path d="M48.8,117.3h8"/>
</g>
<g transform="translate(681.7242,124.4786)">
	<path class="st7" d="M48.8,117.3h8"/>
</g>
<g transform="translate(740.7917,143.0892)">
	<path d="M48.8,117.3h8"/>
</g>
<g transform="translate(740.7917,143.0892)">
	<path class="st7" d="M48.8,117.3h8"/>
</g>
<g transform="translate(799.8593,121.6851)">
	<path d="M48.8,117.3h8"/>
</g>
<g transform="translate(799.8593,121.6851)">
	<path class="st7" d="M48.8,117.3h8"/>
</g>
<g transform="translate(858.9268,176.3815)">
	<path d="M48.8,117.3h8"/>
</g>
<g transform="translate(858.9268,176.3815)">
	<path class="st7" d="M48.8,117.3h8"/>
</g>
<g transform="translate(917.9943,193.0515)">
	<path d="M48.8,117.3h8"/>
</g>
<g transform="translate(917.9943,193.0515)">
	<path class="st7" d="M48.8,117.3h8"/>
</g>
<g transform="translate(977.0618,188.673)">
	<path d="M48.8,117.3h8"/>
</g>
<g transform="translate(977.0618,188.673)">
	<path class="st7" d="M48.8,117.3h8"/>
</g>
<g transform="translate(1036.1293,191.7565)">
	<path d="M48.8,117.3h8"/>
</g>
<g transform="translate(1036.1293,191.7565)">
	<path class="st7" d="M48.8,117.3h8"/>
</g>
<g transform="translate(1095.1968,227.0484)">
	<path d="M48.8,117.3h8"/>
</g>
<g transform="translate(1095.1968,227.0484)">
	<path class="st7" d="M48.8,117.3h8"/>
</g>
<g transform="translate(1154.2643,207.2151)">
	<path d="M48.8,117.3h8"/>
</g>
<g transform="translate(1154.2643,207.2151)">
	<path class="st7" d="M48.8,117.3h8"/>
</g>
<g transform="translate(1213.3318,209.3738)">
	<path d="M48.8,117.3h8"/>
</g>
<g transform="translate(1213.3318,209.3738)">
	<path class="st7" d="M48.8,117.3h8"/>
</g>
<g transform="translate(1272.3993,183.9458)">
	<path d="M48.8,117.3h8"/>
</g>
<g transform="translate(1272.3993,183.9458)">
	<path class="st7" d="M48.8,117.3h8"/>
</g>
<g transform="translate(1331.4668,218.6851)">
	<path d="M48.8,117.3h8"/>
</g>
<g transform="translate(1331.4668,218.6851)">
	<path class="st7" d="M48.8,117.3h8"/>
</g>
<g transform="translate(1390.5343,223.1991)">
	<path d="M48.8,117.3h8"/>
</g>
<g transform="translate(1390.5343,223.1991)">
	<path class="st7" d="M48.8,117.3h8"/>
</g>
<g transform="translate(1449.6018,178.4403)">
	<path d="M48.8,117.3h8"/>
</g>
<g transform="translate(1449.6018,178.4403)">
	<path class="st7" d="M48.8,117.3h8"/>
</g>
<g transform="translate(1508.6693,226.914)">
	<path d="M48.8,117.3h8"/>
</g>
<g transform="translate(1508.6693,226.914)">
	<path class="st7" d="M48.8,117.3h8"/>
</g>
<g transform="translate(1567.7368,220.4949)">
	<path d="M48.8,117.3h8"/>
</g>
<g transform="translate(1567.7368,220.4949)">
	<path class="st7" d="M48.8,117.3h8"/>
</g>
<g transform="translate(1626.8043,228.0598)">
	<path d="M48.8,117.3h8"/>
</g>
<g transform="translate(1626.8043,228.0598)">
	<path class="st7" d="M48.8,117.3h8"/>
</g>
<g transform="translate(1685.8718,227.149)">
	<path d="M48.8,117.3h8"/>
</g>
<g transform="translate(1685.8718,227.149)">
	<path class="st7" d="M48.8,117.3h8"/>
	<line class="st6" x1="-1348" y1="127.2" x2="-1348" y2="172.3"/>
	<line class="st6" x1="-1288.9" y1="52.9" x2="-1288.9" y2="90.8"/>
	<line class="st6" x1="-1229.8" y1="168.9" x2="-1229.8" y2="219.4"/>
	<line class="st6" x1="-1170.8" y1="94.6" x2="-1170.8" y2="134"/>
	<line class="st6" x1="-1111.7" y1="136.1" x2="-1111.7" y2="178.9"/>
	<line class="st6" x1="-1052.6" y1="112.5" x2="-1052.6" y2="146.2"/>
	<line class="st6" x1="-993.6" y1="151" x2="-993.6" y2="190.8"/>
	<line class="st6" x1="-934.5" y1="130.2" x2="-934.5" y2="171.6"/>
	<line class="st6" x1="-875.4" y1="112.1" x2="-875.4" y2="162.2"/>
	<line class="st6" x1="-816.3" y1="98.6" x2="-816.3" y2="136.3"/>
	<line class="st6" x1="-757.3" y1="123.7" x2="-757.3" y2="167.5"/>
	<line class="st6" x1="-698.2" y1="133.6" x2="-698.2" y2="165.4"/>
	<line class="st6" x1="-639.1" y1="76.4" x2="-639.1" y2="105.6"/>
	<line class="st6" x1="-580.1" y1="109" x2="-580.1" y2="153"/>
	<line class="st6" x1="-521" y1="93.6" x2="-521" y2="121.7"/>
	<line class="st6" x1="-461.9" y1="103.2" x2="-461.9" y2="139.9"/>
	<line class="st6" x1="-402.9" y1="109.6" x2="-402.9" y2="145.3"/>
	<line class="st6" x1="-343.8" y1="103.8" x2="-343.8" y2="149.4"/>
	<line class="st6" x1="-284.7" y1="104.4" x2="-284.7" y2="140.9"/>
	<line class="st6" x1="-225.7" y1="109.6" x2="-225.7" y2="136.3"/>
	<line class="st6" x1="-166.6" y1="127" x2="-166.6" y2="158"/>
	<line class="st6" x1="-107.5" y1="102.7" x2="-107.5" y2="132.4"/>
	<line class="st6" x1="-48.5" y1="130" x2="-48.5" y2="153.1"/>
	<line class="st6" x1="10.6" y1="139.5" x2="10.6" y2="160.2"/>
	<line class="st6" x1="69.7" y1="147.3" x2="69.7" y2="166.8"/>
	<line class="st6" x1="-1348" y1="127.2" x2="-1348" y2="97.1"/>
	<line class="st6" x1="-1288.9" y1="52.9" x2="-1288.9" y2="8.9"/>
	<line class="st6" x1="-1229.8" y1="168.9" x2="-1229.8" y2="119.7"/>
	<line class="st6" x1="-1170.8" y1="94.6" x2="-1170.8" y2="66.1"/>
	<line class="st6" x1="-1111.7" y1="136.1" x2="-1111.7" y2="94.7"/>
	<line class="st6" x1="-1052.6" y1="112.5" x2="-1052.6" y2="74.4"/>
	<line class="st6" x1="-993.6" y1="151" x2="-993.6" y2="107.2"/>
	<line class="st6" x1="-934.5" y1="130.2" x2="-934.5" y2="86.1"/>
	<line class="st6" x1="-875.4" y1="112.1" x2="-875.4" y2="78"/>
	<line class="st6" x1="-816.3" y1="98.6" x2="-816.3" y2="57.7"/>
	<line class="st6" x1="-757.3" y1="123.7" x2="-757.3" y2="71.5"/>
	<line class="st6" x1="-698.2" y1="133.6" x2="-698.2" y2="96.5"/>
	<line class="st6" x1="-639.1" y1="76.4" x2="-639.1" y2="40.7"/>
	<line class="st6" x1="-580.1" y1="109" x2="-580.1" y2="66.9"/>
	<line class="st6" x1="-521" y1="93.6" x2="-521" y2="59.9"/>
	<line class="st6" x1="-461.9" y1="103.2" x2="-461.9" y2="71.6"/>
	<line class="st6" x1="-402.9" y1="109.6" x2="-402.9" y2="76.4"/>
	<line class="st6" x1="-343.8" y1="103.8" x2="-343.8" y2="63.4"/>
	<line class="st6" x1="-284.7" y1="104.4" x2="-284.7" y2="64.4"/>
	<line class="st6" x1="-225.7" y1="109.6" x2="-225.7" y2="84.4"/>
	<line class="st6" x1="-166.6" y1="127" x2="-166.6" y2="91.9"/>
	<line class="st6" x1="-107.5" y1="102.7" x2="-107.5" y2="71.6"/>
	<line class="st6" x1="-48.5" y1="130" x2="-48.5" y2="107.2"/>
	<line class="st6" x1="10.6" y1="139.5" x2="10.6" y2="115.8"/>
	<line class="st6" x1="69.7" y1="147.3" x2="69.7" y2="126.3"/>
</g>
<g transform="translate(285.1281,282.0865)">
	<path d="M48.8,117.3h8"/>
</g>
<g transform="translate(285.1281,282.0865)">
	<path class="st7" d="M48.8,117.3h8"/>
</g>
<g transform="translate(344.1956,200.6279)">
	<path d="M48.8,117.3h8"/>
</g>
<g transform="translate(344.1956,200.6279)">
	<path class="st7" d="M48.8,117.3h8"/>
</g>
<g transform="translate(403.2632,329.1996)">
	<path d="M48.8,117.3h8"/>
</g>
<g transform="translate(403.2632,329.1996)">
	<path class="st7" d="M48.8,117.3h8"/>
</g>
<g transform="translate(462.3307,243.8523)">
	<path d="M48.8,117.3h8"/>
</g>
<g transform="translate(462.3307,243.8523)">
	<path class="st7" d="M48.8,117.3h8"/>
</g>
<g transform="translate(521.3982,288.779)">
	<path d="M48.8,117.3h8"/>
</g>
<g transform="translate(521.3982,288.779)">
	<path class="st7" d="M48.8,117.3h8"/>
</g>
<g transform="translate(580.4657,256.0157)">
	<path d="M48.8,117.3h8"/>
</g>
<g transform="translate(580.4657,256.0157)">
	<path class="st7" d="M48.8,117.3h8"/>
</g>
<g transform="translate(639.5332,300.5944)">
	<path d="M48.8,117.3h8"/>
</g>
<g transform="translate(639.5332,300.5944)">
	<path class="st7" d="M48.8,117.3h8"/>
</g>
<g transform="translate(698.6007,281.3908)">
	<path d="M48.8,117.3h8"/>
</g>
<g transform="translate(698.6007,281.3908)">
	<path class="st7" d="M48.8,117.3h8"/>
</g>
<g transform="translate(757.6682,272.0332)">
	<path d="M48.8,117.3h8"/>
</g>
<g transform="translate(757.6682,272.0332)">
	<path class="st7" d="M48.8,117.3h8"/>
</g>
<g transform="translate(816.7357,246.1239)">
	<path d="M48.8,117.3h8"/>
</g>
<g transform="translate(816.7357,246.1239)">
	<path class="st7" d="M48.8,117.3h8"/>
</g>
<g transform="translate(875.8032,277.2823)">
	<path d="M48.8,117.3h8"/>
</g>
<g transform="translate(875.8032,277.2823)">
	<path class="st7" d="M48.8,117.3h8"/>
</g>
<g transform="translate(934.8707,275.231)">
	<path d="M48.8,117.3h8"/>
</g>
<g transform="translate(934.8707,275.231)">
	<path class="st7" d="M48.8,117.3h8"/>
</g>
<g transform="translate(993.9382,215.3802)">
	<path d="M48.8,117.3h8"/>
</g>
<g transform="translate(993.9382,215.3802)">
	<path class="st7" d="M48.8,117.3h8"/>
</g>
<g transform="translate(1053.0057,262.816)">
	<path d="M48.8,117.3h8"/>
</g>
<g transform="translate(1053.0057,262.816)">
	<path class="st7" d="M48.8,117.3h8"/>
</g>
<g transform="translate(1112.0732,231.5536)">
	<path d="M48.8,117.3h8"/>
</g>
<g transform="translate(1112.0732,231.5536)">
	<path class="st7" d="M48.8,117.3h8"/>
</g>
<g transform="translate(1171.1407,249.7372)">
	<path d="M48.8,117.3h8"/>
</g>
<g transform="translate(1171.1407,249.7372)">
	<path class="st7" d="M48.8,117.3h8"/>
</g>
<g transform="translate(1230.2083,255.1119)">
	<path d="M48.8,117.3h8"/>
</g>
<g transform="translate(1230.2083,255.1119)">
	<path class="st7" d="M48.8,117.3h8"/>
</g>
<g transform="translate(1289.2758,259.2406)">
	<path d="M48.8,117.3h8"/>
</g>
<g transform="translate(1289.2758,259.2406)">
	<path class="st7" d="M48.8,117.3h8"/>
</g>
<g transform="translate(1348.3433,250.7239)">
	<path d="M48.8,117.3h8"/>
</g>
<g transform="translate(1348.3433,250.7239)">
	<path class="st7" d="M48.8,117.3h8"/>
</g>
<g transform="translate(1407.4108,246.0816)">
	<path d="M48.8,117.3h8"/>
</g>
<g transform="translate(1407.4108,246.0816)">
	<path class="st7" d="M48.8,117.3h8"/>
</g>
<g transform="translate(1466.4783,267.8327)">
	<path d="M48.8,117.3h8"/>
</g>
<g transform="translate(1466.4783,267.8327)">
	<path class="st7" d="M48.8,117.3h8"/>
</g>
<g transform="translate(1525.5458,242.1823)">
	<path d="M48.8,117.3h8"/>
</g>
<g transform="translate(1525.5458,242.1823)">
	<path class="st7" d="M48.8,117.3h8"/>
</g>
<g transform="translate(1584.6133,262.915)">
	<path d="M48.8,117.3h8"/>
</g>
<g transform="translate(1584.6133,262.915)">
	<path class="st7" d="M48.8,117.3h8"/>
</g>
<g transform="translate(1643.6808,269.9833)">
	<path d="M48.8,117.3h8"/>
</g>
<g transform="translate(1643.6808,269.9833)">
	<path class="st7" d="M48.8,117.3h8"/>
</g>
<g transform="translate(1702.7483,276.5894)">
	<path d="M48.8,117.3h8"/>
</g>
<g transform="translate(1702.7483,276.5894)">
	<path class="st7" d="M48.8,117.3h8"/>
</g>
<g transform="translate(285.1281,206.8879)">
	<path d="M48.8,117.3h8"/>
</g>
<g transform="translate(285.1281,206.8879)">
	<path class="st7" d="M48.8,117.3h8"/>
</g>
<g transform="translate(344.1956,118.7094)">
	<path d="M48.8,117.3h8"/>
</g>
<g transform="translate(344.1956,118.7094)">
	<path class="st7" d="M48.8,117.3h8"/>
</g>
<g transform="translate(403.2632,229.5187)">
	<path d="M48.8,117.3h8"/>
</g>
<g transform="translate(403.2632,229.5187)">
	<path class="st7" d="M48.8,117.3h8"/>
</g>
<g transform="translate(462.3307,175.9324)">
	<path d="M48.8,117.3h8"/>
</g>
<g transform="translate(462.3307,175.9324)">
	<path class="st7" d="M48.8,117.3h8"/>
</g>
<g transform="translate(521.3982,204.4881)">
	<path d="M48.8,117.3h8"/>
</g>
<g transform="translate(521.3982,204.4881)">
	<path class="st7" d="M48.8,117.3h8"/>
</g>
<g transform="translate(580.4657,184.2583)">
	<path d="M48.8,117.3h8"/>
</g>
<g transform="translate(580.4657,184.2583)">
	<path class="st7" d="M48.8,117.3h8"/>
</g>
<g transform="translate(639.5332,217.0247)">
	<path d="M48.8,117.3h8"/>
</g>
<g transform="translate(639.5332,217.0247)">
	<path class="st7" d="M48.8,117.3h8"/>
</g>
<g transform="translate(698.6007,195.8818)">
	<path d="M48.8,117.3h8"/>
</g>
<g transform="translate(698.6007,195.8818)">
	<path class="st7" d="M48.8,117.3h8"/>
</g>
<g transform="translate(757.6682,187.812)">
	<path d="M48.8,117.3h8"/>
</g>
<g transform="translate(757.6682,187.812)">
	<path class="st7" d="M48.8,117.3h8"/>
</g>
<g transform="translate(816.7357,167.486)">
	<path d="M48.8,117.3h8"/>
</g>
<g transform="translate(816.7357,167.486)">
	<path class="st7" d="M48.8,117.3h8"/>
</g>
<g transform="translate(875.8032,181.3197)">
	<path d="M48.8,117.3h8"/>
</g>
<g transform="translate(875.8032,181.3197)">
	<path class="st7" d="M48.8,117.3h8"/>
</g>
<g transform="translate(934.8707,206.3165)">
	<path d="M48.8,117.3h8"/>
</g>
<g transform="translate(934.8707,206.3165)">
	<path class="st7" d="M48.8,117.3h8"/>
</g>
<g transform="translate(993.9382,150.5692)">
	<path d="M48.8,117.3h8"/>
</g>
<g transform="translate(993.9382,150.5692)">
	<path class="st7" d="M48.8,117.3h8"/>
</g>
<g transform="translate(1053.0057,176.7516)">
	<path d="M48.8,117.3h8"/>
</g>
<g transform="translate(1053.0057,176.7516)">
	<path class="st7" d="M48.8,117.3h8"/>
</g>
<g transform="translate(1112.0732,169.7725)">
	<path d="M48.8,117.3h8"/>
</g>
<g transform="translate(1112.0732,169.7725)">
	<path class="st7" d="M48.8,117.3h8"/>
</g>
<g transform="translate(1171.1407,181.4419)">
	<path d="M48.8,117.3h8"/>
</g>
<g transform="translate(1171.1407,181.4419)">
	<path class="st7" d="M48.8,117.3h8"/>
</g>
<g transform="translate(1230.2083,186.2229)">
	<path d="M48.8,117.3h8"/>
</g>
<g transform="translate(1230.2083,186.2229)">
	<path class="st7" d="M48.8,117.3h8"/>
</g>
<g transform="translate(1289.2758,173.2136)">
	<path d="M48.8,117.3h8"/>
</g>
<g transform="translate(1289.2758,173.2136)">
	<path class="st7" d="M48.8,117.3h8"/>
</g>
<g transform="translate(1348.3433,174.2631)">
	<path d="M48.8,117.3h8"/>
</g>
<g transform="translate(1348.3433,174.2631)">
	<path class="st7" d="M48.8,117.3h8"/>
</g>
<g transform="translate(1407.4108,194.2119)">
	<path d="M48.8,117.3h8"/>
</g>
<g transform="translate(1407.4108,194.2119)">
	<path class="st7" d="M48.8,117.3h8"/>
</g>
<g transform="translate(1466.4783,201.6817)">
	<path d="M48.8,117.3h8"/>
</g>
<g transform="translate(1466.4783,201.6817)">
	<path class="st7" d="M48.8,117.3h8"/>
</g>
<g transform="translate(1525.5458,181.4439)">
	<path d="M48.8,117.3h8"/>
</g>
<g transform="translate(1525.5458,181.4439)">
	<path class="st7" d="M48.8,117.3h8"/>
</g>
<g transform="translate(1584.6133,217.0216)">
	<path d="M48.8,117.3h8"/>
</g>
<g transform="translate(1584.6133,217.0216)">
	<path class="st7" d="M48.8,117.3h8"/>
</g>
<g transform="translate(1643.6808,225.629)">
	<path d="M48.8,117.3h8"/>
</g>
<g transform="translate(1643.6808,225.629)">
	<path class="st7" d="M48.8,117.3h8"/>
</g>
<g transform="translate(1702.7483,236.1562)">
	<path d="M48.8,117.3h8"/>
</g>
<g transform="translate(1702.7483,236.1562)">
	<path class="st7" d="M48.8,117.3h8"/>
	<path class="st8" d="M-1373.3-6V8 M-1380.3,1h14 M-1378-3.8l9.4,9.4 M-1378,5.7l9.4-9.4"/>
	<path class="st8" d="M-1314.2-6V8 M-1321.2,1h14 M-1318.9-3.8l9.4,9.4 M-1318.9,5.7l9.4-9.4"/>
	<path class="st9" d="M-1314.2-29.3v14 M-1321.2-22.3h14 M-1318.9-27l9.4,9.4 M-1318.9-17.6l9.4-9.4"/>
	<path class="st8" d="M-1255.1-6V8 M-1262.1,1h14 M-1259.9-3.8l9.4,9.4 M-1259.9,5.7l9.4-9.4"/>
	<path class="st7" d="M-1255.1-52.6v14 M-1262.1-45.6h14 M-1259.9-50.3l9.4,9.4 M-1259.9-40.9l9.4-9.4"/>
	<path class="st8" d="M-1196.1-6V8 M-1203.1,1h14 M-1200.8-3.8l9.4,9.4 M-1200.8,5.7l9.4-9.4"/>
	<path class="st9" d="M-1196.1-29.3v14 M-1203.1-22.3h14 M-1200.8-27l9.4,9.4 M-1200.8-17.6l9.4-9.4"/>
	<path class="st8" d="M-1137-6V8 M-1144,1h14 M-1141.7-3.8l9.4,9.4 M-1141.7,5.7l9.4-9.4"/>
	<path class="st8" d="M-1077.9-6V8 M-1084.9,1h14 M-1082.6-3.8l9.4,9.4 M-1082.6,5.7l9.4-9.4"/>
	<path class="st8" d="M-1018.9-6V8 M-1025.9,1h14 M-1023.6-3.8l9.4,9.4 M-1023.6,5.7l9.4-9.4"/>
	<path class="st7" d="M-1018.9-52.6v14 M-1025.9-45.6h14 M-1023.6-50.3l9.4,9.4 M-1023.6-40.9l9.4-9.4"/>
	<path class="st8" d="M-959.8-6V8 M-966.8,1h14 M-964.5-3.8l9.4,9.4 M-964.5,5.7l9.4-9.4"/>
	<path class="st8" d="M-900.7-6V8 M-907.7,1h14 M-905.4-3.8l9.4,9.4 M-905.4,5.7l9.4-9.4"/>
	<path class="st8" d="M-841.7-6V8 M-848.7,1h14 M-846.4-3.8l9.4,9.4 M-846.4,5.7l9.4-9.4"/>
	<path class="st9" d="M-841.7-29.3v14 M-848.7-22.3h14 M-846.4-27l9.4,9.4 M-846.4-17.6l9.4-9.4"/>
	<path class="st9" d="M-664.5-29.3v14 M-671.5-22.3h14 M-669.2-27l9.4,9.4 M-669.2-17.6l9.4-9.4"/>
	<path class="st7" d="M-664.5-52.6v14 M-671.5-45.6h14 M-669.2-50.3l9.4,9.4 M-669.2-40.9l9.4-9.4"/>
	<path class="st9" d="M-546.3-29.3v14 M-553.3-22.3h14 M-551-27l9.4,9.4 M-551-17.6l9.4-9.4"/>
	<path class="st7" d="M-546.3-52.6v14 M-553.3-45.6h14 M-551-50.3l9.4,9.4 M-551-40.9l9.4-9.4"/>
	<path class="st9" d="M-487.3-29.3v14 M-494.3-22.3h14 M-492-27l9.4,9.4 M-492-17.6l9.4-9.4"/>
	<path class="st9" d="M-428.2-29.3v14 M-435.2-22.3h14 M-432.9-27l9.4,9.4 M-432.9-17.6l9.4-9.4"/>
	<path class="st9" d="M-369.1-29.3v14 M-376.1-22.3h14 M-373.8-27l9.4,9.4 M-373.8-17.6l9.4-9.4"/>
	<path class="st9" d="M-310.1-29.3v14 M-317.1-22.3h14 M-314.8-27l9.4,9.4 M-314.8-17.6l9.4-9.4"/>
	<path class="st9" d="M-251-29.3v14 M-258-22.3h14 M-255.7-27l9.4,9.4 M-255.7-17.6l9.4-9.4"/>
	<path class="st9" d="M-132.9-29.3v14 M-139.9-22.3h14 M-137.6-27l9.4,9.4 M-137.6-17.6l9.4-9.4"/>
	<path class="st7" d="M-132.9-52.6v14 M-139.9-45.6h14 M-137.6-50.3l9.4,9.4 M-137.6-40.9l9.4-9.4"/>
</g>
<g>
	<line class="st10" x1="300.8" y1="510.3" x2="1775.8" y2="510.3"/>
	<line class="st10" x1="329.5" y1="510.3" x2="329.5" y2="495.6"/>
	<line class="st10" x1="388.5" y1="510.3" x2="388.5" y2="495.6"/>
	<line class="st10" x1="447.6" y1="510.3" x2="447.6" y2="495.6"/>
	<line class="st10" x1="506.7" y1="510.3" x2="506.7" y2="495.6"/>
	<line class="st10" x1="565.7" y1="510.3" x2="565.7" y2="495.6"/>
	<line class="st10" x1="624.8" y1="510.3" x2="624.8" y2="495.6"/>
	<line class="st10" x1="683.9" y1="510.3" x2="683.9" y2="495.6"/>
	<line class="st10" x1="742.9" y1="510.3" x2="742.9" y2="495.6"/>
	<line class="st10" x1="802" y1="510.3" x2="802" y2="495.6"/>
	<line class="st10" x1="861.1" y1="510.3" x2="861.1" y2="495.6"/>
	<line class="st10" x1="920.2" y1="510.3" x2="920.2" y2="495.6"/>
	<line class="st10" x1="979.2" y1="510.3" x2="979.2" y2="495.6"/>
	<line class="st10" x1="1038.3" y1="510.3" x2="1038.3" y2="495.6"/>
	<line class="st10" x1="1097.4" y1="510.3" x2="1097.4" y2="495.6"/>
	<line class="st10" x1="1156.4" y1="510.3" x2="1156.4" y2="495.6"/>
	<line class="st10" x1="1215.5" y1="510.3" x2="1215.5" y2="495.6"/>
	<line class="st10" x1="1274.6" y1="510.3" x2="1274.6" y2="495.6"/>
	<line class="st10" x1="1333.6" y1="510.3" x2="1333.6" y2="495.6"/>
	<line class="st10" x1="1392.7" y1="510.3" x2="1392.7" y2="495.6"/>
	<line class="st10" x1="1451.8" y1="510.3" x2="1451.8" y2="495.6"/>
	<line class="st10" x1="1510.8" y1="510.3" x2="1510.8" y2="495.6"/>
	<line class="st10" x1="1569.9" y1="510.3" x2="1569.9" y2="495.6"/>
	<line class="st10" x1="1629" y1="510.3" x2="1629" y2="495.6"/>
	<line class="st10" x1="1688" y1="510.3" x2="1688" y2="495.6"/>
	<line class="st10" x1="1747.1" y1="510.3" x2="1747.1" y2="495.6"/>
</g>
<g transform="translate(276.6899,401.5333)">
	<text transform="matrix(1 0 0 1 37.7872 147.3192)" class="st11 st12 st13">L1</text>
</g>
<g transform="translate(335.7574,401.5333)">
	<text transform="matrix(1 0 0 1 37.7872 147.3192)" class="st11 st12 st13">L2</text>
</g>
<g transform="translate(394.825,401.5333)">
	<text transform="matrix(1 0 0 1 37.7872 147.3192)" class="st11 st12 st13">L3</text>
</g>
<g transform="translate(453.8925,401.5333)">
	<text transform="matrix(1 0 0 1 37.7872 147.3192)" class="st11 st12 st13">L4</text>
</g>
<g transform="translate(512.96,401.5333)">
	<text transform="matrix(1 0 0 1 37.7872 147.3192)" class="st11 st12 st13">L5</text>
</g>
<g transform="translate(572.0275,401.5333)">
	<text transform="matrix(1 0 0 1 37.7872 147.3192)" class="st11 st12 st13">L6</text>
</g>
<g transform="translate(631.095,401.5333)">
	<text transform="matrix(1 0 0 1 37.7872 147.3192)" class="st11 st12 st13">L7</text>
</g>
<g transform="translate(690.1625,401.5333)">
	<text transform="matrix(1 0 0 1 37.7872 147.3192)" class="st11 st12 st13">L8</text>
</g>
<g transform="translate(749.23,401.5333)">
	<text transform="matrix(1 0 0 1 37.7872 147.3192)" class="st11 st12 st13">L9</text>
</g>
<g transform="translate(808.2975,401.5333)">
	<g class="st1">
		<path class="st11" d="M33.4,147.3v-21h2.8v18.5h10.3v2.5H33.4z"/>
		<path class="st11" d="M58.5,147.3H56v-16.4c-0.6,0.6-1.4,1.2-2.4,1.8s-1.9,1-2.7,1.3v-2.5c1.4-0.7,2.7-1.5,3.8-2.5
			c1.1-1,1.8-1.9,2.3-2.8h1.7V147.3z"/>
		<path class="st11" d="M65.1,137c0-2.5,0.3-4.5,0.8-6c0.5-1.5,1.3-2.7,2.3-3.5c1-0.8,2.3-1.2,3.8-1.2c1.1,0,2.1,0.2,3,0.7
			c0.8,0.5,1.6,1.1,2.1,2c0.6,0.9,1,1.9,1.3,3.1c0.3,1.2,0.5,2.9,0.5,5c0,2.5-0.3,4.5-0.8,6c-0.5,1.5-1.3,2.7-2.3,3.5
			s-2.3,1.2-3.8,1.2c-2,0-3.6-0.7-4.8-2.2C65.8,143.8,65.1,140.9,65.1,137z M67.8,137c0,3.4,0.4,5.7,1.2,6.9c0.8,1.1,1.8,1.7,3,1.7
			c1.2,0,2.2-0.6,3-1.7c0.8-1.1,1.2-3.4,1.2-6.9c0-3.5-0.4-5.8-1.2-6.9c-0.8-1.1-1.8-1.7-3-1.7c-1.2,0-2.1,0.5-2.8,1.5
			C68.2,131.2,67.8,133.5,67.8,137z"/>
	</g>
</g>
<g transform="translate(867.365,401.5333)">
	<g class="st1">
		<path class="st11" d="M33.4,147.3v-21h2.8v18.5h10.3v2.5H33.4z"/>
		<path class="st11" d="M58.5,147.3H56v-16.4c-0.6,0.6-1.4,1.2-2.4,1.8c-1,0.6-1.9,1-2.7,1.3v-2.5c1.4-0.7,2.7-1.5,3.8-2.5
			c1.1-1,1.8-1.9,2.3-2.8h1.7V147.3z"/>
		<path class="st11" d="M74.8,147.3h-2.6v-16.4c-0.6,0.6-1.4,1.2-2.4,1.8c-1,0.6-1.9,1-2.7,1.3v-2.5c1.4-0.7,2.7-1.5,3.8-2.5
			c1.1-1,1.8-1.9,2.3-2.8h1.7V147.3z"/>
	</g>
</g>
<g transform="translate(926.4325,401.5333)">
	<g class="st1">
		<path class="st11" d="M33.4,147.3v-21h2.8v18.5h10.3v2.5H33.4z"/>
		<path class="st11" d="M58.5,147.3H56v-16.4c-0.6,0.6-1.4,1.2-2.4,1.8s-1.9,1-2.7,1.3v-2.5c1.4-0.7,2.7-1.5,3.8-2.5
			c1.1-1,1.8-1.9,2.3-2.8h1.7V147.3z"/>
		<path class="st11" d="M78.7,144.8v2.5H64.8c0-0.6,0.1-1.2,0.3-1.8c0.4-0.9,0.9-1.9,1.7-2.8c0.8-0.9,1.9-2,3.4-3.2
			c2.3-1.9,3.8-3.4,4.6-4.4C75.6,134,76,133,76,132c0-1-0.4-1.9-1.1-2.6s-1.7-1.1-2.9-1.1c-1.2,0-2.2,0.4-3,1.1s-1.1,1.8-1.1,3.1
			l-2.6-0.3c0.2-2,0.9-3.5,2-4.5c1.2-1,2.8-1.6,4.8-1.6c2,0,3.6,0.6,4.8,1.7c1.2,1.1,1.8,2.5,1.8,4.2c0,0.8-0.2,1.7-0.5,2.5
			c-0.3,0.8-0.9,1.7-1.7,2.6c-0.8,0.9-2.1,2.1-4,3.7c-1.5,1.3-2.5,2.2-3,2.6c-0.4,0.5-0.8,0.9-1.1,1.4H78.7z"/>
	</g>
</g>
<g transform="translate(985.5,401.5333)">
	<g class="st1">
		<path class="st11" d="M33.4,147.3v-21h2.8v18.5h10.3v2.5H33.4z"/>
		<path class="st11" d="M58.5,147.3H56v-16.4c-0.6,0.6-1.4,1.2-2.4,1.8c-1,0.6-1.9,1-2.7,1.3v-2.5c1.4-0.7,2.7-1.5,3.8-2.5
			c1.1-1,1.8-1.9,2.3-2.8h1.7V147.3z"/>
		<path class="st11" d="M65.1,141.8l2.6-0.3c0.3,1.5,0.8,2.5,1.5,3.2s1.6,1,2.6,1c1.2,0,2.2-0.4,3.1-1.3c0.8-0.8,1.3-1.9,1.3-3.1
			c0-1.2-0.4-2.2-1.2-2.9s-1.8-1.2-3-1.2c-0.5,0-1.1,0.1-1.8,0.3l0.3-2.3c0.2,0,0.3,0,0.4,0c1.1,0,2.1-0.3,3-0.9
			c0.9-0.6,1.3-1.5,1.3-2.6c0-0.9-0.3-1.7-1-2.3c-0.6-0.6-1.5-0.9-2.5-0.9c-1,0-1.8,0.3-2.5,0.9c-0.7,0.6-1.1,1.6-1.3,2.8l-2.6-0.5
			c0.3-1.7,1-3.1,2.1-4c1.1-1,2.5-1.4,4.2-1.4c1.1,0,2.2,0.2,3.2,0.7c1,0.5,1.7,1.2,2.2,2s0.8,1.8,0.8,2.7c0,0.9-0.2,1.7-0.7,2.5
			c-0.5,0.7-1.2,1.3-2.2,1.8c1.2,0.3,2.2,0.9,2.9,1.8s1,2,1,3.4c0,1.8-0.7,3.4-2,4.7c-1.3,1.3-3,1.9-5.1,1.9c-1.8,0-3.4-0.5-4.6-1.6
			C66,144.9,65.3,143.5,65.1,141.8z"/>
	</g>
</g>
<g transform="translate(1044.5675,401.5333)">
	<g class="st1">
		<path class="st11" d="M33.4,147.3v-21h2.8v18.5h10.3v2.5H33.4z"/>
		<path class="st11" d="M58.5,147.3H56v-16.4c-0.6,0.6-1.4,1.2-2.4,1.8c-1,0.6-1.9,1-2.7,1.3v-2.5c1.4-0.7,2.7-1.5,3.8-2.5
			c1.1-1,1.8-1.9,2.3-2.8h1.7V147.3z"/>
		<path class="st11" d="M73.4,147.3v-5h-9.1v-2.4l9.6-13.6H76v13.6h2.8v2.4H76v5H73.4z M73.4,139.9v-9.5l-6.6,9.5H73.4z"/>
	</g>
</g>
<g transform="translate(1103.635,401.5333)">
	<g class="st1">
		<path class="st11" d="M33.4,147.3v-21h2.8v18.5h10.3v2.5H33.4z"/>
		<path class="st11" d="M58.5,147.3H56v-16.4c-0.6,0.6-1.4,1.2-2.4,1.8c-1,0.6-1.9,1-2.7,1.3v-2.5c1.4-0.7,2.7-1.5,3.8-2.5
			c1.1-1,1.8-1.9,2.3-2.8h1.7V147.3z"/>
		<path class="st11" d="M65.1,141.8l2.7-0.2c0.2,1.3,0.7,2.3,1.4,3c0.7,0.7,1.6,1,2.6,1c1.2,0,2.3-0.5,3.2-1.4s1.3-2.2,1.3-3.7
			c0-1.5-0.4-2.6-1.2-3.5c-0.8-0.8-1.9-1.3-3.2-1.3c-0.8,0-1.6,0.2-2.2,0.6c-0.7,0.4-1.2,0.9-1.6,1.5l-2.4-0.3l2-10.8h10.4v2.5h-8.4
			l-1.1,5.6c1.3-0.9,2.6-1.3,4-1.3c1.8,0,3.4,0.6,4.6,1.9c1.3,1.3,1.9,2.9,1.9,4.9c0,1.9-0.6,3.5-1.7,4.9c-1.3,1.7-3.2,2.5-5.5,2.5
			c-1.9,0-3.5-0.5-4.7-1.6S65.3,143.6,65.1,141.8z"/>
	</g>
</g>
<g transform="translate(1162.7025,401.5333)">
	<g class="st1">
		<path class="st11" d="M33.4,147.3v-21h2.8v18.5h10.3v2.5H33.4z"/>
		<path class="st11" d="M58.5,147.3H56v-16.4c-0.6,0.6-1.4,1.2-2.4,1.8c-1,0.6-1.9,1-2.7,1.3v-2.5c1.4-0.7,2.7-1.5,3.8-2.5
			c1.1-1,1.8-1.9,2.3-2.8h1.7V147.3z"/>
		<path class="st11" d="M78.5,131.5l-2.6,0.2c-0.2-1-0.6-1.7-1-2.2c-0.7-0.7-1.6-1.1-2.6-1.1c-0.8,0-1.5,0.2-2.2,0.7
			c-0.8,0.6-1.5,1.5-1.9,2.6c-0.5,1.1-0.7,2.8-0.7,4.9c0.6-0.9,1.4-1.6,2.3-2.1s1.8-0.7,2.8-0.7c1.7,0,3.2,0.6,4.4,1.9
			c1.2,1.3,1.8,2.9,1.8,4.9c0,1.3-0.3,2.5-0.9,3.7c-0.6,1.1-1.3,2-2.3,2.6s-2.1,0.9-3.4,0.9c-2.1,0-3.9-0.8-5.3-2.4
			c-1.4-1.6-2-4.2-2-7.8c0-4.1,0.8-7,2.2-8.9c1.3-1.6,3.1-2.4,5.3-2.4c1.7,0,3,0.5,4.1,1.4C77.7,128.6,78.3,129.8,78.5,131.5z
			 M68,140.5c0,0.9,0.2,1.7,0.6,2.5c0.4,0.8,0.9,1.4,1.6,1.9c0.7,0.4,1.4,0.6,2.1,0.6c1.1,0,2-0.4,2.8-1.3c0.8-0.9,1.2-2.1,1.2-3.6
			c0-1.5-0.4-2.6-1.2-3.4c-0.8-0.8-1.7-1.3-2.9-1.3c-1.2,0-2.2,0.4-3,1.3C68.4,138.1,68,139.2,68,140.5z"/>
	</g>
</g>
<g transform="translate(1221.77,401.5333)">
	<g class="st1">
		<path class="st11" d="M33.4,147.3v-21h2.8v18.5h10.3v2.5H33.4z"/>
		<path class="st11" d="M58.5,147.3H56v-16.4c-0.6,0.6-1.4,1.2-2.4,1.8s-1.9,1-2.7,1.3v-2.5c1.4-0.7,2.7-1.5,3.8-2.5
			c1.1-1,1.8-1.9,2.3-2.8h1.7V147.3z"/>
		<path class="st11" d="M65.3,129.1v-2.5h13.6v2c-1.3,1.4-2.7,3.3-4,5.7s-2.3,4.8-3,7.3c-0.5,1.8-0.8,3.7-1,5.8h-2.7
			c0-1.7,0.4-3.6,1-6c0.6-2.3,1.5-4.6,2.7-6.8c1.2-2.2,2.4-4,3.7-5.5H65.3z"/>
	</g>
</g>
<g transform="translate(1280.8375,401.5333)">
	<g class="st1">
		<path class="st11" d="M33.4,147.3v-21h2.8v18.5h10.3v2.5H33.4z"/>
		<path class="st11" d="M58.5,147.3H56v-16.4c-0.6,0.6-1.4,1.2-2.4,1.8c-1,0.6-1.9,1-2.7,1.3v-2.5c1.4-0.7,2.7-1.5,3.8-2.5
			c1.1-1,1.8-1.9,2.3-2.8h1.7V147.3z"/>
		<path class="st11" d="M69.1,135.9c-1.1-0.4-1.9-1-2.4-1.7s-0.8-1.6-0.8-2.6c0-1.5,0.5-2.8,1.6-3.9c1.1-1,2.6-1.6,4.4-1.6
			c1.8,0,3.3,0.5,4.4,1.6c1.1,1.1,1.7,2.4,1.7,3.9c0,1-0.3,1.8-0.8,2.5c-0.5,0.7-1.3,1.3-2.3,1.7c1.3,0.4,2.3,1.1,2.9,2
			c0.7,0.9,1,2.1,1,3.4c0,1.8-0.6,3.3-1.9,4.5c-1.3,1.2-2.9,1.8-5,1.8c-2.1,0-3.7-0.6-5-1.8c-1.3-1.2-1.9-2.8-1.9-4.6
			c0-1.4,0.3-2.5,1-3.4C66.8,136.9,67.8,136.3,69.1,135.9z M67.8,141.3c0,0.7,0.2,1.4,0.5,2.1s0.9,1.2,1.6,1.6s1.4,0.6,2.2,0.6
			c1.2,0,2.2-0.4,3.1-1.2c0.8-0.8,1.2-1.8,1.2-3c0-1.2-0.4-2.3-1.2-3.1S73.2,137,72,137c-1.2,0-2.2,0.4-3,1.2
			C68.2,139.1,67.8,140.1,67.8,141.3z M68.6,131.6c0,1,0.3,1.8,1,2.4s1.5,0.9,2.5,0.9c1,0,1.8-0.3,2.4-0.9c0.6-0.6,1-1.4,1-2.3
			c0-0.9-0.3-1.7-1-2.4c-0.7-0.6-1.5-1-2.4-1c-1,0-1.8,0.3-2.4,0.9C68.9,129.9,68.6,130.7,68.6,131.6z"/>
	</g>
</g>
<g transform="translate(1339.905,401.5333)">
	<g class="st1">
		<path class="st11" d="M33.4,147.3v-21h2.8v18.5h10.3v2.5H33.4z"/>
		<path class="st11" d="M58.5,147.3H56v-16.4c-0.6,0.6-1.4,1.2-2.4,1.8c-1,0.6-1.9,1-2.7,1.3v-2.5c1.4-0.7,2.7-1.5,3.8-2.5
			c1.1-1,1.8-1.9,2.3-2.8h1.7V147.3z"/>
		<path class="st11" d="M65.5,142.5l2.5-0.2c0.2,1.2,0.6,2,1.2,2.5c0.6,0.5,1.4,0.8,2.3,0.8c0.8,0,1.5-0.2,2.1-0.5
			c0.6-0.4,1.1-0.8,1.5-1.5c0.4-0.6,0.7-1.4,1-2.5s0.4-2.1,0.4-3.2c0-0.1,0-0.3,0-0.5c-0.5,0.8-1.2,1.5-2.1,2s-1.9,0.8-2.9,0.8
			c-1.7,0-3.2-0.6-4.4-1.9c-1.2-1.3-1.8-2.9-1.8-5c0-2.1,0.6-3.8,1.9-5.1c1.3-1.3,2.8-1.9,4.7-1.9c1.4,0,2.6,0.4,3.7,1.1
			c1.1,0.7,2,1.8,2.6,3.1c0.6,1.4,0.9,3.3,0.9,5.9c0,2.7-0.3,4.8-0.9,6.4c-0.6,1.6-1.4,2.8-2.6,3.6c-1.2,0.8-2.5,1.2-4,1.2
			c-1.6,0-3-0.5-4-1.4S65.7,144.1,65.5,142.5z M76.1,133.2c0-1.5-0.4-2.7-1.2-3.5c-0.8-0.9-1.7-1.3-2.8-1.3c-1.1,0-2.1,0.5-3,1.4
			c-0.9,0.9-1.3,2.1-1.3,3.6c0,1.3,0.4,2.4,1.2,3.3c0.8,0.8,1.8,1.3,3,1.3c1.2,0,2.2-0.4,2.9-1.3C75.7,135.8,76.1,134.7,76.1,133.2z
			"/>
	</g>
</g>
<g transform="translate(1398.9725,401.5333)">
	<g class="st1">
		<path class="st11" d="M33.4,147.3v-21h2.8v18.5h10.3v2.5H33.4z"/>
		<path class="st11" d="M62.4,144.8v2.5H48.5c0-0.6,0.1-1.2,0.3-1.8c0.4-0.9,0.9-1.9,1.7-2.8c0.8-0.9,1.9-2,3.4-3.2
			c2.3-1.9,3.8-3.4,4.6-4.4c0.8-1.1,1.2-2.1,1.2-3.1c0-1-0.4-1.9-1.1-2.6s-1.7-1.1-2.9-1.1c-1.2,0-2.2,0.4-3,1.1
			c-0.7,0.7-1.1,1.8-1.1,3.1l-2.7-0.3c0.2-2,0.9-3.5,2-4.5c1.2-1,2.8-1.6,4.8-1.6c2,0,3.6,0.6,4.8,1.7c1.2,1.1,1.8,2.5,1.8,4.2
			c0,0.8-0.2,1.7-0.5,2.5c-0.3,0.8-0.9,1.7-1.7,2.6c-0.8,0.9-2.1,2.1-4,3.7c-1.5,1.3-2.5,2.2-3,2.6s-0.8,0.9-1.1,1.4H62.4z"/>
		<path class="st11" d="M65.1,137c0-2.5,0.3-4.5,0.8-6c0.5-1.5,1.3-2.7,2.3-3.5c1-0.8,2.3-1.2,3.8-1.2c1.1,0,2.1,0.2,3,0.7
			c0.8,0.5,1.6,1.1,2.1,2c0.6,0.9,1,1.9,1.3,3.1c0.3,1.2,0.5,2.9,0.5,5c0,2.5-0.3,4.5-0.8,6s-1.3,2.7-2.3,3.5
			c-1,0.8-2.3,1.2-3.8,1.2c-2,0-3.6-0.7-4.8-2.2C65.8,143.8,65.1,140.9,65.1,137z M67.8,137c0,3.4,0.4,5.7,1.2,6.9
			c0.8,1.1,1.8,1.7,3,1.7c1.2,0,2.2-0.6,3-1.7c0.8-1.1,1.2-3.4,1.2-6.9c0-3.5-0.4-5.8-1.2-6.9c-0.8-1.1-1.8-1.7-3-1.7
			c-1.2,0-2.1,0.5-2.8,1.5C68.2,131.2,67.8,133.5,67.8,137z"/>
	</g>
</g>
<g transform="translate(1458.04,401.5333)">
	<g class="st1">
		<path class="st11" d="M33.4,147.3v-21h2.8v18.5h10.3v2.5H33.4z"/>
		<path class="st11" d="M62.4,144.8v2.5H48.5c0-0.6,0.1-1.2,0.3-1.8c0.4-0.9,0.9-1.9,1.7-2.8c0.8-0.9,1.9-2,3.4-3.2
			c2.3-1.9,3.8-3.4,4.6-4.4c0.8-1.1,1.2-2.1,1.2-3.1c0-1-0.4-1.9-1.1-2.6s-1.7-1.1-2.9-1.1c-1.2,0-2.2,0.4-3,1.1
			c-0.7,0.7-1.1,1.8-1.1,3.1l-2.7-0.3c0.2-2,0.9-3.5,2-4.5c1.2-1,2.8-1.6,4.8-1.6c2,0,3.6,0.6,4.8,1.7c1.2,1.1,1.8,2.5,1.8,4.2
			c0,0.8-0.2,1.7-0.5,2.5c-0.3,0.8-0.9,1.7-1.7,2.6s-2.1,2.1-4,3.7c-1.5,1.3-2.5,2.2-3,2.6c-0.4,0.5-0.8,0.9-1.1,1.4H62.4z"/>
		<path class="st11" d="M74.8,147.3h-2.6v-16.4c-0.6,0.6-1.4,1.2-2.4,1.8c-1,0.6-1.9,1-2.7,1.3v-2.5c1.4-0.7,2.7-1.5,3.8-2.5
			c1.1-1,1.8-1.9,2.3-2.8h1.7V147.3z"/>
	</g>
</g>
<g transform="translate(1517.1075,401.5333)">
	<g class="st1">
		<path class="st11" d="M33.4,147.3v-21h2.8v18.5h10.3v2.5H33.4z"/>
		<path class="st11" d="M62.4,144.8v2.5H48.5c0-0.6,0.1-1.2,0.3-1.8c0.4-0.9,0.9-1.9,1.7-2.8c0.8-0.9,1.9-2,3.4-3.2
			c2.3-1.9,3.8-3.4,4.6-4.4c0.8-1.1,1.2-2.1,1.2-3.1c0-1-0.4-1.9-1.1-2.6s-1.7-1.1-2.9-1.1c-1.2,0-2.2,0.4-3,1.1
			c-0.7,0.7-1.1,1.8-1.1,3.1l-2.6-0.3c0.2-2,0.9-3.5,2-4.5c1.2-1,2.8-1.6,4.8-1.6c2,0,3.6,0.6,4.8,1.7c1.2,1.1,1.8,2.5,1.8,4.2
			c0,0.8-0.2,1.7-0.5,2.5c-0.3,0.8-0.9,1.7-1.7,2.6s-2.1,2.1-4,3.7c-1.5,1.3-2.5,2.2-3,2.6c-0.4,0.5-0.8,0.9-1.1,1.4H62.4z"/>
		<path class="st11" d="M78.7,144.8v2.5H64.8c0-0.6,0.1-1.2,0.3-1.8c0.4-0.9,0.9-1.9,1.7-2.8c0.8-0.9,1.9-2,3.4-3.2
			c2.3-1.9,3.8-3.4,4.6-4.4C75.6,134,76,133,76,132c0-1-0.4-1.9-1.1-2.6s-1.7-1.1-2.9-1.1c-1.2,0-2.2,0.4-3,1.1
			c-0.7,0.7-1.1,1.8-1.1,3.1l-2.6-0.3c0.2-2,0.9-3.5,2-4.5c1.2-1,2.8-1.6,4.8-1.6c2,0,3.6,0.6,4.8,1.7c1.2,1.1,1.8,2.5,1.8,4.2
			c0,0.8-0.2,1.7-0.5,2.5c-0.3,0.8-0.9,1.7-1.7,2.6s-2.1,2.1-4,3.7c-1.5,1.3-2.5,2.2-3,2.6c-0.4,0.5-0.8,0.9-1.1,1.4H78.7z"/>
	</g>
</g>
<g transform="translate(1576.175,401.5333)">
	<g class="st1">
		<path class="st11" d="M33.4,147.3v-21h2.8v18.5h10.3v2.5H33.4z"/>
		<path class="st11" d="M62.4,144.8v2.5H48.5c0-0.6,0.1-1.2,0.3-1.8c0.4-0.9,0.9-1.9,1.7-2.8c0.8-0.9,1.9-2,3.4-3.2
			c2.3-1.9,3.8-3.4,4.6-4.4c0.8-1.1,1.2-2.1,1.2-3.1c0-1-0.4-1.9-1.1-2.6s-1.7-1.1-2.9-1.1c-1.2,0-2.2,0.4-3,1.1
			c-0.7,0.7-1.1,1.8-1.1,3.1l-2.6-0.3c0.2-2,0.9-3.5,2-4.5c1.2-1,2.8-1.6,4.8-1.6c2,0,3.6,0.6,4.8,1.7c1.2,1.1,1.8,2.5,1.8,4.2
			c0,0.8-0.2,1.7-0.5,2.5c-0.3,0.8-0.9,1.7-1.7,2.6s-2.1,2.1-4,3.7c-1.5,1.3-2.5,2.2-3,2.6c-0.4,0.5-0.8,0.9-1.1,1.4H62.4z"/>
		<path class="st11" d="M65.1,141.8l2.6-0.3c0.3,1.5,0.8,2.5,1.5,3.2c0.7,0.6,1.6,1,2.6,1c1.2,0,2.2-0.4,3.1-1.3
			c0.8-0.8,1.3-1.9,1.3-3.1c0-1.2-0.4-2.2-1.2-2.9s-1.8-1.2-3-1.2c-0.5,0-1.1,0.1-1.8,0.3l0.3-2.3c0.2,0,0.3,0,0.4,0
			c1.1,0,2.1-0.3,3-0.9c0.9-0.6,1.3-1.5,1.3-2.6c0-0.9-0.3-1.7-1-2.3c-0.6-0.6-1.5-0.9-2.5-0.9c-1,0-1.8,0.3-2.5,0.9
			c-0.7,0.6-1.1,1.6-1.3,2.8l-2.6-0.5c0.3-1.7,1-3.1,2.1-4c1.1-1,2.5-1.4,4.2-1.4c1.1,0,2.2,0.2,3.2,0.7c1,0.5,1.7,1.2,2.2,2
			s0.8,1.8,0.8,2.7c0,0.9-0.2,1.7-0.7,2.5s-1.2,1.3-2.2,1.8c1.2,0.3,2.2,0.9,2.9,1.8s1,2,1,3.4c0,1.8-0.7,3.4-2,4.7
			c-1.3,1.3-3,1.9-5.1,1.9c-1.8,0-3.4-0.5-4.6-1.6C66,144.9,65.3,143.5,65.1,141.8z"/>
	</g>
</g>
<g transform="translate(1635.2426,401.5333)">
	<g class="st1">
		<path class="st11" d="M33.4,147.3v-21h2.8v18.5h10.3v2.5H33.4z"/>
		<path class="st11" d="M62.4,144.8v2.5H48.5c0-0.6,0.1-1.2,0.3-1.8c0.4-0.9,0.9-1.9,1.7-2.8c0.8-0.9,1.9-2,3.4-3.2
			c2.3-1.9,3.8-3.4,4.6-4.4c0.8-1.1,1.2-2.1,1.2-3.1c0-1-0.4-1.9-1.1-2.6s-1.7-1.1-2.9-1.1c-1.2,0-2.2,0.4-3,1.1
			c-0.7,0.7-1.1,1.8-1.1,3.1l-2.6-0.3c0.2-2,0.9-3.5,2-4.5c1.2-1,2.8-1.6,4.8-1.6c2,0,3.6,0.6,4.8,1.7c1.2,1.1,1.8,2.5,1.8,4.2
			c0,0.8-0.2,1.7-0.5,2.5c-0.3,0.8-0.9,1.7-1.7,2.6s-2.1,2.1-4,3.7c-1.5,1.3-2.5,2.2-3,2.6c-0.4,0.5-0.8,0.9-1.1,1.4H62.4z"/>
		<path class="st11" d="M73.4,147.3v-5h-9.1v-2.4l9.6-13.6H76v13.6h2.8v2.4H76v5H73.4z M73.4,139.9v-9.5l-6.6,9.5H73.4z"/>
	</g>
</g>
<g transform="translate(1694.3101,401.5333)">
	<g class="st1">
		<path class="st11" d="M33.4,147.3v-21h2.8v18.5h10.3v2.5H33.4z"/>
		<path class="st11" d="M62.4,144.8v2.5H48.5c0-0.6,0.1-1.2,0.3-1.8c0.4-0.9,0.9-1.9,1.7-2.8c0.8-0.9,1.9-2,3.4-3.2
			c2.3-1.9,3.8-3.4,4.6-4.4c0.8-1.1,1.2-2.1,1.2-3.1c0-1-0.4-1.9-1.1-2.6s-1.7-1.1-2.9-1.1c-1.2,0-2.2,0.4-3,1.1s-1.1,1.8-1.1,3.1
			l-2.6-0.3c0.2-2,0.9-3.5,2-4.5c1.2-1,2.8-1.6,4.8-1.6c2,0,3.6,0.6,4.8,1.7c1.2,1.1,1.8,2.5,1.8,4.2c0,0.8-0.2,1.7-0.5,2.5
			c-0.3,0.8-0.9,1.7-1.7,2.6s-2.1,2.1-4,3.7c-1.5,1.3-2.5,2.2-3,2.6s-0.8,0.9-1.1,1.4H62.4z"/>
		<path class="st11" d="M65.1,141.8l2.7-0.2c0.2,1.3,0.7,2.3,1.4,3c0.7,0.7,1.6,1,2.6,1c1.2,0,2.3-0.5,3.2-1.4s1.3-2.2,1.3-3.7
			c0-1.5-0.4-2.6-1.2-3.5c-0.8-0.8-1.9-1.3-3.2-1.3c-0.8,0-1.6,0.2-2.2,0.6c-0.7,0.4-1.2,0.9-1.6,1.5l-2.4-0.3l2-10.8h10.4v2.5h-8.4
			l-1.1,5.6c1.3-0.9,2.6-1.3,4-1.3c1.8,0,3.4,0.6,4.6,1.9c1.3,1.3,1.9,2.9,1.9,4.9c0,1.9-0.6,3.5-1.7,4.9c-1.3,1.7-3.2,2.5-5.5,2.5
			c-1.9,0-3.5-0.5-4.7-1.6S65.3,143.6,65.1,141.8z"/>
	</g>
</g>
<g transform="translate(985.5007,440.8667)">
	<g class="st1">
		<path class="st11" d="M-15.2,142.2l3.1,0.8c-0.6,2.5-1.8,4.4-3.5,5.7s-3.7,2-6.1,2c-2.5,0-4.5-0.5-6.1-1.5c-1.6-1-2.7-2.5-3.6-4.4
			s-1.2-4-1.2-6.2c0-2.4,0.5-4.5,1.4-6.3c0.9-1.8,2.2-3.2,3.9-4.1s3.6-1.4,5.6-1.4c2.3,0,4.3,0.6,5.8,1.8c1.6,1.2,2.7,2.8,3.3,5
			l-3,0.7c-0.5-1.7-1.3-2.9-2.3-3.7c-1-0.8-2.3-1.2-3.8-1.2c-1.8,0-3.3,0.4-4.5,1.3c-1.2,0.8-2,2-2.5,3.4c-0.5,1.4-0.7,2.9-0.7,4.4
			c0,2,0.3,3.7,0.9,5.1c0.6,1.5,1.5,2.6,2.7,3.3s2.5,1.1,3.9,1.1c1.7,0,3.2-0.5,4.3-1.5C-16.5,145.6-15.7,144.2-15.2,142.2z"/>
		<path class="st11" d="M-8.5,150.3v-23.1h3.1l12.1,18.1v-18.1h2.9v23.1H6.6l-12.1-18.2v18.2H-8.5z"/>
		<path class="st11" d="M14.8,150.3v-23.1H18l12.1,18.1v-18.1H33v23.1h-3.1l-12.1-18.2v18.2H14.8z"/>
		<path class="st11" d="M47,150.3v-23.1h3.1v20.4h11.4v2.7H47z"/>
		<path class="st11" d="M75.6,148.3c-1.1,0.9-2.1,1.5-3,1.9s-2,0.6-3.1,0.6c-1.8,0-3.3-0.4-4.2-1.3c-1-0.9-1.5-2-1.5-3.4
			c0-0.8,0.2-1.6,0.6-2.2c0.4-0.7,0.9-1.2,1.5-1.6c0.6-0.4,1.3-0.7,2-0.9c0.6-0.1,1.4-0.3,2.5-0.4c2.3-0.3,4-0.6,5.1-1
			c0-0.4,0-0.6,0-0.7c0-1.2-0.3-2-0.8-2.4c-0.7-0.6-1.8-1-3.2-1c-1.3,0-2.3,0.2-3,0.7c-0.6,0.5-1.1,1.3-1.4,2.5l-2.8-0.4
			c0.3-1.2,0.7-2.1,1.2-2.9c0.6-0.7,1.4-1.3,2.5-1.7c1.1-0.4,2.4-0.6,3.8-0.6c1.4,0,2.6,0.2,3.5,0.5c0.9,0.3,1.5,0.8,2,1.3
			s0.7,1.2,0.9,1.9c0.1,0.5,0.1,1.4,0.1,2.6v3.8c0,2.6,0.1,4.3,0.2,5c0.1,0.7,0.4,1.4,0.7,2h-3C75.9,149.7,75.7,149,75.6,148.3z
			 M75.4,141.9c-1,0.4-2.6,0.8-4.6,1.1c-1.2,0.2-2,0.4-2.5,0.6c-0.5,0.2-0.9,0.5-1.1,0.9s-0.4,0.9-0.4,1.3c0,0.8,0.3,1.4,0.9,1.9
			s1.4,0.8,2.5,0.8c1.1,0,2.1-0.2,2.9-0.7s1.5-1.1,1.9-2c0.3-0.6,0.5-1.6,0.5-2.8V141.9z"/>
		<path class="st11" d="M82.5,156.8l-0.3-2.7c0.6,0.2,1.2,0.3,1.6,0.3c0.6,0,1.1-0.1,1.5-0.3c0.4-0.2,0.7-0.5,0.9-0.9
			c0.2-0.3,0.5-1,0.9-2.1c0.1-0.2,0.1-0.4,0.3-0.7l-6.3-16.8h3.1l3.5,9.7c0.5,1.2,0.9,2.5,1.2,3.9c0.3-1.3,0.7-2.6,1.2-3.8l3.6-9.8
			h2.8l-6.4,17c-0.7,1.8-1.2,3.1-1.6,3.8c-0.5,0.9-1.1,1.6-1.7,2.1s-1.4,0.7-2.3,0.7C83.8,157.1,83.2,157,82.5,156.8z"/>
		<path class="st11" d="M110.3,144.9l2.9,0.4c-0.5,1.7-1.3,3-2.6,4s-2.8,1.4-4.8,1.4c-2.4,0-4.4-0.8-5.8-2.3s-2.2-3.6-2.2-6.3
			c0-2.8,0.7-5,2.2-6.6s3.3-2.3,5.6-2.3c2.2,0,4.1,0.8,5.5,2.3s2.1,3.7,2.1,6.4c0,0.2,0,0.4,0,0.8h-12.5c0.1,1.8,0.6,3.2,1.6,4.2
			c0.9,1,2.1,1.5,3.5,1.5c1,0,1.9-0.3,2.7-0.8S109.8,146.1,110.3,144.9z M101,140.3h9.3c-0.1-1.4-0.5-2.5-1.1-3.2
			c-0.9-1.1-2.1-1.6-3.5-1.6c-1.3,0-2.4,0.4-3.3,1.3C101.5,137.7,101,138.9,101,140.3z"/>
		<path class="st11" d="M116.7,150.3v-16.7h2.6v2.5c0.7-1.2,1.3-2,1.8-2.3c0.6-0.4,1.2-0.6,1.8-0.6c1,0,1.9,0.3,2.9,0.9l-1,2.6
			c-0.7-0.4-1.4-0.6-2.1-0.6c-0.6,0-1.2,0.2-1.7,0.6c-0.5,0.4-0.8,0.9-1.1,1.6c-0.3,1-0.5,2.1-0.5,3.3v8.8H116.7z"/>
		<path class="st11" d="M126.4,145.3l2.8-0.4c0.2,1.1,0.6,2,1.3,2.6c0.7,0.6,1.7,0.9,3,0.9c1.3,0,2.3-0.3,2.9-0.8
			c0.6-0.5,0.9-1.2,0.9-1.9c0-0.6-0.3-1.1-0.8-1.5c-0.4-0.3-1.4-0.6-2.9-1c-2.1-0.5-3.5-1-4.3-1.4c-0.8-0.4-1.4-0.9-1.8-1.6
			s-0.6-1.4-0.6-2.2c0-0.7,0.2-1.4,0.5-2.1c0.3-0.6,0.8-1.2,1.4-1.6c0.4-0.3,1-0.6,1.8-0.8c0.8-0.2,1.6-0.3,2.5-0.3
			c1.3,0,2.5,0.2,3.5,0.6c1,0.4,1.7,0.9,2.2,1.5c0.5,0.6,0.8,1.5,1,2.6l-2.8,0.4c-0.1-0.9-0.5-1.5-1.1-2c-0.6-0.5-1.5-0.7-2.6-0.7
			c-1.3,0-2.2,0.2-2.8,0.6s-0.8,0.9-0.8,1.5c0,0.4,0.1,0.7,0.3,1c0.2,0.3,0.6,0.6,1.1,0.8c0.3,0.1,1.1,0.3,2.5,0.7
			c2,0.5,3.4,1,4.2,1.3c0.8,0.3,1.4,0.8,1.9,1.5c0.5,0.7,0.7,1.5,0.7,2.4c0,0.9-0.3,1.8-0.8,2.7c-0.6,0.8-1.3,1.5-2.4,1.9
			c-1,0.5-2.2,0.7-3.5,0.7c-2.2,0-3.8-0.5-5-1.4C127.4,148.4,126.7,147.1,126.4,145.3z"/>
	</g>
</g>
<g>
	<line class="st10" x1="300.8" y1="510.3" x2="300.8" y2="167.3"/>
	<line class="st10" x1="300.8" y1="510.3" x2="315.5" y2="510.3"/>
	<line class="st10" x1="300.8" y1="441.7" x2="315.5" y2="441.7"/>
	<line class="st10" x1="300.8" y1="373.1" x2="315.5" y2="373.1"/>
	<line class="st10" x1="300.8" y1="304.5" x2="315.5" y2="304.5"/>
	<line class="st10" x1="300.8" y1="235.9" x2="315.5" y2="235.9"/>
	<line class="st10" x1="300.8" y1="167.3" x2="315.5" y2="167.3"/>
</g>
<g transform="translate(239.4667,393)">
	<g class="st1">
		<path class="st11" d="M10.7,122v-2.6h7.9v2.6H10.7z"/>
		<path class="st11" d="M20.8,118c0-2.5,0.3-4.5,0.8-6c0.5-1.5,1.3-2.7,2.3-3.5c1-0.8,2.3-1.2,3.8-1.2c1.1,0,2.1,0.2,3,0.7
			c0.8,0.5,1.6,1.1,2.1,2c0.6,0.9,1,1.9,1.3,3.1c0.3,1.2,0.5,2.9,0.5,5c0,2.5-0.3,4.5-0.8,6c-0.5,1.5-1.3,2.7-2.3,3.5
			c-1,0.8-2.3,1.2-3.8,1.2c-2,0-3.6-0.7-4.8-2.2C21.5,124.8,20.8,121.9,20.8,118z M23.4,118c0,3.4,0.4,5.7,1.2,6.9
			c0.8,1.1,1.8,1.7,3,1.7c1.2,0,2.2-0.6,3-1.7c0.8-1.1,1.2-3.4,1.2-6.9c0-3.5-0.4-5.8-1.2-6.9c-0.8-1.1-1.8-1.7-3-1.7
			c-1.2,0-2.1,0.5-2.8,1.5C23.9,112.2,23.4,114.5,23.4,118z"/>
		<path class="st11" d="M38.5,128.3v-2.9h2.9v2.9H38.5z"/>
		<path class="st11" d="M58.8,125.8v2.5H44.9c0-0.6,0.1-1.2,0.3-1.8c0.4-0.9,0.9-1.9,1.7-2.8c0.8-0.9,1.9-2,3.4-3.2
			c2.3-1.9,3.8-3.4,4.6-4.4c0.8-1.1,1.2-2.1,1.2-3.1c0-1-0.4-1.9-1.1-2.6s-1.7-1.1-2.9-1.1c-1.2,0-2.2,0.4-3,1.1s-1.1,1.8-1.1,3.1
			l-2.6-0.3c0.2-2,0.9-3.5,2-4.5c1.2-1,2.8-1.6,4.8-1.6c2,0,3.6,0.6,4.8,1.7s1.8,2.5,1.8,4.2c0,0.8-0.2,1.7-0.5,2.5
			c-0.3,0.8-0.9,1.7-1.7,2.6c-0.8,0.9-2.1,2.1-4,3.7c-1.5,1.3-2.5,2.2-3,2.6c-0.4,0.5-0.8,0.9-1.1,1.4H58.8z"/>
	</g>
</g>
<g transform="translate(239.4667,324.4)">
	<g class="st1">
		<path class="st11" d="M10.7,122v-2.6h7.9v2.6H10.7z"/>
		<path class="st11" d="M20.8,118c0-2.5,0.3-4.5,0.8-6c0.5-1.5,1.3-2.7,2.3-3.5c1-0.8,2.3-1.2,3.8-1.2c1.1,0,2.1,0.2,3,0.7
			c0.8,0.5,1.6,1.1,2.1,2c0.6,0.9,1,1.9,1.3,3.1c0.3,1.2,0.5,2.9,0.5,5c0,2.5-0.3,4.5-0.8,6c-0.5,1.5-1.3,2.7-2.3,3.5
			c-1,0.8-2.3,1.2-3.8,1.2c-2,0-3.6-0.7-4.8-2.2C21.5,124.8,20.8,121.9,20.8,118z M23.4,118c0,3.4,0.4,5.7,1.2,6.9
			c0.8,1.1,1.8,1.7,3,1.7c1.2,0,2.2-0.6,3-1.7c0.8-1.1,1.2-3.4,1.2-6.9c0-3.5-0.4-5.8-1.2-6.9c-0.8-1.1-1.8-1.7-3-1.7
			c-1.2,0-2.1,0.5-2.8,1.5C23.9,112.2,23.4,114.5,23.4,118z"/>
		<path class="st11" d="M38.5,128.3v-2.9h2.9v2.9H38.5z"/>
		<path class="st11" d="M54.9,128.3h-2.6v-16.4c-0.6,0.6-1.4,1.2-2.4,1.8s-1.9,1-2.7,1.3v-2.5c1.4-0.7,2.7-1.5,3.8-2.5
			c1.1-1,1.8-1.9,2.3-2.8h1.7V128.3z"/>
	</g>
</g>
<g transform="translate(239.4667,255.8)">
	<text transform="matrix(1 0 0 1 39.7872 128.3191)" class="st11 st12 st13">0</text>
</g>
<g transform="translate(239.4667,187.2)">
	<g class="st1">
		<path class="st11" d="M20,118c0-2.5,0.3-4.5,0.8-6c0.5-1.5,1.3-2.7,2.3-3.5c1-0.8,2.3-1.2,3.8-1.2c1.1,0,2.1,0.2,3,0.7
			c0.8,0.5,1.6,1.1,2.1,2c0.6,0.9,1,1.9,1.3,3.1c0.3,1.2,0.5,2.9,0.5,5c0,2.5-0.3,4.5-0.8,6c-0.5,1.5-1.3,2.7-2.3,3.5
			c-1,0.8-2.3,1.2-3.8,1.2c-2,0-3.6-0.7-4.8-2.2C20.7,124.8,20,121.9,20,118z M22.7,118c0,3.4,0.4,5.7,1.2,6.9
			c0.8,1.1,1.8,1.7,3,1.7c1.2,0,2.2-0.6,3-1.7c0.8-1.1,1.2-3.4,1.2-6.9c0-3.5-0.4-5.8-1.2-6.9c-0.8-1.1-1.8-1.7-3-1.7
			c-1.2,0-2.1,0.5-2.8,1.5C23.1,112.2,22.7,114.5,22.7,118z"/>
		<path class="st11" d="M37.8,128.3v-2.9h2.9v2.9H37.8z"/>
		<path class="st11" d="M54.2,128.3h-2.6v-16.4c-0.6,0.6-1.4,1.2-2.4,1.8s-1.9,1-2.7,1.3v-2.5c1.4-0.7,2.7-1.5,3.8-2.5
			c1.1-1,1.8-1.9,2.3-2.8h1.7V128.3z"/>
	</g>
</g>
<g transform="translate(239.4667,118.6)">
	<g class="st1">
		<path class="st11" d="M20,118c0-2.5,0.3-4.5,0.8-6c0.5-1.5,1.3-2.7,2.3-3.5c1-0.8,2.3-1.2,3.8-1.2c1.1,0,2.1,0.2,3,0.7
			c0.8,0.5,1.6,1.1,2.1,2c0.6,0.9,1,1.9,1.3,3.1c0.3,1.2,0.5,2.9,0.5,5c0,2.5-0.3,4.5-0.8,6c-0.5,1.5-1.3,2.7-2.3,3.5
			c-1,0.8-2.3,1.2-3.8,1.2c-2,0-3.6-0.7-4.8-2.2C20.7,124.8,20,121.9,20,118z M22.7,118c0,3.4,0.4,5.7,1.2,6.9
			c0.8,1.1,1.8,1.7,3,1.7c1.2,0,2.2-0.6,3-1.7c0.8-1.1,1.2-3.4,1.2-6.9c0-3.5-0.4-5.8-1.2-6.9c-0.8-1.1-1.8-1.7-3-1.7
			c-1.2,0-2.1,0.5-2.8,1.5C23.1,112.2,22.7,114.5,22.7,118z"/>
		<path class="st11" d="M37.8,128.3v-2.9h2.9v2.9H37.8z"/>
		<path class="st11" d="M58,125.8v2.5H44.1c0-0.6,0.1-1.2,0.3-1.8c0.4-0.9,0.9-1.9,1.7-2.8c0.8-0.9,1.9-2,3.4-3.2
			c2.3-1.9,3.8-3.4,4.6-4.4c0.8-1.1,1.2-2.1,1.2-3.1c0-1-0.4-1.9-1.1-2.6s-1.7-1.1-2.9-1.1c-1.2,0-2.2,0.4-3,1.1s-1.1,1.8-1.1,3.1
			l-2.6-0.3c0.2-2,0.9-3.5,2-4.5c1.2-1,2.8-1.6,4.8-1.6c2,0,3.6,0.6,4.8,1.7s1.8,2.5,1.8,4.2c0,0.8-0.2,1.7-0.5,2.5
			c-0.3,0.8-0.9,1.7-1.7,2.6c-0.8,0.9-2.1,2.1-4,3.7c-1.5,1.3-2.5,2.2-3,2.6c-0.4,0.5-0.8,0.9-1.1,1.4H58z"/>
	</g>
</g>
<g transform="translate(239.4667,50)">
	<g class="st1">
		<path class="st11" d="M20,118c0-2.5,0.3-4.5,0.8-6c0.5-1.5,1.3-2.7,2.3-3.5c1-0.8,2.3-1.2,3.8-1.2c1.1,0,2.1,0.2,3,0.7
			c0.8,0.5,1.6,1.1,2.1,2c0.6,0.9,1,1.9,1.3,3.1c0.3,1.2,0.5,2.9,0.5,5c0,2.5-0.3,4.5-0.8,6c-0.5,1.5-1.3,2.7-2.3,3.5
			c-1,0.8-2.3,1.2-3.8,1.2c-2,0-3.6-0.7-4.8-2.2C20.7,124.8,20,121.9,20,118z M22.7,118c0,3.4,0.4,5.7,1.2,6.9
			c0.8,1.1,1.8,1.7,3,1.7c1.2,0,2.2-0.6,3-1.7c0.8-1.1,1.2-3.4,1.2-6.9c0-3.5-0.4-5.8-1.2-6.9c-0.8-1.1-1.8-1.7-3-1.7
			c-1.2,0-2.1,0.5-2.8,1.5C23.1,112.2,22.7,114.5,22.7,118z"/>
		<path class="st11" d="M37.8,128.3v-2.9h2.9v2.9H37.8z"/>
		<path class="st11" d="M44.5,122.8l2.6-0.3c0.3,1.5,0.8,2.5,1.5,3.2s1.6,1,2.6,1c1.2,0,2.2-0.4,3.1-1.3c0.8-0.8,1.3-1.9,1.3-3.1
			c0-1.2-0.4-2.2-1.2-2.9s-1.8-1.2-3-1.2c-0.5,0-1.1,0.1-1.8,0.3l0.3-2.3c0.2,0,0.3,0,0.4,0c1.1,0,2.1-0.3,3-0.9
			c0.9-0.6,1.3-1.5,1.3-2.6c0-0.9-0.3-1.7-1-2.3c-0.6-0.6-1.5-0.9-2.5-0.9c-1,0-1.8,0.3-2.5,0.9c-0.7,0.6-1.1,1.6-1.3,2.8l-2.6-0.5
			c0.3-1.7,1-3.1,2.1-4s2.5-1.4,4.2-1.4c1.1,0,2.2,0.2,3.2,0.7c1,0.5,1.7,1.2,2.2,2s0.8,1.8,0.8,2.7c0,0.9-0.2,1.7-0.7,2.5
			c-0.5,0.7-1.2,1.3-2.2,1.8c1.2,0.3,2.2,0.9,2.9,1.8s1,2,1,3.4c0,1.8-0.7,3.4-2,4.7c-1.3,1.3-3,1.9-5.1,1.9c-1.8,0-3.4-0.5-4.6-1.6
			C45.3,125.9,44.7,124.5,44.5,122.8z"/>
	</g>
</g>
<g transform="translate(192.4667,221.4998) rotate(-90)">
	<g class="st1">
		<path class="st11" d="M-223.9,36.4l2.9-0.3c0.1,1.2,0.5,2.1,1,2.8c0.5,0.7,1.3,1.3,2.3,1.8c1.1,0.5,2.2,0.7,3.5,0.7
			c1.2,0,2.2-0.2,3.1-0.5s1.6-0.8,2-1.4c0.4-0.6,0.7-1.3,0.7-2c0-0.7-0.2-1.4-0.6-1.9s-1.1-1-2.1-1.4c-0.6-0.2-2-0.6-4.1-1.1
			s-3.6-1-4.5-1.4c-1.1-0.6-1.9-1.3-2.5-2.2c-0.5-0.9-0.8-1.8-0.8-2.9c0-1.2,0.3-2.3,1-3.3c0.7-1,1.6-1.8,2.9-2.3
			c1.3-0.5,2.7-0.8,4.2-0.8c1.7,0,3.2,0.3,4.5,0.8c1.3,0.6,2.3,1.4,3,2.4c0.7,1.1,1.1,2.3,1.1,3.6l-2.9,0.2
			c-0.2-1.5-0.7-2.6-1.6-3.3c-0.9-0.7-2.3-1.1-4-1.1c-1.8,0-3.2,0.3-4,1c-0.8,0.7-1.3,1.5-1.3,2.4c0,0.8,0.3,1.5,0.9,2
			c0.6,0.5,2.1,1.1,4.6,1.6c2.5,0.6,4.2,1.1,5.1,1.5c1.3,0.6,2.3,1.4,3,2.4c0.6,1,1,2,1,3.3c0,1.2-0.4,2.4-1.1,3.5s-1.7,1.9-3,2.5
			c-1.3,0.6-2.8,0.9-4.5,0.9c-2.1,0-3.8-0.3-5.3-0.9c-1.4-0.6-2.5-1.5-3.3-2.8S-223.8,37.9-223.9,36.4z"/>
		<path class="st11" d="M-201.7,50.2V27.1h2.6v2.2c0.6-0.9,1.3-1.5,2.1-1.9c0.8-0.4,1.7-0.6,2.8-0.6c1.4,0,2.7,0.4,3.8,1.1
			c1.1,0.7,1.9,1.8,2.5,3.1s0.8,2.8,0.8,4.4c0,1.7-0.3,3.3-0.9,4.6c-0.6,1.4-1.5,2.4-2.7,3.2c-1.2,0.7-2.4,1.1-3.7,1.1
			c-0.9,0-1.8-0.2-2.5-0.6c-0.8-0.4-1.4-0.9-1.9-1.5v8.1H-201.7z M-199.1,35.5c0,2.2,0.4,3.7,1.3,4.8c0.9,1,1.9,1.5,3.2,1.5
			c1.3,0,2.3-0.5,3.2-1.6s1.3-2.7,1.3-5c0-2.1-0.4-3.7-1.3-4.8c-0.9-1.1-1.9-1.6-3.1-1.6c-1.2,0-2.3,0.6-3.2,1.7
			C-198.6,31.7-199.1,33.4-199.1,35.5z"/>
		<path class="st11" d="M-172.3,38.4l2.9,0.4c-0.5,1.7-1.3,3-2.6,4s-2.8,1.4-4.8,1.4c-2.4,0-4.4-0.8-5.8-2.3
			c-1.4-1.5-2.2-3.6-2.2-6.3c0-2.8,0.7-5,2.2-6.6s3.3-2.3,5.6-2.3c2.2,0,4.1,0.8,5.5,2.3c1.4,1.5,2.1,3.7,2.1,6.4c0,0.2,0,0.4,0,0.8
			h-12.5c0.1,1.8,0.6,3.2,1.6,4.2c0.9,1,2.1,1.5,3.5,1.5c1,0,1.9-0.3,2.7-0.8C-173.3,40.5-172.7,39.6-172.3,38.4z M-181.6,33.8h9.3
			c-0.1-1.4-0.5-2.5-1.1-3.2c-0.9-1.1-2.1-1.6-3.5-1.6c-1.3,0-2.4,0.4-3.3,1.3C-181,31.2-181.5,32.4-181.6,33.8z"/>
		<path class="st11" d="M-154.9,41.7c-1,0.9-2.1,1.5-3,1.9c-1,0.4-2,0.6-3.1,0.6c-1.8,0-3.2-0.4-4.2-1.3c-1-0.9-1.5-2-1.5-3.4
			c0-0.8,0.2-1.6,0.6-2.2c0.4-0.7,0.9-1.2,1.5-1.6c0.6-0.4,1.3-0.7,2-0.9c0.6-0.1,1.4-0.3,2.5-0.4c2.3-0.3,4-0.6,5.1-1
			c0-0.4,0-0.6,0-0.7c0-1.2-0.3-2-0.8-2.4c-0.7-0.6-1.8-1-3.2-1c-1.3,0-2.3,0.2-3,0.7c-0.6,0.5-1.1,1.3-1.4,2.5l-2.8-0.4
			c0.3-1.2,0.7-2.1,1.2-2.9c0.6-0.7,1.4-1.3,2.5-1.7c1.1-0.4,2.4-0.6,3.8-0.6c1.4,0,2.6,0.2,3.5,0.5c0.9,0.3,1.5,0.8,2,1.3
			c0.4,0.5,0.7,1.2,0.9,1.9c0.1,0.5,0.1,1.4,0.1,2.6v3.8c0,2.6,0.1,4.3,0.2,5s0.4,1.4,0.7,2h-3C-154.6,43.2-154.8,42.5-154.9,41.7z
			 M-155.1,35.4c-1,0.4-2.6,0.8-4.6,1.1c-1.2,0.2-2,0.4-2.5,0.6c-0.5,0.2-0.9,0.5-1.1,0.9s-0.4,0.9-0.4,1.3c0,0.8,0.3,1.4,0.9,1.9
			c0.6,0.5,1.4,0.8,2.5,0.8c1.1,0,2.1-0.2,2.9-0.7c0.9-0.5,1.5-1.1,1.9-2c0.3-0.6,0.5-1.6,0.5-2.8V35.4z"/>
		<path class="st11" d="M-147.9,43.8V27.1h2.6v2.5c0.7-1.2,1.3-2,1.8-2.3c0.6-0.4,1.2-0.6,1.8-0.6c1,0,1.9,0.3,2.9,0.9l-1,2.6
			c-0.7-0.4-1.4-0.6-2.1-0.6c-0.6,0-1.2,0.2-1.7,0.6c-0.5,0.4-0.8,0.9-1.1,1.6c-0.3,1-0.5,2.1-0.5,3.3v8.8H-147.9z"/>
		<path class="st11" d="M-137.1,43.8V27.1h2.5v2.3c0.5-0.8,1.2-1.5,2.1-2c0.9-0.5,1.9-0.7,3-0.7c1.2,0,2.3,0.3,3,0.8
			s1.4,1.2,1.7,2.2c1.3-2,3-2.9,5.2-2.9c1.7,0,2.9,0.5,3.8,1.4s1.3,2.3,1.3,4.2v11.5h-2.8V33.2c0-1.1-0.1-2-0.3-2.5s-0.5-0.9-1-1.2
			c-0.5-0.3-1.1-0.5-1.7-0.5c-1.2,0-2.2,0.4-2.9,1.2s-1.2,2-1.2,3.8v9.7h-2.8V32.9c0-1.3-0.2-2.2-0.7-2.8c-0.5-0.6-1.2-0.9-2.3-0.9
			c-0.8,0-1.5,0.2-2.2,0.6c-0.7,0.4-1.2,1-1.5,1.8c-0.3,0.8-0.5,2-0.5,3.5v8.7H-137.1z"/>
		<path class="st11" d="M-99.3,41.7c-1.1,0.9-2.1,1.5-3,1.9c-1,0.4-2,0.6-3.1,0.6c-1.8,0-3.3-0.4-4.2-1.3c-1-0.9-1.5-2-1.5-3.4
			c0-0.8,0.2-1.6,0.6-2.2c0.4-0.7,0.9-1.2,1.5-1.6c0.6-0.4,1.3-0.7,2-0.9c0.6-0.1,1.4-0.3,2.5-0.4c2.3-0.3,4-0.6,5.1-1
			c0-0.4,0-0.6,0-0.7c0-1.2-0.3-2-0.8-2.4c-0.7-0.6-1.8-1-3.2-1c-1.3,0-2.3,0.2-3,0.7c-0.6,0.5-1.1,1.3-1.4,2.5l-2.8-0.4
			c0.3-1.2,0.7-2.1,1.2-2.9c0.6-0.7,1.4-1.3,2.5-1.7c1.1-0.4,2.4-0.6,3.8-0.6c1.4,0,2.6,0.2,3.5,0.5c0.9,0.3,1.5,0.8,2,1.3
			c0.4,0.5,0.7,1.2,0.9,1.9c0.1,0.5,0.1,1.4,0.1,2.6v3.8c0,2.6,0.1,4.3,0.2,5s0.4,1.4,0.7,2h-3C-99,43.2-99.2,42.5-99.3,41.7z
			 M-99.5,35.4c-1,0.4-2.6,0.8-4.6,1.1c-1.2,0.2-2,0.4-2.5,0.6c-0.5,0.2-0.9,0.5-1.1,0.9c-0.3,0.4-0.4,0.9-0.4,1.3
			c0,0.8,0.3,1.4,0.9,1.9c0.6,0.5,1.4,0.8,2.5,0.8c1.1,0,2.1-0.2,2.9-0.7c0.9-0.5,1.5-1.1,1.9-2c0.3-0.6,0.5-1.6,0.5-2.8V35.4z"/>
		<path class="st11" d="M-92.3,43.8V27.1h2.6v2.4c1.2-1.8,3-2.8,5.3-2.8c1,0,1.9,0.2,2.8,0.5c0.8,0.4,1.5,0.8,1.9,1.4
			c0.4,0.6,0.7,1.3,0.9,2.1c0.1,0.5,0.2,1.4,0.2,2.8v10.3h-2.8V33.6c0-1.2-0.1-2-0.3-2.6c-0.2-0.6-0.6-1-1.2-1.4
			c-0.6-0.3-1.2-0.5-2-0.5c-1.2,0-2.3,0.4-3.1,1.2s-1.3,2.2-1.3,4.4v9.1H-92.3z"/>
		<path class="st11" d="M-64.9,43.8V20.7h10.2c2.1,0,3.6,0.2,4.7,0.6s1.9,1.1,2.6,2.2c0.6,1.1,1,2.2,1,3.5c0,1.6-0.5,3-1.6,4.1
			c-1.1,1.1-2.7,1.8-4.9,2.1c0.8,0.4,1.4,0.8,1.8,1.2c0.9,0.8,1.7,1.8,2.5,3.1l4,6.3h-3.8l-3.1-4.8c-0.9-1.4-1.6-2.4-2.2-3.2
			c-0.6-0.7-1.1-1.2-1.6-1.5c-0.5-0.3-0.9-0.5-1.4-0.6c-0.3-0.1-0.9-0.1-1.7-0.1h-3.5v10.3H-64.9z M-61.9,30.9h6.6
			c1.4,0,2.5-0.1,3.3-0.4c0.8-0.3,1.4-0.8,1.8-1.4c0.4-0.6,0.6-1.3,0.6-2.1c0-1.1-0.4-2-1.2-2.7c-0.8-0.7-2-1.1-3.8-1.1h-7.3V30.9z"
			/>
		<path class="st11" d="M-42.1,43.8V20.7h2.8V29c1.3-1.5,3-2.3,5-2.3c1.2,0,2.3,0.2,3.2,0.7c0.9,0.5,1.6,1.2,2,2
			c0.4,0.9,0.6,2.1,0.6,3.7v10.6h-2.8V33.2c0-1.4-0.3-2.4-0.9-3.1c-0.6-0.6-1.5-1-2.6-1c-0.8,0-1.6,0.2-2.4,0.7
			c-0.7,0.4-1.3,1-1.6,1.8c-0.3,0.7-0.5,1.8-0.5,3.1v9.2H-42.1z"/>
		<path class="st11" d="M-25.2,35.4c0-3.1,0.9-5.4,2.6-6.9c1.4-1.2,3.2-1.9,5.3-1.9c2.3,0,4.2,0.8,5.6,2.3c1.5,1.5,2.2,3.6,2.2,6.2
			c0,2.2-0.3,3.8-1,5.1c-0.6,1.2-1.6,2.2-2.8,2.9s-2.6,1-4,1c-2.3,0-4.2-0.8-5.7-2.3C-24.4,40.4-25.2,38.2-25.2,35.4z M-22.3,35.4
			c0,2.1,0.5,3.7,1.4,4.8s2.1,1.6,3.5,1.6c1.4,0,2.6-0.5,3.5-1.6c0.9-1.1,1.4-2.7,1.4-4.9c0-2.1-0.5-3.6-1.4-4.7
			c-0.9-1.1-2.1-1.6-3.5-1.6c-1.4,0-2.6,0.5-3.5,1.6C-21.8,31.7-22.3,33.3-22.3,35.4z"/>
	</g>
</g>
<g>
	<g transform="translate(1688,101.869)">
		<text transform="matrix(1 0 0 1 55.4086 101.4213)" class="st12 st14">U</text>
	</g>
	<g>
		<path class="st3" d="M1740.4,205.2v-23.8h-20v23.8H1740.4z"/>
	</g>
	<g transform="translate(1688,136.131)">
		<text transform="matrix(1 0 0 1 55.4086 101.4212)" class="st12 st14">C</text>
	</g>
	<g>
		<path class="st5" d="M1740.4,239.4v-23.8h-20v23.8H1740.4z"/>
	</g>
</g>
</svg>
