<?xml version="1.0" encoding="utf-8"?>
<!-- Generator: Adobe Illustrator 25.2.3, SVG Export Plug-In . SVG Version: 6.00 Build 0)  -->
<svg version="1.1" id="Layer_1" xmlns="http://www.w3.org/2000/svg" xmlns:xlink="http://www.w3.org/1999/xlink" x="0px" y="0px"
	 viewBox="0 0 1715.3 602.1" style="enable-background:new 0 0 1715.3 602.1;" xml:space="preserve">
<style type="text/css">
	.st0{fill:#FFFFFF;}
	.st1{enable-background:new    ;}
	.st2{fill:none;stroke:#262626;stroke-width:0.6667;stroke-linejoin:round;stroke-miterlimit:10;}
	.st3{fill:#BEBADA;}
	.st4{fill:none;stroke:#BEBADA;stroke-width:2.6667;stroke-linejoin:round;stroke-miterlimit:10;}
	.st5{fill:none;stroke:#000000;stroke-width:2.6667;stroke-linejoin:round;stroke-miterlimit:10;}
	.st6{fill:none;stroke:#000000;stroke-width:2.6667;stroke-miterlimit:10;}
	.st7{fill:none;stroke:#262626;stroke-width:0.6667;stroke-linecap:square;stroke-linejoin:round;stroke-miterlimit:10;}
	.st8{fill:#262626;}
	.st9{font-family:'ArialMT';}
	.st10{font-size:29.3333px;}
	.st11{fill:#FB8072;}
	.st12{fill:none;stroke:#FB8072;stroke-width:2.6667;stroke-linejoin:round;stroke-miterlimit:10;}
	.st13{fill:#FFFFFF;stroke:#000000;stroke-width:2;stroke-miterlimit:10;}
	.st14{fill:#808080;}
	.st15{stroke:#000000;stroke-width:2;stroke-miterlimit:10;}
	.st16{fill:none;stroke:#000000;stroke-width:2;stroke-miterlimit:10;}
	.st17{font-family:'Arial-BoldMT';}
	.st18{font-size:32.27px;}
</style>
<path class="st0" d="M1270.3,512.1h304v-319h-304V512.1z"/>
<g transform="translate(1137.0011,43.95)">
	<g class="st1">
		<path d="M189.7,134.1V111h4.6l5.5,16.4c0.5,1.5,0.9,2.7,1.1,3.4c0.3-0.8,0.7-2.1,1.2-3.7l5.5-16.1h4.1v23.1h-2.9v-19.3l-6.7,19.3
			h-2.8l-6.7-19.7v19.7H189.7z"/>
		<path d="M227.7,128.7l2.9,0.4c-0.5,1.7-1.3,3-2.6,4s-2.8,1.4-4.8,1.4c-2.4,0-4.4-0.8-5.8-2.3c-1.4-1.5-2.2-3.6-2.2-6.3
			c0-2.8,0.7-5,2.2-6.6s3.3-2.3,5.6-2.3c2.2,0,4.1,0.8,5.5,2.3c1.4,1.5,2.1,3.7,2.1,6.4c0,0.2,0,0.4,0,0.8h-12.5
			c0.1,1.8,0.6,3.2,1.6,4.2c0.9,1,2.1,1.5,3.5,1.5c1,0,1.9-0.3,2.7-0.8C226.7,130.8,227.3,129.9,227.7,128.7z M218.4,124.1h9.3
			c-0.1-1.4-0.5-2.5-1.1-3.2c-0.9-1.1-2.1-1.6-3.5-1.6c-1.3,0-2.4,0.4-3.3,1.3S218.5,122.7,218.4,124.1z"/>
		<path d="M234.2,134.1v-16.7h2.5v2.3c0.5-0.8,1.2-1.5,2.1-2c0.9-0.5,1.9-0.7,3-0.7c1.2,0,2.3,0.3,3,0.8s1.4,1.2,1.7,2.2
			c1.3-2,3-2.9,5.2-2.9c1.7,0,2.9,0.5,3.8,1.4c0.9,0.9,1.3,2.3,1.3,4.2v11.5h-2.8v-10.5c0-1.1-0.1-2-0.3-2.5s-0.5-0.9-1-1.2
			s-1.1-0.5-1.7-0.5c-1.2,0-2.2,0.4-2.9,1.2s-1.2,2-1.2,3.8v9.7h-2.8v-10.9c0-1.3-0.2-2.2-0.7-2.8s-1.2-0.9-2.3-0.9
			c-0.8,0-1.5,0.2-2.2,0.6c-0.7,0.4-1.2,1-1.5,1.8c-0.3,0.8-0.5,2-0.5,3.5v8.7H234.2z"/>
		<path d="M260,125.7c0-3.1,0.9-5.4,2.6-6.9c1.4-1.2,3.2-1.9,5.3-1.9c2.3,0,4.2,0.8,5.6,2.3c1.5,1.5,2.2,3.6,2.2,6.2
			c0,2.2-0.3,3.8-1,5.1c-0.6,1.2-1.6,2.2-2.8,2.9s-2.6,1-4,1c-2.3,0-4.2-0.8-5.7-2.3C260.8,130.7,260,128.6,260,125.7z M262.9,125.7
			c0,2.1,0.5,3.7,1.4,4.8c0.9,1.1,2.1,1.6,3.5,1.6c1.4,0,2.6-0.5,3.5-1.6c0.9-1.1,1.4-2.7,1.4-4.9c0-2.1-0.5-3.6-1.4-4.7
			c-0.9-1.1-2.1-1.6-3.5-1.6c-1.4,0-2.6,0.5-3.5,1.6C263.4,122,262.9,123.6,262.9,125.7z"/>
		<path d="M279,134.1v-16.7h2.6v2.5c0.7-1.2,1.3-2,1.8-2.3s1.2-0.6,1.8-0.6c1,0,1.9,0.3,2.9,0.9l-1,2.6c-0.7-0.4-1.4-0.6-2.1-0.6
			c-0.6,0-1.2,0.2-1.7,0.6c-0.5,0.4-0.8,0.9-1.1,1.6c-0.3,1-0.5,2.1-0.5,3.3v8.8H279z"/>
		<path d="M289.6,140.6l-0.3-2.7c0.6,0.2,1.2,0.3,1.6,0.3c0.6,0,1.1-0.1,1.5-0.3c0.4-0.2,0.7-0.5,0.9-0.9c0.2-0.3,0.5-1,0.9-2.1
			c0.1-0.2,0.1-0.4,0.3-0.7l-6.3-16.8h3.1l3.5,9.7c0.5,1.2,0.9,2.5,1.2,3.9c0.3-1.3,0.7-2.6,1.2-3.8l3.6-9.8h2.8l-6.4,17
			c-0.7,1.8-1.2,3.1-1.6,3.8c-0.5,0.9-1.1,1.6-1.7,2.1s-1.4,0.7-2.3,0.7C290.9,140.9,290.3,140.8,289.6,140.6z"/>
		<path d="M321.1,131.6l0.4,2.5c-0.8,0.2-1.5,0.3-2.1,0.3c-1,0-1.8-0.2-2.4-0.5c-0.6-0.3-1-0.8-1.2-1.3c-0.2-0.5-0.3-1.6-0.3-3.3
			v-9.6h-2.1v-2.2h2.1v-4.1l2.8-1.7v5.8h2.9v2.2h-2.9v9.8c0,0.8,0,1.3,0.1,1.6c0.1,0.2,0.3,0.4,0.5,0.6s0.5,0.2,1,0.2
			C320.1,131.7,320.6,131.6,321.1,131.6z"/>
		<path d="M334.8,132c-1.1,0.9-2.1,1.5-3,1.9c-1,0.4-2,0.6-3.1,0.6c-1.8,0-3.3-0.4-4.2-1.3c-1-0.9-1.5-2-1.5-3.4
			c0-0.8,0.2-1.6,0.6-2.2c0.4-0.7,0.9-1.2,1.5-1.6c0.6-0.4,1.3-0.7,2-0.9c0.6-0.1,1.4-0.3,2.5-0.4c2.3-0.3,4-0.6,5.1-1
			c0-0.4,0-0.6,0-0.7c0-1.2-0.3-2-0.8-2.4c-0.7-0.6-1.8-1-3.2-1c-1.3,0-2.3,0.2-3,0.7c-0.6,0.5-1.1,1.3-1.4,2.5l-2.8-0.4
			c0.3-1.2,0.7-2.1,1.2-2.9c0.6-0.7,1.4-1.3,2.5-1.7c1.1-0.4,2.4-0.6,3.8-0.6c1.4,0,2.6,0.2,3.5,0.5c0.9,0.3,1.5,0.8,2,1.3
			c0.4,0.5,0.7,1.2,0.9,1.9c0.1,0.5,0.1,1.4,0.1,2.6v3.8c0,2.6,0.1,4.3,0.2,5c0.1,0.7,0.4,1.4,0.7,2h-3
			C335,133.5,334.8,132.8,334.8,132z M334.5,125.7c-1,0.4-2.6,0.8-4.6,1.1c-1.2,0.2-2,0.4-2.5,0.6c-0.5,0.2-0.9,0.5-1.1,0.9
			c-0.3,0.4-0.4,0.9-0.4,1.3c0,0.8,0.3,1.4,0.9,1.9s1.4,0.8,2.5,0.8c1.1,0,2.1-0.2,2.9-0.7c0.9-0.5,1.5-1.1,1.9-2
			c0.3-0.6,0.5-1.6,0.5-2.8V125.7z"/>
		<path d="M340.6,129.1l2.8-0.4c0.2,1.1,0.6,2,1.3,2.6c0.7,0.6,1.7,0.9,3,0.9c1.3,0,2.3-0.3,2.9-0.8c0.6-0.5,0.9-1.2,0.9-1.9
			c0-0.6-0.3-1.1-0.8-1.5c-0.4-0.3-1.4-0.6-2.9-1c-2.1-0.5-3.5-1-4.3-1.4c-0.8-0.4-1.4-0.9-1.8-1.6s-0.6-1.4-0.6-2.2
			c0-0.7,0.2-1.4,0.5-2.1c0.3-0.6,0.8-1.2,1.4-1.6c0.4-0.3,1-0.6,1.8-0.8s1.6-0.3,2.5-0.3c1.3,0,2.5,0.2,3.5,0.6s1.7,0.9,2.2,1.5
			s0.8,1.5,1,2.6l-2.8,0.4c-0.1-0.9-0.5-1.5-1.1-2c-0.6-0.5-1.5-0.7-2.6-0.7c-1.3,0-2.2,0.2-2.8,0.6c-0.6,0.4-0.8,0.9-0.8,1.5
			c0,0.4,0.1,0.7,0.3,1c0.2,0.3,0.6,0.6,1.1,0.8c0.3,0.1,1.1,0.3,2.5,0.7c2,0.5,3.4,1,4.2,1.3c0.8,0.3,1.4,0.8,1.9,1.5
			c0.5,0.7,0.7,1.5,0.7,2.4c0,0.9-0.3,1.8-0.8,2.7c-0.6,0.8-1.3,1.5-2.4,1.9c-1,0.5-2.2,0.7-3.5,0.7c-2.2,0-3.8-0.5-5-1.4
			S341,130.9,340.6,129.1z"/>
		<path d="M357.9,134.1V111h2.8v13.2l6.7-6.8h3.7l-6.4,6.2l7,10.5h-3.5l-5.5-8.6l-2,1.9v6.6H357.9z"/>
	</g>
</g>
<g>
	<line class="st2" x1="1270.3" y1="352.6" x2="1574.3" y2="352.6"/>
</g>
<g>
	<path class="st3" d="M1290.4,352.5v0.1h2.4h2.4h2.4h2.4h2.4h2.4h2.4h2.4h2.4h2.4h2.4h2.4h2.4h2.4h2.4h2.4h2.4h2.4h2.4h2.4h2.4h2.4
		h2.4h2.4h2.4h2.4h2.4h2.4h2.4h2.4h2.4h2.4h2.4h2.4h2.4h2.4h2.4h2.4h2.4h2.4h2.4h2.4h2.4h2.4h2.4h2.4h2.4h2.4h2.4h2.4h2.4h2.4h2.4
		h2.4h2.4h2.4h2.4h2.4h2.4h2.4h2.4h2.4h2.4h2.4h2.4h2.4h2.4h2.4h2.4h2.4h2.4h2.4h2.4h2.4h2.4h2.4h2.4h2.4h2.4h2.4h2.4h2.4h2.4h2.4
		h2.4h2.4h2.4h2.4h2.4h2.4h2.4h2.4h2.4h2.4h2.4h2.4h2.4h2.4h2.4v-0.3l-2.4-0.2l-2.4-0.2l-2.4-0.3l-2.4-0.5l-2.4-0.7l-2.4-0.9
		l-2.4-1.2l-2.4-1.5l-2.4-1.9l-2.4-2.4l-2.4-2.9l-2.4-3.5l-2.4-4.1l-2.4-4.8l-2.4-5.5l-2.4-6.2l-2.4-6.9l-2.4-7.5l-2.4-8l-2.4-8.3
		l-2.4-8.6l-2.4-8.6l-2.4-8.5l-2.4-8.3l-2.4-7.9l-2.4-7.3l-2.4-6.7l-2.4-5.9l-2.4-5.1l-2.4-4.2l-2.4-3.3l-2.4-2.4l-2.4-1.5l-2.4-0.6
		l-2.4,0.2l-2.4,1l-2.4,1.7l-2.4,2.4l-2.4,3l-2.4,3.5l-2.4,3.9l-2.4,4.2l-2.4,4.4l-2.4,4.6l-2.4,4.6l-2.4,4.6l-2.4,4.5l-2.4,4.3
		l-2.4,4.2l-2.4,4l-2.4,3.8l-2.4,3.6l-2.4,3.4l-2.4,3.3l-2.4,3.1l-2.4,3l-2.4,2.9l-2.4,2.8l-2.4,2.7l-2.4,2.6l-2.4,2.6l-2.4,2.5
		l-2.4,2.4l-2.4,2.4l-2.4,2.3l-2.4,2.2l-2.4,2.2l-2.4,2.1l-2.4,2.1l-2.4,2.1l-2.4,2.1l-2.4,2.1l-2.4,2.1l-2.4,2.1l-2.4,2.2l-2.4,2.2
		l-2.4,2.2l-2.4,2.2l-2.4,2.2l-2.4,2.1l-2.4,2l-2.4,1.9l-2.4,1.8l-2.4,1.6l-2.4,1.5l-2.4,1.3l-2.4,1.1l-2.4,1l-2.4,0.8l-2.4,0.7
		l-2.4,0.5l-2.4,0.4l-2.4,0.3l-2.4,0.3l-2.4,0.2l-2.4,0.1l-2.4,0.1l-2.4,0.1L1290.4,352.5z"/>
</g>
<g>
	<path class="st4" d="M1290.4,352.6h2.4h2.4h2.4h2.4h2.4h2.4h2.4h2.4h2.4h2.4h2.4h2.4h2.4h2.4h2.4h2.4h2.4h2.4h2.4h2.4h2.4h2.4h2.4
		h2.4h2.4h2.4h2.4h2.4h2.4h2.4h2.4h2.4h2.4h2.4h2.4h2.4h2.4h2.4h2.4h2.4h2.4h2.4h2.4h2.4h2.4h2.4h2.4h2.4h2.4h2.4h2.4h2.4h2.4h2.4
		h2.4h2.4h2.4h2.4h2.4h2.4h2.4h2.4h2.4h2.4h2.4h2.4h2.4h2.4h2.4h2.4h2.4h2.4h2.4h2.4h2.4h2.4h2.4h2.4h2.4h2.4h2.4h2.4h2.4h2.4h2.4
		h2.4h2.4h2.4h2.4h2.4h2.4h2.4h2.4h2.4h2.4h2.4h2.4h2.4h2.4v-0.3l-2.4-0.2l-2.4-0.2l-2.4-0.3l-2.4-0.5l-2.4-0.7l-2.4-0.9l-2.4-1.2
		l-2.4-1.5l-2.4-1.9l-2.4-2.4l-2.4-2.9l-2.4-3.5l-2.4-4.1l-2.4-4.8l-2.4-5.5l-2.4-6.2l-2.4-6.9l-2.4-7.5l-2.4-8l-2.4-8.3l-2.4-8.6
		l-2.4-8.6l-2.4-8.5l-2.4-8.3l-2.4-7.9l-2.4-7.3l-2.4-6.7l-2.4-5.9l-2.4-5.1l-2.4-4.2l-2.4-3.3l-2.4-2.4l-2.4-1.5l-2.4-0.6l-2.4,0.2
		l-2.4,1l-2.4,1.7l-2.4,2.4l-2.4,3l-2.4,3.5l-2.4,3.9l-2.4,4.2l-2.4,4.4l-2.4,4.6l-2.4,4.6l-2.4,4.6l-2.4,4.5l-2.4,4.3l-2.4,4.2
		l-2.4,4l-2.4,3.8l-2.4,3.6l-2.4,3.4l-2.4,3.3l-2.4,3.1l-2.4,3l-2.4,2.9l-2.4,2.8l-2.4,2.7l-2.4,2.6l-2.4,2.6l-2.4,2.5l-2.4,2.4
		l-2.4,2.4l-2.4,2.3l-2.4,2.2l-2.4,2.2l-2.4,2.1l-2.4,2.1l-2.4,2.1l-2.4,2.1l-2.4,2.1l-2.4,2.1l-2.4,2.1l-2.4,2.2l-2.4,2.2l-2.4,2.2
		l-2.4,2.2l-2.4,2.2l-2.4,2.1l-2.4,2l-2.4,1.9l-2.4,1.8l-2.4,1.6l-2.4,1.5l-2.4,1.3l-2.4,1.1l-2.4,1l-2.4,0.8l-2.4,0.7l-2.4,0.5
		l-2.4,0.4l-2.4,0.3l-2.4,0.3l-2.4,0.2l-2.4,0.1l-2.4,0.1l-2.4,0.1l-2.4,0.1V352.6z"/>
</g>
<g transform="translate(1153.3164,235.4102)">
	<circle class="st3" cx="285.3" cy="143.1" r="3.7"/>
	<circle class="st3" cx="281.6" cy="135.8" r="3.7"/>
	<circle class="st3" cx="294.3" cy="153.1" r="3.7"/>
	<circle class="st3" cx="319.6" cy="145.9" r="3.7"/>
	<circle class="st3" cx="294.3" cy="149.6" r="3.7"/>
	<circle class="st3" cx="252.1" cy="150.9" r="3.7"/>
	<circle class="st3" cx="235.2" cy="148.6" r="3.7"/>
	<circle class="st3" cx="226.7" cy="144.8" r="3.7"/>
	<circle class="st3" cx="311.2" cy="143.6" r="3.7"/>
	<circle class="st3" cx="252.1" cy="140.2" r="3.7"/>
	<circle class="st3" cx="306.9" cy="143.1" r="3.7"/>
	<circle class="st3" cx="201.4" cy="136.7" r="3.7"/>
	<circle class="st3" cx="319.6" cy="148.2" r="3.7"/>
	<circle class="st3" cx="294.3" cy="132.1" r="3.7"/>
	<circle class="st3" cx="218.3" cy="152.4" r="3.7"/>
	<circle class="st3" cx="302.7" cy="137" r="3.7"/>
	<circle class="st3" cx="302.7" cy="143.1" r="3.7"/>
	<circle class="st3" cx="260.5" cy="139.7" r="3.7"/>
	<circle class="st3" cx="252.1" cy="149.7" r="3.7"/>
	<circle class="st3" cx="284.7" cy="148.3" r="3.7"/>
	<circle class="st3" cx="235.2" cy="133.9" r="3.7"/>
	<circle class="st3" cx="192.9" cy="129.9" r="3.7"/>
	<circle class="st3" cx="277.4" cy="145.6" r="3.7"/>
	<circle class="st3" cx="268.9" cy="136.5" r="3.7"/>
	<circle class="st3" cx="293.8" cy="132.1" r="3.7"/>
	<circle class="st3" cx="311.2" cy="131.7" r="3.7"/>
	<circle class="st3" cx="243.6" cy="151" r="3.7"/>
	<circle class="st3" cx="252.1" cy="152.1" r="3.7"/>
	<circle class="st3" cx="201.4" cy="149" r="3.7"/>
	<circle class="st3" cx="309.5" cy="132.1" r="3.7"/>
	<circle class="st3" cx="277.4" cy="150.7" r="3.7"/>
	<circle class="st3" cx="311" cy="143" r="3.7"/>
	<circle class="st3" cx="268.1" cy="130.2" r="3.7"/>
	<circle class="st3" cx="311" cy="140.3" r="3.7"/>
	<circle class="st3" cx="277.4" cy="136.5" r="3.7"/>
	<circle class="st3" cx="285.8" cy="145.5" r="3.7"/>
	<circle class="st3" cx="311.2" cy="136.7" r="3.7"/>
	<circle class="st3" cx="285.8" cy="133.1" r="3.7"/>
	<circle class="st3" cx="285.8" cy="152.6" r="3.7"/>
	<circle class="st3" cx="285.8" cy="135.1" r="3.7"/>
	<circle class="st3" cx="311.2" cy="129.4" r="3.7"/>
	<circle class="st3" cx="225.1" cy="135.2" r="3.7"/>
	<circle class="st3" cx="268.9" cy="146.4" r="3.7"/>
	<circle class="st3" cx="319.6" cy="134.2" r="3.7"/>
</g>
<g>
	<line class="st5" x1="1438.3" y1="388.5" x2="1438.3" y2="364.6"/>
	<line class="st5" x1="1458.1" y1="376.5" x2="1472.9" y2="376.5"/>
	<line class="st5" x1="1405.4" y1="376.5" x2="1346.3" y2="376.5"/>
	<path class="st6" d="M1405.4,388.5h52.8v-23.9h-52.8V388.5z"/>
</g>
<g>
	<line class="st7" x1="1270.3" y1="512.1" x2="1574.3" y2="512.1"/>
	<line class="st7" x1="1270.3" y1="512.1" x2="1270.3" y2="508.9"/>
	<line class="st7" x1="1371.6" y1="512.1" x2="1371.6" y2="508.9"/>
	<line class="st7" x1="1472.9" y1="512.1" x2="1472.9" y2="508.9"/>
	<line class="st7" x1="1574.3" y1="512.1" x2="1574.3" y2="508.9"/>
</g>
<g transform="translate(985,377.5333)">
	<g class="st1">
		<path class="st8" d="M275.4,157.3l-2.6,0.2c-0.2-1-0.6-1.7-1-2.2c-0.7-0.7-1.6-1.1-2.6-1.1c-0.8,0-1.5,0.2-2.2,0.7
			c-0.8,0.6-1.5,1.5-1.9,2.6c-0.5,1.1-0.7,2.8-0.7,4.9c0.6-0.9,1.4-1.6,2.3-2.1c0.9-0.5,1.8-0.7,2.8-0.7c1.7,0,3.2,0.6,4.4,1.9
			c1.2,1.3,1.8,2.9,1.8,4.9c0,1.3-0.3,2.5-0.9,3.7c-0.6,1.1-1.3,2-2.3,2.6s-2.1,0.9-3.4,0.9c-2.1,0-3.9-0.8-5.3-2.4
			c-1.4-1.6-2-4.2-2-7.8c0-4.1,0.7-7,2.2-8.9c1.3-1.6,3.1-2.4,5.3-2.4c1.7,0,3,0.5,4.1,1.4C274.5,154.3,275.1,155.6,275.4,157.3z
			 M264.8,166.3c0,0.9,0.2,1.7,0.6,2.5c0.4,0.8,0.9,1.4,1.6,1.9c0.7,0.4,1.4,0.6,2.1,0.6c1.1,0,2-0.4,2.8-1.3
			c0.8-0.9,1.2-2.1,1.2-3.6c0-1.5-0.4-2.6-1.2-3.4c-0.8-0.8-1.7-1.3-2.9-1.3c-1.2,0-2.2,0.4-3,1.3
			C265.2,163.9,264.8,164.9,264.8,166.3z"/>
		<path class="st8" d="M278.3,162.8c0-2.5,0.3-4.5,0.8-6s1.3-2.7,2.3-3.5c1-0.8,2.3-1.2,3.8-1.2c1.1,0,2.1,0.2,3,0.7
			c0.8,0.5,1.6,1.1,2.1,2s1,1.9,1.3,3.1c0.3,1.2,0.5,2.9,0.5,5c0,2.5-0.3,4.5-0.8,6s-1.3,2.7-2.3,3.5c-1,0.8-2.3,1.2-3.8,1.2
			c-2,0-3.6-0.7-4.8-2.2C279,169.5,278.3,166.7,278.3,162.8z M280.9,162.8c0,3.4,0.4,5.7,1.2,6.9c0.8,1.1,1.8,1.7,3,1.7
			c1.2,0,2.2-0.6,3-1.7c0.8-1.1,1.2-3.4,1.2-6.9c0-3.5-0.4-5.8-1.2-6.9c-0.8-1.1-1.8-1.7-3-1.7c-1.2,0-2.1,0.5-2.8,1.5
			C281.4,156.9,280.9,159.3,280.9,162.8z"/>
		<path class="st8" d="M295.1,157.2c0-1.5,0.4-2.8,1.1-3.8c0.8-1,1.8-1.6,3.3-1.6c1.3,0,2.4,0.5,3.3,1.4c0.9,0.9,1.3,2.3,1.3,4.1
			c0,1.8-0.4,3.1-1.3,4.1c-0.9,1-2,1.4-3.2,1.4c-1.3,0-2.3-0.5-3.2-1.4C295.5,160.5,295.1,159.1,295.1,157.2z M299.6,153.5
			c-0.6,0-1.2,0.3-1.6,0.8c-0.4,0.6-0.6,1.6-0.6,3.1c0,1.3,0.2,2.3,0.6,2.8s1,0.8,1.6,0.8c0.7,0,1.2-0.3,1.6-0.8
			c0.4-0.6,0.6-1.6,0.6-3c0-1.4-0.2-2.3-0.6-2.9S300.2,153.5,299.6,153.5z M299.6,173.9l11.5-22.1h2.1l-11.4,22.1H299.6z
			 M308.7,168.2c0-1.5,0.4-2.8,1.1-3.8c0.8-1,1.9-1.6,3.3-1.6c1.3,0,2.4,0.5,3.3,1.4s1.3,2.3,1.3,4.1c0,1.8-0.4,3.1-1.3,4.1
			c-0.9,1-2,1.4-3.2,1.4c-1.3,0-2.3-0.5-3.2-1.4C309.1,171.5,308.7,170.1,308.7,168.2z M313.2,164.6c-0.6,0-1.2,0.3-1.6,0.8
			s-0.6,1.6-0.6,3.1c0,1.3,0.2,2.3,0.6,2.8s1,0.8,1.6,0.8c0.7,0,1.2-0.3,1.6-0.8s0.6-1.6,0.6-3c0-1.4-0.2-2.3-0.6-2.9
			C314.3,164.8,313.8,164.6,313.2,164.6z"/>
	</g>
</g>
<g transform="translate(1086.3334,377.5333)">
	<g class="st1">
		<path class="st8" d="M265.9,161.7c-1.1-0.4-1.9-1-2.4-1.7s-0.8-1.6-0.8-2.6c0-1.5,0.5-2.8,1.6-3.9c1.1-1,2.6-1.6,4.4-1.6
			c1.8,0,3.3,0.5,4.4,1.6s1.7,2.4,1.7,3.9c0,1-0.3,1.8-0.8,2.5c-0.5,0.7-1.3,1.3-2.3,1.7c1.3,0.4,2.3,1.1,2.9,2c0.7,0.9,1,2.1,1,3.4
			c0,1.8-0.6,3.3-1.9,4.5c-1.3,1.2-2.9,1.8-5,1.8c-2.1,0-3.7-0.6-5-1.8c-1.3-1.2-1.9-2.8-1.9-4.6c0-1.4,0.3-2.5,1-3.4
			C263.7,162.7,264.7,162.1,265.9,161.7z M264.6,167c0,0.7,0.2,1.4,0.5,2.1s0.9,1.2,1.6,1.6s1.4,0.6,2.2,0.6c1.2,0,2.2-0.4,3.1-1.2
			c0.8-0.8,1.2-1.8,1.2-3c0-1.2-0.4-2.3-1.2-3.1s-1.9-1.2-3.1-1.2c-1.2,0-2.2,0.4-3,1.2C265,164.8,264.6,165.8,264.6,167z
			 M265.4,157.4c0,1,0.3,1.8,1,2.4s1.5,0.9,2.5,0.9c1,0,1.8-0.3,2.4-0.9c0.6-0.6,1-1.4,1-2.3c0-0.9-0.3-1.7-1-2.4
			c-0.7-0.6-1.5-1-2.4-1c-1,0-1.8,0.3-2.4,0.9C265.7,155.7,265.4,156.5,265.4,157.4z"/>
		<path class="st8" d="M278.3,162.8c0-2.5,0.3-4.5,0.8-6s1.3-2.7,2.3-3.5s2.3-1.2,3.8-1.2c1.1,0,2.1,0.2,3,0.7
			c0.8,0.5,1.6,1.1,2.1,2s1,1.9,1.3,3.1c0.3,1.2,0.5,2.9,0.5,5c0,2.5-0.3,4.5-0.8,6c-0.5,1.5-1.3,2.7-2.3,3.5
			c-1,0.8-2.3,1.2-3.8,1.2c-2,0-3.6-0.7-4.8-2.2C279,169.5,278.3,166.7,278.3,162.8z M280.9,162.8c0,3.4,0.4,5.7,1.2,6.9
			c0.8,1.1,1.8,1.7,3,1.7s2.2-0.6,3-1.7s1.2-3.4,1.2-6.9c0-3.5-0.4-5.8-1.2-6.9c-0.8-1.1-1.8-1.7-3-1.7c-1.2,0-2.1,0.5-2.8,1.5
			C281.4,156.9,280.9,159.3,280.9,162.8z"/>
		<path class="st8" d="M295.1,157.2c0-1.5,0.4-2.8,1.1-3.8c0.8-1,1.8-1.6,3.3-1.6c1.3,0,2.4,0.5,3.3,1.4s1.3,2.3,1.3,4.1
			c0,1.8-0.4,3.1-1.3,4.1c-0.9,1-2,1.4-3.2,1.4c-1.3,0-2.3-0.5-3.2-1.4S295.1,159.1,295.1,157.2z M299.6,153.5
			c-0.6,0-1.2,0.3-1.6,0.8c-0.4,0.6-0.6,1.6-0.6,3.1c0,1.3,0.2,2.3,0.6,2.8s1,0.8,1.6,0.8c0.6,0,1.2-0.3,1.6-0.8
			c0.4-0.6,0.6-1.6,0.6-3c0-1.4-0.2-2.3-0.6-2.9S300.2,153.5,299.6,153.5z M299.6,173.9l11.5-22.1h2.1l-11.4,22.1H299.6z
			 M308.7,168.2c0-1.5,0.4-2.8,1.1-3.8c0.8-1,1.9-1.6,3.3-1.6c1.3,0,2.4,0.5,3.3,1.4s1.3,2.3,1.3,4.1c0,1.8-0.4,3.1-1.3,4.1
			c-0.9,1-2,1.4-3.2,1.4c-1.3,0-2.3-0.5-3.2-1.4C309.1,171.5,308.7,170.1,308.7,168.2z M313.2,164.6c-0.6,0-1.2,0.3-1.6,0.8
			s-0.6,1.6-0.6,3.1c0,1.3,0.2,2.3,0.6,2.8s1,0.8,1.6,0.8c0.7,0,1.2-0.3,1.6-0.8s0.6-1.6,0.6-3c0-1.4-0.2-2.3-0.6-2.9
			C314.3,164.8,313.8,164.6,313.2,164.6z"/>
	</g>
</g>
<g transform="translate(1187.6666,377.5333)">
	<g class="st1">
		<path class="st8" d="M265.2,173.1h-2.6v-16.4c-0.6,0.6-1.4,1.2-2.4,1.8c-1,0.6-1.9,1-2.7,1.3v-2.5c1.4-0.7,2.7-1.5,3.8-2.5
			c1.1-1,1.8-1.9,2.3-2.8h1.7V173.1z"/>
		<path class="st8" d="M271.8,162.8c0-2.5,0.3-4.5,0.8-6c0.5-1.5,1.3-2.7,2.3-3.5c1-0.8,2.3-1.2,3.8-1.2c1.1,0,2.1,0.2,3,0.7
			c0.8,0.5,1.6,1.1,2.1,2c0.6,0.9,1,1.9,1.3,3.1c0.3,1.2,0.5,2.9,0.5,5c0,2.5-0.3,4.5-0.8,6s-1.3,2.7-2.3,3.5
			c-1,0.8-2.3,1.2-3.8,1.2c-2,0-3.6-0.7-4.8-2.2C272.5,169.5,271.8,166.7,271.8,162.8z M274.4,162.8c0,3.4,0.4,5.7,1.2,6.9
			c0.8,1.1,1.8,1.7,3,1.7c1.2,0,2.2-0.6,3-1.7c0.8-1.1,1.2-3.4,1.2-6.9c0-3.5-0.4-5.8-1.2-6.9c-0.8-1.1-1.8-1.7-3-1.7
			c-1.2,0-2.1,0.5-2.8,1.5C274.9,156.9,274.4,159.3,274.4,162.8z"/>
		<path class="st8" d="M288.1,162.8c0-2.5,0.3-4.5,0.8-6c0.5-1.5,1.3-2.7,2.3-3.5c1-0.8,2.3-1.2,3.8-1.2c1.1,0,2.1,0.2,3,0.7
			c0.8,0.5,1.6,1.1,2.1,2c0.6,0.9,1,1.9,1.3,3.1c0.3,1.2,0.5,2.9,0.5,5c0,2.5-0.3,4.5-0.8,6s-1.3,2.7-2.3,3.5
			c-1,0.8-2.3,1.2-3.8,1.2c-2,0-3.6-0.7-4.8-2.2C288.8,169.5,288.1,166.7,288.1,162.8z M290.7,162.8c0,3.4,0.4,5.7,1.2,6.9
			c0.8,1.1,1.8,1.7,3,1.7c1.2,0,2.2-0.6,3-1.7c0.8-1.1,1.2-3.4,1.2-6.9c0-3.5-0.4-5.8-1.2-6.9c-0.8-1.1-1.8-1.7-3-1.7
			c-1.2,0-2.1,0.5-2.8,1.5C291.2,156.9,290.7,159.3,290.7,162.8z"/>
		<path class="st8" d="M304.9,157.2c0-1.5,0.4-2.8,1.1-3.8c0.8-1,1.8-1.6,3.3-1.6c1.3,0,2.4,0.5,3.3,1.4s1.3,2.3,1.3,4.1
			c0,1.8-0.4,3.1-1.3,4.1c-0.9,1-2,1.4-3.2,1.4c-1.3,0-2.3-0.5-3.2-1.4S304.9,159.1,304.9,157.2z M309.4,153.5
			c-0.6,0-1.2,0.3-1.6,0.8c-0.4,0.6-0.6,1.6-0.6,3.1c0,1.3,0.2,2.3,0.6,2.8s1,0.8,1.6,0.8c0.6,0,1.2-0.3,1.6-0.8
			c0.4-0.6,0.6-1.6,0.6-3c0-1.4-0.2-2.3-0.6-2.9S310,153.5,309.4,153.5z M309.4,173.9l11.5-22.1h2.1l-11.4,22.1H309.4z M318.5,168.2
			c0-1.5,0.4-2.8,1.1-3.8c0.8-1,1.9-1.6,3.3-1.6c1.3,0,2.4,0.5,3.3,1.4s1.3,2.3,1.3,4.1c0,1.8-0.4,3.1-1.3,4.1c-0.9,1-2,1.4-3.2,1.4
			c-1.3,0-2.3-0.5-3.2-1.4C318.9,171.5,318.5,170.1,318.5,168.2z M323,164.6c-0.6,0-1.2,0.3-1.6,0.8s-0.6,1.6-0.6,3.1
			c0,1.3,0.2,2.3,0.6,2.8s1,0.8,1.6,0.8c0.7,0,1.2-0.3,1.6-0.8s0.6-1.6,0.6-3c0-1.4-0.2-2.3-0.6-2.9
			C324.2,164.8,323.6,164.6,323,164.6z"/>
	</g>
</g>
<g transform="translate(1289,377.5333)">
	<g class="st1">
		<path class="st8" d="M265.2,173.1h-2.6v-16.4c-0.6,0.6-1.4,1.2-2.4,1.8s-1.9,1-2.7,1.3v-2.5c1.4-0.7,2.7-1.5,3.8-2.5
			c1.1-1,1.8-1.9,2.3-2.8h1.7V173.1z"/>
		<path class="st8" d="M285.3,170.6v2.5h-13.9c0-0.6,0.1-1.2,0.3-1.8c0.4-0.9,0.9-1.9,1.7-2.8c0.8-0.9,1.9-2,3.4-3.2
			c2.3-1.9,3.8-3.4,4.6-4.4c0.8-1.1,1.2-2.1,1.2-3.1c0-1-0.4-1.9-1.1-2.6s-1.7-1.1-2.9-1.1c-1.2,0-2.2,0.4-3,1.1
			c-0.7,0.7-1.1,1.8-1.1,3.1l-2.6-0.3c0.2-2,0.9-3.5,2-4.5c1.2-1,2.8-1.6,4.8-1.6c2,0,3.6,0.6,4.8,1.7c1.2,1.1,1.8,2.5,1.8,4.2
			c0,0.8-0.2,1.7-0.5,2.5c-0.3,0.8-0.9,1.7-1.7,2.6c-0.8,0.9-2.1,2.1-4,3.7c-1.5,1.3-2.5,2.2-3,2.6s-0.8,0.9-1.1,1.4H285.3z"/>
		<path class="st8" d="M288.1,162.8c0-2.5,0.3-4.5,0.8-6c0.5-1.5,1.3-2.7,2.3-3.5s2.3-1.2,3.8-1.2c1.1,0,2.1,0.2,3,0.7
			c0.8,0.5,1.6,1.1,2.1,2c0.6,0.9,1,1.9,1.3,3.1c0.3,1.2,0.5,2.9,0.5,5c0,2.5-0.3,4.5-0.8,6c-0.5,1.5-1.3,2.7-2.3,3.5
			c-1,0.8-2.3,1.2-3.8,1.2c-2,0-3.6-0.7-4.8-2.2C288.8,169.5,288.1,166.7,288.1,162.8z M290.7,162.8c0,3.4,0.4,5.7,1.2,6.9
			c0.8,1.1,1.8,1.7,3,1.7s2.2-0.6,3-1.7s1.2-3.4,1.2-6.9c0-3.5-0.4-5.8-1.2-6.9c-0.8-1.1-1.8-1.7-3-1.7c-1.2,0-2.1,0.5-2.8,1.5
			C291.2,156.9,290.7,159.3,290.7,162.8z"/>
		<path class="st8" d="M304.9,157.2c0-1.5,0.4-2.8,1.1-3.8c0.8-1,1.8-1.6,3.3-1.6c1.3,0,2.4,0.5,3.3,1.4s1.3,2.3,1.3,4.1
			c0,1.8-0.4,3.1-1.3,4.1c-0.9,1-2,1.4-3.2,1.4c-1.3,0-2.3-0.5-3.2-1.4C305.3,160.5,304.9,159.1,304.9,157.2z M309.4,153.5
			c-0.6,0-1.2,0.3-1.6,0.8c-0.4,0.6-0.6,1.6-0.6,3.1c0,1.3,0.2,2.3,0.6,2.8s1,0.8,1.6,0.8c0.6,0,1.2-0.3,1.6-0.8
			c0.4-0.6,0.6-1.6,0.6-3c0-1.4-0.2-2.3-0.6-2.9S310,153.5,309.4,153.5z M309.4,173.9l11.5-22.1h2.1l-11.4,22.1H309.4z M318.5,168.2
			c0-1.5,0.4-2.8,1.1-3.8c0.8-1,1.9-1.6,3.3-1.6c1.3,0,2.4,0.5,3.3,1.4c0.9,0.9,1.3,2.3,1.3,4.1c0,1.8-0.4,3.1-1.3,4.1
			s-2,1.4-3.2,1.4c-1.3,0-2.3-0.5-3.2-1.4C318.9,171.5,318.5,170.1,318.5,168.2z M323,164.6c-0.6,0-1.2,0.3-1.6,0.8
			c-0.4,0.6-0.6,1.6-0.6,3.1c0,1.3,0.2,2.3,0.6,2.8s1,0.8,1.6,0.8c0.7,0,1.2-0.3,1.6-0.8c0.4-0.6,0.6-1.6,0.6-3
			c0-1.4-0.2-2.3-0.6-2.9C324.2,164.8,323.6,164.6,323,164.6z"/>
	</g>
</g>
<g transform="translate(1137.0001,416.8667)">
	<g class="st1">
		<path class="st8" d="M218.7,176.1l8.9-23.1h3.3l9.5,23.1h-3.5l-2.7-7h-9.7l-2.5,7H218.7z M225.4,166.6h7.8l-2.4-6.4
			c-0.7-1.9-1.3-3.5-1.6-4.8c-0.3,1.5-0.7,3-1.2,4.4L225.4,166.6z"/>
		<path class="st8" d="M253.3,170l2.8,0.4c-0.3,1.9-1.1,3.4-2.3,4.5c-1.3,1.1-2.8,1.6-4.6,1.6c-2.3,0-4.1-0.7-5.5-2.2
			c-1.4-1.5-2.1-3.6-2.1-6.4c0-1.8,0.3-3.4,0.9-4.7c0.6-1.4,1.5-2.4,2.7-3s2.6-1,4-1c1.8,0,3.3,0.5,4.5,1.4c1.2,0.9,1.9,2.2,2.2,3.9
			l-2.8,0.4c-0.3-1.1-0.7-2-1.4-2.5c-0.7-0.6-1.5-0.9-2.4-0.9c-1.4,0-2.6,0.5-3.5,1.5c-0.9,1-1.3,2.6-1.3,4.9c0,2.2,0.4,3.9,1.3,4.9
			c0.9,1,2,1.5,3.4,1.5c1.1,0,2-0.3,2.8-1C252.6,172.4,253.1,171.4,253.3,170z"/>
		<path class="st8" d="M269.5,170l2.8,0.4c-0.3,1.9-1.1,3.4-2.3,4.5c-1.3,1.1-2.8,1.6-4.6,1.6c-2.3,0-4.1-0.7-5.5-2.2
			s-2.1-3.6-2.1-6.4c0-1.8,0.3-3.4,0.9-4.7c0.6-1.4,1.5-2.4,2.7-3s2.6-1,4-1c1.8,0,3.3,0.5,4.5,1.4c1.2,0.9,1.9,2.2,2.2,3.9
			l-2.8,0.4c-0.3-1.1-0.7-2-1.4-2.5c-0.7-0.6-1.5-0.9-2.4-0.9c-1.4,0-2.6,0.5-3.5,1.5c-0.9,1-1.3,2.6-1.3,4.9c0,2.2,0.4,3.9,1.3,4.9
			s2,1.5,3.4,1.5c1.1,0,2-0.3,2.8-1C268.8,172.4,269.3,171.4,269.5,170z"/>
		<path class="st8" d="M285.6,176.1v-2.5c-1.3,1.9-3.1,2.8-5.3,2.8c-1,0-1.9-0.2-2.8-0.6s-1.5-0.9-1.9-1.4s-0.7-1.3-0.9-2.1
			c-0.1-0.6-0.2-1.4-0.2-2.6v-10.4h2.8v9.3c0,1.5,0.1,2.5,0.2,3c0.2,0.7,0.6,1.3,1.1,1.8c0.6,0.4,1.3,0.6,2.1,0.6
			c0.9,0,1.6-0.2,2.4-0.7c0.7-0.4,1.3-1,1.6-1.8c0.3-0.8,0.5-1.8,0.5-3.3v-9h2.8v16.7H285.6z"/>
		<path class="st8" d="M292.6,176.1v-16.7h2.6v2.5c0.7-1.2,1.3-2,1.8-2.3c0.6-0.4,1.2-0.6,1.8-0.6c1,0,1.9,0.3,2.9,0.9l-1,2.6
			c-0.7-0.4-1.4-0.6-2.1-0.6c-0.6,0-1.2,0.2-1.7,0.6c-0.5,0.4-0.8,0.9-1.1,1.6c-0.3,1-0.5,2.1-0.5,3.3v8.8H292.6z"/>
		<path class="st8" d="M314.3,174c-1.1,0.9-2.1,1.5-3,1.9s-2,0.6-3.1,0.6c-1.8,0-3.3-0.4-4.2-1.3c-1-0.9-1.5-2-1.5-3.4
			c0-0.8,0.2-1.6,0.6-2.2c0.4-0.7,0.9-1.2,1.5-1.6c0.6-0.4,1.3-0.7,2-0.9c0.6-0.1,1.4-0.3,2.5-0.4c2.3-0.3,4-0.6,5.1-1
			c0-0.4,0-0.6,0-0.7c0-1.2-0.3-2-0.8-2.4c-0.7-0.6-1.8-1-3.2-1c-1.3,0-2.3,0.2-3,0.7c-0.6,0.5-1.1,1.3-1.4,2.5l-2.8-0.4
			c0.3-1.2,0.7-2.1,1.2-2.9c0.6-0.7,1.4-1.3,2.5-1.7c1.1-0.4,2.4-0.6,3.8-0.6c1.4,0,2.6,0.2,3.5,0.5c0.9,0.3,1.5,0.8,2,1.3
			s0.7,1.2,0.9,1.9c0.1,0.5,0.1,1.4,0.1,2.6v3.8c0,2.6,0.1,4.3,0.2,5c0.1,0.7,0.4,1.4,0.7,2h-3C314.6,175.5,314.4,174.8,314.3,174z
			 M314,167.7c-1,0.4-2.6,0.8-4.6,1.1c-1.2,0.2-2,0.4-2.5,0.6c-0.5,0.2-0.9,0.5-1.1,0.9s-0.4,0.9-0.4,1.3c0,0.8,0.3,1.4,0.9,1.9
			s1.4,0.8,2.5,0.8c1.1,0,2.1-0.2,2.9-0.7s1.5-1.1,1.9-2c0.3-0.6,0.5-1.6,0.5-2.8V167.7z"/>
		<path class="st8" d="M332.2,170l2.8,0.4c-0.3,1.9-1.1,3.4-2.3,4.5c-1.3,1.1-2.8,1.6-4.6,1.6c-2.3,0-4.1-0.7-5.5-2.2
			c-1.4-1.5-2.1-3.6-2.1-6.4c0-1.8,0.3-3.4,0.9-4.7c0.6-1.4,1.5-2.4,2.7-3s2.6-1,4-1c1.8,0,3.3,0.5,4.5,1.4c1.2,0.9,1.9,2.2,2.2,3.9
			l-2.8,0.4c-0.3-1.1-0.7-2-1.4-2.5c-0.7-0.6-1.5-0.9-2.4-0.9c-1.4,0-2.6,0.5-3.5,1.5c-0.9,1-1.3,2.6-1.3,4.9c0,2.2,0.4,3.9,1.3,4.9
			c0.9,1,2,1.5,3.4,1.5c1.1,0,2-0.3,2.8-1C331.6,172.4,332,171.4,332.2,170z"/>
		<path class="st8" d="M337.3,182.6l-0.3-2.7c0.6,0.2,1.2,0.3,1.6,0.3c0.6,0,1.1-0.1,1.5-0.3c0.4-0.2,0.7-0.5,0.9-0.9
			c0.2-0.3,0.5-1,0.9-2.1c0.1-0.2,0.1-0.4,0.3-0.7l-6.3-16.8h3.1l3.5,9.7c0.5,1.2,0.9,2.5,1.2,3.9c0.3-1.3,0.7-2.6,1.2-3.8l3.6-9.8
			h2.8l-6.4,17c-0.7,1.8-1.2,3.1-1.6,3.8c-0.5,0.9-1.1,1.6-1.7,2.1s-1.4,0.7-2.3,0.7C338.6,182.9,338,182.8,337.3,182.6z"/>
	</g>
</g>
<g>
	<line class="st7" x1="1270.3" y1="512.1" x2="1270.3" y2="193.1"/>
	<line class="st7" x1="1270.3" y1="485.5" x2="1273.4" y2="485.5"/>
	<line class="st7" x1="1270.3" y1="352.6" x2="1273.4" y2="352.6"/>
	<line class="st7" x1="1270.3" y1="219.7" x2="1273.4" y2="219.7"/>
</g>
<g transform="translate(976.4667,342.4167)">
	<g class="st1">
		<path class="st8" d="M230.2,147.8v-2.6h7.9v2.6H230.2z"/>
		<path class="st8" d="M240.2,143.8c0-2.5,0.3-4.5,0.8-6c0.5-1.5,1.3-2.7,2.3-3.5c1-0.8,2.3-1.2,3.8-1.2c1.1,0,2.1,0.2,3,0.7
			c0.8,0.5,1.6,1.1,2.1,2c0.6,0.9,1,1.9,1.3,3.1c0.3,1.2,0.5,2.9,0.5,5c0,2.5-0.3,4.5-0.8,6s-1.3,2.7-2.3,3.5
			c-1,0.8-2.3,1.2-3.8,1.2c-2,0-3.6-0.7-4.8-2.2C240.9,150.5,240.2,147.7,240.2,143.8z M242.9,143.8c0,3.4,0.4,5.7,1.2,6.9
			c0.8,1.1,1.8,1.7,3,1.7c1.2,0,2.2-0.6,3-1.7c0.8-1.1,1.2-3.4,1.2-6.9c0-3.5-0.4-5.8-1.2-6.9c-0.8-1.1-1.8-1.7-3-1.7
			c-1.2,0-2.1,0.5-2.8,1.5C243.3,137.9,242.9,140.3,242.9,143.8z"/>
		<path class="st8" d="M258,154.1v-2.9h2.9v2.9H258z"/>
		<path class="st8" d="M264.7,143.8c0-2.5,0.3-4.5,0.8-6c0.5-1.5,1.3-2.7,2.3-3.5c1-0.8,2.3-1.2,3.8-1.2c1.1,0,2.1,0.2,3,0.7
			c0.8,0.5,1.6,1.1,2.1,2c0.6,0.9,1,1.9,1.3,3.1c0.3,1.2,0.5,2.9,0.5,5c0,2.5-0.3,4.5-0.8,6s-1.3,2.7-2.3,3.5
			c-1,0.8-2.3,1.2-3.8,1.2c-2,0-3.6-0.7-4.8-2.2C265.4,150.5,264.7,147.7,264.7,143.8z M267.4,143.8c0,3.4,0.4,5.7,1.2,6.9
			c0.8,1.1,1.8,1.7,3,1.7c1.2,0,2.2-0.6,3-1.7c0.8-1.1,1.2-3.4,1.2-6.9c0-3.5-0.4-5.8-1.2-6.9c-0.8-1.1-1.8-1.7-3-1.7
			c-1.2,0-2.1,0.5-2.8,1.5C267.8,137.9,267.4,140.3,267.4,143.8z"/>
		<path class="st8" d="M281,148.6l2.7-0.2c0.2,1.3,0.7,2.3,1.4,3c0.7,0.7,1.6,1,2.6,1c1.2,0,2.3-0.5,3.2-1.4s1.3-2.2,1.3-3.7
			c0-1.5-0.4-2.6-1.2-3.5c-0.8-0.8-1.9-1.3-3.2-1.3c-0.8,0-1.6,0.2-2.2,0.6c-0.7,0.4-1.2,0.9-1.6,1.5l-2.4-0.3l2-10.8H294v2.5h-8.4
			l-1.1,5.6c1.3-0.9,2.6-1.3,4-1.3c1.8,0,3.4,0.6,4.6,1.9c1.3,1.3,1.9,2.9,1.9,4.9c0,1.9-0.6,3.5-1.7,4.9c-1.3,1.7-3.2,2.5-5.5,2.5
			c-1.9,0-3.5-0.5-4.7-1.6S281.2,150.4,281,148.6z"/>
	</g>
</g>
<g transform="translate(976.4667,209.5)">
	<text transform="matrix(1 0 0 1 272.2553 154.1064)" class="st8 st9 st10">0</text>
</g>
<g transform="translate(976.4667,76.5833)">
	<g class="st1">
		<path class="st8" d="M239.5,143.8c0-2.5,0.3-4.5,0.8-6s1.3-2.7,2.3-3.5s2.3-1.2,3.8-1.2c1.1,0,2.1,0.2,3,0.7
			c0.8,0.5,1.6,1.1,2.1,2s1,1.9,1.3,3.1c0.3,1.2,0.5,2.9,0.5,5c0,2.5-0.3,4.5-0.8,6c-0.5,1.5-1.3,2.7-2.3,3.5
			c-1,0.8-2.3,1.2-3.8,1.2c-2,0-3.6-0.7-4.8-2.2C240.2,150.5,239.5,147.7,239.5,143.8z M242.1,143.8c0,3.4,0.4,5.7,1.2,6.9
			c0.8,1.1,1.8,1.7,3,1.7s2.2-0.6,3-1.7s1.2-3.4,1.2-6.9c0-3.5-0.4-5.8-1.2-6.9c-0.8-1.1-1.8-1.7-3-1.7c-1.2,0-2.1,0.5-2.8,1.5
			C242.6,137.9,242.1,140.3,242.1,143.8z"/>
		<path class="st8" d="M257.2,154.1v-2.9h2.9v2.9H257.2z"/>
		<path class="st8" d="M263.9,143.8c0-2.5,0.3-4.5,0.8-6c0.5-1.5,1.3-2.7,2.3-3.5c1-0.8,2.3-1.2,3.8-1.2c1.1,0,2.1,0.2,3,0.7
			c0.8,0.5,1.6,1.1,2.1,2c0.6,0.9,1,1.9,1.3,3.1c0.3,1.2,0.5,2.9,0.5,5c0,2.5-0.3,4.5-0.8,6s-1.3,2.7-2.3,3.5
			c-1,0.8-2.3,1.2-3.8,1.2c-2,0-3.6-0.7-4.8-2.2C264.6,150.5,263.9,147.7,263.9,143.8z M266.6,143.8c0,3.4,0.4,5.7,1.2,6.9
			c0.8,1.1,1.8,1.7,3,1.7c1.2,0,2.2-0.6,3-1.7c0.8-1.1,1.2-3.4,1.2-6.9c0-3.5-0.4-5.8-1.2-6.9c-0.8-1.1-1.8-1.7-3-1.7
			c-1.2,0-2.1,0.5-2.8,1.5C267,137.9,266.6,140.3,266.6,143.8z"/>
		<path class="st8" d="M280.2,148.6l2.7-0.2c0.2,1.3,0.7,2.3,1.4,3c0.7,0.7,1.6,1,2.6,1c1.2,0,2.3-0.5,3.2-1.4s1.3-2.2,1.3-3.7
			c0-1.5-0.4-2.6-1.2-3.5c-0.8-0.8-1.9-1.3-3.2-1.3c-0.8,0-1.6,0.2-2.2,0.6c-0.7,0.4-1.2,0.9-1.6,1.5l-2.4-0.3l2-10.8h10.4v2.5h-8.4
			l-1.1,5.6c1.3-0.9,2.6-1.3,4-1.3c1.8,0,3.4,0.6,4.6,1.9c1.3,1.3,1.9,2.9,1.9,4.9c0,1.9-0.6,3.5-1.7,4.9c-1.3,1.7-3.2,2.5-5.5,2.5
			c-1.9,0-3.5-0.5-4.7-1.6S280.4,150.4,280.2,148.6z"/>
	</g>
</g>
<g>
	<path class="st0" d="M791.3,512.1h304v-319h-304V512.1z"/>
</g>
<g transform="translate(737.0007,43.95)">
	<g class="st1">
		<path d="M111.9,134.1V111h15.6v2.7H115v7.2h10.8v2.7H115v10.5H111.9z"/>
		<path d="M131.1,134.1v-16.7h2.6v2.5c0.7-1.2,1.3-2,1.8-2.3c0.6-0.4,1.2-0.6,1.8-0.6c1,0,1.9,0.3,2.9,0.9l-1,2.6
			c-0.7-0.4-1.4-0.6-2.1-0.6c-0.6,0-1.2,0.2-1.7,0.6s-0.8,0.9-1.1,1.6c-0.3,1-0.5,2.1-0.5,3.3v8.8H131.1z"/>
		<path d="M153.3,128.7l2.9,0.4c-0.5,1.7-1.3,3-2.6,4s-2.8,1.4-4.8,1.4c-2.4,0-4.4-0.8-5.8-2.3c-1.4-1.5-2.2-3.6-2.2-6.3
			c0-2.8,0.7-5,2.2-6.6c1.4-1.6,3.3-2.3,5.6-2.3c2.2,0,4.1,0.8,5.5,2.3c1.4,1.5,2.1,3.7,2.1,6.4c0,0.2,0,0.4,0,0.8h-12.5
			c0.1,1.8,0.6,3.2,1.6,4.2c0.9,1,2.1,1.5,3.5,1.5c1,0,1.9-0.3,2.7-0.8C152.3,130.8,152.9,129.9,153.3,128.7z M144,124.1h9.3
			c-0.1-1.4-0.5-2.5-1.1-3.2c-0.9-1.1-2.1-1.6-3.5-1.6c-1.3,0-2.4,0.4-3.3,1.3S144.1,122.7,144,124.1z"/>
		<path d="M171.2,128.7l2.9,0.4c-0.5,1.7-1.3,3-2.6,4s-2.8,1.4-4.8,1.4c-2.4,0-4.4-0.8-5.8-2.3c-1.4-1.5-2.2-3.6-2.2-6.3
			c0-2.8,0.7-5,2.2-6.6c1.4-1.6,3.3-2.3,5.6-2.3c2.2,0,4.1,0.8,5.5,2.3c1.4,1.5,2.1,3.7,2.1,6.4c0,0.2,0,0.4,0,0.8h-12.5
			c0.1,1.8,0.6,3.2,1.6,4.2c0.9,1,2.1,1.5,3.5,1.5c1,0,1.9-0.3,2.7-0.8C170.2,130.8,170.8,129.9,171.2,128.7z M161.9,124.1h9.3
			c-0.1-1.4-0.5-2.5-1.1-3.2c-0.9-1.1-2.1-1.6-3.5-1.6c-1.3,0-2.4,0.4-3.3,1.3S162,122.7,161.9,124.1z"/>
		<path d="M191.3,134.1l-6.4-16.7h3l3.6,10c0.4,1.1,0.7,2.2,1.1,3.4c0.3-0.9,0.6-1.9,1.1-3.2l3.7-10.2h2.9l-6.3,16.7H191.3z"/>
		<path d="M202.8,114.3V111h2.8v3.3H202.8z M202.8,134.1v-16.7h2.8v16.7H202.8z"/>
		<path d="M221.4,128.7l2.9,0.4c-0.5,1.7-1.3,3-2.6,4s-2.8,1.4-4.8,1.4c-2.4,0-4.4-0.8-5.8-2.3c-1.4-1.5-2.2-3.6-2.2-6.3
			c0-2.8,0.7-5,2.2-6.6c1.4-1.6,3.3-2.3,5.6-2.3c2.2,0,4.1,0.8,5.5,2.3c1.4,1.5,2.1,3.7,2.1,6.4c0,0.2,0,0.4,0,0.8H212
			c0.1,1.8,0.6,3.2,1.6,4.2c0.9,1,2.1,1.5,3.5,1.5c1,0,1.9-0.3,2.7-0.8C220.4,130.8,221,129.9,221.4,128.7z M212.1,124.1h9.3
			c-0.1-1.4-0.5-2.5-1.1-3.2c-0.9-1.1-2.1-1.6-3.5-1.6c-1.3,0-2.4,0.4-3.3,1.3S212.2,122.7,212.1,124.1z"/>
		<path d="M231,134.1l-5.1-16.7h2.9l2.7,9.7l1,3.6c0-0.2,0.3-1.3,0.9-3.5l2.7-9.8h2.9l2.5,9.7l0.8,3.2l1-3.2l2.9-9.7h2.8l-5.2,16.7
			h-2.9l-2.7-10l-0.6-2.9l-3.4,12.9H231z"/>
		<path d="M251.3,114.3V111h2.8v3.3H251.3z M251.3,134.1v-16.7h2.8v16.7H251.3z"/>
		<path d="M258.4,134.1v-16.7h2.6v2.4c1.2-1.8,3-2.8,5.3-2.8c1,0,1.9,0.2,2.8,0.5c0.8,0.4,1.5,0.8,1.9,1.4c0.4,0.6,0.7,1.3,0.9,2.1
			c0.1,0.5,0.2,1.4,0.2,2.8v10.3h-2.8v-10.2c0-1.2-0.1-2-0.3-2.6c-0.2-0.6-0.6-1-1.2-1.4c-0.6-0.3-1.2-0.5-2-0.5
			c-1.2,0-2.3,0.4-3.1,1.2s-1.3,2.2-1.3,4.4v9.1H258.4z"/>
		<path d="M275.8,135.5l2.8,0.4c0.1,0.9,0.4,1.5,1,1.9c0.7,0.5,1.7,0.8,2.9,0.8c1.3,0,2.3-0.3,3-0.8c0.7-0.5,1.2-1.3,1.5-2.2
			c0.1-0.6,0.2-1.8,0.2-3.6c-1.2,1.5-2.8,2.2-4.6,2.2c-2.3,0-4.1-0.8-5.3-2.5s-1.9-3.6-1.9-6c0-1.6,0.3-3.1,0.9-4.4
			c0.6-1.3,1.4-2.4,2.5-3.1c1.1-0.7,2.4-1.1,3.9-1.1c2,0,3.6,0.8,4.9,2.4v-2h2.6v14.5c0,2.6-0.3,4.5-0.8,5.5
			c-0.5,1.1-1.4,1.9-2.5,2.6c-1.2,0.6-2.6,0.9-4.2,0.9c-2,0-3.6-0.4-4.8-1.3S275.8,137.3,275.8,135.5z M278.2,125.4
			c0,2.2,0.4,3.8,1.3,4.8c0.9,1,2,1.5,3.3,1.5c1.3,0,2.4-0.5,3.3-1.5c0.9-1,1.3-2.6,1.3-4.7c0-2-0.5-3.6-1.4-4.6
			c-0.9-1-2-1.6-3.3-1.6c-1.3,0-2.3,0.5-3.2,1.5C278.6,121.9,278.2,123.4,278.2,125.4z"/>
	</g>
</g>
<g>
	<line class="st2" x1="791.3" y1="352.6" x2="1095.3" y2="352.6"/>
</g>
<g>
	<path class="st11" d="M796.6,352.5L796.6,352.5l2.5,0.1h2.5h2.5h2.5h2.5h2.5h2.5h2.5h2.5h2.5h2.5h2.5h2.5h2.5h2.5h2.5h2.5h2.5h2.5
		h2.5h2.5h2.5h2.5h2.5h2.5h2.5h2.5h2.5h2.5h2.5h2.5h2.5h2.5h2.5h2.5h2.5h2.5h2.5h2.5h2.5h2.5h2.5h2.5h2.5h2.5h2.5h2.5h2.5h2.5h2.5
		h2.5h2.5h2.5h2.5h2.5h2.5h2.5h2.5h2.5h2.5h2.5h2.5h2.5h2.5h2.5h2.5h2.5h2.5h2.5h2.5h2.5h2.5h2.5h2.5h2.5h2.5h2.5h2.5h2.5h2.5h2.5
		h2.5h2.5h2.5h2.5h2.5h2.5h2.5h2.5h2.5h2.5h2.5h2.5h2.5h2.5h2.5h2.5h2.5h2.5v-0.2l-2.5-0.1l-2.5-0.2l-2.5-0.3l-2.5-0.4l-2.5-0.5
		l-2.5-0.7l-2.5-0.9l-2.5-1.2l-2.5-1.5l-2.5-1.8l-2.5-2.3l-2.5-2.7l-2.5-3.2l-2.5-3.8l-2.5-4.3l-2.5-4.9l-2.5-5.4l-2.5-6l-2.5-6.5
		l-2.5-6.9l-2.5-7.3l-2.5-7.6l-2.5-7.9l-2.5-8l-2.5-8.1l-2.5-8.1l-2.5-8l-2.5-7.8l-2.5-7.4l-2.5-6.9l-2.5-6.3l-2.5-5.6l-2.5-4.7
		l-2.5-3.7l-2.5-2.6l-2.5-1.5l-2.5-0.3l-2.5,0.9l-2.5,2.1l-2.5,3.2l-2.5,4.2l-2.5,5.1l-2.5,5.8l-2.5,6.3l-2.5,6.6l-2.5,6.7l-2.5,6.5
		l-2.5,6.2l-2.5,5.7l-2.5,5l-2.5,4.3l-2.5,3.4l-2.5,2.6l-2.5,1.7l-2.5,0.9l-2.5,0.2l-2.5-0.3l-2.5-0.7l-2.5-0.9l-2.5-0.9l-2.5-0.8
		l-2.5-0.5l-2.5-0.1l-2.5,0.5l-2.5,1.1l-2.5,1.7l-2.5,2.3l-2.5,3l-2.5,3.5l-2.5,4l-2.5,4.4l-2.5,4.7l-2.5,4.9l-2.5,4.9l-2.5,4.9
		l-2.5,4.8l-2.5,4.6l-2.5,4.3l-2.5,4l-2.5,3.7l-2.5,3.3l-2.5,3l-2.5,2.6l-2.5,2.3l-2.5,1.9l-2.5,1.6l-2.5,1.4l-2.5,1.1l-2.5,0.9
		l-2.5,0.7l-2.5,0.6l-2.5,0.5l-2.5,0.3l-2.5,0.3l-2.5,0.2l-2.5,0.1l-2.5,0.1l-2.5,0.1L796.6,352.5z"/>
</g>
<g>
	<path class="st12" d="M796.6,352.6h2.5h2.5h2.5h2.5h2.5h2.5h2.5h2.5h2.5h2.5h2.5h2.5h2.5h2.5h2.5h2.5h2.5h2.5h2.5h2.5h2.5h2.5h2.5
		h2.5h2.5h2.5h2.5h2.5h2.5h2.5h2.5h2.5h2.5h2.5h2.5h2.5h2.5h2.5h2.5h2.5h2.5h2.5h2.5h2.5h2.5h2.5h2.5h2.5h2.5h2.5h2.5h2.5h2.5h2.5
		h2.5h2.5h2.5h2.5h2.5h2.5h2.5h2.5h2.5h2.5h2.5h2.5h2.5h2.5h2.5h2.5h2.5h2.5h2.5h2.5h2.5h2.5h2.5h2.5h2.5h2.5h2.5h2.5h2.5h2.5h2.5
		h2.5h2.5h2.5h2.5h2.5h2.5h2.5h2.5h2.5h2.5h2.5h2.5h2.5h2.5v-0.2l-2.5-0.1l-2.5-0.2l-2.5-0.3l-2.5-0.4l-2.5-0.5l-2.5-0.7l-2.5-0.9
		l-2.5-1.2l-2.5-1.5l-2.5-1.8l-2.5-2.3l-2.5-2.7l-2.5-3.2l-2.5-3.8l-2.5-4.3l-2.5-4.9l-2.5-5.4l-2.5-6l-2.5-6.5l-2.5-6.9l-2.5-7.3
		l-2.5-7.6l-2.5-7.9l-2.5-8l-2.5-8.1l-2.5-8.1l-2.5-8l-2.5-7.8l-2.5-7.4l-2.5-6.9l-2.5-6.3l-2.5-5.6l-2.5-4.7l-2.5-3.7l-2.5-2.6
		l-2.5-1.5l-2.5-0.3l-2.5,0.9l-2.5,2.1l-2.5,3.2l-2.5,4.2l-2.5,5.1l-2.5,5.8l-2.5,6.3l-2.5,6.6l-2.5,6.7l-2.5,6.5l-2.5,6.2l-2.5,5.7
		l-2.5,5l-2.5,4.3l-2.5,3.4l-2.5,2.6l-2.5,1.7l-2.5,0.9l-2.5,0.2l-2.5-0.3l-2.5-0.7l-2.5-0.9l-2.5-0.9l-2.5-0.8l-2.5-0.5l-2.5-0.1
		l-2.5,0.5l-2.5,1.1l-2.5,1.7l-2.5,2.3l-2.5,3l-2.5,3.5l-2.5,4l-2.5,4.4l-2.5,4.7l-2.5,4.9l-2.5,4.9l-2.5,4.9l-2.5,4.8l-2.5,4.6
		l-2.5,4.3l-2.5,4l-2.5,3.7l-2.5,3.3l-2.5,3l-2.5,2.6l-2.5,2.3l-2.5,1.9l-2.5,1.6l-2.5,1.4l-2.5,1.1l-2.5,0.9l-2.5,0.7l-2.5,0.6
		l-2.5,0.5l-2.5,0.3l-2.5,0.3l-2.5,0.2l-2.5,0.1l-2.5,0.1l-2.5,0.1L796.6,352.6L796.6,352.6z"/>
</g>
<g transform="translate(756.6162,242.9178)">
	<circle class="st11" cx="206.3" cy="143.1" r="3.7"/>
	<circle class="st11" cx="219.5" cy="134.9" r="3.7"/>
	<circle class="st11" cx="189.2" cy="123.8" r="3.7"/>
	<circle class="st11" cx="179.9" cy="138.6" r="3.7"/>
	<circle class="st11" cx="182.3" cy="138.7" r="3.7"/>
	<circle class="st11" cx="194.1" cy="142.5" r="3.7"/>
	<circle class="st11" cx="200.1" cy="145.1" r="3.7"/>
	<circle class="st11" cx="216.1" cy="129.3" r="3.7"/>
	<circle class="st11" cx="176.1" cy="140.5" r="3.7"/>
	<circle class="st11" cx="229.4" cy="139.2" r="3.7"/>
	<circle class="st11" cx="171.6" cy="133.8" r="3.7"/>
	<circle class="st11" cx="210.5" cy="144.3" r="3.7"/>
	<circle class="st11" cx="154.2" cy="131.8" r="3.7"/>
	<circle class="st11" cx="127.6" cy="142.1" r="3.7"/>
	<circle class="st11" cx="169.4" cy="131.5" r="3.7"/>
	<circle class="st11" cx="189.2" cy="128.8" r="3.7"/>
	<circle class="st11" cx="115.5" cy="143.1" r="3.7"/>
	<circle class="st11" cx="106.9" cy="135.7" r="3.7"/>
	<circle class="st11" cx="201.8" cy="129" r="3.7"/>
	<circle class="st11" cx="197" cy="135.7" r="3.7"/>
	<circle class="st11" cx="119.8" cy="144.4" r="3.7"/>
	<circle class="st11" cx="137.8" cy="132.8" r="3.7"/>
	<circle class="st11" cx="204.2" cy="129.7" r="3.7"/>
	<circle class="st11" cx="228.3" cy="133.3" r="3.7"/>
	<circle class="st11" cx="120.7" cy="123" r="3.7"/>
	<circle class="st11" cx="197" cy="131.5" r="3.7"/>
	<circle class="st11" cx="140" cy="124" r="3.7"/>
	<circle class="st11" cx="138.4" cy="142.3" r="3.7"/>
	<circle class="st11" cx="174.8" cy="142.2" r="3.7"/>
	<circle class="st11" cx="119.3" cy="126.3" r="3.7"/>
	<circle class="st11" cx="230.8" cy="136.1" r="3.7"/>
	<circle class="st11" cx="133.1" cy="141.6" r="3.7"/>
	<circle class="st11" cx="232.6" cy="123.4" r="3.7"/>
	<circle class="st11" cx="95.3" cy="137.3" r="3.7"/>
	<circle class="st11" cx="122" cy="127.6" r="3.7"/>
	<circle class="st11" cx="201.5" cy="128.2" r="3.7"/>
	<circle class="st11" cx="173.7" cy="124.4" r="3.7"/>
	<circle class="st11" cx="187.1" cy="130.7" r="3.7"/>
	<circle class="st11" cx="196.8" cy="127.6" r="3.7"/>
	<circle class="st11" cx="211.7" cy="137.2" r="3.7"/>
	<circle class="st11" cx="145.2" cy="139.1" r="3.7"/>
	<circle class="st11" cx="185" cy="124.1" r="3.7"/>
	<circle class="st11" cx="194.5" cy="135.3" r="3.7"/>
	<circle class="st11" cx="213.4" cy="122.5" r="3.7"/>
</g>
<g>
	<line class="st5" x1="942.7" y1="388.5" x2="942.7" y2="364.6"/>
	<line class="st5" x1="959.7" y1="376.5" x2="989.2" y2="376.5"/>
	<line class="st5" x1="895.8" y1="376.5" x2="851.9" y2="376.5"/>
	<path class="st6" d="M895.8,388.5h63.9v-23.9h-63.9V388.5z"/>
</g>
<g>
	<line class="st7" x1="791.3" y1="512.1" x2="1095.3" y2="512.1"/>
	<line class="st7" x1="791.3" y1="512.1" x2="791.3" y2="508.9"/>
	<line class="st7" x1="943.3" y1="512.1" x2="943.3" y2="508.9"/>
	<line class="st7" x1="1095.3" y1="512.1" x2="1095.3" y2="508.9"/>
</g>
<g transform="translate(585,377.5333)">
	<text transform="matrix(1 0 0 1 199.7553 173.1064)" class="st8 st9 st10">1</text>
</g>
<g transform="translate(737,377.5333)">
	<text transform="matrix(1 0 0 1 199.7553 173.1064)" class="st8 st9 st10">2</text>
</g>
<g transform="translate(889,377.5333)">
	<text transform="matrix(1 0 0 1 199.7553 173.1064)" class="st8 st9 st10">3</text>
</g>
<g transform="translate(737.0001,416.8667)">
	<g class="st1">
		<path class="st8" d="M109.2,176.1V153h3.1l12.1,18.1V153h2.9v23.1h-3.1L112.1,158v18.2H109.2z"/>
		<path class="st8" d="M131.5,168.7l2.9-0.3c0.1,1.2,0.5,2.1,1,2.8c0.5,0.7,1.3,1.3,2.3,1.8s2.2,0.7,3.5,0.7c1.2,0,2.2-0.2,3.1-0.5
			c0.9-0.3,1.6-0.8,2-1.4c0.4-0.6,0.7-1.3,0.7-2c0-0.7-0.2-1.4-0.6-1.9s-1.1-1-2.1-1.4c-0.6-0.2-2-0.6-4.1-1.1s-3.6-1-4.5-1.4
			c-1.1-0.6-1.9-1.3-2.5-2.2c-0.5-0.9-0.8-1.8-0.8-2.9c0-1.2,0.3-2.3,1-3.3c0.7-1,1.6-1.8,2.9-2.3s2.7-0.8,4.2-0.8
			c1.7,0,3.2,0.3,4.5,0.8s2.3,1.4,3,2.4c0.7,1.1,1.1,2.3,1.1,3.6l-2.9,0.2c-0.2-1.5-0.7-2.6-1.6-3.3c-0.9-0.7-2.3-1.1-4-1.1
			c-1.8,0-3.2,0.3-4,1c-0.8,0.7-1.3,1.5-1.3,2.4c0,0.8,0.3,1.5,0.9,2c0.6,0.5,2.1,1.1,4.6,1.6c2.5,0.6,4.2,1.1,5.1,1.5
			c1.3,0.6,2.3,1.4,3,2.4c0.6,1,1,2,1,3.3c0,1.2-0.4,2.4-1.1,3.5c-0.7,1.1-1.7,1.9-3,2.5c-1.3,0.6-2.8,0.9-4.5,0.9
			c-2.1,0-3.8-0.3-5.3-0.9c-1.4-0.6-2.5-1.5-3.3-2.8C132,171.6,131.5,170.2,131.5,168.7z"/>
		<path class="st8" d="M153,168.7l2.9-0.3c0.1,1.2,0.5,2.1,1,2.8c0.5,0.7,1.3,1.3,2.3,1.8s2.2,0.7,3.5,0.7c1.2,0,2.2-0.2,3.1-0.5
			c0.9-0.3,1.6-0.8,2-1.4c0.4-0.6,0.7-1.3,0.7-2c0-0.7-0.2-1.4-0.6-1.9s-1.1-1-2.1-1.4c-0.6-0.2-2-0.6-4.1-1.1s-3.6-1-4.5-1.4
			c-1.1-0.6-1.9-1.3-2.5-2.2c-0.5-0.9-0.8-1.8-0.8-2.9c0-1.2,0.3-2.3,1-3.3c0.7-1,1.6-1.8,2.9-2.3s2.7-0.8,4.2-0.8
			c1.7,0,3.2,0.3,4.5,0.8s2.3,1.4,3,2.4c0.7,1.1,1.1,2.3,1.1,3.6l-2.9,0.2c-0.2-1.5-0.7-2.6-1.6-3.3c-0.9-0.7-2.3-1.1-4-1.1
			c-1.8,0-3.2,0.3-4,1c-0.8,0.7-1.3,1.5-1.3,2.4c0,0.8,0.3,1.5,0.9,2c0.6,0.5,2.1,1.1,4.6,1.6c2.5,0.6,4.2,1.1,5.1,1.5
			c1.3,0.6,2.3,1.4,3,2.4c0.6,1,1,2,1,3.3c0,1.2-0.4,2.4-1.1,3.5c-0.7,1.1-1.7,1.9-3,2.5c-1.3,0.6-2.8,0.9-4.5,0.9
			c-2.1,0-3.8-0.3-5.3-0.9c-1.4-0.6-2.5-1.5-3.3-2.8C153.5,171.6,153.1,170.2,153,168.7z"/>
		<path class="st8" d="M183.1,171.1l2.8-0.4c0.2,1.1,0.6,2,1.3,2.6c0.7,0.6,1.7,0.9,3,0.9c1.3,0,2.3-0.3,2.9-0.8
			c0.6-0.5,0.9-1.2,0.9-1.9c0-0.6-0.3-1.1-0.8-1.5c-0.4-0.3-1.4-0.6-2.9-1c-2.1-0.5-3.5-1-4.3-1.4c-0.8-0.4-1.4-0.9-1.8-1.6
			s-0.6-1.4-0.6-2.2c0-0.7,0.2-1.4,0.5-2.1s0.8-1.2,1.4-1.6c0.4-0.3,1-0.6,1.8-0.8c0.8-0.2,1.6-0.3,2.4-0.3c1.3,0,2.5,0.2,3.5,0.6
			c1,0.4,1.7,0.9,2.2,1.5c0.5,0.6,0.8,1.5,1,2.6l-2.8,0.4c-0.1-0.9-0.5-1.5-1.1-2c-0.6-0.5-1.5-0.7-2.6-0.7c-1.3,0-2.2,0.2-2.8,0.6
			s-0.8,0.9-0.8,1.5c0,0.4,0.1,0.7,0.3,1c0.2,0.3,0.6,0.6,1.1,0.8c0.3,0.1,1.1,0.3,2.5,0.7c2,0.5,3.4,1,4.2,1.3
			c0.8,0.3,1.4,0.8,1.9,1.5c0.5,0.7,0.7,1.5,0.7,2.4c0,0.9-0.3,1.8-0.8,2.7c-0.6,0.8-1.3,1.5-2.4,1.9c-1,0.5-2.2,0.7-3.5,0.7
			c-2.2,0-3.8-0.5-5-1.4C184.1,174.2,183.4,172.9,183.1,171.1z"/>
		<path class="st8" d="M200.3,156.3V153h2.8v3.3H200.3z M200.3,176.1v-16.7h2.8v16.7H200.3z"/>
		<path class="st8" d="M207.5,176.1v-16.7h2.5v2.3c0.5-0.8,1.2-1.5,2.1-2c0.9-0.5,1.9-0.8,3-0.8c1.2,0,2.3,0.3,3,0.8
			c0.8,0.5,1.4,1.2,1.7,2.2c1.3-2,3-2.9,5.2-2.9c1.7,0,2.9,0.5,3.8,1.4c0.9,0.9,1.3,2.3,1.3,4.2v11.5h-2.8v-10.5
			c0-1.1-0.1-2-0.3-2.4c-0.2-0.5-0.5-0.9-1-1.2c-0.5-0.3-1.1-0.5-1.7-0.5c-1.2,0-2.2,0.4-2.9,1.2c-0.8,0.8-1.2,2-1.2,3.8v9.7h-2.8
			v-10.9c0-1.3-0.2-2.2-0.7-2.8c-0.5-0.6-1.2-0.9-2.3-0.9c-0.8,0-1.5,0.2-2.2,0.6c-0.7,0.4-1.2,1-1.5,1.8c-0.3,0.8-0.5,2-0.5,3.5
			v8.7H207.5z"/>
		<path class="st8" d="M234.4,156.3V153h2.8v3.3H234.4z M234.4,176.1v-16.7h2.8v16.7H234.4z"/>
		<path class="st8" d="M241.5,176.1V153h2.8v23.1H241.5z"/>
		<path class="st8" d="M259.6,174c-1.1,0.9-2.1,1.5-3,1.9c-1,0.4-2,0.6-3.1,0.6c-1.8,0-3.3-0.4-4.2-1.3c-1-0.9-1.5-2-1.5-3.4
			c0-0.8,0.2-1.6,0.6-2.2c0.4-0.7,0.9-1.2,1.5-1.6c0.6-0.4,1.3-0.7,2-0.9c0.6-0.1,1.4-0.3,2.5-0.4c2.3-0.3,4-0.6,5.1-1
			c0-0.4,0-0.6,0-0.7c0-1.2-0.3-2-0.8-2.4c-0.7-0.6-1.8-1-3.2-1c-1.3,0-2.3,0.2-3,0.7c-0.6,0.5-1.1,1.3-1.4,2.5l-2.8-0.4
			c0.3-1.2,0.7-2.1,1.2-2.9s1.4-1.3,2.5-1.7s2.4-0.6,3.8-0.6c1.4,0,2.6,0.2,3.5,0.5c0.9,0.3,1.5,0.8,2,1.3c0.4,0.5,0.7,1.2,0.9,1.9
			c0.1,0.5,0.1,1.4,0.1,2.6v3.8c0,2.6,0.1,4.3,0.2,5c0.1,0.7,0.4,1.4,0.7,2h-3C259.9,175.5,259.7,174.8,259.6,174z M259.4,167.7
			c-1,0.4-2.6,0.8-4.6,1.1c-1.2,0.2-2,0.4-2.5,0.6c-0.5,0.2-0.9,0.5-1.1,0.9c-0.3,0.4-0.4,0.9-0.4,1.3c0,0.8,0.3,1.4,0.9,1.9
			c0.6,0.5,1.4,0.8,2.5,0.8c1.1,0,2.1-0.2,2.9-0.7c0.9-0.5,1.5-1.1,1.9-2c0.3-0.6,0.5-1.6,0.5-2.8V167.7z"/>
		<path class="st8" d="M266.6,176.1v-16.7h2.6v2.5c0.7-1.2,1.3-2,1.8-2.3c0.6-0.4,1.2-0.6,1.8-0.6c1,0,1.9,0.3,2.9,0.9l-1,2.6
			c-0.7-0.4-1.4-0.6-2.1-0.6c-0.6,0-1.2,0.2-1.7,0.6c-0.5,0.4-0.8,0.9-1.1,1.6c-0.3,1-0.5,2.1-0.5,3.3v8.8H266.6z"/>
		<path class="st8" d="M277.4,156.3V153h2.8v3.3H277.4z M277.4,176.1v-16.7h2.8v16.7H277.4z"/>
		<path class="st8" d="M290.8,173.6l0.4,2.5c-0.8,0.2-1.5,0.3-2.1,0.3c-1,0-1.8-0.2-2.4-0.5c-0.6-0.3-1-0.8-1.2-1.3
			c-0.2-0.5-0.3-1.6-0.3-3.3v-9.6H283v-2.2h2.1v-4.1l2.8-1.7v5.8h2.9v2.2h-2.9v9.8c0,0.8,0,1.3,0.1,1.6c0.1,0.2,0.3,0.4,0.5,0.6
			s0.5,0.2,1,0.2C289.8,173.7,290.2,173.6,290.8,173.6z"/>
		<path class="st8" d="M293.4,182.6l-0.3-2.7c0.6,0.2,1.2,0.3,1.6,0.3c0.6,0,1.1-0.1,1.5-0.3c0.4-0.2,0.7-0.5,0.9-0.9
			c0.2-0.3,0.5-1,0.9-2.1c0.1-0.2,0.1-0.4,0.3-0.7l-6.3-16.8h3.1l3.5,9.7c0.5,1.2,0.9,2.5,1.2,3.9c0.3-1.3,0.7-2.6,1.2-3.8l3.6-9.8
			h2.8l-6.4,17c-0.7,1.8-1.2,3.1-1.6,3.8c-0.5,0.9-1.1,1.6-1.7,2.1s-1.4,0.7-2.3,0.7C294.7,182.9,294.1,182.8,293.4,182.6z"/>
	</g>
</g>
<g>
	<line class="st7" x1="791.3" y1="512.1" x2="791.3" y2="193.1"/>
	<line class="st7" x1="791.3" y1="452.3" x2="794.4" y2="452.3"/>
	<line class="st7" x1="791.3" y1="352.6" x2="794.4" y2="352.6"/>
	<line class="st7" x1="791.3" y1="252.9" x2="794.4" y2="252.9"/>
</g>
<g transform="translate(576.4667,309.1875)">
	<text transform="matrix(1 0 0 1 183.2553 154.1064)" class="st8 st9 st10">-1</text>
</g>
<g transform="translate(576.4667,209.5)">
	<text transform="matrix(1 0 0 1 193.2553 154.1064)" class="st8 st9 st10">0</text>
</g>
<g transform="translate(576.4667,109.8125)">
	<text transform="matrix(1 0 0 1 193.2553 154.1064)" class="st8 st9 st10">1</text>
</g>
<g transform="translate(549.4667,209.4998) rotate(-90)">
	<g class="st1">
		<path class="st8" d="M-194.6,197.3v-23.1h8c1.8,0,3.2,0.1,4.1,0.3c1.3,0.3,2.5,0.9,3.4,1.7c1.2,1,2.1,2.3,2.7,3.9s0.9,3.4,0.9,5.5
			c0,1.8-0.2,3.3-0.6,4.7c-0.4,1.4-0.9,2.5-1.6,3.4s-1.3,1.6-2.1,2.1s-1.7,0.9-2.8,1.2s-2.3,0.4-3.7,0.4H-194.6z M-191.6,194.5h4.9
			c1.5,0,2.7-0.1,3.6-0.4c0.9-0.3,1.6-0.7,2.1-1.2c0.7-0.7,1.3-1.7,1.7-2.9c0.4-1.2,0.6-2.7,0.6-4.5c0-2.4-0.4-4.3-1.2-5.6
			c-0.8-1.3-1.8-2.2-2.9-2.6c-0.8-0.3-2.1-0.5-4-0.5h-4.9V194.5z"/>
		<path class="st8" d="M-160.2,191.9l2.9,0.4c-0.5,1.7-1.3,3-2.6,4s-2.8,1.4-4.8,1.4c-2.4,0-4.4-0.8-5.8-2.3
			c-1.4-1.5-2.2-3.6-2.2-6.3c0-2.8,0.7-5,2.2-6.6c1.4-1.6,3.3-2.3,5.6-2.3c2.2,0,4.1,0.8,5.5,2.3c1.4,1.5,2.1,3.7,2.1,6.4
			c0,0.2,0,0.4,0,0.8h-12.5c0.1,1.8,0.6,3.2,1.6,4.2s2.1,1.5,3.5,1.5c1,0,1.9-0.3,2.7-0.8C-161.2,193.9-160.7,193.1-160.2,191.9z
			 M-169.5,187.3h9.3c-0.1-1.4-0.5-2.5-1.1-3.2c-0.9-1.1-2.1-1.6-3.5-1.6c-1.3,0-2.4,0.4-3.3,1.3
			C-169,184.7-169.4,185.8-169.5,187.3z"/>
		<path class="st8" d="M-153.7,197.3v-16.7h2.6v2.4c1.2-1.8,3-2.8,5.3-2.8c1,0,1.9,0.2,2.8,0.5c0.8,0.4,1.5,0.8,1.9,1.4
			c0.4,0.6,0.7,1.3,0.9,2.1c0.1,0.5,0.2,1.4,0.2,2.8v10.3h-2.8v-10.2c0-1.2-0.1-2-0.3-2.6c-0.2-0.6-0.6-1-1.2-1.4
			c-0.6-0.3-1.2-0.5-2-0.5c-1.2,0-2.3,0.4-3.1,1.2s-1.3,2.2-1.3,4.4v9.1H-153.7z"/>
		<path class="st8" d="M-136.9,192.3l2.8-0.4c0.2,1.1,0.6,2,1.3,2.6c0.7,0.6,1.7,0.9,3,0.9c1.3,0,2.3-0.3,2.9-0.8
			c0.6-0.5,0.9-1.2,0.9-1.9c0-0.6-0.3-1.1-0.8-1.5c-0.4-0.3-1.4-0.6-2.9-1c-2.1-0.5-3.5-1-4.3-1.4c-0.8-0.4-1.4-0.9-1.8-1.6
			s-0.6-1.4-0.6-2.2c0-0.7,0.2-1.4,0.5-2.1c0.3-0.6,0.8-1.2,1.4-1.6c0.4-0.3,1-0.6,1.8-0.8c0.8-0.2,1.6-0.3,2.4-0.3
			c1.3,0,2.5,0.2,3.5,0.6c1,0.4,1.7,0.9,2.2,1.5s0.8,1.5,1,2.6l-2.8,0.4c-0.1-0.9-0.5-1.5-1.1-2s-1.5-0.7-2.6-0.7
			c-1.3,0-2.2,0.2-2.8,0.6c-0.6,0.4-0.8,0.9-0.8,1.5c0,0.4,0.1,0.7,0.3,1c0.2,0.3,0.6,0.6,1.1,0.8c0.3,0.1,1.1,0.3,2.5,0.7
			c2,0.5,3.4,1,4.2,1.3c0.8,0.3,1.4,0.8,1.9,1.5c0.5,0.7,0.7,1.5,0.7,2.4c0,0.9-0.3,1.8-0.8,2.7s-1.3,1.5-2.4,1.9
			c-1,0.5-2.2,0.7-3.5,0.7c-2.2,0-3.8-0.5-5-1.4C-135.9,195.4-136.6,194-136.9,192.3z"/>
		<path class="st8" d="M-119.6,177.4v-3.3h2.8v3.3H-119.6z M-119.6,197.3v-16.7h2.8v16.7H-119.6z"/>
		<path class="st8" d="M-106.3,194.7l0.4,2.5c-0.8,0.2-1.5,0.3-2.1,0.3c-1,0-1.8-0.2-2.4-0.5c-0.6-0.3-1-0.8-1.2-1.3
			c-0.2-0.5-0.3-1.6-0.3-3.3v-9.6h-2.1v-2.2h2.1v-4.1l2.8-1.7v5.8h2.9v2.2h-2.9v9.8c0,0.8,0,1.3,0.1,1.6c0.1,0.2,0.3,0.4,0.5,0.6
			c0.2,0.1,0.5,0.2,1,0.2C-107.2,194.8-106.8,194.8-106.3,194.7z"/>
		<path class="st8" d="M-103.6,203.7l-0.3-2.7c0.6,0.2,1.2,0.3,1.6,0.3c0.6,0,1.1-0.1,1.5-0.3c0.4-0.2,0.7-0.5,0.9-0.9
			c0.2-0.3,0.5-1,0.9-2.1c0.1-0.2,0.1-0.4,0.3-0.7l-6.3-16.8h3.1l3.5,9.7c0.5,1.2,0.9,2.5,1.2,3.9c0.3-1.3,0.7-2.6,1.2-3.8l3.6-9.8
			h2.8l-6.4,17c-0.7,1.8-1.2,3.1-1.6,3.8c-0.5,0.9-1.1,1.6-1.7,2.1s-1.4,0.7-2.3,0.7C-102.4,204-103,203.9-103.6,203.7z"/>
	</g>
</g>
<g>
	<g>
		<rect x="85.6" y="157.7" class="st13" width="262" height="144.7"/>
	</g>
	
		<image style="overflow:visible;enable-background:new    ;" width="497" height="272" xlink:href="../../../../../Exp3/Presentations/ExperimentDemonstration/fixation.png"  transform="matrix(0.523 0 0 0.523 86.6839 158.9506)">
	</image>
</g>
<g>
	<g>
		<rect x="143.9" y="255.9" class="st13" width="257.9" height="144.7"/>
	</g>
	
		<image style="overflow:visible;enable-background:new    ;" width="497" height="272" xlink:href="../../../../../Exp3/Presentations/ExperimentDemonstration/NM.png"  transform="matrix(0.5167 0 0 0.5283 144.0018 255.9312)">
	</image>
</g>
<circle class="st14" cx="289.8" cy="411.2" r="4.2"/>
<circle class="st14" cx="300.2" cy="421.6" r="4.2"/>
<g>
	<g>
		<g>
			<path class="st15" d="M239.4,595c0-17.6-0.1-52.7-0.1-70.3"/>
			<path class="st15" d="M239.3,524.9c0-3.6-6-5.6-6-9.2"/>
		</g>
		<line class="st16" x1="247.3" y1="594.3" x2="239.4" y2="594.3"/>
	</g>
	<g>
		<g>
			<path class="st15" d="M239.4,437.2c0,17.6-0.1,52.7-0.1,70.3"/>
			<path class="st15" d="M239.3,507.3c0,3.6-6,5.6-6,9.2"/>
		</g>
		<line class="st16" x1="247.3" y1="437.8" x2="239.4" y2="437.8"/>
	</g>
</g>
<g>
	<g>
		<rect x="249.3" y="443.3" class="st13" width="257.9" height="144.7"/>
	</g>
	
		<image style="overflow:visible;enable-background:new    ;" width="497" height="272" xlink:href="../../../../../Exp3/Presentations/ExperimentDemonstration/NM.png"  transform="matrix(0.5167 0 0 0.5283 249.4673 443.3434)">
	</image>
</g>
<g transform="translate(737.0001,416.8667)">
	<g class="st1">
		<path class="st8" d="M-381.5-204v-18.6h3.7l4.4,13.2c0.4,1.2,0.7,2.1,0.9,2.8c0.2-0.7,0.5-1.7,1-3l4.5-12.9h3.3v18.6h-2.4v-15.6
			l-5.4,15.6h-2.2l-5.4-15.8v15.8H-381.5z"/>
		<path class="st8" d="M-360.9-210.7c0-2.5,0.7-4.3,2.1-5.5c1.2-1,2.6-1.5,4.2-1.5c1.9,0,3.4,0.6,4.5,1.8c1.2,1.2,1.8,2.9,1.8,5
			c0,1.7-0.3,3.1-0.8,4.1c-0.5,1-1.3,1.8-2.3,2.3s-2.1,0.8-3.3,0.8c-1.9,0-3.4-0.6-4.6-1.8S-360.9-208.5-360.9-210.7z M-358.6-210.7
			c0,1.7,0.4,3,1.1,3.9c0.8,0.9,1.7,1.3,2.8,1.3c1.1,0,2.1-0.4,2.8-1.3s1.1-2.2,1.1-3.9c0-1.7-0.4-2.9-1.1-3.8
			c-0.8-0.9-1.7-1.3-2.8-1.3c-1.1,0-2.1,0.4-2.8,1.3S-358.6-212.5-358.6-210.7z"/>
		<path class="st8" d="M-345.6-204v-13.5h2.1v1.9c1-1.5,2.4-2.2,4.3-2.2c0.8,0,1.6,0.1,2.2,0.4c0.7,0.3,1.2,0.7,1.5,1.1
			s0.6,1,0.7,1.7c0.1,0.4,0.1,1.2,0.1,2.2v8.3h-2.3v-8.2c0-0.9-0.1-1.6-0.3-2.1c-0.2-0.5-0.5-0.8-0.9-1.1c-0.5-0.3-1-0.4-1.6-0.4
			c-1,0-1.8,0.3-2.5,0.9s-1.1,1.8-1.1,3.5v7.4H-345.6z"/>
		<path class="st8" d="M-331.2-220v-2.6h2.3v2.6H-331.2z M-331.2-204v-13.5h2.3v13.5H-331.2z"/>
		<path class="st8" d="M-320.4-206l0.3,2c-0.6,0.1-1.2,0.2-1.7,0.2c-0.8,0-1.5-0.1-1.9-0.4s-0.8-0.6-1-1c-0.2-0.4-0.3-1.3-0.3-2.7
			v-7.8h-1.7v-1.8h1.7v-3.3l2.3-1.4v4.7h2.3v1.8h-2.3v7.9c0,0.7,0,1.1,0.1,1.3s0.2,0.3,0.4,0.4s0.4,0.2,0.8,0.2
			C-321.2-205.9-320.8-206-320.4-206z"/>
		<path class="st8" d="M-319-210.7c0-2.5,0.7-4.3,2.1-5.5c1.2-1,2.6-1.5,4.2-1.5c1.9,0,3.4,0.6,4.5,1.8c1.2,1.2,1.8,2.9,1.8,5
			c0,1.7-0.3,3.1-0.8,4.1c-0.5,1-1.3,1.8-2.3,2.3s-2.1,0.8-3.3,0.8c-1.9,0-3.4-0.6-4.6-1.8S-319-208.5-319-210.7z M-316.7-210.7
			c0,1.7,0.4,3,1.1,3.9c0.8,0.9,1.7,1.3,2.8,1.3c1.1,0,2.1-0.4,2.8-1.3s1.1-2.2,1.1-3.9c0-1.7-0.4-2.9-1.1-3.8
			c-0.8-0.9-1.7-1.3-2.8-1.3c-1.1,0-2.1,0.4-2.8,1.3S-316.7-212.5-316.7-210.7z"/>
		<path class="st8" d="M-303.7-204v-13.5h2.1v2c0.5-1,1-1.6,1.5-1.9s0.9-0.5,1.5-0.5c0.8,0,1.6,0.2,2.3,0.7l-0.8,2.1
			c-0.6-0.3-1.1-0.5-1.7-0.5c-0.5,0-0.9,0.2-1.3,0.5c-0.4,0.3-0.7,0.7-0.9,1.2c-0.3,0.8-0.4,1.7-0.4,2.7v7.1H-303.7z"/>
		<path class="st8" d="M-285.8-208.3l2.4,0.3c-0.4,1.4-1.1,2.5-2.1,3.2s-2.3,1.1-3.9,1.1c-2,0-3.5-0.6-4.7-1.8
			c-1.2-1.2-1.7-2.9-1.7-5.1c0-2.3,0.6-4,1.8-5.3s2.7-1.9,4.5-1.9c1.8,0,3.3,0.6,4.4,1.8s1.7,3,1.7,5.2c0,0.1,0,0.3,0,0.6h-10.1
			c0.1,1.5,0.5,2.6,1.3,3.4s1.7,1.2,2.8,1.2c0.8,0,1.6-0.2,2.1-0.7S-286.2-207.4-285.8-208.3z M-293.3-212h7.5
			c-0.1-1.1-0.4-2-0.9-2.6c-0.7-0.9-1.7-1.3-2.8-1.3c-1,0-1.9,0.4-2.6,1.1S-293.3-213.2-293.3-212z"/>
		<path class="st8" d="M-271.8-204v-1.7c-0.9,1.3-2.1,2-3.8,2c-1.1,0-2.1-0.3-3-0.9s-1.6-1.4-2.1-2.5c-0.5-1.1-0.7-2.3-0.7-3.7
			c0-1.3,0.2-2.6,0.7-3.7c0.4-1.1,1.1-1.9,2-2.5s1.9-0.9,3-0.9c0.8,0,1.5,0.2,2.2,0.5c0.6,0.3,1.2,0.8,1.5,1.3v-6.7h2.3v18.6H-271.8
			z M-279.1-210.7c0,1.7,0.4,3,1.1,3.9s1.6,1.3,2.6,1.3c1,0,1.8-0.4,2.5-1.2c0.7-0.8,1-2.1,1-3.7c0-1.8-0.4-3.2-1.1-4.1
			s-1.6-1.3-2.6-1.3c-1,0-1.9,0.4-2.5,1.2S-279.1-212.5-279.1-210.7z"/>
		<path class="st8" d="M-258.3-204v-11.7h-2v-1.8h2v-1.3c0-1.3,0.3-2.4,0.9-3.1s1.5-1.1,2.7-1.1c0.8,0,1.6,0.1,2.3,0.3l-0.4,1.9
			c-0.4-0.1-0.9-0.1-1.2-0.1c-0.8,0-1.3,0.2-1.6,0.5s-0.4,1-0.4,2v0.9h2.6v1.8h-2.6v11.7H-258.3z M-251.7-220v-2.6h2.3v2.6H-251.7z
			 M-251.7-204v-13.5h2.3v13.5H-251.7z"/>
		<path class="st8" d="M-247.4-204l4.9-7l-4.6-6.5h2.9l2.1,3.2c0.4,0.6,0.7,1.1,0.9,1.5c0.4-0.6,0.7-1.1,1-1.5l2.3-3.2h2.7l-4.7,6.3
			l5,7.1h-2.8l-2.8-4.2l-0.7-1.1l-3.5,5.3H-247.4z"/>
		<path class="st8" d="M-224.1-205.6c-0.8,0.7-1.7,1.2-2.4,1.5s-1.6,0.4-2.5,0.4c-1.5,0-2.6-0.4-3.4-1.1c-0.8-0.7-1.2-1.6-1.2-2.8
			c0-0.7,0.2-1.3,0.5-1.8c0.3-0.5,0.7-1,1.2-1.3s1-0.6,1.6-0.7c0.4-0.1,1.1-0.2,2-0.3c1.8-0.2,3.2-0.5,4.1-0.8c0-0.3,0-0.5,0-0.6
			c0-0.9-0.2-1.6-0.6-2c-0.6-0.5-1.5-0.8-2.6-0.8c-1.1,0-1.9,0.2-2.4,0.6c-0.5,0.4-0.9,1-1.1,2l-2.2-0.3c0.2-1,0.5-1.7,1-2.3
			c0.5-0.6,1.1-1,2-1.4c0.9-0.3,1.9-0.5,3.1-0.5c1.2,0,2.1,0.1,2.8,0.4s1.2,0.6,1.6,1c0.3,0.4,0.6,0.9,0.7,1.6
			c0.1,0.4,0.1,1.1,0.1,2.1v3c0,2.1,0,3.5,0.1,4c0.1,0.6,0.3,1.1,0.6,1.6h-2.4C-223.9-204.5-224-205-224.1-205.6z M-224.3-210.8
			c-0.8,0.3-2.1,0.6-3.7,0.9c-0.9,0.1-1.6,0.3-2,0.5s-0.7,0.4-0.9,0.7c-0.2,0.3-0.3,0.7-0.3,1.1c0,0.6,0.2,1.1,0.7,1.5
			s1.1,0.6,2,0.6c0.9,0,1.7-0.2,2.3-0.6c0.7-0.4,1.2-0.9,1.5-1.6c0.2-0.5,0.4-1.3,0.4-2.3V-210.8z"/>
		<path class="st8" d="M-213.5-206l0.3,2c-0.6,0.1-1.2,0.2-1.7,0.2c-0.8,0-1.5-0.1-1.9-0.4s-0.8-0.6-1-1c-0.2-0.4-0.3-1.3-0.3-2.7
			v-7.8h-1.7v-1.8h1.7v-3.3l2.3-1.4v4.7h2.3v1.8h-2.3v7.9c0,0.7,0,1.1,0.1,1.3s0.2,0.3,0.4,0.4s0.4,0.2,0.8,0.2
			C-214.2-205.9-213.9-206-213.5-206z"/>
		<path class="st8" d="M-211.2-220v-2.6h2.3v2.6H-211.2z M-211.2-204v-13.5h2.3v13.5H-211.2z"/>
		<path class="st8" d="M-206.3-210.7c0-2.5,0.7-4.3,2.1-5.5c1.2-1,2.6-1.5,4.2-1.5c1.9,0,3.4,0.6,4.5,1.8c1.2,1.2,1.8,2.9,1.8,5
			c0,1.7-0.3,3.1-0.8,4.1c-0.5,1-1.3,1.8-2.3,2.3s-2.1,0.8-3.3,0.8c-1.9,0-3.4-0.6-4.6-1.8S-206.3-208.5-206.3-210.7z M-204-210.7
			c0,1.7,0.4,3,1.1,3.9c0.8,0.9,1.7,1.3,2.8,1.3c1.1,0,2.1-0.4,2.8-1.3s1.1-2.2,1.1-3.9c0-1.7-0.4-2.9-1.1-3.8
			c-0.8-0.9-1.7-1.3-2.8-1.3c-1.1,0-2.1,0.4-2.8,1.3S-204-212.5-204-210.7z"/>
		<path class="st8" d="M-191-204v-13.5h2.1v1.9c1-1.5,2.4-2.2,4.3-2.2c0.8,0,1.6,0.1,2.2,0.4c0.7,0.3,1.2,0.7,1.5,1.1s0.6,1,0.7,1.7
			c0.1,0.4,0.1,1.2,0.1,2.2v8.3h-2.3v-8.2c0-0.9-0.1-1.6-0.3-2.1c-0.2-0.5-0.5-0.8-0.9-1.1c-0.5-0.3-1-0.4-1.6-0.4
			c-1,0-1.8,0.3-2.5,0.9s-1.1,1.8-1.1,3.5v7.4H-191z"/>
		<path class="st8" d="M-325.3-167.3c-1.3-1.6-2.3-3.5-3.2-5.6s-1.3-4.3-1.3-6.6c0-2,0.3-3.9,1-5.8c0.8-2.1,1.9-4.3,3.5-6.4h1.6
			c-1,1.8-1.7,3-2,3.8c-0.5,1.2-0.9,2.4-1.2,3.7c-0.4,1.6-0.5,3.2-0.5,4.8c0,4.1,1.3,8.1,3.8,12.2H-325.3z"/>
		<path class="st8" d="M-321.7-182c0-2.2,0.2-4,0.7-5.3c0.5-1.3,1.1-2.4,2-3.1s2-1.1,3.4-1.1c1,0,1.9,0.2,2.6,0.6
			c0.8,0.4,1.4,1,1.9,1.7c0.5,0.8,0.9,1.7,1.2,2.8c0.3,1.1,0.4,2.6,0.4,4.4c0,2.2-0.2,3.9-0.7,5.3c-0.4,1.3-1.1,2.4-2,3.1
			c-0.9,0.7-2,1.1-3.4,1.1c-1.8,0-3.2-0.6-4.2-1.9C-321.1-175.9-321.7-178.5-321.7-182z M-319.3-182c0,3.1,0.4,5.1,1.1,6.1
			c0.7,1,1.6,1.5,2.6,1.5s1.9-0.5,2.6-1.5s1.1-3,1.1-6.1c0-3.1-0.4-5.1-1.1-6.1s-1.6-1.5-2.7-1.5c-1,0-1.9,0.4-2.5,1.3
			C-318.9-187.1-319.3-185-319.3-182z"/>
		<path class="st8" d="M-305.9-172.8v-2.6h2.6v2.6H-305.9z"/>
		<path class="st8" d="M-300-177.7l2.4-0.2c0.2,1.2,0.6,2,1.2,2.6c0.6,0.6,1.4,0.9,2.3,0.9c1.1,0,2-0.4,2.8-1.2s1.1-1.9,1.1-3.3
			c0-1.3-0.4-2.3-1.1-3.1s-1.7-1.1-2.9-1.1c-0.7,0-1.4,0.2-2,0.5c-0.6,0.3-1.1,0.8-1.4,1.3l-2.1-0.3l1.8-9.6h9.3v2.2h-7.4l-1,5
			c1.1-0.8,2.3-1.2,3.5-1.2c1.6,0,3,0.6,4.1,1.7s1.7,2.6,1.7,4.3c0,1.7-0.5,3.1-1.5,4.4c-1.2,1.5-2.8,2.3-4.9,2.3
			c-1.7,0-3.1-0.5-4.1-1.4S-299.9-176.1-300-177.7z"/>
		<path class="st8" d="M-278.6-176.8l2.3-0.4c0.1,0.9,0.5,1.6,1.1,2.1s1.4,0.7,2.4,0.7c1,0,1.8-0.2,2.3-0.6c0.5-0.4,0.8-0.9,0.8-1.5
			c0-0.5-0.2-0.9-0.7-1.2c-0.3-0.2-1.1-0.5-2.3-0.8c-1.7-0.4-2.8-0.8-3.5-1.1c-0.6-0.3-1.1-0.7-1.5-1.3c-0.3-0.5-0.5-1.1-0.5-1.8
			c0-0.6,0.1-1.2,0.4-1.7c0.3-0.5,0.6-0.9,1.1-1.3c0.4-0.3,0.8-0.5,1.5-0.7c0.6-0.2,1.3-0.3,2-0.3c1.1,0,2,0.2,2.8,0.5
			s1.4,0.7,1.8,1.2c0.4,0.5,0.6,1.2,0.8,2.1l-2.2,0.3c-0.1-0.7-0.4-1.2-0.9-1.6s-1.2-0.6-2.1-0.6c-1,0-1.8,0.2-2.2,0.5
			s-0.7,0.8-0.7,1.2c0,0.3,0.1,0.6,0.3,0.8c0.2,0.2,0.5,0.4,0.9,0.6c0.2,0.1,0.9,0.3,2,0.6c1.6,0.4,2.7,0.8,3.4,1.1
			c0.6,0.3,1.1,0.7,1.5,1.2s0.5,1.2,0.5,2c0,0.8-0.2,1.5-0.7,2.2c-0.4,0.7-1.1,1.2-1.9,1.6c-0.8,0.4-1.8,0.6-2.8,0.6
			c-1.8,0-3.1-0.4-4-1.1S-278.3-175.4-278.6-176.8z"/>
		<path class="st8" d="M-255.5-177.1l2.4,0.3c-0.4,1.4-1.1,2.5-2.1,3.2c-1,0.8-2.3,1.1-3.9,1.1c-2,0-3.5-0.6-4.7-1.8
			c-1.2-1.2-1.7-2.9-1.7-5.1c0-2.3,0.6-4,1.8-5.3s2.7-1.9,4.5-1.9c1.8,0,3.3,0.6,4.4,1.8s1.7,3,1.7,5.2c0,0.1,0,0.3,0,0.6h-10.1
			c0.1,1.5,0.5,2.6,1.3,3.4s1.7,1.2,2.8,1.2c0.8,0,1.6-0.2,2.1-0.7S-255.8-176.2-255.5-177.1z M-263-180.8h7.5
			c-0.1-1.1-0.4-2-0.9-2.6c-0.7-0.9-1.7-1.3-2.8-1.3c-1,0-1.9,0.4-2.6,1.1S-262.9-182-263-180.8z"/>
		<path class="st8" d="M-241.4-177.7l2.2,0.3c-0.2,1.5-0.9,2.8-1.9,3.6c-1,0.9-2.3,1.3-3.7,1.3c-1.8,0-3.3-0.6-4.4-1.8
			c-1.1-1.2-1.7-2.9-1.7-5.2c0-1.5,0.2-2.7,0.7-3.8s1.2-1.9,2.2-2.5c1-0.5,2.1-0.8,3.2-0.8c1.5,0,2.7,0.4,3.6,1.1
			c0.9,0.7,1.5,1.8,1.8,3.2l-2.2,0.3c-0.2-0.9-0.6-1.6-1.1-2s-1.2-0.7-1.9-0.7c-1.2,0-2.1,0.4-2.8,1.2c-0.7,0.8-1.1,2.1-1.1,3.9
			c0,1.8,0.3,3.1,1,3.9s1.6,1.2,2.7,1.2c0.9,0,1.6-0.3,2.2-0.8S-241.6-176.6-241.4-177.7z"/>
		<path class="st8" d="M-235.7-167.3h-1.6c2.5-4.1,3.8-8.1,3.8-12.2c0-1.6-0.2-3.2-0.5-4.7c-0.3-1.3-0.7-2.5-1.2-3.7
			c-0.3-0.8-1-2-2-3.8h1.6c1.6,2.1,2.8,4.3,3.5,6.4c0.7,1.8,1,3.8,1,5.8c0,2.3-0.4,4.5-1.3,6.6S-234.5-168.9-235.7-167.3z"/>
	</g>
</g>
<g transform="translate(737.0001,416.8667)">
	<g class="st1">
		<path class="st8" d="M-325.5-83.1v-18.6h2.5v18.6H-325.5z"/>
		<path class="st8" d="M-319-83.1v-13.5h2v1.9c0.4-0.7,1-1.2,1.7-1.6c0.7-0.4,1.5-0.6,2.4-0.6c1,0,1.8,0.2,2.5,0.6
			c0.6,0.4,1.1,1,1.4,1.7c1.1-1.6,2.5-2.4,4.2-2.4c1.3,0,2.4,0.4,3.1,1.1c0.7,0.7,1.1,1.9,1.1,3.4v9.3h-2.3v-8.5
			c0-0.9-0.1-1.6-0.2-2c-0.1-0.4-0.4-0.7-0.8-1c-0.4-0.2-0.8-0.4-1.4-0.4c-0.9,0-1.7,0.3-2.4,0.9c-0.6,0.6-0.9,1.6-0.9,3v7.8h-2.3
			v-8.8c0-1-0.2-1.8-0.6-2.3c-0.4-0.5-1-0.8-1.8-0.8c-0.6,0-1.2,0.2-1.8,0.5s-0.9,0.8-1.2,1.5c-0.2,0.7-0.4,1.6-0.4,2.8v7H-319z"/>
		<path class="st8" d="M-288.5-84.8c-0.8,0.7-1.7,1.2-2.4,1.5c-0.8,0.3-1.6,0.4-2.5,0.4c-1.5,0-2.6-0.4-3.4-1.1
			c-0.8-0.7-1.2-1.6-1.2-2.8c0-0.7,0.2-1.3,0.5-1.8c0.3-0.5,0.7-1,1.2-1.3c0.5-0.3,1-0.6,1.6-0.7c0.4-0.1,1.1-0.2,2-0.3
			c1.8-0.2,3.2-0.5,4.1-0.8c0-0.3,0-0.5,0-0.6c0-0.9-0.2-1.6-0.6-2c-0.6-0.5-1.5-0.8-2.6-0.8c-1.1,0-1.9,0.2-2.4,0.6
			c-0.5,0.4-0.9,1-1.1,2l-2.2-0.3c0.2-1,0.5-1.7,1-2.3c0.5-0.6,1.1-1,2-1.4c0.9-0.3,1.9-0.5,3.1-0.5c1.2,0,2.1,0.1,2.8,0.4
			c0.7,0.3,1.2,0.6,1.6,1c0.3,0.4,0.6,0.9,0.7,1.6c0.1,0.4,0.1,1.1,0.1,2.1v3c0,2.1,0,3.5,0.1,4c0.1,0.6,0.3,1.1,0.6,1.6h-2.4
			C-288.3-83.6-288.4-84.2-288.5-84.8z M-288.7-89.9c-0.8,0.3-2.1,0.6-3.7,0.9c-0.9,0.1-1.6,0.3-2,0.5c-0.4,0.2-0.7,0.4-0.9,0.7
			c-0.2,0.3-0.3,0.7-0.3,1.1c0,0.6,0.2,1.1,0.7,1.5c0.5,0.4,1.1,0.6,2,0.6c0.9,0,1.7-0.2,2.3-0.6c0.7-0.4,1.2-0.9,1.5-1.6
			c0.2-0.5,0.4-1.3,0.4-2.3V-89.9z"/>
		<path class="st8" d="M-283.3-82l2.2,0.3c0.1,0.7,0.4,1.2,0.8,1.5c0.6,0.4,1.3,0.6,2.3,0.6c1.1,0,1.9-0.2,2.5-0.6
			c0.6-0.4,1-1,1.2-1.8c0.1-0.5,0.2-1.4,0.2-2.9c-1,1.2-2.2,1.8-3.7,1.8c-1.9,0-3.3-0.7-4.3-2s-1.5-2.9-1.5-4.8
			c0-1.3,0.2-2.5,0.7-3.6c0.5-1.1,1.1-1.9,2-2.5c0.9-0.6,1.9-0.9,3.1-0.9c1.6,0,2.9,0.6,3.9,1.9v-1.6h2.1V-85c0,2.1-0.2,3.6-0.6,4.5
			c-0.4,0.9-1.1,1.6-2,2.1s-2.1,0.8-3.4,0.8c-1.6,0-2.9-0.4-3.9-1.1C-282.8-79.5-283.3-80.6-283.3-82z M-281.4-90.1
			c0,1.8,0.4,3.1,1.1,3.9c0.7,0.8,1.6,1.2,2.6,1.2c1,0,1.9-0.4,2.6-1.2c0.7-0.8,1.1-2.1,1.1-3.8c0-1.7-0.4-2.9-1.1-3.7
			c-0.7-0.8-1.6-1.3-2.6-1.3c-1,0-1.9,0.4-2.6,1.2C-281-93-281.4-91.7-281.4-90.1z"/>
		<path class="st8" d="M-259.1-87.5l2.4,0.3c-0.4,1.4-1.1,2.5-2.1,3.2c-1,0.8-2.3,1.1-3.9,1.1c-2,0-3.5-0.6-4.7-1.8
			c-1.2-1.2-1.7-2.9-1.7-5.1c0-2.3,0.6-4,1.8-5.3s2.7-1.9,4.5-1.9c1.8,0,3.3,0.6,4.4,1.8s1.7,3,1.7,5.2c0,0.1,0,0.3,0,0.6h-10.1
			c0.1,1.5,0.5,2.6,1.3,3.4c0.8,0.8,1.7,1.2,2.8,1.2c0.8,0,1.6-0.2,2.1-0.7C-260-85.8-259.5-86.5-259.1-87.5z M-266.7-91.2h7.5
			c-0.1-1.1-0.4-2-0.9-2.6c-0.7-0.9-1.7-1.3-2.8-1.3c-1,0-1.9,0.4-2.6,1.1C-266.2-93.3-266.6-92.3-266.7-91.2z"/>
		<path class="st8" d="M-246.7-78v-18.6h2.1v1.8c0.5-0.7,1-1.2,1.7-1.5c0.6-0.3,1.4-0.5,2.2-0.5c1.2,0,2.2,0.3,3,0.9
			c0.9,0.6,1.5,1.4,2,2.5c0.4,1.1,0.7,2.3,0.7,3.5c0,1.4-0.2,2.6-0.7,3.7c-0.5,1.1-1.2,2-2.2,2.5c-0.9,0.6-1.9,0.9-3,0.9
			c-0.8,0-1.4-0.2-2-0.5c-0.6-0.3-1.1-0.7-1.5-1.2v6.6H-246.7z M-244.6-89.8c0,1.7,0.4,3,1.1,3.8c0.7,0.8,1.6,1.2,2.6,1.2
			c1,0,1.9-0.4,2.6-1.3c0.7-0.9,1.1-2.2,1.1-4c0-1.7-0.4-3-1.1-3.9c-0.7-0.9-1.6-1.3-2.5-1.3c-1,0-1.8,0.5-2.6,1.4
			C-244.3-92.8-244.6-91.5-244.6-89.8z"/>
		<path class="st8" d="M-232.3-83.1v-13.5h2.1v2c0.5-1,1-1.6,1.5-1.9s0.9-0.5,1.5-0.5c0.8,0,1.6,0.2,2.3,0.7l-0.8,2.1
			c-0.6-0.3-1.1-0.5-1.7-0.5c-0.5,0-0.9,0.2-1.3,0.5c-0.4,0.3-0.7,0.7-0.9,1.2c-0.3,0.8-0.4,1.7-0.4,2.7v7.1H-232.3z"/>
		<path class="st8" d="M-214.3-87.5l2.4,0.3c-0.4,1.4-1.1,2.5-2.1,3.2c-1,0.8-2.3,1.1-3.9,1.1c-2,0-3.5-0.6-4.7-1.8
			c-1.2-1.2-1.7-2.9-1.7-5.1c0-2.3,0.6-4,1.8-5.3s2.7-1.9,4.5-1.9c1.8,0,3.3,0.6,4.4,1.8s1.7,3,1.7,5.2c0,0.1,0,0.3,0,0.6H-222
			c0.1,1.5,0.5,2.6,1.3,3.4c0.8,0.8,1.7,1.2,2.8,1.2c0.8,0,1.6-0.2,2.1-0.7C-215.2-85.8-214.7-86.5-214.3-87.5z M-221.9-91.2h7.5
			c-0.1-1.1-0.4-2-0.9-2.6c-0.7-0.9-1.7-1.3-2.8-1.3c-1,0-1.9,0.4-2.6,1.1C-221.4-93.3-221.8-92.3-221.9-91.2z"/>
		<path class="st8" d="M-210-87.1l2.3-0.4c0.1,0.9,0.5,1.6,1.1,2.1c0.6,0.5,1.4,0.7,2.4,0.7c1,0,1.8-0.2,2.3-0.6
			c0.5-0.4,0.8-0.9,0.8-1.5c0-0.5-0.2-0.9-0.7-1.2c-0.3-0.2-1.1-0.5-2.3-0.8c-1.7-0.4-2.8-0.8-3.5-1.1c-0.6-0.3-1.1-0.7-1.5-1.3
			c-0.3-0.5-0.5-1.1-0.5-1.8c0-0.6,0.1-1.2,0.4-1.7c0.3-0.5,0.6-0.9,1.1-1.3c0.4-0.3,0.8-0.5,1.5-0.7c0.6-0.2,1.3-0.3,2-0.3
			c1.1,0,2,0.2,2.8,0.5s1.4,0.7,1.8,1.2c0.4,0.5,0.6,1.2,0.8,2.1l-2.2,0.3c-0.1-0.7-0.4-1.2-0.9-1.6c-0.5-0.4-1.2-0.6-2.1-0.6
			c-1,0-1.8,0.2-2.2,0.5c-0.4,0.3-0.7,0.8-0.7,1.2c0,0.3,0.1,0.6,0.3,0.8c0.2,0.2,0.5,0.4,0.9,0.6c0.2,0.1,0.9,0.3,2,0.6
			c1.6,0.4,2.7,0.8,3.4,1.1c0.6,0.3,1.1,0.7,1.5,1.2c0.4,0.5,0.5,1.2,0.5,2c0,0.8-0.2,1.5-0.7,2.2c-0.4,0.7-1.1,1.2-1.9,1.6
			c-0.8,0.4-1.8,0.6-2.8,0.6c-1.8,0-3.1-0.4-4-1.1C-209.2-84.6-209.8-85.7-210-87.1z"/>
		<path class="st8" d="M-186.9-87.5l2.4,0.3c-0.4,1.4-1.1,2.5-2.1,3.2c-1,0.8-2.3,1.1-3.9,1.1c-2,0-3.5-0.6-4.7-1.8
			c-1.2-1.2-1.7-2.9-1.7-5.1c0-2.3,0.6-4,1.8-5.3s2.7-1.9,4.5-1.9c1.8,0,3.3,0.6,4.4,1.8s1.7,3,1.7,5.2c0,0.1,0,0.3,0,0.6h-10.1
			c0.1,1.5,0.5,2.6,1.3,3.4c0.8,0.8,1.7,1.2,2.8,1.2c0.8,0,1.6-0.2,2.1-0.7C-187.7-85.8-187.2-86.5-186.9-87.5z M-194.4-91.2h7.5
			c-0.1-1.1-0.4-2-0.9-2.6c-0.7-0.9-1.7-1.3-2.8-1.3c-1,0-1.9,0.4-2.6,1.1C-193.9-93.3-194.3-92.3-194.4-91.2z"/>
		<path class="st8" d="M-181.7-83.1v-13.5h2.1v1.9c1-1.5,2.4-2.2,4.3-2.2c0.8,0,1.6,0.1,2.2,0.4c0.7,0.3,1.2,0.7,1.5,1.1
			c0.3,0.5,0.6,1,0.7,1.7c0.1,0.4,0.1,1.2,0.1,2.2v8.3h-2.3v-8.2c0-0.9-0.1-1.6-0.3-2.1c-0.2-0.5-0.5-0.8-0.9-1.1
			c-0.5-0.3-1-0.4-1.6-0.4c-1,0-1.8,0.3-2.5,0.9c-0.7,0.6-1.1,1.8-1.1,3.5v7.4H-181.7z"/>
		<path class="st8" d="M-162.2-85.2l0.3,2c-0.6,0.1-1.2,0.2-1.7,0.2c-0.8,0-1.5-0.1-1.9-0.4s-0.8-0.6-1-1c-0.2-0.4-0.3-1.3-0.3-2.7
			v-7.8h-1.7v-1.8h1.7v-3.3l2.3-1.4v4.7h2.3v1.8h-2.3v7.9c0,0.7,0,1.1,0.1,1.3c0.1,0.2,0.2,0.3,0.4,0.4c0.2,0.1,0.4,0.2,0.8,0.2
			C-163-85.1-162.6-85.1-162.2-85.2z"/>
		<path class="st8" d="M-151.2-84.8c-0.8,0.7-1.7,1.2-2.4,1.5c-0.8,0.3-1.6,0.4-2.5,0.4c-1.5,0-2.6-0.4-3.4-1.1
			c-0.8-0.7-1.2-1.6-1.2-2.8c0-0.7,0.2-1.3,0.5-1.8c0.3-0.5,0.7-1,1.2-1.3c0.5-0.3,1-0.6,1.6-0.7c0.4-0.1,1.1-0.2,2-0.3
			c1.8-0.2,3.2-0.5,4.1-0.8c0-0.3,0-0.5,0-0.6c0-0.9-0.2-1.6-0.6-2c-0.6-0.5-1.5-0.8-2.6-0.8c-1.1,0-1.9,0.2-2.4,0.6
			c-0.5,0.4-0.9,1-1.1,2l-2.2-0.3c0.2-1,0.5-1.7,1-2.3c0.5-0.6,1.1-1,2-1.4c0.9-0.3,1.9-0.5,3.1-0.5c1.2,0,2.1,0.1,2.8,0.4
			c0.7,0.3,1.2,0.6,1.6,1c0.3,0.4,0.6,0.9,0.7,1.6c0.1,0.4,0.1,1.1,0.1,2.1v3c0,2.1,0,3.5,0.1,4c0.1,0.6,0.3,1.1,0.6,1.6h-2.4
			C-151-83.6-151.1-84.2-151.2-84.8z M-151.4-89.9c-0.8,0.3-2.1,0.6-3.7,0.9c-0.9,0.1-1.6,0.3-2,0.5c-0.4,0.2-0.7,0.4-0.9,0.7
			c-0.2,0.3-0.3,0.7-0.3,1.1c0,0.6,0.2,1.1,0.7,1.5c0.5,0.4,1.1,0.6,2,0.6c0.9,0,1.7-0.2,2.3-0.6c0.7-0.4,1.2-0.9,1.5-1.6
			c0.2-0.5,0.4-1.3,0.4-2.3V-89.9z"/>
		<path class="st8" d="M-140.5-85.2l0.3,2c-0.6,0.1-1.2,0.2-1.7,0.2c-0.8,0-1.5-0.1-1.9-0.4s-0.8-0.6-1-1c-0.2-0.4-0.3-1.3-0.3-2.7
			v-7.8h-1.7v-1.8h1.7v-3.3l2.3-1.4v4.7h2.3v1.8h-2.3v7.9c0,0.7,0,1.1,0.1,1.3c0.1,0.2,0.2,0.3,0.4,0.4c0.2,0.1,0.4,0.2,0.8,0.2
			C-141.3-85.1-140.9-85.1-140.5-85.2z"/>
		<path class="st8" d="M-138.3-99.1v-2.6h2.3v2.6H-138.3z M-138.3-83.1v-13.5h2.3v13.5H-138.3z"/>
		<path class="st8" d="M-133.4-89.9c0-2.5,0.7-4.3,2.1-5.5c1.2-1,2.6-1.5,4.2-1.5c1.9,0,3.4,0.6,4.5,1.8c1.2,1.2,1.8,2.9,1.8,5
			c0,1.7-0.3,3.1-0.8,4.1c-0.5,1-1.3,1.8-2.3,2.3c-1,0.5-2.1,0.8-3.3,0.8c-1.9,0-3.4-0.6-4.6-1.8C-132.8-85.8-133.4-87.6-133.4-89.9
			z M-131-89.9c0,1.7,0.4,3,1.1,3.9c0.8,0.9,1.7,1.3,2.8,1.3c1.1,0,2.1-0.4,2.8-1.3c0.8-0.9,1.1-2.2,1.1-3.9c0-1.7-0.4-2.9-1.1-3.8
			c-0.8-0.9-1.7-1.3-2.8-1.3c-1.1,0-2.1,0.4-2.8,1.3C-130.6-92.9-131-91.6-131-89.9z"/>
		<path class="st8" d="M-118.1-83.1v-13.5h2.1v1.9c1-1.5,2.4-2.2,4.3-2.2c0.8,0,1.6,0.1,2.2,0.4c0.7,0.3,1.2,0.7,1.5,1.1
			c0.3,0.5,0.6,1,0.7,1.7c0.1,0.4,0.1,1.2,0.1,2.2v8.3h-2.3v-8.2c0-0.9-0.1-1.6-0.3-2.1c-0.2-0.5-0.5-0.8-0.9-1.1
			c-0.5-0.3-1-0.4-1.6-0.4c-1,0-1.8,0.3-2.5,0.9c-0.7,0.6-1.1,1.8-1.1,3.5v7.4H-118.1z"/>
		<path class="st8" d="M-250.2-46.5c-1.3-1.6-2.3-3.5-3.2-5.6c-0.9-2.1-1.3-4.3-1.3-6.6c0-2,0.3-3.9,1-5.8c0.8-2.1,1.9-4.3,3.5-6.4
			h1.6c-1,1.8-1.7,3-2,3.8c-0.5,1.2-0.9,2.4-1.2,3.7c-0.4,1.6-0.5,3.2-0.5,4.8c0,4.1,1.3,8.1,3.8,12.2H-250.2z"/>
		<path class="st8" d="M-246.6-56.8l2.3-0.3c0.3,1.3,0.7,2.2,1.3,2.8c0.6,0.6,1.4,0.9,2.3,0.9c1.1,0,2-0.4,2.7-1.1
			c0.7-0.7,1.1-1.7,1.1-2.8c0-1-0.3-1.9-1-2.6c-0.7-0.7-1.6-1-2.6-1c-0.4,0-1,0.1-1.6,0.3l0.3-2c0.2,0,0.3,0,0.4,0
			c1,0,1.8-0.3,2.6-0.8c0.8-0.5,1.2-1.3,1.2-2.3c0-0.8-0.3-1.5-0.9-2.1c-0.6-0.5-1.3-0.8-2.2-0.8c-0.9,0-1.6,0.3-2.2,0.8
			c-0.6,0.6-1,1.4-1.1,2.5l-2.3-0.4c0.3-1.5,0.9-2.7,1.9-3.6c1-0.8,2.2-1.3,3.7-1.3c1,0,2,0.2,2.8,0.7c0.9,0.4,1.5,1,2,1.8
			c0.5,0.8,0.7,1.6,0.7,2.4c0,0.8-0.2,1.5-0.6,2.2s-1.1,1.2-1.9,1.6c1.1,0.3,2,0.8,2.6,1.6c0.6,0.8,0.9,1.8,0.9,3
			c0,1.6-0.6,3-1.8,4.1c-1.2,1.1-2.7,1.7-4.5,1.7c-1.6,0-3-0.5-4.1-1.5S-246.4-55.3-246.6-56.8z"/>
		<path class="st8" d="M-225.2-55.9l2.3-0.4c0.1,0.9,0.5,1.6,1.1,2.1c0.6,0.5,1.4,0.7,2.4,0.7c1,0,1.8-0.2,2.3-0.6
			c0.5-0.4,0.8-0.9,0.8-1.5c0-0.5-0.2-0.9-0.7-1.2c-0.3-0.2-1.1-0.5-2.3-0.8c-1.7-0.4-2.8-0.8-3.5-1.1c-0.6-0.3-1.1-0.7-1.5-1.3
			c-0.3-0.5-0.5-1.1-0.5-1.8c0-0.6,0.1-1.2,0.4-1.7c0.3-0.5,0.6-0.9,1.1-1.3c0.4-0.3,0.8-0.5,1.5-0.7c0.6-0.2,1.3-0.3,2-0.3
			c1.1,0,2,0.2,2.8,0.5s1.4,0.7,1.8,1.2c0.4,0.5,0.6,1.2,0.8,2.1l-2.2,0.3c-0.1-0.7-0.4-1.2-0.9-1.6c-0.5-0.4-1.2-0.6-2.1-0.6
			c-1,0-1.8,0.2-2.2,0.5c-0.4,0.3-0.7,0.8-0.7,1.2c0,0.3,0.1,0.6,0.3,0.8c0.2,0.2,0.5,0.4,0.9,0.6c0.2,0.1,0.9,0.3,2,0.6
			c1.6,0.4,2.7,0.8,3.4,1.1c0.6,0.3,1.1,0.7,1.5,1.2c0.4,0.5,0.5,1.2,0.5,2c0,0.8-0.2,1.5-0.7,2.2c-0.4,0.7-1.1,1.2-1.9,1.6
			c-0.8,0.4-1.8,0.6-2.8,0.6c-1.8,0-3.1-0.4-4-1.1C-224.3-53.4-224.9-54.5-225.2-55.9z"/>
		<path class="st8" d="M-202-56.3l2.4,0.3c-0.4,1.4-1.1,2.5-2.1,3.2c-1,0.8-2.3,1.1-3.9,1.1c-2,0-3.5-0.6-4.7-1.8
			c-1.2-1.2-1.7-2.9-1.7-5.1c0-2.3,0.6-4,1.8-5.3s2.7-1.9,4.5-1.9c1.8,0,3.3,0.6,4.4,1.8s1.7,3,1.7,5.2c0,0.1,0,0.3,0,0.6h-10.1
			c0.1,1.5,0.5,2.6,1.3,3.4c0.8,0.8,1.7,1.2,2.8,1.2c0.8,0,1.6-0.2,2.1-0.7C-202.9-54.6-202.4-55.3-202-56.3z M-209.5-60h7.5
			c-0.1-1.1-0.4-2-0.9-2.6c-0.7-0.9-1.7-1.3-2.8-1.3c-1,0-1.9,0.4-2.6,1.1C-209.1-62.1-209.5-61.1-209.5-60z"/>
		<path class="st8" d="M-188-56.9l2.2,0.3c-0.2,1.5-0.9,2.8-1.9,3.6c-1,0.9-2.3,1.3-3.7,1.3c-1.8,0-3.3-0.6-4.4-1.8
			c-1.1-1.2-1.7-2.9-1.7-5.2c0-1.5,0.2-2.7,0.7-3.8s1.2-1.9,2.2-2.5c1-0.5,2.1-0.8,3.2-0.8c1.5,0,2.7,0.4,3.6,1.1
			c0.9,0.7,1.5,1.8,1.8,3.2l-2.2,0.3c-0.2-0.9-0.6-1.6-1.1-2c-0.5-0.5-1.2-0.7-1.9-0.7c-1.2,0-2.1,0.4-2.8,1.2
			c-0.7,0.8-1.1,2.1-1.1,3.9c0,1.8,0.3,3.1,1,3.9c0.7,0.8,1.6,1.2,2.7,1.2c0.9,0,1.6-0.3,2.2-0.8C-188.6-54.9-188.2-55.7-188-56.9z"
			/>
		<path class="st8" d="M-182.3-46.5h-1.6c2.5-4.1,3.8-8.1,3.8-12.2c0-1.6-0.2-3.2-0.5-4.7c-0.3-1.3-0.7-2.5-1.2-3.7
			c-0.3-0.8-1-2-2-3.8h1.6c1.6,2.1,2.8,4.3,3.5,6.4c0.7,1.8,1,3.8,1,5.8c0,2.3-0.4,4.5-1.3,6.6S-181.1-48-182.3-46.5z"/>
	</g>
</g>
<circle class="st14" cx="311.8" cy="432.9" r="4.2"/>
<g transform="translate(737.0001,416.8667)">
	<g class="st1">
		<path class="st8" d="M-217.5,95V76.4h3.7l4.4,13.2c0.4,1.2,0.7,2.1,0.9,2.8c0.2-0.7,0.5-1.7,1-3l4.5-12.9h3.3V95h-2.4V79.4
			l-5.4,15.6h-2.2l-5.4-15.8V95H-217.5z"/>
		<path class="st8" d="M-186.8,90.7l2.4,0.3c-0.4,1.4-1.1,2.5-2.1,3.2s-2.3,1.1-3.9,1.1c-2,0-3.5-0.6-4.7-1.8
			c-1.2-1.2-1.7-2.9-1.7-5.1c0-2.3,0.6-4,1.8-5.3s2.7-1.9,4.5-1.9c1.8,0,3.3,0.6,4.4,1.8s1.7,3,1.7,5.2c0,0.1,0,0.3,0,0.6h-10.1
			c0.1,1.5,0.5,2.6,1.3,3.4s1.7,1.2,2.8,1.2c0.8,0,1.6-0.2,2.1-0.7S-187.2,91.6-186.8,90.7z M-194.3,87h7.5c-0.1-1.1-0.4-2-0.9-2.6
			c-0.7-0.9-1.7-1.3-2.8-1.3c-1,0-1.9,0.4-2.6,1.1S-194.3,85.8-194.3,87z"/>
		<path class="st8" d="M-181.6,95V81.5h2v1.9c0.4-0.7,1-1.2,1.7-1.6c0.7-0.4,1.5-0.6,2.4-0.6c1,0,1.8,0.2,2.5,0.6s1.1,1,1.4,1.7
			c1.1-1.6,2.5-2.4,4.2-2.4c1.3,0,2.4,0.4,3.1,1.1c0.7,0.7,1.1,1.9,1.1,3.4V95h-2.3v-8.5c0-0.9-0.1-1.6-0.2-2
			c-0.1-0.4-0.4-0.7-0.8-1s-0.8-0.4-1.4-0.4c-0.9,0-1.7,0.3-2.4,0.9c-0.6,0.6-0.9,1.6-0.9,3V95h-2.3v-8.8c0-1-0.2-1.8-0.6-2.3
			s-1-0.8-1.8-0.8c-0.6,0-1.2,0.2-1.8,0.5s-0.9,0.8-1.2,1.5s-0.4,1.6-0.4,2.8v7H-181.6z"/>
		<path class="st8" d="M-160.8,88.3c0-2.5,0.7-4.3,2.1-5.5c1.2-1,2.6-1.5,4.2-1.5c1.9,0,3.4,0.6,4.5,1.8c1.2,1.2,1.8,2.9,1.8,5
			c0,1.7-0.3,3.1-0.8,4.1c-0.5,1-1.3,1.8-2.3,2.3s-2.1,0.8-3.3,0.8c-1.9,0-3.4-0.6-4.6-1.8S-160.8,90.6-160.8,88.3z M-158.5,88.3
			c0,1.7,0.4,3,1.1,3.9c0.8,0.9,1.7,1.3,2.8,1.3c1.1,0,2.1-0.4,2.8-1.3s1.1-2.2,1.1-3.9c0-1.7-0.4-2.9-1.1-3.8
			c-0.8-0.9-1.7-1.3-2.8-1.3c-1.1,0-2.1,0.4-2.8,1.3S-158.5,86.6-158.5,88.3z"/>
		<path class="st8" d="M-145.5,95V81.5h2.1v2c0.5-1,1-1.6,1.5-1.9s0.9-0.5,1.5-0.5c0.8,0,1.6,0.2,2.3,0.7l-0.8,2.1
			c-0.6-0.3-1.1-0.5-1.7-0.5c-0.5,0-0.9,0.2-1.3,0.5c-0.4,0.3-0.7,0.7-0.9,1.2c-0.3,0.8-0.4,1.7-0.4,2.7V95H-145.5z"/>
		<path class="st8" d="M-136.9,100.2l-0.3-2.1c0.5,0.1,0.9,0.2,1.3,0.2c0.5,0,0.9-0.1,1.2-0.3s0.6-0.4,0.7-0.7
			c0.1-0.2,0.4-0.8,0.7-1.7c0-0.1,0.1-0.3,0.2-0.6l-5.1-13.5h2.5l2.8,7.8c0.4,1,0.7,2,1,3.1c0.3-1,0.6-2.1,0.9-3.1l2.9-7.9h2.3
			l-5.1,13.7c-0.6,1.5-1,2.5-1.3,3.1c-0.4,0.8-0.9,1.3-1.4,1.7c-0.5,0.4-1.2,0.5-1.9,0.5C-135.9,100.5-136.4,100.4-136.9,100.2z"/>
		<path class="st8" d="M-111.6,93l0.3,2c-0.6,0.1-1.2,0.2-1.7,0.2c-0.8,0-1.5-0.1-1.9-0.4s-0.8-0.6-1-1c-0.2-0.4-0.3-1.3-0.3-2.7
			v-7.8h-1.7v-1.8h1.7v-3.3l2.3-1.4v4.7h2.3v1.8h-2.3v7.9c0,0.7,0,1.1,0.1,1.3s0.2,0.3,0.4,0.4s0.4,0.2,0.8,0.2
			C-112.4,93.1-112,93-111.6,93z"/>
		<path class="st8" d="M-100.2,90.7l2.4,0.3c-0.4,1.4-1.1,2.5-2.1,3.2s-2.3,1.1-3.9,1.1c-2,0-3.5-0.6-4.7-1.8
			c-1.2-1.2-1.7-2.9-1.7-5.1c0-2.3,0.6-4,1.8-5.3s2.7-1.9,4.5-1.9c1.8,0,3.3,0.6,4.4,1.8s1.7,3,1.7,5.2c0,0.1,0,0.3,0,0.6h-10.1
			c0.1,1.5,0.5,2.6,1.3,3.4s1.7,1.2,2.8,1.2c0.8,0,1.6-0.2,2.1-0.7S-100.5,91.6-100.2,90.7z M-107.7,87h7.5c-0.1-1.1-0.4-2-0.9-2.6
			c-0.7-0.9-1.7-1.3-2.8-1.3c-1,0-1.9,0.4-2.6,1.1S-107.6,85.8-107.7,87z"/>
		<path class="st8" d="M-95.8,91l2.3-0.4c0.1,0.9,0.5,1.6,1.1,2.1s1.4,0.7,2.4,0.7c1,0,1.8-0.2,2.3-0.6c0.5-0.4,0.8-0.9,0.8-1.5
			c0-0.5-0.2-0.9-0.7-1.2c-0.3-0.2-1.1-0.5-2.3-0.8c-1.7-0.4-2.8-0.8-3.5-1.1c-0.6-0.3-1.1-0.7-1.5-1.3c-0.3-0.5-0.5-1.1-0.5-1.8
			c0-0.6,0.1-1.2,0.4-1.7c0.3-0.5,0.6-0.9,1.1-1.3c0.4-0.3,0.8-0.5,1.5-0.7c0.6-0.2,1.3-0.3,2-0.3c1.1,0,2,0.2,2.8,0.5
			s1.4,0.7,1.8,1.2c0.4,0.5,0.6,1.2,0.8,2.1l-2.2,0.3c-0.1-0.7-0.4-1.2-0.9-1.6s-1.2-0.6-2.1-0.6c-1,0-1.8,0.2-2.2,0.5
			s-0.7,0.8-0.7,1.2c0,0.3,0.1,0.6,0.3,0.8c0.2,0.2,0.5,0.4,0.9,0.6c0.2,0.1,0.9,0.3,2,0.6c1.6,0.4,2.7,0.8,3.4,1.1
			c0.6,0.3,1.1,0.7,1.5,1.2s0.5,1.2,0.5,2c0,0.8-0.2,1.5-0.7,2.2c-0.4,0.7-1.1,1.2-1.9,1.6c-0.8,0.4-1.8,0.6-2.8,0.6
			c-1.8,0-3.1-0.4-4-1.1S-95.6,92.4-95.8,91z"/>
		<path class="st8" d="M-76.9,93l0.3,2c-0.6,0.1-1.2,0.2-1.7,0.2c-0.8,0-1.5-0.1-1.9-0.4s-0.8-0.6-1-1c-0.2-0.4-0.3-1.3-0.3-2.7
			v-7.8h-1.7v-1.8h1.7v-3.3l2.3-1.4v4.7h2.3v1.8h-2.3v7.9c0,0.7,0,1.1,0.1,1.3s0.2,0.3,0.4,0.4s0.4,0.2,0.8,0.2
			C-77.7,93.1-77.4,93-76.9,93z"/>
		<path class="st8" d="M-181.6,131.7c-1.3-1.6-2.3-3.5-3.2-5.6s-1.3-4.3-1.3-6.6c0-2,0.3-3.9,1-5.8c0.8-2.1,1.9-4.3,3.5-6.4h1.6
			c-1,1.8-1.7,3-2,3.8c-0.5,1.2-0.9,2.4-1.2,3.7c-0.4,1.6-0.5,3.2-0.5,4.8c0,4.1,1.3,8.1,3.8,12.2H-181.6z"/>
		<path class="st8" d="M-166.1,112.2l-2.3,0.2c-0.2-0.9-0.5-1.5-0.9-2c-0.6-0.7-1.4-1-2.3-1c-0.7,0-1.4,0.2-1.9,0.6
			c-0.7,0.5-1.3,1.3-1.7,2.3s-0.6,2.4-0.6,4.3c0.6-0.8,1.2-1.5,2-1.9s1.6-0.6,2.5-0.6c1.5,0,2.8,0.6,3.9,1.7
			c1.1,1.1,1.6,2.6,1.6,4.3c0,1.2-0.3,2.3-0.8,3.3c-0.5,1-1.2,1.8-2.1,2.3s-1.9,0.8-3,0.8c-1.9,0-3.5-0.7-4.7-2.1
			c-1.2-1.4-1.8-3.7-1.8-6.9c0-3.6,0.7-6.2,2-7.8c1.2-1.4,2.7-2.1,4.7-2.1c1.5,0,2.7,0.4,3.6,1.2S-166.3,110.7-166.1,112.2z
			 M-175.4,120.2c0,0.8,0.2,1.5,0.5,2.3s0.8,1.3,1.4,1.6c0.6,0.4,1.2,0.6,1.9,0.6c1,0,1.8-0.4,2.5-1.2s1-1.8,1-3.2
			c0-1.3-0.3-2.3-1-3c-0.7-0.7-1.5-1.1-2.6-1.1c-1,0-1.9,0.4-2.6,1.1C-175,118-175.4,119-175.4,120.2z"/>
		<path class="st8" d="M-156.5,122.2l2.3-0.4c0.1,0.9,0.5,1.6,1.1,2.1s1.4,0.7,2.4,0.7c1,0,1.8-0.2,2.3-0.6c0.5-0.4,0.8-0.9,0.8-1.5
			c0-0.5-0.2-0.9-0.7-1.2c-0.3-0.2-1.1-0.5-2.3-0.8c-1.7-0.4-2.8-0.8-3.5-1.1c-0.6-0.3-1.1-0.7-1.5-1.3c-0.3-0.5-0.5-1.1-0.5-1.8
			c0-0.6,0.1-1.2,0.4-1.7c0.3-0.5,0.6-0.9,1.1-1.3c0.4-0.3,0.8-0.5,1.5-0.7c0.6-0.2,1.3-0.3,2-0.3c1.1,0,2,0.2,2.8,0.5
			s1.4,0.7,1.8,1.2c0.4,0.5,0.6,1.2,0.8,2.1l-2.2,0.3c-0.1-0.7-0.4-1.2-0.9-1.6s-1.2-0.6-2.1-0.6c-1,0-1.8,0.2-2.2,0.5
			s-0.7,0.8-0.7,1.2c0,0.3,0.1,0.6,0.3,0.8c0.2,0.2,0.5,0.4,0.9,0.6c0.2,0.1,0.9,0.3,2,0.6c1.6,0.4,2.7,0.8,3.4,1.1
			c0.6,0.3,1.1,0.7,1.5,1.2s0.5,1.2,0.5,2c0,0.8-0.2,1.5-0.7,2.2c-0.4,0.7-1.1,1.2-1.9,1.6c-0.8,0.4-1.8,0.6-2.8,0.6
			c-1.8,0-3.1-0.4-4-1.1S-156.3,123.6-156.5,122.2z"/>
		<path class="st8" d="M-133.4,121.9l2.4,0.3c-0.4,1.4-1.1,2.5-2.1,3.2s-2.3,1.1-3.9,1.1c-2,0-3.5-0.6-4.7-1.8
			c-1.2-1.2-1.7-2.9-1.7-5.1c0-2.3,0.6-4,1.8-5.3s2.7-1.9,4.5-1.9c1.8,0,3.3,0.6,4.4,1.8s1.7,3,1.7,5.2c0,0.1,0,0.3,0,0.6H-141
			c0.1,1.5,0.5,2.6,1.3,3.4s1.7,1.2,2.8,1.2c0.8,0,1.6-0.2,2.1-0.7S-133.7,122.9-133.4,121.9z M-140.9,118.2h7.5
			c-0.1-1.1-0.4-2-0.9-2.6c-0.7-0.9-1.7-1.3-2.8-1.3c-1,0-1.9,0.4-2.6,1.1S-140.8,117-140.9,118.2z"/>
		<path class="st8" d="M-119.3,121.3l2.2,0.3c-0.2,1.5-0.9,2.8-1.9,3.6c-1,0.9-2.3,1.3-3.7,1.3c-1.8,0-3.3-0.6-4.4-1.8
			c-1.1-1.2-1.7-2.9-1.7-5.2c0-1.5,0.2-2.7,0.7-3.8c0.5-1.1,1.2-1.9,2.2-2.5c1-0.5,2.1-0.8,3.2-0.8c1.5,0,2.7,0.4,3.6,1.1
			c0.9,0.7,1.5,1.8,1.8,3.2l-2.2,0.3c-0.2-0.9-0.6-1.6-1.1-2s-1.2-0.7-1.9-0.7c-1.2,0-2.1,0.4-2.8,1.2c-0.7,0.8-1.1,2.1-1.1,3.9
			c0,1.8,0.3,3.1,1,3.9s1.6,1.2,2.7,1.2c0.9,0,1.6-0.3,2.2-0.8S-119.5,122.4-119.3,121.3z"/>
		<path class="st8" d="M-113.6,131.7h-1.6c2.5-4.1,3.8-8.1,3.8-12.2c0-1.6-0.2-3.2-0.5-4.7c-0.3-1.3-0.7-2.5-1.2-3.7
			c-0.3-0.8-1-2-2-3.8h1.6c1.6,2.1,2.8,4.3,3.5,6.4c0.7,1.8,1,3.8,1,5.8c0,2.3-0.4,4.5-1.3,6.6S-112.4,130.1-113.6,131.7z"/>
	</g>
</g>
<g transform="translate(737.0001,416.8667)">
	<g class="st1">
		<path class="st8" d="M-554.4,106.5l4.9-7l-4.6-6.5h2.9l2.1,3.2c0.4,0.6,0.7,1.1,0.9,1.5c0.4-0.6,0.7-1.1,1-1.5l2.3-3.2h2.7
			l-4.7,6.3l5,7.1h-2.8l-2.8-4.2l-0.7-1.1l-3.5,5.3H-554.4z"/>
		<path class="st8" d="M-531.9,106.5h-2.3V92c-0.6,0.5-1.3,1-2.2,1.6s-1.7,0.9-2.4,1.2v-2.2c1.3-0.6,2.4-1.3,3.4-2.2s1.6-1.7,2-2.5
			h1.5V106.5z"/>
		<path class="st8" d="M-526,97.4c0-2.2,0.2-4,0.7-5.3c0.5-1.3,1.1-2.4,2-3.1s2-1.1,3.4-1.1c1,0,1.9,0.2,2.6,0.6
			c0.8,0.4,1.4,1,1.9,1.7c0.5,0.8,0.9,1.7,1.2,2.8c0.3,1.1,0.4,2.6,0.4,4.4c0,2.2-0.2,3.9-0.7,5.3c-0.4,1.3-1.1,2.4-2,3.1
			c-0.9,0.7-2,1.1-3.4,1.1c-1.8,0-3.2-0.6-4.2-1.9C-525.4,103.4-526,100.9-526,97.4z M-523.7,97.4c0,3.1,0.4,5.1,1.1,6.1
			c0.7,1,1.6,1.5,2.6,1.5s1.9-0.5,2.6-1.5s1.1-3,1.1-6.1c0-3.1-0.4-5.1-1.1-6.1s-1.6-1.5-2.7-1.5c-1,0-1.9,0.4-2.5,1.3
			C-523.3,92.2-523.7,94.3-523.7,97.4z"/>
	</g>
</g>
<g transform="translate(737.0007,43.95)">
	<text transform="matrix(1 0 0 1 -688.2045 102.4354)" class="st17 st18">a</text>
</g>
<g transform="translate(737.0007,43.95)">
	<text transform="matrix(1 0 0 1 -35.9171 102.4355)" class="st17 st18">b</text>
</g>
<g transform="translate(737.0007,43.95)">
	<text transform="matrix(1 0 0 1 459.2931 102.4356)" class="st17 st18">c</text>
</g>
</svg>
